<?xml version="1.0" encoding="UTF-8"?>
<svg xmlns="http://www.w3.org/2000/svg" version="1.1" viewBox="0 0 100 100">
  <defs>
    <style>
      .cls-1 {
        fill: #312d28;
      }

      .cls-2 {
        fill: #bc7f47;
      }

      .cls-3 {
        fill: #39322c;
      }

      .cls-4 {
        fill: #d69f61;
      }

      .cls-5 {
        fill: #2e2925;
      }

      .cls-6 {
        fill: #604c36;
      }

      .cls-7 {
        fill: #15191b;
      }

      .cls-8, .cls-9 {
        fill: #fff;
      }

      .cls-10 {
        fill: #8e7655;
      }

      .cls-11 {
        fill: #342f29;
      }

      .cls-12 {
        fill: #edeaf4;
        stroke: #a78bfa;
        stroke-width: 4px;
      }

      .cls-13 {
        fill: #692021;
      }

      .cls-14 {
        fill: #543;
      }

      .cls-15 {
        fill: #cd8f56;
      }

      .cls-16 {
        fill: #6f2826;
      }

      .cls-17 {
        fill: #a31820;
      }

      .cls-9 {
        display: none;
      }

      .cls-18 {
        fill: #755f44;
      }

      .cls-19 {
        fill: #93714f;
      }

      .cls-20 {
        fill: #7c312f;
      }

      .cls-21 {
        fill: #bc915b;
      }

      .cls-22 {
        fill: #a0815a;
      }

      .cls-23 {
        fill: #f3e3d6;
      }

      .cls-24 {
        fill: #b9202a;
      }

      .cls-25 {
        fill: #992128;
      }

      .cls-26 {
        fill: #daa661;
      }

      .cls-27 {
        fill: #b98556;
      }

      .cls-28 {
        fill: #ad7140;
      }

      .cls-29 {
        fill: #d8a662;
      }

      .cls-30 {
        fill: #ba202b;
      }

      .cls-31 {
        fill: #291d1b;
      }

      .cls-32 {
        fill: #d4a362;
      }

      .cls-33 {
        fill: #98131b;
      }

      .cls-34 {
        fill: #0d0e12;
      }

      .cls-35 {
        fill: #15181b;
      }
    </style>
  </defs>
  <!-- Generator: Adobe Illustrator 28.7.9, SVG Export Plug-In . SVG Version: 1.2.0 Build 218)  -->
  <g>
    <g id="Layer_1">
      <circle class="cls-12" cx="50.5" cy="50.3" r="45"/>
      <g id="Layer_1-2" data-name="Layer_1">
        <g>
          <path class="cls-9" d="M24.6,75.9H5V25.3h90v50.6c-5,0-9.9,0-14.9,0,0-.4-.2-.9-.3-1.3-.5-2.4-1.2-4.7-2.1-7-.8-2-1.9-3.8-3.4-5.4-1.2-1.3-2.6-2.4-4-3.4-.4-.3-.9-.6-1.3-.9-.6-.3-1.3-.7-1.9-1h0c0,0-.2-.2-.3-.2-2.2-1.1-4.5-2.3-6.7-3.4-.5-.2-1-.4-1.5-.6-.1,0-.1,0-.1.1,0,.6,0,1.2-.4,1.7-.2.3-.3.6-.5.9-.4.8-1,1.4-1.7,2-.2.2-.6.4-.7.6-.3.4-.7.6-1.1.9-.5.4-1.1.8-1.7,1.1-.1,0-.2,0-.4,0-.5.5-1,.7-1.4.3,0-.2.2-.3.3-.5.2-.3.3-.6.4-.9,0,0,0,0,0,0,.2-.2.4-.3.5-.5.3-.5.6-1.1,1-1.7.2-.4.4-.7.6-1.1,0,0,0-.2,0-.3,0,0,0,0,0,0,0,0,.2,0,.2,0,.1-.4.4-.7.4-1.1h0c.1-.2.3-.5.4-.7.1-.4.2-.8.3-1.2,0,0,0,0,0,0,0-.1.2-.3.2-.4h0c.2-.2.4-.3.5-.5h0c0,0,.1-.1.2-.2h0c0,0,.2.1.2.2,0,.2,0,.4-.2.6-.2.6-.4,1.3-.6,1.9-.3,1-.7,1.9-1.1,2.9,0,.2-.2.5-.3.7,0,0,0,0,.1,0,.4-.9.8-1.8,1.1-2.8.3-.8.6-1.7.9-2.6.2-.5.3-1.1.4-1.6,0,0,.1-.1.2-.2,0,0,0-.1.1-.2,0-.1.1-.2.2-.3h0s0,0,.1,0c0,0,0,0,0,0h0c.2,0,.3.2.4.2,0-.3,0-.6,0-.9h0c0,0,0,0,0-.2.1-.2.3-.4.4-.7.2,0,.4,0,.5,0,2.8.3,5.6.5,8.4.8,3.3.3,6.7.7,10,1,2.2.2,4.5.5,6.7.7,1.7.2,3.5.4,5.2.5.7,0,1-.3.8-.9,0-.4-.2-.7-.3-1.1-.3-1-1-1.6-2.1-1.6-1.5,0-2.9-.3-4.4-.5-2.5-.3-4.9-.5-7.4-.8-1.9-.2-3.7-.4-5.6-.6-1.9-.2-3.8-.4-5.7-.6-2.1-.2-4.3-.4-6.4-.7,0-.2,0-.3,0-.5.5-2.2,1-4.5,1.5-6.7.6-2.7,1.3-5.4,1.9-8.2,0,0-.1,0-.3-.1-1.3-.4-2.6-.9-3.9-1.3-3-.8-6.2-1.3-9.3-1.7-2-.2-3.9-.4-5.9-.3q-.5,0-.6.6l-.6,3c0,.2,0,.3-.3.3-1.1,0-2.1.2-3.1.3-.8,0-1.6.2-2.5.4-.5,0-.5.2-.4.6.2.8.4,1.7.6,2.5.7,3,1.4,6,2,9.1,0,.2-.2.5-.3.7,0,.2-.1.3-.2.4-1.8-.2-3.5-.4-5.2-.5-1.4-.1-2.8-.3-4.3-.5-1.8-.2-3.6-.4-5.4-.6-1.6-.2-3.3-.4-5-.5-2-.2-4-.4-5.9-.7-.5,0-.6,0-.6.6,0,.1,0,.3,0,.4.3.6.6,1.2.9,1.8.3.4.7.7,1.2.7,1.1.1,2.2.2,3.3.4,2.4.3,4.8.5,7.3.8,2.4.3,4.8.5,7.2.8,1.6.2,3.2.3,4.7.5.6,0,1.2.1,1.8.2,0,0,0,0,0,0,0,.2,0,.4,0,.6,0,1.6,0,3.2.2,4.8.2,1.3.4,2.6,1,3.9,0,0,0,0,0,.1-.1.1-.2.3-.3.4,0,0-.1.1-.2.2,0,0,0,0,0,0,.2,0,.4-.2.7-.3h0s0,0,0,0c0,.2.2.3.2.4.2.3.4.6.6.9-.2,0-.3.2-.4.2-1.6.6-3,1.3-4.4,2.3-1.8,1.2-3.3,2.6-4.5,4.5-1.6,2.5-3,5.1-4.1,7.8-.3.8-.6,1.6-1,2.4,0,.2,0,.3-.2.5M53.7,58s0,0,0,0c0,0,0-.1,0-.2,0,0,0,0,0,0Z"/>
          <path class="cls-30" d="M79.9,75.9c-3.9,0-7.8,0-11.8,0,0-.4.3-.8.4-1.2.2-.8.4-1.5.6-2.3.2-1.1.4-2.1.6-3.2.1-.7.2-1.4.3-2.1,0-.2,0-.4,0-.6h-.1c-.3,3.2-.9,6.4-2,9.4-1.9,0-3.7,0-5.6,0,0-.5,0-1,0-1.5,0-1.2.2-2.4.3-3.7,0-.9,0-1.8.1-2.8,0-1.2,0-2.4,0-3.5,0,0,0-.1,0-.2,0,0,0,0,0,.1,0,1.4,0,2.9-.1,4.3v.3c0,1.2-.2,2.4-.3,3.6,0,.3,0,.7,0,1,0,.8-.2,1.6-.2,2.4-8.8,0-17.5,0-26.3,0,0-.5.1-1,.2-1.5.2-1.1.5-2.3.7-3.4.1-.6.2-1.2.4-1.9,0,0,0,0,0,0,.2-.8.4-1.5.6-2.3.2-.8.5-1.5.7-2.3.2-.7.5-1.4.7-2.1.1-.4.2-.8.4-1.2.1-.1.2-.2.4-.3h0v.2s0,0,0,0v.5c0,.1,0,.2,0,.3,0,.2,0,.3,0,.4s0,.3,0,.5c0,.1,0,.2,0,.4,0,.1,0,.2,0,.3,0,.2.2.4.3.7,0,0,0,.2,0,.2,0,0,0,.2,0,.3.2.6.4,1.1.6,1.7h0c0,.2,0,.2,0,.4,0,.5,0,.9,0,1.4h0c-.2.6-.1,1.1-.3,1.5-.2.5-.5,1.1-.7,1.6-.1.3-.2.5-.3.8h0c-.3.2-.5.8-.4,1.1.2-.2.3-.4.4-.6,0,0,0,0,0,0,0,0,0,0,0-.1,0,0,0,0,.1,0,.1,0,.2,0,.4,0,0,0,0,0,0,.1,0,0,0,0,.1,0,0-.2,0-.4.2-.7.2-.2.4-.4.6-.6.4-.3.8-.7,1-1.2.3-.2.4-.5.5-.8h0c.1-.1.2-.3.3-.4.3-.1.2-.2,0-.4,0,0,0,0,0,0,0,0,.2-.2.2-.3.1-.2.2-.5.3-.7,0-.2,0-.4.1-.6,0-.1,0-.2,0-.4,0-.2.2-.4.3-.6h0s0,0,0,0c0,0,0-.1,0-.2,0-.2.1-.3.2-.5,0,0,0,0,0,0,0-.2.2-.3.2-.5,0,0,0-.2,0-.2,0,0,0,0,0-.1h0c.1,0,.2,0,.3,0,.7,0,1.5,0,2.2,0,.6,0,1.1-.2,1.7-.3,0,0,0,0,.2-.1-.2,0-.3,0-.3,0-1,.3-2.1.2-3.1.2-.3,0-.6-.2-.8-.3,0,0,0-.2,0-.2,0-.2,0-.3,0-.5,0,0,0,0,0-.1,0-.2,0-.4.2-.6,0,0,.2-.2.3-.2.7,0,1.4,0,2.1,0,1.2-.1,2.4-.4,3.5-.9,0,0,0,0,.1-.2h0c.3,0,.5,0,.7-.3h0c0,0,0,0,.1,0,2.1-1.1,4-2.6,5.3-4.6.6-.8,1.1-1.7,1.1-2.8.5.1.9.2,1.3.4,1.2.6,2.4,1.2,3.6,1.9.9.4,1.7.8,2.6,1.2.3.1.6.2.8.3h0c.3.2.6.4.9.6.3.2.7.4,1,.6.9.7,1.8,1.3,2.7,2,1.1.8,2.1,1.7,2.9,2.7.5.6,1,1.2,1.5,1.9.8,1.2,1.4,2.6,1.9,4,.6,1.7,1.2,3.5,1.6,5.3.1.6.2,1.3.3,1.9M39.2,73.2s0,0,0,.1h0s0,0,0-.1h0Z"/>
          <path class="cls-24" d="M34,75.9c-3,0-6,0-9,0,0-.2,0-.4,0-.6.2-.5.4-1,.6-1.5.3-.6.5-1.3.8-1.9.5-1,1-2,1.5-3,.4-.7.8-1.5,1.3-2.2.3-.6.7-1.2,1.1-1.8.3-.5.7-.9,1.1-1.4.6-.6,1.2-1.2,1.9-1.8.4-.3.8-.6,1.2-.8.6-.4,1.2-.8,1.8-1.1.6-.3,1.2-.6,1.8-.9.5-.2,1-.4,1.5-.5h0s0,0,0,0c.1.1.3.3.4.4,0,0,0,0,.1.1h0c0,.2.1.3.2.4,0,0,0,0,0,.1-.2.2-.3.3-.4.5-.1.4-.2.7-.4,1.1-.2.4-.3.8-.5,1.2-.3.9-.6,1.8-.9,2.7-.3.8-.5,1.6-.8,2.5-.2.5-.3,1-.4,1.6-.2,1-.5,2-.7,3-.3,1.3-.5,2.6-.7,3.9-.4,0-.7,0-1.1,0,0-1.2,0-2.3.2-3.5,0-.8,0-1.5.1-2.3,0,0,0,0,0-.2,0,.6-.2,1.2-.2,1.8,0,.4,0,.8,0,1.2,0,1-.2,1.9-.2,2.9M34.6,68.8v-.5h0v1.5h0v-.9h0Z"/>
          <path class="cls-16" d="M39.5,58.4c-.5.2-1,.3-1.5.5-.6.3-1.2.5-1.8.9-.6.3-1.2.7-1.8,1.1-.4.3-.8.5-1.2.8-.6.6-1.3,1.2-1.9,1.8-.4.4-.8.9-1.1,1.4-.4.6-.7,1.2-1.1,1.8-.4.7-.9,1.4-1.3,2.2-.5,1-1,2-1.5,3-.3.6-.5,1.3-.8,1.9-.2.5-.4,1-.6,1.5,0,.2,0,.4,0,.6,0,0-.2,0-.3,0,0-.2,0-.3.1-.5.3-.8.6-1.6,1-2.4,1.2-2.7,2.5-5.3,4.1-7.8,1.2-1.8,2.7-3.2,4.5-4.5,1.4-.9,2.9-1.7,4.4-2.3.1,0,.3-.1.4-.2,0,0,.2,0,.2.1h0Z"/>
          <path class="cls-16" d="M79.9,75.9c-.1-.6-.2-1.3-.3-1.9-.4-1.8-.9-3.6-1.6-5.3-.5-1.4-1.1-2.7-1.9-4-.4-.7-1-1.3-1.5-1.9-.9-1-1.9-1.9-2.9-2.7-.9-.7-1.8-1.3-2.7-2h0c.4.2.9.4,1.3.7,1.4,1.1,2.8,2.2,4,3.4,1.5,1.5,2.6,3.4,3.4,5.4.9,2.3,1.6,4.6,2.1,7,0,.4.1.8.2,1.3,0,0,0,0-.2,0h0Z"/>
          <path class="cls-33" d="M62,75.9c0-.8.1-1.6.2-2.4,0-.3,0-.7,0-1,0-1.2.2-2.4.3-3.6v-.3c0-1.4,0-2.9.1-4.3,0,0,0,0,0-.1,0,0,0,.1,0,.2,0,1.2,0,2.4,0,3.5,0,.9,0,1.8-.1,2.8,0,1.2-.2,2.4-.3,3.7,0,.5,0,1,0,1.5,0,0-.1,0-.2,0h0Z"/>
          <path class="cls-17" d="M67.9,75.9c1.1-3,1.6-6.2,2-9.4h.1c0,.2,0,.4,0,.6,0,.7-.1,1.4-.3,2.1-.2,1.1-.4,2.1-.6,3.2-.2.8-.4,1.5-.6,2.3-.1.4-.3.8-.4,1.2,0,0,0,0-.2,0h0s0,0,0,0Z"/>
          <path class="cls-33" d="M35.5,75.9c.2-1.3.5-2.6.7-3.9.2-1,.5-2,.7-3h0c-.1.6-.2,1.2-.3,1.9-.2,1.1-.5,2.3-.7,3.4,0,.5-.2,1-.3,1.5,0,0,0,0-.2,0h0Z"/>
          <path class="cls-17" d="M34,75.9c0-1,.1-1.9.2-2.9,0-.4,0-.8,0-1.2,0-.6,0-1.2.2-1.8,0,0,0,.1,0,.2,0,.8,0,1.5-.1,2.3,0,1.1-.1,2.3-.2,3.5,0,0-.1,0-.2,0h0Z"/>
          <path class="cls-34" d="M37.1,42.5c-.7-3-1.4-6-2-9.1-.2-.8-.4-1.7-.6-2.5-.1-.5,0-.6.4-.6.8-.1,1.6-.3,2.5-.4,1-.1,2.1-.2,3.1-.3.2,0,.3-.1.3-.3l.6-3c0-.4.3-.5.6-.6,2,0,4,.1,5.9.3,3.1.3,6.2.8,9.3,1.7,1.3.4,2.6.8,3.9,1.3,0,0,.2,0,.3.1-.7,2.7-1.3,5.4-1.9,8.2-.5,2.2-1,4.5-1.5,6.7,0,.1,0,.3,0,.5,0,0,0,0,0,0,0,0,0,0-.1,0,0,0,0,0-.1,0-.4-.3-.7-.2-1.2-.2-.5-.2-1-.3-1.5-.5-.5-.1-.9-.3-1.4-.4h-.1c-.3,0-.6-.2-.9-.3-4.1-1.2-8.2-1.7-12.5-1.2-.9,0-1.8.2-2.6.7h-.3,0Z"/>
          <path class="cls-26" d="M39.5,58.5c0,0-.1,0-.2-.2-.2-.3-.4-.6-.6-.9,0-.1-.2-.3-.2-.4,0,0,.1-.1.2-.2.5-.3,1-.6,1.5-.9.2,0,.5,0,.7.2.9.4,1.7.8,2.7.4h0c.6,0,1.1-.3,1.6-.6.3.2.5.4.7.6,0,0,0,0,0,0,.5.7,1.1,1,1.9,1.4,0,0,0-.1,0-.2-.7-.8-1.1-1.7-1.3-2.7-.1-.8-.6-1.5-1.4-1.9,0,0-.1,0-.2,0h0c0-.5-.3-.5-.8-.3,0,0,0,0,0,0,0,0-.1,0-.2,0s0,0,0,0c0,0-.2,0-.3,0s0,0,0,0c0-.1,0-.2,0-.3.4-.3.9-.2,1.4-.2-.1-.2-.3-.3-.4-.4-.5,0-.9,0-1.2.5-.1.2-.2.3-.4.5-.5.3-.9.4-1.5.2h0s0,0,0,0c0,0,0,0,0,0,0,0,0,0,0,0-.5-.3-.7-.7-.6-1.2,0-.7.2-1.3.3-2,.1-.6.3-1.1.5-1.7,0,0,0-.2,0-.2.3-.6.5-1.1.8-1.7,0-.1,0-.3,0-.5h0c-.1.3-.2.6-.4.9-.2-.2-.3-.4-.5-.5-.1-.1-.3-.3-.6,0,0,0,0,0-.1,0,0,0,0,0-.2,0,0,0,0,0,0,0,0-.2-.5-.4-.6-.4-.1,0-.3,0-.3,0-.2-.3-.4-.2-.6-.2-.1,0-.3,0-.5,0-.4,0-.8-.2-1.2-.3,0,0,0,0,0,0,0-.4.2-.6.4-.6.6,0,1.1,0,1.6-.3,0,0,.1,0,.2,0,0,0,.1,0,.2,0s0,0,0,0c0,0,.1,0,.2,0,.2,0,.5.2.7.3,0,0,0,.1,0,.2h.1c0-.1,0-.1,0,0,0,.3.2.4.5.4h0c0,.2.2.2.3,0,.2-.2,0-.7-.2-.8-.4-.2-.7-.3-1.1-.5,0,0,0,0-.1.1,0,0,0,0-.1,0,0,0-.2-.2-.3-.2,0-.4,0-.4-.3-.4-.2,0-.5,0-.7-.2h0c.3-.2.4-.6.8-.5,0,0,.1,0,.2,0,.3,0,.6-.2.8-.1.4.1.7,0,1.1,0s.5-.3.7,0c.2-.1.3-.4.7-.3.3.1.7,0,1.1,0,0,0,.2,0,.3,0,0,0,.1,0,.2,0,.8,0,1.5,0,2.3.1h.9c-.2.3-.5.5-.7.7-.2.2-.4.4-.7.4s-.1,0-.2.2h-.1c-.4,0-.8-.1-1,.2,0,0-.2,0-.2,0-.2,0-.5,0-.7,0-.2,0-.1.1,0,.2h0c0,.4,0,.5,0,.8,0,0,0,.2,0,.3v1.4h.1c0-.5,0-1,0-1.4.4-.4.9-.5,1.4-.3,0-.1,0-.2,0-.2.4,0,.8,0,1.1-.3.4-.3.7-.4,1.2-.4s.8,0,1.2,0h1.4s0,0,0,0c.2.3.4.2.6,0,.2-.2.4-.5.8-.4.1,0,.3-.1.5-.2h0c.2,0,.3,0,.2.2-.2.2-.1.5,0,.7,0,.2,0,.4-.2.4-.3.1-.6.2-1,.3-.4.1-.8.2-1.1.4-.2,0-.3,0-.5,0-.2,0-.5-.2-.6.2,0,0-.2,0-.2,0-.3,0-.6,0-.8,0-.5,0-1,0-1.5-.1-.2,0-.4-.1-.5.2,0,0-.2.2-.3.2-.3,0-.6,0-.9.1-.2.2-.4.4-.5.6,0,0,0,.1.1.2,0,0,.2,0,.2,0,.1.3.3,0,.4,0,.1,0,.2,0,.3,0,.2,0,.3,0,.5,0,.2,0,.5,0,.7,0,0,0,0,0,0,0,0,0,0,0,0,0,.5,0,.9,0,1.3-.3-.1,0-.2,0-.4,0,0,0-.2,0-.2,0,.4,0,.8-.2,1.2-.3.6-.2,1.1-.3,1.6-.5.3-.1.6-.3.9-.4.3,0,.5-.2.7-.3.2,0,.3-.2.5-.3.2-.1.3,0,.3.2,0,.2,0,.4,0,.6,0,.3,0,.6,0,.9,0,0,0,0,0,0v2.3c0,.1-.1.2-.1.3,0,0,0,.2,0,.2,0,0,.2,0,.3,0,.2-.2.3-1.1.1-1.4,0,0,0-.1,0-.2,0,0,.1-.2,0-.2,0,0,0,0,0-.1,0-.3.2-.6.3-.8h0c.2,0,.3,0,.4-.1,0-.2,0-.3,0-.4,0-.2.2-.4.3-.5,0,0,.2-.2.3-.2.1,0,.3,0,.4,0,0-.1,0-.2-.1-.3.1-.2.2-.3.3-.4.2-.2.6-.2.7,0-.7.3-1,.8-1.1,1.5,0,.3,0,.7,0,1-.2.9-.3,1.8-.8,2.6.3,0,.3,0,.5-.3.2-.3.3-.6.3-1,0-.5.2-1.1.2-1.6.4.3,1,.4,1.1.9.1.6,0,1.2-.9,1.4.4.2.7.2.9-.3.4-.6.3-1.5-.2-2-.4-.4-.4-.5-.2-.9.1-.3.3-.6.5-.9-.8.4-.7,1.1-1,1.6,0,0,0,0,0,0-.2-.2-.1-.4,0-.6.1-.5.4-.9.9-1.1.6-.2,1.3.1,1.4.8,0,.4,0,.7,0,1.1-.1.5-.3,1.1-.5,1.6-.1.2-.3.4-.4.7.1,0,.2.1.3.2,0,.2,0,.4,0,.5h0c0,0-.2,0-.2-.1,0,.1-.2.3-.3.4v.2c-.7.8-1.5,1.4-2.7,1.3.2.1.4.2.7.4,0,.3-.2.7-.3,1.1-.2.6-.4,1.3-.7,1.9-.2.5-.5,1-.8,1.6-.2.3-.4.7-.7,1,0,0,0,0-.1.1-.5.7-1.1,1.3-1.8,1.8-.9.7-1.9,1.1-2.9,1.4-.6,0-1.1,0-1.7.1,0,0,0,0-.1,0,0-.1,0-.3-.1-.4,0,0,0-.1,0-.2,0,0,0,0,.1,0,0,0,0,0,0-.2h0c0-.5-.3-.6-.6-.6,0,0-.2-.2-.3-.3,0-.3-.2-.4-.4-.5-.4-.2-.9,0-1.2-.4,0-.4,0-.8.3-1.1.2-.2.1-.3.2-.5h-.4c-.2,0-.4,0-.7,0h-.4s0,0,0,0c.1.1.3.3.4.4h0c0,.1,0,.2,0,.2,0,.3,0,.5.1.8h0c-.2.1-.3.2-.5.2-.2,0-.4,0-.7,0-.2,0-.4.2-.7.3,0,0-.2,0-.2,0,0,.2-.2.1-.3.1h0c0-.1,0-.2-.1-.2-.1-.1-.3-.3-.4-.4,0,0,0,0,0,0h0M45.1,51c-.1-.1-.2-.3-.3-.4,0,0-.2,0-.3,0,0,0,0,.2,0,.3.4.5.7,1,.3,1.7h0c.1,0,.3,0,.3-.1.2-.4.2-.9,0-1.4M55.7,50c.2,0,.4-.2.7-.3,0,0,0,0,0-.1-.3.1-.7.2-1,.4,0,0,0,0,0,.1,0,0,.2,0,.4,0M50.6,45.1c0,0,0,.2,0,.2h.1c0,0,0-.2,0-.3M44.3,46.7h0Z"/>
          <path class="cls-35" d="M57.8,44.6s0,0,0,0c2.2.2,4.3.4,6.4.6,1.9.2,3.8.4,5.7.6,1.9.2,3.7.4,5.6.6,2.5.3,4.9.5,7.4.8,1.5.2,2.9.4,4.4.5,1.1,0,1.8.6,2.1,1.6.1.4.2.7.3,1.1.1.6-.2,1-.8.9-1.7-.2-3.5-.3-5.2-.5-2.2-.2-4.5-.5-6.7-.7-3.3-.3-6.7-.7-10-1-2.8-.3-5.6-.5-8.4-.8-.2,0-.3,0-.5,0,0-.2,0-.4.1-.5.4-1.1.4-2.1-.4-3.1h0Z"/>
          <path class="cls-7" d="M36.8,47c-.6,0-1.2-.1-1.8-.2-1.6-.2-3.2-.3-4.7-.5-2.4-.3-4.8-.5-7.2-.8-2.4-.3-4.8-.5-7.3-.8-1.1-.1-2.2-.3-3.3-.4-.5,0-1-.3-1.2-.7-.4-.6-.6-1.2-.9-1.8,0,0,0-.2,0-.4,0-.5.1-.6.6-.6,2,.2,4,.4,5.9.7,1.6.2,3.3.3,5,.5,1.8.2,3.6.4,5.4.6,1.4.2,2.8.3,4.3.5,1.7.2,3.5.4,5.2.6,0,.3.1.5.2.8h0c0,0,0,.1,0,.2,0,.2,0,.4,0,.5v.6c0,.3,0,.6,0,.9,0,0,0,.2,0,.2h0c0,0,0,0,0,0Z"/>
          <path class="cls-29" d="M36.9,46.8c0-.3,0-.6,0-.9,0-.2,0-.4,0-.7,0,0,.1,0,.2.1h0c.2.4.5.6.9.7.3,0,.6.2.9.3.4,0,.7,0,1.1.1.2,0,.4,0,.6,0,0,0,.1.1.2.2.4.1.3.1.2.5-.1.3-.2.5-.3.8-.2.7-.5,1.4-.7,2.1,0,.2,0,.4-.2.5-.6.6-.7.9-.4,1.4.2.3.5.5.7.7,0,0,.1.2.2.3-.3.2-.7.4-.9.7-.6.8-1.1,1.7-1.6,2.5-.5-1.2-.8-2.5-1-3.9-.2-1.6-.2-3.2-.2-4.8,0-.2,0-.4,0-.6v-.3h0Z"/>
          <path class="cls-11" d="M38.3,56.9h0c0,0-.2,0-.3,0s-.2,0-.3,0c0-.1.2-.2.3-.4.2-.2.4-.5.6-.7.3-.5.6-1,1-1.5s.8-.8,1.4-1c.5,0,.9,0,1.3,0-.1.3-.2.5-.4.8h0c-.3.3-.5.6-.8.8-.1.1-.3.2-.4.4,0,0,0,0,0,0,0,0,0,0,0,0-.7.5-1.5,1-2.2,1.5,0,0,0,0,0,.2h0Z"/>
          <path class="cls-4" d="M51.3,59.2h0c-.4.6-.7,1.1-1,1.6,0,.1-.2.3-.3.5-.9.2-1.7.3-2.6.5h0c-.5,0-1,0-1.5,0-.2,0-.3-.2-.5-.2,0,0,0,0,0,0,0,0,0,0,0,0h.3c.2,0,.4,0,.6,0,.6-.2,1.3-.4,1.9-.6,1.3-.3,2.3-1.1,3.2-2s.2,0,.2,0c0,.2-.2.4-.3.5h0Z"/>
          <path class="cls-23" d="M50.1,61.3c0-.2.1-.3.2-.5.3-.5.7-1,1-1.5-.1.3-.3.6-.4.9,0,.2-.2.3-.3.5.4.3.9.2,1.4-.3.1,0,.2,0,.4,0,.6-.3,1.2-.6,1.7-1.1.4-.3.8-.5,1.1-.9.2-.3.5-.4.7-.6.7-.6,1.2-1.2,1.7-2,.2-.3.3-.6.5-.9.3-.5.5-1.1.4-1.7,0,0,0-.1.1-.1,0,.1,0,.2,0,.3,0,1.1-.6,1.9-1.1,2.8-1.3,2-3.2,3.5-5.3,4.6,0,0,0,0-.1,0h0c-.2,0-.5.2-.7.3h0c-.5.1-.9.3-1.3.4h0Z"/>
          <path class="cls-27" d="M52.7,56.6c.2-.5.5-1,.7-1.5.3-.6.5-1.3.7-1.9.1-.4.2-.7.3-1.1-.2-.1-.4-.3-.7-.4,1.2,0,1.9-.5,2.7-1.3,0,0,.1,0,.2,0h0c0,.2,0,.2-.2.3-.1.2-.2.3-.3.4,0,0,0,0,0,0,0,0-.2.2-.3.3h0c0,0-.1.1-.2.2h0c-.2.1-.4.3-.6.4h0c0,.1-.2.3-.2.4,0,0,0,0,0,0-.2.6-.4,1.3-.7,1.9h0c-.2.4-.4.8-.6,1.2,0,0,0,0,0,.1-.2.4-.4.7-.6,1,0,0,0,0,0,0h0Z"/>
          <path class="cls-22" d="M36.8,44.5c0-.3,0-.5-.2-.8,0-.2.1-.3.2-.5.5,0,.9,0,1.3,0,.5,0,1,.2,1.5.3.2,0,.4.2.6.2,0,0,0,0,0,0-.2,0-.4-.2-.7-.3-.4-.2-.7-.4-1-.6,0,0,.1,0,.2,0,.4.2.9.4,1.3.5,0,0,0,0,.1,0,.4.2.7.4,1,.5.2.1.3.3.3.5,0,0-.1,0-.2,0h0c-.2-.1-.3-.2-.5-.4h-.1c0,0-.1,0-.2,0-.2,0-.4-.2-.7-.3,0,0-.2,0-.2,0,0,0,0,0-.1,0,0,0-.1,0-.2,0s0,0-.2,0c0,0-.1,0-.2,0-.6,0-1.2,0-1.7,0s-.3.3-.3.4,0,.4,0,.5M40.5,44h0s0,0,0,0Z"/>
          <path class="cls-20" d="M58.7,53.1c0,0,0-.1,0-.2.5.2,1,.3,1.5.5,2.2,1.1,4.5,2.2,6.7,3.4,0,0,.2.1.3.2-.3,0-.6-.2-.8-.3-.9-.4-1.8-.8-2.6-1.2-1.2-.6-2.4-1.3-3.6-1.9-.4-.2-.9-.3-1.3-.4h0Z"/>
          <path class="cls-32" d="M57.8,44.6c.8.9.8,2,.4,3.1,0,.2,0,.3-.1.5-.1.2-.3.4-.4.7,0,0,0,.1,0,.2h0c-.1.2-.2.5-.4.7h0s0,0,0,0c0,0,0,0,0,0,0-.2,0-.3,0-.5,0,0-.1,0-.3-.2.1-.2.2-.4.4-.6,0,.2,0,.3,0,.4.1,0,.2-.1.3-.2.1-.3.3-.5.4-.8.1-.3.3-.6.3-.9,0-.6,0-1.2-.2-1.8-.1-.4-.3-.3-.5-.3,0,0,0,0,0,0,0-.2.2-.3.3-.4,0,0,0,0,.1,0h0Z"/>
          <path class="cls-23" d="M56.1,51.1c0-.1.2-.3.3-.4-.1.5-.3,1.1-.4,1.6-.3.9-.5,1.7-.9,2.6-.3.9-.7,1.8-1.1,2.8,0,0,0,0-.1,0,0-.2.2-.5.3-.7.4-1,.7-1.9,1.1-2.9.2-.6.4-1.3.6-1.9,0-.2.1-.4.2-.6,0,0,0,0-.2-.2,0,0,.1-.2.3-.3h0s0,0,0,0h0Z"/>
          <path class="cls-18" d="M38.6,43c.3.2.7.4,1,.6.2,0,.4.2.7.3,0,0,0,0,0,0-.2,0-.4-.2-.6-.2-.5-.1-1-.2-1.5-.3-.4,0-.8,0-1.3-.1,0-.2.1-.5.2-.7h.3c.4.2.8.3,1.2.4h0Z"/>
          <path class="cls-18" d="M41,53.2c-.6.2-1,.6-1.4,1-.4.5-.7,1-1,1.5-.2.3-.4.5-.6.7,0,0,0,0,0-.1.5-.9,1-1.7,1.6-2.6.2-.3.6-.5.9-.7.2,0,.3-.1.5-.2,0,0,0,0,0,0v.3h0Z"/>
          <path class="cls-23" d="M52.8,56.7c.2-.3.4-.7.6-1,0,0,0,.2,0,.3-.2.4-.4.7-.6,1.1-.3.6-.6,1.1-1,1.7-.1.2-.3.3-.5.5,0-.2.1-.3.3-.6.2-.3.3-.5.4-.7,0,0,0-.1.2-.2.2-.3.4-.6.6-1h0Z"/>
          <path class="cls-19" d="M38.3,56.9c0,0,0-.1,0-.2.7-.5,1.5-1,2.2-1.5,0,0,0,0,0,0,0,0,0,0,0,0-.2.2-.3.3-.5.4,0,0-.2,0-.2.1-.5.3-1,.6-1.5.9,0,0-.1,0-.2.2,0,0,0,0,0,0h0Z"/>
          <path class="cls-20" d="M69,58h0c-.3,0-.7-.2-1-.4-.3-.2-.6-.4-.9-.6.6.3,1.3.6,1.9,1Z"/>
          <path class="cls-23" d="M54.1,54.4c.2-.6.4-1.2.6-1.9,0,.4-.2.8-.3,1.2,0,.2-.2.5-.4.7h0Z"/>
          <path class="cls-23" d="M53.5,55.6c.2-.4.3-.8.5-1.2,0,.4-.2.7-.3,1.1,0,0,0,0-.2,0Z"/>
          <path class="cls-32" d="M56.7,50.3c0,0,0,0-.2,0,0,0,0-.2,0-.2.1-.2.2-.3.3-.4,0,0,.1,0,.2.1,0,.1,0,.2-.2.4,0,0,0,0-.1,0h0Z"/>
          <path class="cls-23" d="M57.2,49.8c0-.2.2-.5.3-.7,0,.3,0,.6,0,.9,0,0-.2-.1-.4-.2Z"/>
          <path class="cls-19" d="M37.6,56.9c.1,0,.2,0,.3,0s.2,0,.3,0c-.2,0-.4.2-.6.3,0,0,0,0,0,0,0,0,0-.1.2-.2h0Z"/>
          <path class="cls-23" d="M55.1,52c.2-.2.3-.3.5-.5-.2.1-.3.3-.5.5Z"/>
          <path class="cls-23" d="M54.8,52.4c0-.1.1-.3.2-.4,0,.1-.1.3-.2.4Z"/>
          <path class="cls-19" d="M36.9,46.8c0,0,0,.1,0,.2h0c0,0,0-.2,0-.2h0Z"/>
          <path class="cls-23" d="M53.7,58s0,0,0,0c0,0,0,.1,0,.2h0c0-.1,0-.1,0-.1h0Z"/>
          <path class="cls-23" d="M55.6,51.5c0,0,0-.1.1-.2,0,0,0,.1-.1.2Z"/>
          <path class="cls-23" d="M56.7,50.4s0,0,0,0c0,0,0,.1,0,.2h0Z"/>
          <path class="cls-23" d="M57.6,49.1s0,0,0-.1c0,0,0,0,0,.1Z"/>
          <path class="cls-23" d="M57.1,49.8s0,0,0,0c0,0,0,0,0,0Z"/>
          <path class="cls-16" d="M39.8,60.1c.1-.2.3-.3.4-.5,0,.1,0,.2.1.3h0v.2c0,.1-.2.2-.2.4,0,.6,0,1.1,0,1.7.1.9.4,1.8.8,2.7,0,0,.1.2.2.3,0,0,0,.2,0,.3.2.8.3,1.6,0,2.3,0-.3,0-.6,0-.9,0-.4,0-.8-.3-1.2h0c0,0,0,0,0-.1h0c0-.3-.1-.4-.2-.5v-.2c0,0,0,0-.1-.1,0,0-.1-.1-.2-.2,0,0,0-.1,0-.2,0-.2,0-.4-.1-.6,0-.1-.2-.2-.2-.4,0,0,0-.2,0-.4,0-.2,0-.3,0-.5,0-.1,0-.3,0-.4s0-.2,0-.3v-.5c0,0,0,0,0,0v-.2h0c0-.3,0-.5,0-.8h0Z"/>
          <path class="cls-13" d="M39.8,72.5s0,0,0,0c0-.1,0-.3,0-.4h0s0,0,0,0c.3-.4.5-.8.8-1.2,0,.1,0,.2.1.4.1,0,.2-.1.4-.2,0,0,0,0,0,0,.3-.3.7-.7,1-1.1.3-.4.4-.8.7-1.2h.2c0,.2-.1.3-.2.5h0c-.2.3-.3.6-.5.8-.2.5-.6.9-1,1.2-.2.2-.4.4-.6.6,0,0-.1-.1-.2-.2-.2.3-.3.5-.5.8,0,0,0,0-.1.1,0,0,0,0,0,.1h0Z"/>
          <path class="cls-17" d="M37,69.1h0c0-.5.2-1,.4-1.6.2-.8.5-1.7.8-2.5.3-.9.6-1.8.9-2.7.1-.4.3-.8.5-1.2h0c-.1.4-.2.8-.4,1.1-.2.7-.5,1.4-.7,2.1-.2.8-.5,1.5-.7,2.3-.2.8-.4,1.5-.6,2.3h0s0,0,0,0Z"/>
          <path class="cls-13" d="M43.2,68.2s0,0,0,0c0,0-.1,0-.2,0v-.2c0,0,0-.1.1-.2,0,0,0-.1,0-.2,0-.2.1-.3.2-.4h0c0-.2.2-.4.2-.6h0c0,0,0-.1,0-.2,0,0,0,0,.1-.1.1-.4.2-.8.4-1.2,0-.2.1-.3.2-.4.2-.5.4-1.1.6-1.7,0-.2,0-.3,0-.5v-.6c0-.2,0-.3.2-.1v.9c0,.2,0,.4,0,.5,0,0,0,.1,0,.2,0,.2,0,.3,0,.4h0s0,0,0,.1c0,0,0,.1,0,.2,0,.2-.2.3-.2.5,0,0,0,0,0,.1,0,.2-.1.3-.2.5,0,0,0,0,0,.2,0,0,0,0,0,0h0c0,.2-.2.4-.3.6,0,.1,0,.2,0,.4-.2.5-.5,1-.7,1.6h0s0,0,0,0Z"/>
          <path class="cls-25" d="M45,64c0-.1,0-.2,0-.4.3,0,.6.2.9.2,1,0,2.1,0,3.1-.2,0,0,.2,0,.3,0,0,0-.1.1-.2.1-.6,0-1.1.2-1.7.3-.7,0-1.5,0-2.2,0,0,0-.2,0-.3,0h0,0Z"/>
          <path class="cls-25" d="M45.2,62.7c0-.3,0-.5,0-.8,0,0,0,0,.1-.1h0c.2,0,.3,0,.4,0,.5,0,1,0,1.5,0h0c.9-.2,1.7-.3,2.6-.5.4-.2.9-.3,1.3-.4,0,0,0,.1-.1.2-1.1.5-2.3.7-3.5.9-.7,0-1.4,0-2.1,0,0,0-.2.1-.3.2,0,.2,0,.4-.2.6h0Z"/>
          <path class="cls-13" d="M41.2,65.6c.2.4.3.8.3,1.2,0,.3,0,.6,0,1s0,.9-.1,1.3c0,.4-.2.8-.3,1.2,0,0-.1,0-.2,0,0-.2.1-.3.2-.5.1-.5.2-.9.3-1.4,0,0,0-.2,0-.3,0,0,0,0,0,0,0-.5,0-1,0-1.4,0,0,0-.2,0-.3,0-.3,0-.6,0-.8h0Z"/>
          <path class="cls-25" d="M41.2,68.3c0,0,.1.2.1.2,0,.5-.2.9-.3,1.4,0,.2-.1.3-.2.5,0,.2,0,.3-.1.4-.3.4-.5.8-.8,1.3,0,0,0,0,0,0,0-.3.2-.5.3-.8.3-.5.5-1.1.7-1.6.2-.5.1-1,.3-1.4h0Z"/>
          <path class="cls-25" d="M41.2,65.5c0,.3,0,.5,0,.8h0c-.2-.6-.4-1.1-.6-1.7,0,0,0-.2,0-.3,0,0,.1,0,.2.2,0,0,0,0,.1.1v.2c0,.2.1.3.2.4h0c0,.2,0,.2,0,.2h0s0,0,0,0h0Z"/>
          <path class="cls-25" d="M40.1,72.2c.1-.3.3-.5.5-.8,0,.1.1.2.2.3,0,.2,0,.4-.1.6,0,0,0,0-.1,0,0,0,0-.1,0-.1-.1,0-.2,0-.4,0M40.6,71.9h0Z"/>
          <path class="cls-25" d="M39.7,72.1v.4c0,.2-.2.4-.4.6,0-.3.1-.9.4-1.1h0Z"/>
          <path class="cls-25" d="M39.5,61.1h0c0-.4.2-.7.3-1.1,0,.2,0,.5,0,.7-.1.1-.2.2-.4.3h0Z"/>
          <path class="cls-25" d="M43.3,68.2c.2-.5.4-1,.7-1.5,0,.2,0,.4,0,.5,0,.2-.2.5-.3.7,0,0-.1.2-.2.3h0Z"/>
          <path class="cls-25" d="M41.2,66.7v1.4-1.4Z"/>
          <path class="cls-25" d="M43,68.4s0,0,.2,0c.2.1.2.2,0,.3-.1,0-.2.2-.3.4,0-.2,0-.3.2-.5h0c0-.1,0-.1,0-.1Z"/>
          <path class="cls-25" d="M40.2,63.2c0,0,.2.2.2.3,0,.2,0,.4.1.6,0-.2-.2-.4-.3-.6,0,0,0-.2,0-.3Z"/>
          <path class="cls-25" d="M42.4,69.9c.1-.3.3-.5.5-.8,0,.3-.2.6-.5.8Z"/>
          <path class="cls-25" d="M44,66.3c0-.2.2-.4.3-.6,0,.2-.2.4-.3.6Z"/>
          <path class="cls-25" d="M51.4,60.9c.2-.1.4-.2.6-.3-.1.3-.4.3-.6.3Z"/>
          <path class="cls-25" d="M44.6,64.9c0-.1.1-.3.2-.4,0,.1-.1.3-.2.4Z"/>
          <path class="cls-25" d="M40,62.4c0,.1,0,.3,0,.4,0-.1,0-.3,0-.4Z"/>
          <path class="cls-25" d="M44.4,65.4c0-.1,0-.3.2-.4,0,.1,0,.3-.2.4Z"/>
          <path class="cls-25" d="M45.1,63.4c0-.2,0-.3,0-.5,0,.2,0,.3,0,.5Z"/>
          <path class="cls-25" d="M39.9,61.6c0,0,0,.2,0,.3,0,0,0-.2,0-.3Z"/>
          <path class="cls-25" d="M39.2,73.2s0,0,0,.1h0s0,0,0-.1Z"/>
          <path class="cls-25" d="M39.9,72.5s0,0,0-.1c0,0,0,0,0,.1Z"/>
          <path class="cls-25" d="M44.9,64.1s0,0,0,0c0,0,0,0,0,0Z"/>
          <path class="cls-25" d="M52.1,60.6s0,0,0,0c0,0,0,0,0,0Z"/>
          <path class="cls-25" d="M44.3,65.7s0,0,0,0c0,0,0,0,0,0Z"/>
          <path class="cls-25" d="M39.9,60.8h0s0,0,0,0Z"/>
          <path class="cls-25" d="M39.9,61s0,0,0,0c0,0,0,0,0,0Z"/>
          <path class="cls-21" d="M40.1,59.1c0,0,.3,0,.3-.1,0,0,0,0,.2,0,.2,0,.4-.2.7-.3.2,0,.4,0,.7,0,.2,0,.3,0,.5-.1,0,0,0,0,0,0,0,0,0,0,.1-.1,0,0,.1.2.2.3.3.4.8.2,1.2.4.3,0,.4.2.4.5,0,0,0,0-.1,0,0,0,0,0,0,0-.4-.4-.8-.5-1.4-.5h-.7c-.3-.2-.6,0-.8.1-.3.1-.7.3-1,.4,0,0-.1-.2-.2-.3h0Z"/>
          <path class="cls-6" d="M42.2,58.9h.4c0,0,.1,0,.2,0,.1,0,.2.2.3.2-.3,0-.7,0-1,0-.1,0-.2.1-.4.2-.1,0-.3,0-.4.1-.3.2-.6.5-1,.5,0,0,0-.2-.1-.3h0c.3-.3.7-.4,1-.6.2,0,.4,0,.6,0,0,0,.2,0,.3-.1h0Z"/>
          <path class="cls-17" d="M34.6,68.8v.9h0v-1.5h0v.5h0Z"/>
          <path class="cls-21" d="M40,58.9s0,0,.1,0c0,0,0,0-.1,0Z"/>
          <path class="cls-16" d="M39.5,58.5s0,0,0,0c0,0,0,0,0,0Z"/>
          <path class="cls-32" d="M38.6,43c-.4-.1-.8-.3-1.2-.4.8-.5,1.7-.6,2.6-.7,4.2-.5,8.4,0,12.5,1.2.3,0,.6.2.9.3,0,0,0,.2,0,.3h0c0,.6,0,1.1-.1,1.7v.3c0,.4,0,.7,0,1.1,0,0,0,0,0,0,0-.3,0-.6,0-.9,0-.2,0-.4,0-.6,0-.2-.1-.3-.3-.2-.2,0-.3.2-.5.3-.2,0-.5.2-.7.3-.1,0-.2,0-.3,0-.3,0-.6.2-1,.2-.3,0-.5,0-.8,0,.1-.3.4-.2.6-.2.2,0,.3,0,.5,0,.4-.2.8-.3,1.1-.4.3,0,.6-.2,1-.3.2,0,.3-.2.2-.4,0-.2-.1-.5,0-.7.1-.2,0-.3-.2-.3h0c-.2.2-.3.3-.5.3-.4-.1-.6.1-.8.4-.2.2-.4.3-.6,0,0,0,0,0,0,0h-1.4c-.4,0-.8,0-1.2,0s-.8,0-1.2.4c-.2.2-.7.2-1.1.3,0,0,0,0,0,.2-.6-.2-1,0-1.4.3,0,0-.1,0-.2,0,0,0,0-.1,0-.2.3-.1.5-.3.7-.4,1-.4,1.9-.8,3-.8.6,0,1.2,0,1.8,0,.4,0,.8,0,1.2,0-.3-.6-.8-.7-1.3-.8-.4,0-.9,0-1.3,0-.7.1-1.4.4-2.1.6,0,0,.1-.2.2-.2.3,0,.5-.2.7-.4.2-.2.5-.4.7-.7h-.6c0,0-.2,0-.3,0-.8,0-1.5,0-2.3-.1,0,0-.1,0-.2,0,0,0-.2,0-.3,0-.4,0-.8.2-1.1,0-.4-.1-.5.2-.7.3-.2-.4-.5,0-.7,0-.4,0-.7,0-1.1,0-.2,0-.5,0-.8.1,0,0-.1,0-.2,0-.4-.2-.5.2-.8.4h0c.2.2.5.3.7.3.4,0,.4,0,.3.4,0,0,.2.1.3.2-.4-.2-.8-.3-1.3-.5,0,0-.1,0-.2,0h0Z"/>
          <path class="cls-3" d="M53.4,45.5v-.3c0-.2,0-.3,0-.4,0-.2,0-.5,0-.7h0c0-.2,0-.3,0-.5h0c0-.2,0-.3,0-.4.5.1.9.3,1.4.4.5.2,1,.3,1.4.5-.2,0-.4.2-.6.2-.1,0-.3,0-.5,0-.4.6-.8,1.3-1.3,2,0,0,0,0,0,0,0,0,0,0,0,0-.1,0-.3.2-.4.3,0-.3,0-.6-.1-.9,0-.1,0-.3,0-.4h0s0,0,0,0Z"/>
          <path class="cls-32" d="M54.1,46.5c.4-.7.9-1.4,1.3-2,.2,0,.4,0,.5,0,.2,0,.4-.1.6-.2.4,0,.8,0,1.1.2,0,0-.2,0-.3,0-.2,0-.5,0-.6.3h-.2c-.1-.2-.6-.3-.7,0,0,.1-.2.3-.3.4,0,0,0,.1.1.3-.1,0-.3,0-.4,0-.1,0-.2,0-.3.2-.1.2-.2.4-.3.5,0,0,0,.2,0,.4,0,0-.2,0-.4.1,0,0,0,0,0,0,0,0,0,0,0,0,0,0,0,0,0,0h0Z"/>
          <path class="cls-26" d="M56.7,44.8c0-.2.3-.4.6-.3,0,0,.2,0,.3,0s0,0,.1,0c0,.1-.2.3-.3.4-.1,0-.2,0-.3-.1,0,0,0,0,0-.1,0,0,0,0,0,0h-.3Z"/>
          <path class="cls-18" d="M53.5,43.3v.2c0,0,0-.1,0-.2,0,0,0,0,0,0h0Z"/>
          <path class="cls-2" d="M57.1,44.8c0,0,.2,0,.3.1,0,0,0,0,0,0,.4.5.6,1,.5,1.5,0,.5-.1.9-.2,1.4-.1.3-.3.5-.4.8,0,0-.1.2-.3.2,0-.1,0-.3.1-.4.2-.6.4-1.1.5-1.6,0-.4,0-.7,0-1.1,0-.7-.8-1-1.4-.8-.5.2-.7.6-.9,1.1,0,.2-.1.4,0,.6,0,0,0,0,0,0,.2-.6.2-1.3,1-1.6-.2.4-.3.6-.5.9-.2.5-.2.6.2.9s.6,1.4.2,2c-.3.4-.5.5-.9.3.8-.2,1-.8.9-1.4,0-.5-.7-.6-1.1-.9,0,.6-.2,1.1-.2,1.6s0,.7-.3,1c-.1.2-.2.3-.5.3.5-.8.5-1.7.8-2.6,0-.3,0-.7,0-1,.2-.6.4-1.2,1.1-1.5h.6c0,0,0,0,.1,0h0Z"/>
          <path class="cls-10" d="M46.3,43.5c.7-.2,1.4-.4,2.1-.6.4,0,.9,0,1.3,0,.5,0,1,.3,1.3.8-.4,0-.8,0-1.2,0-.6,0-1.2,0-1.8,0-1,0-2,.5-3,.8-.2,0-.5.2-.7.3,0-.2,0-.4,0-.6.1,0,.2,0,.4,0,0,0,0,0,.1,0,0,0,0,0,.1,0,.5-.2.9-.4,1.3-.6h0q0,0,0,0Z"/>
          <path class="cls-15" d="M40.1,55.8s.1,0,.2-.1c.4,0,.7,0,1.1,0s.7,0,1,0h2.4c0,0,.2.1.3.2-.5.3-1,.5-1.6.6h0c-1,.3-1.8,0-2.7-.4-.2,0-.4-.1-.7-.2h0Z"/>
          <path class="cls-6" d="M45,53.2c.8.4,1.2,1,1.4,1.9.2,1,.6,1.9,1.3,2.7,0,0,0,0,0,.2-.7-.4-1.4-.8-1.9-1.4,0,0,0,0,0,0,0,0,.2,0,.2.2.2.1.3.2.5.4-.2-.8-.5-1.4-.7-2.1-.1-.5-.3-.9-.8-1.2-.2-.1-.4-.2-.6-.3-.3-.1-.5-.2-.8-.3,0,0,.2-.1.3-.2.2,0,.4.1.6.2h0c0,0,.1,0,.2,0h0Z"/>
          <path class="cls-28" d="M40.9,52.9c-.1,0-.3.2-.4.2,0,0-.1-.2-.2-.3-.2-.2-.5-.4-.7-.7-.3-.5-.1-.9.4-1.4.1-.1.2-.3.2-.5.2-.7.5-1.4.7-2.1,0,0,.1,0,.2,0-.2.6-.4,1.1-.5,1.7-.1.7-.2,1.3-.3,2,0,.5.1.9.6,1.2M39.8,52c0,0,.1.1.2.3v-1.4c-.5.3-.5.6-.2,1.2Z"/>
          <path class="cls-28" d="M52,57.9c-.1.2-.3.5-.4.7,0,0-.2,0-.3.1-.9.9-1.9,1.7-3.2,2-.6.2-1.3.4-1.9.6-.2,0-.4,0-.6,0,0,0,0,0,0,0,.3,0,.6,0,.8-.1.3,0,.5-.2.8-.2,1-.3,2-.7,2.9-1.4.7-.5,1.3-1.1,1.8-1.8,0,0,0,0,0,.2h0Z"/>
          <path class="cls-32" d="M44.8,46.8c0,0-.1-.2-.1-.2.2-.2.3-.4.5-.6.3-.2.6-.2.9-.1,0,0,.3,0,.3-.2,0-.3.3-.3.5-.2.5.2,1,.2,1.5.1.3,0,.5,0,.8,0,0,0-.1,0-.2,0h-1.5c-.1,0-.2,0-.4,0s0,0-.2,0c-.2,0-.4,0-.7,0-.6.1-1.1.4-1.5.8h0Z"/>
          <path class="cls-32" d="M36.8,44.5c0-.2,0-.4,0-.5s.2-.4.3-.4c.6,0,1.2,0,1.7,0,0,0,0,0,.1,0-.5.3-1,.4-1.6.4-.3,0-.4.2-.5.6,0,0,0,0,0,0,0,0,0,0,0-.1,0,0,0,0,0,0h0Z"/>
          <path class="cls-14" d="M44.2,52.9c0,0-.2,0-.3.2-.3,0-.5,0-.8-.2-.2,0-.5.2-.4.4,0,.2.2.4.3.6,0,.2.2.3.3.5,0,0-.2,0-.2,0h0c.1-.3,0,0-.1-.1-.2-.2-.3-.4-.4-.6h0c0-.3,0-.5-.2-.5-.4,0-.9,0-1.3,0,0,0,0-.2,0-.2h.1c.5.1,1,0,1.5-.2.2,0,.4,0,.6,0,0,0,0,0,.1,0,.1,0,.2,0,.3,0s0,0,.1,0c0,0,.1,0,.2,0,0,0,0,0,.1,0s0,0,.1,0h0q0,0,0,0Z"/>
          <path class="cls-32" d="M37.1,44.8c.4,0,.8.2,1.1.3.1,0,.3,0,.5,0,.2,0,.5-.2.6.2,0,0,.2,0,.3,0s.6.2.6.4c0,0,0,0-.1,0-.5-.2-1.1-.3-1.7-.3-.1,0-.2,0-.3,0-.4-.1-.8-.2-1-.7h0Z"/>
          <path class="cls-21" d="M46.9,47c-.2,0-.4,0-.7,0-.2,0-.4,0-.5,0h-.3c-.1,0-.2,0-.3-.1.2,0,.4-.2.6-.3.2,0,.4,0,.6.1.3,0,.6,0,.9,0,.2,0,.4,0,.5,0,0,0,.2,0,.2,0,.1,0,.2,0,.4,0-.4.2-.9.3-1.4.3h-.1Z"/>
          <path class="cls-18" d="M53.9,46.6s0,0,0,0h0c0,.3-.2.6-.3.9h0c0,.2,0,.3,0,.3,0,0,0,.1,0,.2,0,.2,0,.4,0,.6s0,.3-.2.3v-2.3c0-.4,0-.7,0-1.1,0,.1,0,.3,0,.4,0,.3,0,.6.1.9.1,0,.2-.2.4-.3h0Z"/>
          <path class="cls-18" d="M43.1,54.4c0,0,.1,0,.3,0,.5.4,1,.7,1.4,1.1.3.3.7.6,1,.9h0c-.2,0-.5-.3-.7-.5,0,0-.2-.1-.3-.2-.1,0-.2-.2-.3-.3-.4-.3-.8-.5-1.1-.8,0,0-.1,0-.2-.1h0c0,0,0,0,0,0Z"/>
          <path class="cls-14" d="M42.5,58.2s0,0-.1.1h0c0-.3,0-.5-.1-.8,0,0,0,0,0,0h0c0-.3,0-.5,0-.6.2,0,.4,0,.6,0,0,.5-.2.9-.3,1.3h0Z"/>
          <path class="cls-14" d="M48.6,45.8h.4c.4.2.8.2,1.3,0,.1,0,.3,0,.4,0-.5.1-1.1.3-1.6.4,0,0,0-.2,0-.3h-1c0,0-.2,0-.2,0,.2,0,.3,0,.5-.1.1,0,.2,0,.3,0h0Z"/>
          <path class="cls-28" d="M45.1,51c.2.5.2.9,0,1.3,0,0-.2.1-.3.2,0,0,0-.1,0-.1.5-.6.1-1.2-.3-1.7,0,0,0-.2,0-.3,0,0,.2,0,.3,0,.1.1.2.3.4.4h0Z"/>
          <path class="cls-2" d="M41.1,48h-.2c0-.3.2-.5.3-.8.2-.4.2-.3-.2-.5,0,0-.1,0-.2-.2h.1c.1,0,.2,0,.4,0,0,0,.2,0,.2-.1.1-.3.2-.6.4-.9h0c0,.2,0,.3,0,.5-.2.6-.5,1.1-.8,1.7,0,0,0,.1,0,.2h0s0,0,0,0Z"/>
          <path class="cls-22" d="M48,46h1c0,.1,0,.2,0,.3-.4.1-.7.2-1.1.3-.2,0-.4,0-.5,0,0,0,.1-.2.2-.2.3,0,.6,0,.8-.1-.1-.1-.4,0-.4-.3h0Z"/>
          <path class="cls-19" d="M45.6,61.3h0c0,.1-.1.1-.2,0,0-.4-.4-.7-.4-1.1,0,0-.1-.1-.2-.2-.2-.2-.4-.5-.6-.7h.1c.1,0,.2.2.3.3.2.2.4.3.6.4,0,0,0,0,0,0,0,0-.1,0-.2,0,0,0,0,.1.1.2,0,0,0,0,0,.2,0,.2,0,.3.1.4,0,0,0,0,0,0,0,0,0,.2,0,.2h0Z"/>
          <path class="cls-18" d="M43,52.3c.2-.5.7-.6,1.2-.5.2,0,.3.2.4.4-.5,0-1-.2-1.4.2,0,0-.1,0-.2,0h0Z"/>
          <path class="cls-32" d="M41.3,44.7c0,0,.2,0,.2,0,0-.3,0-.4-.3-.5-.3-.2-.6-.3-1-.5,0,0,0-.1,0-.1.4.2.7.4,1.1.5.3.1.4.6.2.8-.1.2-.3.2-.3,0h0Z"/>
          <path class="cls-32" d="M44.7,44.1s0,0-.1,0c-.2,0-.3,0-.4,0-.2,0-.2-.1,0-.2.2,0,.5,0,.7,0,0,0,.2,0,.2,0,.3-.4.7-.2,1-.2-.4.2-.9.4-1.3.6,0,0,0,0-.1,0h0Z"/>
          <path class="cls-27" d="M50.6,45.9c-.2,0-.3,0-.4,0-.4,0-.8.1-1.2,0,0,0,0,0,.2,0h.2c.3,0,.6,0,.8,0,.3,0,.6-.2,1-.2,0,0,.2,0,.3,0-.3.1-.6.3-.9.4h0Z"/>
          <path class="cls-32" d="M53.3,49c.2,0,.3-.1.3-.3s0-.4,0-.6c.2.3,0,1.2-.1,1.4,0,0-.2,0-.3,0s0-.1,0-.2,0-.2.1-.3Z"/>
          <path class="cls-6" d="M45.8,46.4c-.2,0-.4.2-.6.3,0,0,0,0-.1,0,0,0-.2,0-.2,0,.4-.4.9-.7,1.5-.8,0,0,0,.2-.2.2-.1,0-.2.2-.3.2h0Z"/>
          <path class="cls-22" d="M42.5,58.2c0-.4.2-.9.3-1.3.1,0,.2,0,.4,0,0,.2,0,.3-.2.5-.2.2-.2.7-.3,1.1,0,0-.1-.1-.2-.2h0Z"/>
          <path class="cls-21" d="M45.6,61.3c0,0,0-.1,0-.2.6,0,1.1,0,1.7-.1-.2,0-.5.2-.8.2-.3,0-.5,0-.8.1h0Z"/>
          <path class="cls-6" d="M41.4,46.6c0,0-.2,0-.4,0-.2-.2-.5-.3-.7-.5,0-.1-.1-.2-.2-.3,0,0,0,0,.1,0h0c0,0,0,0,.1,0,0,0,0,0,.1,0,.3.2.7.3.8.7h0Z"/>
          <path class="cls-19" d="M37.1,44.8c.2.4.6.5,1,.7-.3,0-.5,0-.7-.1h0c0,0-.1,0-.2-.1,0,.2,0,.4,0,.6,0-.2,0-.4,0-.6,0-.2,0-.3,0-.5,0,0,0,0,0,0h0c0,0,0,0,0,0h0Z"/>
          <path class="cls-27" d="M44.3,45.1s0,0,.2,0c0,.5,0,1,0,1.4h-.1v-1.4h0Z"/>
          <path class="cls-32" d="M41.4,46.6c-.1-.4-.4-.5-.8-.7.2-.2.4,0,.5,0s.3.3.5.5c0,0-.1,0-.2.1h0Z"/>
          <path class="cls-21" d="M44.2,52.9c0,0,0,0-.1,0,.5-.2.7-.1.8.3-.2,0-.4-.1-.6-.2h0Z"/>
          <path class="cls-32" d="M55.7,50c-.1,0-.2,0-.3,0,0,0,0,0,0-.1.3-.1.7-.2,1-.4,0,0,0,0,0,.1-.2,0-.4.2-.7.3h0Z"/>
          <path class="cls-21" d="M43,52.3c0,0,.1,0,.2,0,0,0,0,.2,0,.3-.2,0-.4,0-.6,0,0-.1.2-.3.3-.4h0Z"/>
          <path class="cls-28" d="M52.8,56.7c-.2.3-.4.7-.6,1,0,0,0,0,0,0,.2-.3.4-.7.6-1,0,0,0,0,0,0Z"/>
          <path class="cls-21" d="M45.3,60c-.2,0-.4-.2-.6-.4.3,0,.5,0,.6.4Z"/>
          <path class="cls-21" d="M42.1,56.8v.5c-.1-.1-.3-.3-.4-.4,0,0,0,0,0,0h.4Z"/>
          <path class="cls-32" d="M53.7,47.6c0-.3.1-.5.3-.8,0,.3-.1.5-.3.8Z"/>
          <path class="cls-32" d="M40.8,44.4c.2,0,.3.2.5.3-.3,0-.5,0-.5-.3Z"/>
          <path class="cls-21" d="M44.2,44.1c.1,0,.2,0,.4,0,0,.2-.2.1-.3,0,0,0,0,0,0-.1h0Z"/>
          <path class="cls-32" d="M45.7,46.9c.2,0,.3,0,.5,0-.1,0-.3,0-.5,0Z"/>
          <path class="cls-32" d="M45,46.8s0,0,0,0c0,0,.2,0,.3.1-.1,0-.3.2-.4,0h0Z"/>
          <path class="cls-21" d="M45.2,60.4c0,0,0-.1-.1-.2h.2c0,0,0,0,.1.1,0,0,0,0-.1,0h0Z"/>
          <path class="cls-21" d="M45.4,60.9c0,0,0-.2-.1-.3,0,0,0,.2.1.3Z"/>
          <path class="cls-32" d="M50.6,45.1c0,0,0,.2,0,.2h-.1c0,0,0-.2.1-.2h0Z"/>
          <path class="cls-27" d="M52.1,57.6s0,0,0,0c0,0,0,.2-.1.2,0,0,0,0,0-.2,0,0,0,0,0-.1h0Z"/>
          <path class="cls-21" d="M43.6,52.7h-.2.2Z"/>
          <path class="cls-32" d="M40.5,44.3c0,0,0,0,.2,0,0,0,0,0,0,.1,0,0,0,0,0-.2h0Z"/>
          <path class="cls-32" d="M53.7,47.9s0,0,0-.2c.2,0,.1,0,0,.2Z"/>
          <path class="cls-32" d="M39.3,43.8c0,0,0,0,.2,0,0,0-.1,0-.2,0Z"/>
          <path class="cls-21" d="M43.9,52.7h-.2.2Z"/>
          <path class="cls-21" d="M45,53.2c0,0-.1,0-.2,0,0,0,.1,0,.2,0Z"/>
          <path class="cls-32" d="M39.6,43.9c0,0,.1,0,.2,0,0,0-.1,0-.2,0Z"/>
          <path class="cls-6" d="M45.8,56.5h0c0,0,0,0,0,0h0s0,0,0,0h0Z"/>
          <path class="cls-32" d="M46.9,47h0s0,0,0,0c0,0,0,0,0,0h0Z"/>
          <path class="cls-32" d="M40.5,45.8s0,0-.1,0c0,0,0,0,.1,0Z"/>
          <path class="cls-18" d="M41.1,53h0s0,0,0,0h0Z"/>
          <path class="cls-21" d="M42.2,57.4s0,0,0,0c0,0,0,0,0,0Z"/>
          <path class="cls-32" d="M53.3,48.3h0s0,0,0,0Z"/>
          <path class="cls-22" d="M42.3,58.3h0s0,0,0,0h0Z"/>
          <path class="cls-27" d="M44.3,46.7h0Z"/>
          <path class="cls-22" d="M36.8,44.6s0,0,0,0c0,0,0,0,0,0Z"/>
          <path class="cls-31" d="M40.1,45.8c0,0,.1.2.2.3,0,.2,0,.3-.2.4-.3,0-.7,0-1.1-.2,0-.2,0-.3-.1-.5,0-.3-.1-.2-.3-.2,0,0-.2,0-.2,0,.6,0,1.1,0,1.6.3h0Z"/>
          <path class="cls-14" d="M38.5,45.5c0,0,.2,0,.3,0,.1,0,.3,0,.2.2-.3,0-.6,0-.8.2-.4,0-.7-.3-.9-.7.3,0,.5,0,.8.1h.4s0,0,0,0Z"/>
          <path class="cls-23" d="M38.2,46.1c.1-.3.4-.2.7-.2,0,.2,0,.3.1.5-.3,0-.6-.2-.9-.3Z"/>
          <path class="cls-23" d="M40.2,46.5c0-.1,0-.2.1-.4.2.1.4.3.6.4h0c-.2,0-.4,0-.7,0h0Z"/>
          <path class="cls-14" d="M37.3,45.4s0,0,0,0c0,0,0,0,0,0Z"/>
          <path class="cls-32" d="M43.1,54.4h0c0,.2.1.2.2.2.4.2.8.5,1.1.8-.5,0-.9,0-1.3,0h-.9c-.5,0-.9,0-1.4-.1h0c0,0,0,0,0-.1.4-.2.8-.4,1.2-.6.1,0,.2,0,.3,0,.2.2.4.1.5,0,0,0,.1-.1.2-.2h0,0Z"/>
          <path class="cls-19" d="M41.9,54.6c-.4.2-.7.4-1.1.6,0-.1.2-.2.4-.4.4-.2.6-.5.8-.8h.3c0,.2-.2.4-.3.6h0Z"/>
          <path class="cls-18" d="M42.2,53.9h-.2c0-.2.2-.5.3-.8.3,0,.3.1.2.3-.4-.2-.2.1-.2.2,0,0,0,.1,0,.2h0Z"/>
          <path class="cls-14" d="M41.9,53.9c0,.4-.3.7-.7.8.2-.3.5-.6.7-.8Z"/>
          <path class="cls-6" d="M44.2,59.4c.2.2.4.5.6.7,0,0,.2.2.2.2,0,.4.3.7.3,1.1h0c-.3.3,0,.3,0,.4,0,0,0,0-.1.1-.2,0-.2,0-.2.2,0,.2,0,.3,0,.4s0,.1,0,.2c0,.1,0,.3,0,.4,0-.2-.2-.3-.2-.4.1-.5,0-1.1,0-1.6-.1-.5-.3-.9-.7-1.2-.1-.2-.3-.4-.4-.5.2,0,.3,0,.5,0h0Z"/>
          <path class="cls-28" d="M45.8,61.8c-.1,0-.3,0-.4,0v-.2c.1,0,.3.1.4.2h0Z"/>
          <path class="cls-19" d="M45.4,61.6v.2s0,0,0,0c0,0-.3-.1,0-.3,0,0,0,0,0,0h0Z"/>
          <path class="cls-28" d="M47.4,61.8h0,0Z"/>
          <path class="cls-18" d="M40.5,44h0s0,0,0,0h0Z"/>
          <path class="cls-26" d="M57.8,48c0-.5.1-.9.2-1.4,0-.6,0-1.1-.5-1.5.2,0,.4,0,.5.3.2.6.2,1.2.2,1.8,0,.3-.2.6-.3.9h0Z"/>
          <path class="cls-8" d="M56.1,51.1s0,0,0,0h0Z"/>
          <path class="cls-28" d="M40.7,55.3c.5,0,1,0,1.4.1.3,0,.6,0,.9,0s.9,0,1.3,0c.1,0,.2.1.3.2-.8,0-1.6,0-2.4,0-.3,0-.7,0-1,0s-.7,0-1,0c.1-.1.3-.3.4-.4h0Z"/>
          <path class="cls-5" d="M44.1,59.8c.4.3.6.7.7,1.2.1.5.2,1.1,0,1.6,0,.1,0,.3.2.5-.2.6-.4,1.1-.6,1.7,0,.1-.1.3-.2.5-.1.4-.3.8-.4,1.2,0,0,0,0-.1.1,0,0-.2,0-.2.1,0,.2,0,.5,0,.7h0c-.1.1-.3.2-.2.4,0,0,0,0,0,.2,0,0,0,.1-.1.2v.3s0,0-.2,0v-1.4h0c0,.2,0,.3-.1.5-.5-.4,0-.9-.2-1.3-.2.2-.3.2-.5,0-.2-.3-.2-.7-.6-.9,0,0,0-.2,0-.3,0-.1-.1-.2-.2-.3-.5-.8-.7-1.7-.8-2.7,0-.6,0-1.1,0-1.7s.1-.2.2-.4v-.2h0c.4,0,.7-.4,1-.5.1,0,.2,0,.4-.1.3,0,.6,0,.8.2,0,0,0,0,.2,0,.3,0,.3,0,.4.3,0,0,0,.2.2.3,0-.2,0-.4.2-.6.2.2.3.4.5.6v-.2c.1,0,.1,0,.1,0h0Z"/>
          <path class="cls-31" d="M41.4,65.4c.4.1.4.6.6.9.2.3.3.3.5,0,.1.4-.2.9.2,1.3,0-.2,0-.4.1-.5h0v1.4c-.2.4-.4.9-.6,1.2-.3.4-.6.7-1,1.1,0,0,0,0,0,0-.1,0-.2.1-.4.2,0,0,0-.2-.1-.4,0-.1,0-.2.1-.4,0,0,.2,0,.2-.2.1-.4.3-.8.3-1.2,0-.4,0-.8.1-1.3.1-.8,0-1.6-.1-2.4h0Z"/>
          <path class="cls-13" d="M41.1,65.3c0,0-.1-.2-.2-.3,0,0,.1.2.2.3Z"/>
          <path class="cls-31" d="M41.1,64.8c0,0,.1.1.2.2,0,0-.1-.1-.2-.2Z"/>
          <path class="cls-6" d="M40.4,59.9s0,0,0,.2c0,0,0,0,0-.2Z"/>
          <path class="cls-13" d="M40.9,64.7s0,0-.1,0c0,0,0,0,.1,0Z"/>
          <path class="cls-13" d="M41.2,65.5s0,0,0,0c0,0,0,0,0,0Z"/>
          <path class="cls-31" d="M43.8,66.4c0-.4.2-.8.3-1.2,0,.4-.2.8-.3,1.2Z"/>
          <path class="cls-31" d="M43.4,67.4c0-.2,0-.5,0-.7,0,0,0,0,.2-.1,0,0,0,0,0,0,0,0,0,0,0,0,0,0,0,0,0,0,0,.2-.1.4-.2.6h0Z"/>
          <path class="cls-31" d="M43.2,67.8c-.1-.2,0-.3.2-.4,0,.1,0,.3-.2.4Z"/>
          <path class="cls-5" d="M45,62.7s0-.1,0-.2c0-.1,0-.2,0-.4v.5h0Z"/>
          <path class="cls-31" d="M43.1,68.2c0,0,0-.1,0-.2,0,0,0,.1,0,.2Z"/>
          <path class="cls-6" d="M45,62.5h0c0,0,0,0,0,0Z"/>
          <path class="cls-5" d="M43.7,66.8s0,0,0,0c0,0,0,0,0,0h0s0,0,0,0Z"/>
          <path class="cls-13" d="M40.6,71.9h0Z"/>
          <path class="cls-19" d="M44.2,59.3c-.2,0-.3,0-.5,0s-.4,0-.5-.1c0,0-.2-.1-.3-.2.5,0,1,0,1.3.4h0Z"/>
          <path class="cls-19" d="M42.1,58.8c0,0-.1.2-.2.2-.2,0-.4,0-.6,0,.2-.1.5-.3.8-.1h0Z"/>
          <path class="cls-19" d="M42.5,58.8s0,0-.2,0c0,0,0,0,.2,0Z"/>
          <path class="cls-19" d="M42.6,58.8h0,0Z"/>
          <path class="cls-3" d="M43.1,59.1c.2,0,.3,0,.5.1.1.2.3.4.4.6,0,0,0,.2,0,.2-.2-.2-.3-.3-.5-.6,0,.3-.1.4-.2.6,0-.1-.1-.2-.2-.3,0-.2-.2-.3-.4-.3h-.2c-.2-.2-.5-.2-.7-.2,0,0,.2-.2.3-.2.3,0,.6,0,1,0h0Z"/>
          <path class="cls-18" d="M53.5,43.7c0,.1,0,.2,0,.4h0c0,.2,0,.5,0,.7,0,.1,0,.3,0,.4,0-.5,0-1,0-1.5h0Z"/>
          <path class="cls-18" d="M53.5,44.1h0s0,0,0,0Z"/>
          <path class="cls-18" d="M54.1,46.5s0,0,0,0c0,0,0,0,0,0Z"/>
          <path class="cls-32" d="M57.1,44.8s0,0-.1,0c0,0,0,0,0-.1,0,0,0,0,0,.1h0Z"/>
          <path class="cls-21" d="M44.7,44.1s0,0,0,0c0,0,0,0,0,0Z"/>
          <path class="cls-1" d="M45.9,56.5c0,0,0,0-.1-.1-.4-.3-.7-.6-1-.9-.5-.4-.9-.7-1.4-1.1-.1-.2-.2-.3-.3-.5,0-.2-.2-.4-.3-.6s.1-.4.4-.4c.3,0,.5.1.8.2.3,0,.6.2.8.3.2,0,.4.2.6.3.4.3.6.7.8,1.2.2.7.4,1.4.7,2.1-.2-.1-.4-.3-.5-.4,0,0-.1,0-.2-.2h0Z"/>
          <path class="cls-4" d="M39.8,52c-.3-.5-.2-.9.3-1.2v1.4c-.1-.1-.2-.2-.3-.3Z"/>
          <path class="cls-31" d="M46.1,46.2c0,0,.1-.1.2-.2.2,0,.4,0,.7,0,0,0,0,0,.1,0,.1,0,.2,0,.4,0h0c.3,0,.6,0,1,0,0,0-.2,0-.3,0-.2,0-.3,0-.5.1,0,0,0,0-.2,0h0c0,0,0,.1,0,.1h0s0,0,0,0c0,0,0,.1,0,.2,0,0-.2.1-.2.2-.3,0-.6,0-.9,0-.1-.1-.2-.2-.3-.4h0Z"/>
          <path class="cls-14" d="M47.1,45.8s0,0,0,0c0,0,0,0,0,0Z"/>
          <path class="cls-14" d="M47.6,45.8h0s0,0,0,0h0Z"/>
          <path class="cls-27" d="M42.2,53.9c0,0,0-.1,0-.2,0,0,.2,0,.2,0,.1.2.3.4.4.6h0c0,.2-.1.2-.2.3-.2.2-.3.2-.5,0,0,0-.2,0-.3,0,0-.2.1-.4.2-.6h0Z"/>
          <path class="cls-19" d="M42.5,53.6c0,0-.1,0-.2,0,0,0-.1-.4.2-.2,0,0,0,0,0,0h0Z"/>
          <path class="cls-18" d="M43,54.4s0,0,0,0c0,0,.2-.2.1,0h-.1,0Z"/>
          <path class="cls-23" d="M46.1,46.2c0,0,.2.2.3.3-.2,0-.4,0-.6,0,0,0,.2-.2.3-.2h0Z"/>
          <path class="cls-27" d="M43.3,54.7c0,0-.1,0-.2,0,0,0,.1,0,.2,0Z"/>
          <path class="cls-23" d="M47.6,46.2h0c0-.1,0-.2.2-.2,0,0,.2,0,.3,0,0,.3.3.2.4.3-.3,0-.6,0-.8.1,0,0,0-.1,0-.2h0c0,0,0,0,0,0h0Z"/>
          <path class="cls-22" d="M47.6,46.2s0,0,0,0h0,0Z"/>
          <path class="cls-22" d="M47.6,46.1s0,0,0,0c0,0,0,0,0,0Z"/>
        </g>
      </g>
    </g>
  </g>
</svg>