<?xml version="1.0" encoding="UTF-8"?>
<svg xmlns="http://www.w3.org/2000/svg" version="1.1" viewBox="0 0 510 515">
  <defs>
    <style>
      .cls-1 {
        fill: #312d28;
      }

      .cls-2 {
        fill: #bc7f47;
      }

      .cls-3 {
        fill: #39322c;
      }

      .cls-4 {
        fill: #d69f61;
      }

      .cls-5 {
        fill: #0d0e12;
      }

      .cls-5, .cls-6, .cls-7 {
        stroke: #fff;
        stroke-miterlimit: 10;
        stroke-width: .5px;
      }

      .cls-8 {
        fill: #2e2925;
      }

      .cls-9 {
        fill: #604c36;
      }

      .cls-10, .cls-11 {
        fill: #fff;
      }

      .cls-12 {
        fill: #8e7655;
      }

      .cls-13 {
        fill: #342f29;
      }

      .cls-14 {
        fill: #692021;
      }

      .cls-15 {
        fill: #543;
      }

      .cls-6 {
        fill: #15191b;
      }

      .cls-16 {
        fill: #cd8f56;
      }

      .cls-17 {
        fill: #6f2826;
      }

      .cls-18 {
        fill: #a31820;
      }

      .cls-11 {
        display: none;
      }

      .cls-19 {
        fill: #755f44;
      }

      .cls-20 {
        fill: #93714f;
      }

      .cls-21 {
        fill: #7c312f;
      }

      .cls-22 {
        fill: #bc915b;
      }

      .cls-23 {
        fill: #a0815a;
      }

      .cls-24 {
        fill: #f3e3d6;
      }

      .cls-25 {
        fill: #b9202a;
      }

      .cls-7 {
        fill: #15181b;
      }

      .cls-26 {
        fill: #992128;
      }

      .cls-27 {
        fill: #daa661;
      }

      .cls-28 {
        fill: #b98556;
      }

      .cls-29 {
        fill: #ad7140;
      }

      .cls-30 {
        fill: #d8a662;
      }

      .cls-31 {
        fill: #ba202b;
      }

      .cls-32 {
        fill: #291d1b;
      }

      .cls-33 {
        fill: #d4a362;
      }

      .cls-34 {
        fill: #98131b;
      }
    </style>
  </defs>
  <!-- Generator: Adobe Illustrator 28.7.9, SVG Export Plug-In . SVG Version: 1.2.0 Build 218)  -->
  <g>
    <g id="Layer_1">
      <g id="Layer_1-2" data-name="Layer_1">
        <g id="Layer_1-2">
          <g>
            <path class="cls-11" d="M115.5,389.4H8.7V113.8h490v275.6c-27,0-54,0-81.2-.1-.5-2.4-.9-4.7-1.4-7-2.7-13-6.5-25.7-11.5-38-4.5-10.8-10.1-20.8-18.4-29.2-6.8-6.9-14.3-12.8-22-18.6-2.3-1.7-4.7-3.2-7.1-4.9-3.5-1.9-7-3.6-10.5-5.3h0c-.5-.4-1.1-.9-1.6-1.1-12.1-6.1-24.3-12.3-36.5-18.3-2.5-1.2-5.2-2-7.9-3-.7,0-.8,0-.7.8.3,3.4-.3,6.5-2.2,9.4-1.1,1.6-1.9,3.4-2.8,5.1-2.4,4.1-5.6,7.5-9.1,10.7-1.3,1.2-3,2.1-4,3.5-1.5,2.2-3.8,3.3-5.8,4.9-2.9,2.4-6,4.5-9.5,5.9-.7.2-1.3.3-2,.5-2.9,2.8-5.7,3.7-7.6,1.9.5-.9,1.1-1.9,1.6-2.7.9-1.5,1.6-3.2,2.4-4.8,0,0,0-.2.2-.2,1-1,2-1.7,2.6-2.8,1.9-2.9,3.5-6.1,5.3-9.1,1.1-2,2.3-3.8,3.4-5.8.2-.3,0-1,0-1.5.1-.2.3-.4.5-.5.4-.1,1-.2,1-.4.7-2.1,2.2-3.8,2-6.2h.1c.8-1.3,1.5-2.5,2-3.8.7-2.1,1.1-4.4,1.6-6.5,0-.2,0-.3.2-.4.5-.7.9-1.4,1.3-2.1h.1c1.1-.9,2-1.6,2.9-2.5h0c.4-.3.7-.8,1-1.1h.1c.4.3,1.1.7,1.1.9-.2,1.1-.5,2.1-.9,3.2-1.1,3.4-2.2,6.9-3.4,10.2-1.9,5.3-3.9,10.6-5.8,15.8-.4,1.2-1,2.5-1.4,3.7.2,0,.4.2.8.3,2.1-5,4.2-10,6.1-15,1.7-4.6,3.2-9.4,4.7-14,.9-2.9,1.6-5.9,2.4-8.9.3-.4.7-.7,1.1-1,.3-.3.4-.7.7-1.1.4-.7.8-1.3,1.1-1.9h.1c.2-.1.4-.3.7-.4.1,0,.2-.2.2-.3h.2c.9.4,1.7.9,2.3,1.2-.1-1.5-.2-3.3-.3-5h.1c.2-.3.3-.5.4-1,.8-1.3,1.5-2.4,2.4-3.6,1.1.1,2,.2,2.9.3,15.2,1.4,30.5,2.8,45.7,4.4,18.2,1.7,36.5,3.7,54.7,5.6,12.2,1.2,24.3,2.5,36.5,3.7,9.4,1,18.8,2,28.2,2.8,3.6.3,5.2-1.5,4.6-5-.4-2-1.1-3.9-1.6-5.9-1.7-5.7-5.4-8.6-11.5-8.9-7.9-.5-15.9-1.6-23.8-2.5-13.4-1.5-26.8-2.9-40.3-4.5-10.1-1.1-20.1-2.1-30.3-3.2-10.3-1.1-20.7-2.3-31.1-3.4-11.7-1.2-23.3-2.3-35-3.6.1-1,.2-1.7.3-2.5,2.7-12.2,5.4-24.3,8.3-36.5,3.5-14.8,7.1-29.5,10.6-44.4-.2-.1-.8-.5-1.4-.7-7.2-2.3-14.3-5-21.5-6.9-16.6-4.4-33.5-7.3-50.6-9-10.8-1.1-21.5-2.1-32.2-1.7-2,0-3.1,1-3.5,3l-3.3,16.3c-.2,1-.5,1.6-1.7,1.6-5.8.4-11.4.9-17.1,1.5-4.5.5-8.9,1.3-13.4,2.1-2.5.4-2.7,1-2.1,3.5,1.1,4.6,2.3,9.1,3.4,13.7,3.7,16.4,7.4,32.9,11.1,49.4-.5,1.3-1,2.5-1.5,3.8-.4.9-.8,1.6-1.2,2.4-9.6-1-18.9-2-28.3-2.9-7.7-.8-15.5-1.6-23.2-2.5-9.8-1.1-19.7-2.3-29.5-3.4-8.9-1-18-2-27-2.9-10.8-1.2-21.6-2.4-32.3-3.6-2.6-.3-3.5.5-3.4,3.3,0,.7,0,1.4.4,2.1,1.6,3.3,3.3,6.5,5.1,9.6,1.4,2.3,3.8,3.6,6.6,3.9,6.1.7,12.1,1.3,18.2,2,13.2,1.4,26.4,2.8,39.6,4.4,13.1,1.4,26,2.9,39.1,4.4,8.6,1,17.2,1.9,25.8,2.7,3.3.3,6.6.7,10,1.1.1,0,.2.1.2.2,0,1.2-.2,2.2-.2,3.3,0,8.7-.1,17.5,1,26.2.9,7.3,2.3,14.4,5.2,21.2,0,.3,0,.4-.1.7-.7.7-1.1,1.4-1.7,2.1-.3.3-.7.7-.9.9,0,.1.2.3.3.4,1.2-.4,2.4-.9,3.7-1.4h.5c.1.2.2.3.3.4.4.9.9,1.6,1.3,2.3,1.1,1.6,2.3,3.3,3.3,5-.9.4-1.5.9-2.3,1.1-8.5,3-16.6,7.2-24.1,12.3-9.7,6.6-18.2,14.4-24.6,24.3-8.7,13.5-16.1,27.7-22.4,42.5-1.9,4.4-3.5,8.7-5.2,13.2-.3.9-.5,1.7-.9,2.6M273.7,292c0,.2,0,.3.1.5.1-.3.3-.7.4-1-.2,0-.3.2-.5.4Z"/>
            <path class="cls-31" d="M416.3,389.4c-21.3,0-42.7,0-64.2-.1.5-2.3,1.4-4.5,2.1-6.6,1.1-4.1,2.2-8.2,3-12.3,1.2-5.8,2.4-11.5,3.4-17.4.7-3.8,1-7.7,1.4-11.7.1-1,.2-2.1.3-3h-.7c-1.9,17.5-4.8,34.7-10.8,51.4-10.1,0-20.3,0-30.5-.1,0-2.8,0-5.6.2-8.3.5-6.6,1.2-13.3,1.6-19.9.3-5,.5-10,.7-15,.2-6.4.2-12.8.3-19.3,0-.3-.1-.8-.2-1.1-.3.2-.4.4-.4.7-.2,7.8-.4,15.6-.8,23.4v1.5c-.4,6.6-.9,13.2-1.4,19.8-.1,1.7-.3,3.6-.4,5.3-.4,4.4-.9,8.7-1.3,13.1-47.7,0-95.4,0-143.2-.1.3-2.8.8-5.6,1.3-8.3,1.3-6.2,2.7-12.4,4-18.6.7-3.4,1.2-6.8,2-10.2.2,0,.3-.1.4-.2,1.2-4.2,2.3-8.4,3.5-12.6,1.2-4.1,2.6-8.4,3.9-12.5,1.3-3.9,2.6-7.7,4-11.7.7-2.1,1.3-4.1,2.1-6.3.7-.7,1.3-1.1,2-1.6h0v1c0,.2.2.2.3.4v2.7c0,.7,0,1.1.1,1.7,0,.9.2,1.6.2,2.4s.3,1.6.5,2.5c.1.8.2,1.3.3,2.1,0,.7.1,1.2.3,1.6.5,1.2,1.1,2.4,1.6,3.7.1.4.3.9.4,1.3,0,.5-.2,1.1,0,1.4,1,3,2.1,6.1,3,9.1v.2c.2.7.3,1.1.3,1.7-.1,2.6-.2,5.1-.2,7.7v.7c-1.1,2.5-.8,5.1-1.9,7.7-1.2,2.9-2.5,5.9-3.9,8.7-.7,1.4-1.3,2.9-1.9,4.4h-.1c-1.4,1-2.7,4.1-2.2,5.9.9-1.3,1.6-2.4,2.4-3.5.2-.1.2-.2.4-.3.2-.2.4-.4.5-.8.2-.3.4-.4.8-.5.7,0,1.2.2,2,.3,0,0,.2.3.3.8.2-.1.4-.2.7-.4.3-1.1.5-2.3.9-3.6,1-1.1,2-2.1,3-3,2.2-1.9,4.2-3.8,5.4-6.6,1.6-1.2,2.3-2.7,2.6-4.6h.1c.7-.7,1.1-1.6,1.9-2,1.4-.7,1-1.2.1-2,0-.2,0-.4.2-.5.5-.4,1.1-.9,1.3-1.4.7-1.3,1.2-2.6,1.6-3.9.3-1,.4-2,.7-3.2.1-.8.2-1.3.5-2,.5-1.2,1.1-2.3,1.5-3.5h0c.2,0,.2-.2.2-.4,0-.3,0-.7.1-.9.4-.9.7-1.6,1-2.5,0-.2,0-.4.1-.5.4-.9.9-1.6,1.2-2.6.1-.5.2-.9.4-1.3.1-.2.2-.4.2-.7h.1c.7.2,1.2.5,1.6.5,3.9,0,7.9,0,11.9-.3,3.2-.2,6.2-1,9.4-1.4.2,0,.3-.3.9-.8-.9,0-1.4-.1-1.9,0-5.6,1.7-11.2,1.3-16.9,1.2-1.5,0-3-.9-4.6-1.5,0-.5,0-.9.2-1.2.2-1,.4-1.9.5-2.9,0-.2,0-.4.1-.7.4-1.1.5-2.2,1-3,.3-.5,1.1-1.3,1.6-1.3,3.8-.1,7.6.2,11.3-.2,6.4-.8,12.8-2.2,18.8-4.7.3-.1.5-.5.8-.9h.1c1.5-.1,2.9-.4,3.7-1.9h.1c.3-.1.4-.3.8-.5,11.7-6.1,21.7-14,28.9-25,3-4.6,6-9.3,6.2-15,2.5.8,4.9,1.3,7.1,2.4,6.6,3.3,13.1,6.8,19.7,10.1,4.7,2.4,9.5,4.6,14.3,6.8,1.5.7,3,1.3,4.6,1.9h0c1.7,1.2,3.4,2.2,5,3.2,1.7,1.1,3.6,2.1,5.4,3.2,4.9,3.6,9.8,7.1,14.6,10.8,5.8,4.5,11.3,9.3,15.9,14.8,2.7,3.4,5.6,6.6,7.9,10.2,4.4,6.8,7.5,14.2,10.3,21.7,3.5,9.4,6.5,18.9,8.5,28.9.7,3.5,1.2,7,1.7,10.3M194.8,374.7c0,.2,0,.4-.1.7h.4c0-.2,0-.4-.3-.7h0Z"/>
            <path class="cls-25" d="M166.7,389.4c-16.3,0-32.8,0-49.2-.1,0-1.2,0-2.4.3-3.4,1-2.7,2.1-5.3,3.2-7.9,1.4-3.5,2.7-7,4.4-10.3,2.6-5.6,5.3-11,8.3-16.4,2.2-4,4.6-7.9,6.9-11.9,1.9-3.3,3.7-6.5,5.8-9.6,1.7-2.6,3.8-5.1,6-7.4,3.3-3.4,6.6-6.6,10.1-9.8,2-1.7,4.1-3.2,6.3-4.6,3.3-2.1,6.5-4.2,10-6.1,3.2-1.7,6.3-3.3,9.6-4.7,2.6-1.1,5.3-2,8.1-2.8h0c.1.1.2.2.4.3.8.8,1.5,1.4,2.2,2.3.2.3.4.4.8.7v.3c.3.7.7,1.1,1,1.7,0,.3,0,.4-.1.7-.9.9-1.6,1.9-2.4,2.8-.8,2-1.3,3.9-2.1,5.9-.9,2.2-1.7,4.4-2.5,6.5-1.7,4.9-3.4,9.7-5,14.6-1.5,4.5-2.9,8.9-4.2,13.5-.9,2.8-1.4,5.7-2.2,8.6-1.3,5.4-2.7,10.8-3.8,16.2-1.4,7-2.7,13.9-4,21-2,0-3.9,0-6.1-.1.2-6.4.5-12.6.9-18.8.2-4.2.4-8.4.7-12.6,0-.3-.2-.5-.3-.9-.5,3.4-1,6.6-1.2,9.9-.1,2.2,0,4.5-.2,6.6-.4,5.2-.9,10.6-1.3,15.8M169.9,350.8v-2.8h-.3v7.9h.3v-5.1h0Z"/>
            <path class="cls-17" d="M196.3,294.4c-2.7,1-5.4,1.7-8.1,2.8-3.3,1.4-6.5,2.9-9.6,4.7-3.4,1.9-6.8,4-10,6.1-2.2,1.4-4.5,2.8-6.3,4.6-3.5,3.2-6.9,6.4-10.1,9.8-2.2,2.3-4.2,4.8-6,7.4-2.1,3-3.9,6.4-5.8,9.6-2.3,3.9-4.7,7.8-6.9,11.9-2.8,5.4-5.6,10.9-8.3,16.4-1.6,3.4-2.9,7-4.4,10.3-1.1,2.6-2.2,5.3-3.2,7.9-.3,1-.3,2.2-.4,3.4-.4.1-1,.1-1.6.1.1-.9.4-1.7.8-2.6,1.7-4.4,3.4-8.8,5.2-13.2,6.3-14.8,13.7-29,22.4-42.5,6.3-9.9,14.8-17.6,24.6-24.3,7.5-5.1,15.6-9.1,24.1-12.3.8-.2,1.4-.7,2.4-1.1.5.2,1,.5,1.3.8h-.2Z"/>
            <path class="cls-17" d="M416.4,389.4c-.8-3.5-1.2-7-1.9-10.3-2-9.9-5-19.5-8.5-28.9-2.8-7.5-6-14.9-10.3-21.7-2.3-3.6-5.2-6.9-7.9-10.2-4.7-5.7-10.2-10.3-15.9-14.8-4.7-3.7-9.6-7.2-14.6-10.9v-.8c2.4,1.6,4.8,3,7,4.8,7.7,5.8,15.2,11.8,22,18.6,8.3,8.4,13.9,18.4,18.4,29.2,5,12.3,8.8,24.9,11.5,38,.4,2.3.8,4.6,1.2,7-.2.1-.5.1-.9.1h-.1Z"/>
            <path class="cls-34" d="M318.9,389.4c.3-4.4.8-8.7,1.1-13.1.2-1.7.3-3.6.4-5.3.4-6.6.9-13.2,1.4-19.8v-1.5c.2-7.8.4-15.6.8-23.4,0-.2,0-.4.4-.7,0,.3.2.8.2,1.1,0,6.4-.2,12.8-.3,19.3-.1,5-.3,10-.7,15-.4,6.6-1.2,13.3-1.6,19.9-.2,2.7-.2,5.4-.4,8.3-.3.1-.8.1-1.2.1h-.1Z"/>
            <path class="cls-18" d="M350.9,389.4c5.9-16.6,8.8-33.9,10.7-51.4h.7c-.1,1-.2,2.1-.3,3-.4,3.9-.8,7.8-1.4,11.7-1,5.8-2.2,11.7-3.4,17.4-.9,4.1-2,8.3-3,12.3-.7,2.2-1.4,4.4-2.2,6.6-.2.1-.5.1-.9.1v.2h-.1Z"/>
            <path class="cls-34" d="M174.5,389.4c1.2-7,2.5-14,3.9-21,1.1-5.4,2.5-10.8,3.9-16.2h.4c-.7,3.4-1.2,6.8-1.9,10.1-1.3,6.2-2.7,12.4-4,18.6-.5,2.7-1,5.4-1.4,8.3-.3.1-.5.1-1,.1h0Z"/>
            <path class="cls-18" d="M166.8,389.4c.3-5.2.8-10.6,1.2-15.8.2-2.2,0-4.5.2-6.6.2-3.3.5-6.6,1.2-9.9.1.3.3.7.3.9-.2,4.2-.4,8.4-.7,12.6-.3,6.2-.7,12.4-1,18.8-.3.1-.8.1-1.3.1h0Z"/>
            <path class="cls-5" d="M183.6,207.8c-3.7-16.4-7.4-32.9-11.1-49.3-1.1-4.6-2.2-9.1-3.4-13.7-.7-2.5-.4-3,2.1-3.5,4.5-.8,8.9-1.5,13.4-2.1,5.7-.7,11.4-1.1,17.1-1.5,1.2,0,1.5-.7,1.7-1.6l3.3-16.3c.3-2,1.5-2.9,3.5-3,10.8-.3,21.6.8,32.2,1.7,17.1,1.6,34,4.6,50.6,9,7.3,2,14.4,4.6,21.5,6.9.5.2,1.1.5,1.4.7-3.6,14.9-7.2,29.6-10.6,44.4-2.8,12.1-5.6,24.3-8.3,36.5-.2.8-.2,1.6-.4,2.6-.2.2-.3.3-.5.4-.3-.1-.4-.2-.7-.3-.2-.2-.4-.2-.7-.4-2-1.4-4-1.3-6.3-1.2-2.7-.9-5.3-1.6-7.9-2.5-2.5-.8-5.1-1.6-7.7-2.4h-.7c-1.7-.5-3.3-1.2-4.9-1.6-22.2-6.3-44.8-9-67.8-6.3-4.9.5-9.7,1.3-14.3,3.8h-1.5,0Z"/>
            <path class="cls-27" d="M196.3,294.5c-.3-.3-.7-.5-1.2-.9-1.2-1.6-2.4-3.3-3.5-4.9-.4-.7-.9-1.4-1.3-2.4.3-.4.7-.8,1-1,2.7-1.7,5.3-3.4,8.2-5.1,1.3.3,2.5.5,3.6,1.1,4.7,2.3,9.3,4.2,14.6,2.4h.5c3-.4,5.9-1.6,8.6-3.2,1.4,1.1,2.7,2.2,4,3.3.2,0,.3.1.4.3,2.5,3.6,6.2,5.7,10.2,7.8-.2-.5-.2-.8-.3-.9-3.8-4.2-6.2-9.1-7.2-14.8-.8-4.6-3.3-8.1-7.5-10.3-.3-.2-.7-.4-1.1-.5h0c-.4-2.5-1.6-2.9-4.2-1.7-.2,0-.4,0-.5-.2-.3-.1-.7-.1-1.2-.1s-.4,0-.5-.2c-.4-.1-1-.1-1.5-.1s-.4,0-.5-.2c-.1-.7-.3-1.2-.3-1.7,2.4-1.9,4.9-1.3,7.6-.9-.7-.9-1.4-1.7-2.3-2-2.6-.5-5,0-6.4,2.7-.8.9-1.3,1.6-2.1,2.5-2.5,1.6-5.1,2.2-7.9,1.3h-.2s0,.1-.2.1c0,0-.2,0-.3-.1,0-.2-.2-.2-.3-.4-2.8-1.4-3.8-3.6-3.5-6.4.4-3.7,1-7.3,1.7-10.9.7-3.2,1.9-6.2,2.8-9.4.2-.4.4-.9.5-1.2,1.4-3,2.8-6,4.1-9,.3-.8.3-1.7.4-2.6h-.5c-.7,1.7-1.3,3.4-2.2,5-.9-1-1.5-2.1-2.5-2.8-.8-.8-1.9-1.5-3.2-.5-.2-.1-.4-.2-.7-.4-.3-.2-.5-.2-.9-.3,0,0-.1,0-.1-.1-.2-1-2.6-2.3-3.5-2.2-.7,0-1.6,0-1.9-.4-.9-1.7-2.1-1.2-3.4-.9-.8.2-1.7.3-2.5.1-2.1-.4-4.1-1-6.3-1.5-.2-.1-.2-.2-.2-.4,0-2.1,1-3.5,2.4-3.3,3.2.3,6-.2,8.8-1.9.3,0,.7,0,.9.1.3.1.7.2,1.2.2s.4,0,.5.1c.3.2.8.4,1.2.5,1.3.4,2.5.9,3.7,1.5.1.4.3.7.4.9l.7-.7c.2,0,.4,0,.5.1.2,1.7,1.3,2.2,2.7,2h0c.4,1.3,1.1,1.3,1.9.4,1.1-1.2.3-3.9-1.2-4.6-2-.9-3.9-1.9-6.1-2.9,0,.1-.3.4-.7.8-.2-.1-.4-.2-.7-.4-.5-.5-1.1-.9-1.6-1.3.4-2.2.3-2.2-1.9-2.4-1.3-.1-2.5-.5-3.8-.9v-.7c1.5-.7,2.3-2.8,4.5-2,.3,0,.7,0,1-.1,1.4-.2,3-1.1,4.2-.7,2.1.8,4,.4,6.2.4s2.9-1.6,3.9.5c1.3-.7,1.7-2.2,3.8-1.4,1.7.7,4-.2,6.1-.3.5,0,1,.3,1.5.5.4.1.8.4,1.2.4,4.1.2,8.4.5,12.5.8h4.8c-1.3,1.6-2.7,2.8-4,4-1.1,1.2-2.2,2.4-4,2.4s-.7.5-1.1.9h-.7c-2,.3-4.1-.7-5.7,1.3-.2.2-.9.2-1.3.3-1.3.2-2.6.2-3.9.5-.9.2-.8.8,0,1.1v.8c0,1.2.2,2.2.3,3.4.1.5.2.9.3,1.5v7.6h.8c0-2.6.2-5.2.3-7.8,2.2-2.1,4.7-2.7,7.7-1.6-.3-.7-.4-1.1-.4-1.2,2.1-.5,4.6-.4,5.9-1.6,2-1.7,4-2.1,6.3-2.1s4.2.2,6.4.3h7.6c.2,0,.4.1.5.3,1.2,1.4,2.1,1.1,3.3-.1,1.2-1.3,2.4-2.7,4.6-2.1.7.2,1.6-.7,2.5-1.1v-.5c1.1.1,1.6.7.9,1.7-1,1.3-.8,2.6-.2,3.9.4,1.2.1,2-1,2.3-1.7.7-3.5,1.1-5.2,1.6-2.1.7-4.2,1.2-6.2,2.1-1,.4-1.6.3-2.5.1-1.2-.3-2.6-.9-3.4.9-.5,0-.9,0-1.3-.1-1.5-.2-3-.4-4.5-.3-2.7.2-5.3.2-7.9-.8-1.1-.4-2.4-.7-2.9,1.1-.1.4-1.2,1-1.7.9-1.7-.3-3.4-.4-4.7.8-1,1-2,2.1-2.7,3.2-.1.1.4.8.8,1.3.4,0,.9.1,1.3.2.7,1.4,1.4.5,2.3.3.7,0,1.1,0,1.6.1,1,.1,1.9.2,2.9.2,1.3.1,2.5.2,3.7.4.1.2.3.3.4.4,0-.2.1-.3.4-.5,2.6,0,5-.4,7.3-1.4-.7-.2-1.3,0-2-.1-.4,0-.9-.3-1.2-.5,2.2-.5,4.1-1.1,6.3-1.6,3-.9,5.9-1.6,8.8-2.5,1.7-.8,3.3-1.4,5-2.2,1.4-.5,2.7-1,3.9-1.5.9-.4,1.7-1.1,2.6-1.6,1.1-.7,1.7,0,1.9.9.2,1.2,0,2.3,0,3.5.1,1.5.3,3.2.5,4.7,0,.1.3.2.5.5v12.7c-.3.7-.7,1.1-.8,1.6,0,.4.2,1,.5,1.2.3.2,1.1.2,1.4,0,1.3-1.1,1.7-5.8.8-7.6,0-.4,0-.8.1-1.2.5-.5.8-1.1-.3-1.1,0-.2,0-.4.1-.7.5-1.5,1-3,1.4-4.6h.1c.9-.3,1.5-.5,2-.8.2-.9.2-1.4.5-2,.5-1,1-2.1,1.7-2.9.3-.5,1.1-.9,1.6-1.1.7-.2,1.4-.3,2.2-.5-.3-.8-.5-1.3-.7-1.5.7-.9,1.3-1.6,1.9-2.3.9-1.1,3.4-.9,3.8.3-3.7,1.4-5.2,4.6-6.1,7.9-.4,1.7,0,3.7-.5,5.4-1.3,4.8-1.4,9.9-4.2,14.3,1.4.2,1.7,0,2.5-1.4,1-1.6,1.4-3.3,1.4-5.3,0-2.9.9-5.9,1.3-8.9,2.2,1.4,5.3,2,6,4.8.8,3.5-.1,6.8-4.7,7.5,2.2,1.3,3.6.9,5.1-1.5,2.2-3.3,1.7-8.1-1-10.9-2.1-2.1-2.2-2.5-.9-5.1.8-1.5,1.6-3,2.6-5-4.1,2-3.9,5.9-5.2,8.9-.2,0-.4-.1-.5-.2-1.1-.9-.8-2-.4-3,.7-2.6,2.1-5,4.7-6.1,3-1.2,7,.7,7.5,4.2.3,2,.3,4,0,6-.7,2.9-1.7,5.9-2.8,8.8-.8,1.2-1.4,2.3-2.2,3.6.7.4,1.1.7,1.4.9-.2,1.1-.3,2-.5,2.9h-.1c-.5-.3-.9-.5-1.2-.7-.5.8-1,1.4-1.6,2.4v1.1c-4,4.1-8.2,7.6-14.6,7.1,1.1.7,2.3,1.3,3.6,2-.4,1.9-.9,3.9-1.4,5.8-1.1,3.5-2.3,7-3.6,10.3-1.2,2.8-2.7,5.6-4.1,8.5-1.2,1.9-2.4,3.7-3.6,5.4-.2.2-.4.4-.7.8-2.9,3.6-6.1,6.9-9.8,9.7-4.8,3.6-10.1,5.9-16,7.4-3.2.2-6.2.4-9.4.7-.3,0-.4-.2-.7-.4-.2-.8-.4-1.4-.8-2.1-.1-.3-.2-.7-.2-1,.3-.1.5-.2.8-.3-.2-.2-.3-.4-.5-.9v-.8c-.4-1.9-1.5-2.4-3.3-2.3-.5-.5-1.1-1-1.6-1.5-.1-1.5-.9-2.2-2.3-2.7-2.2-.9-4.9,0-6.8-2.2.4-2.1.4-4.5,1.5-5.8.9-1,.7-1.7,1.2-2.7h-2.3c-1.2-.1-2.3-.2-3.6-.3h-2c0,.1-.1.3-.2.4.8.8,1.4,1.5,2.2,2.4v.5c0,.2.1.3.3.5.2,1.5.5,2.9.8,4.5v.4c-.9.3-1.7.7-2.6.8-1.2.1-2.4,0-3.6.3-1.3.3-2.4,1.1-3.6,1.6-.3.1-.9.2-.9.3-.1,1.2-.9.7-1.5.7v-.3c-.2-.3-.5-.5-.8-.7-.7-.8-1.4-1.4-2.2-2.2-.2-.2-.3-.2-.4-.3h0M226.9,254c-.7-.8-1.1-1.6-1.9-2.3-.4-.3-1.1-.3-1.7-.4.1.5.1,1.2.4,1.6,2.1,2.8,4,5.6,1.4,9.1l.2.7c.7-.5,1.4-.8,1.6-1.3,1.1-2.4,1.3-4.8-.1-7.4M284.8,248.2c1.2-.5,2.4-1,3.6-1.5,0-.2-.2-.4-.3-.8-1.9.7-3.7,1.3-5.6,2,0,.2.1.4.2.7.5,0,1.2-.2,2.1-.3M257,221.5c-.2.4-.3.9-.5,1.3h.8c0-.4,0-.9-.2-1.4M222.9,230.7h0Z"/>
            <path class="cls-7" d="M296.2,218.9c.1,0,.2-.1.4-.2,11.8,1.1,23.3,2.3,35,3.5,10.3,1.1,20.7,2.2,31.1,3.4,10.1,1.1,20.1,2.1,30.3,3.2,13.4,1.4,26.8,2.9,40.3,4.5,7.9.9,15.9,2,23.8,2.5,6.1.4,9.8,3.3,11.5,8.9.7,2,1.2,3.9,1.6,5.9.8,3.5-1,5.3-4.6,5-9.4-.9-18.8-1.9-28.2-2.8-12.2-1.2-24.3-2.5-36.5-3.7-18.2-1.9-36.5-3.7-54.7-5.6-15.2-1.5-30.5-2.8-45.7-4.4-.9,0-1.9-.2-2.9-.4.1-1.1.3-2.1.7-2.9,2-6,2.3-11.7-2.2-16.8h0Z"/>
            <path class="cls-6" d="M181.9,232.1c-3.3-.3-6.6-.7-9.9-1.1-8.6-.9-17.2-1.7-25.8-2.7-13.1-1.4-26-2.9-39.1-4.4-13.2-1.4-26.4-2.8-39.6-4.4-6.1-.7-12.1-1.4-18.2-2-2.8-.3-5.2-1.6-6.6-3.9-2-3-3.5-6.4-5.1-9.6-.3-.5-.3-1.3-.4-2.1-.2-2.7.7-3.5,3.4-3.3,10.8,1.2,21.6,2.4,32.3,3.6,8.9,1,18,1.9,27,2.9,9.8,1.1,19.7,2.3,29.5,3.4,7.7.9,15.5,1.7,23.2,2.5,9.4,1,18.8,2,28.3,3,.4,1.5.8,2.9,1.1,4.4h0v.2c.1.2.2.4.3.8,0,1.1.2,2.1.2,2.9v3.3c0,1.6-.1,3.2-.3,4.8-.2.4-.2.9-.3,1.2v.3h.1Z"/>
            <path class="cls-30" d="M182.4,230.8c0-1.5.1-3,.3-4.8.2-1.3.3-2.4.4-3.6.4.2.8.5,1.2.8h.3c.9,2.3,2.7,3.2,4.9,3.8,1.6.5,3.2,1.2,4.8,1.7,2,.2,3.9.4,5.9.7,1.3,0,2.4.2,3.5.4.3.3.7.7,1.1.9,2,.7,1.9.7,1,2.5-.7,1.4-1.1,2.8-1.7,4.4-1.3,3.9-2.5,7.7-3.8,11.5-.3.9-.5,2-1.2,2.6-3,3.2-3.8,5-2.2,7.8.9,1.5,2.5,2.6,3.7,3.9.4.5.8,1.2,1,1.9-1.6,1.3-3.7,2.3-4.8,3.8-3,4.5-5.8,9.3-8.7,13.8-2.9-6.8-4.4-13.8-5.2-21-1.1-8.7-1.1-17.4-1-26.2,0-1.1.1-2.1.3-3.4v-1.5h.2Z"/>
            <path class="cls-13" d="M190,285.8h-.5c-.5-.2-1.1-.3-1.5-.3s-1,.3-1.4.4c.5-.7,1.1-1.3,1.7-2.1,1.3-1.3,2.4-2.6,3.3-4,1.9-2.7,3.5-5.6,5.4-8.2s4.5-4.6,7.7-5.7c2.5,0,4.9-.2,7.2-.2-.7,1.4-1.3,2.7-2,4.1h-.2c-1.4,1.5-2.7,3-4.1,4.6-.8.7-1.4,1.3-2.2,2-.1.1-.2.2-.4.3-.2,0-.3.1-.4.2-4,2.7-8.1,5.3-12.1,8.1-.2.2-.3.5-.5.9h.1Z"/>
            <path class="cls-4" d="M261,298.6l-.2.2c-2,2.8-3.7,5.6-5.4,8.4-.5.8-.9,1.7-1.4,2.7-4.8,1-9.5,1.9-14.3,2.7h-.4c-2.8,0-5.4.1-8.2,0-.9-.4-1.6-.9-2.5-1.2-.1-.1-.2-.2-.3-.4,0-.3,0-.4.1-.5h1.4c1.2,0,2.4,0,3.4-.2,3.5-1,6.9-2.3,10.3-3.2,7-1.7,12.5-5.9,17.5-10.9,5-5,.9-.4,1.3-.4-.4,1.1-1,2.1-1.4,2.9h.1Z"/>
            <path class="cls-24" d="M254.1,309.8c.4-.9.8-1.7,1.3-2.6,1.7-2.7,3.6-5.6,5.4-8.3-.7,1.5-1.4,3-2.3,4.7-.5,1-1.1,1.9-1.6,2.7,2,1.9,4.7,1,7.6-1.9.7-.2,1.3-.2,2-.5,3.5-1.4,6.5-3.5,9.5-5.9,2-1.6,4.2-2.7,5.8-4.9,1-1.4,2.7-2.3,4-3.5,3.6-3.2,6.8-6.5,9.1-10.7,1-1.6,1.7-3.5,2.8-5.1,1.9-2.9,2.5-6,2.2-9.4,0-.5.2-.8.7-.7.1.7.2,1,.3,1.4,0,5.8-3,10.5-6.1,15-7.3,11-17.3,18.8-29.1,25-.3.2-.5.3-.8.5h-.1c-1.3.5-2.5,1.2-3.7,1.7h-.1c-2.5.8-4.8,1.5-7.1,2.2h.1Z"/>
            <path class="cls-28" d="M268.6,284.4c1.3-2.8,2.8-5.6,4-8.4,1.4-3.4,2.5-6.9,3.6-10.3.7-2,1-3.9,1.4-5.8-1.3-.8-2.4-1.4-3.6-2,6.4.5,10.6-2.9,14.7-7.1.4-.2.8-.3,1-.3v.5c-.3.3-.5.7-1.1,1.1-.7.9-1.2,1.5-1.7,2.3,0,0,0,.1-.2,0-.5.4-1.1.9-1.5,1.4h0c-.4.3-.7.7-1,1h0c-1.1.8-2.1,1.6-3,2.4h0c-.5.7-1,1.4-1.3,2.1,0,.1,0,.2-.2.5-1.3,3.5-2.4,7-3.6,10.3h0c-1.1,2.2-2.1,4.4-3,6.5-.1.1-.2.3-.5.7-1.2,2-2.3,3.8-3.4,5.4-.1-.2-.2-.4-.3-.5h-.1Z"/>
            <path class="cls-23" d="M181.8,218.7c-.3-1.4-.5-2.8-.9-4.4.3-1,.7-1.7,1.1-2.5,2.5.1,4.9.2,7.2.5,2.7.4,5.4,1.1,8.2,1.7,1.2.3,2.3.9,3.5,1.3,0-.1,0-.2.1-.4-1.2-.5-2.4-1-3.6-1.6-2-1-3.8-2-5.7-3.2.3-.1.8-.3,1.1-.2,2.3,1,4.7,2,7,2.9.2,0,.3.2.7.3,2,1,3.6,2,5.3,2.8,1.2.7,1.9,1.5,1.5,2.9,0,.2-.7.3-1,.4h0c-1-.8-1.9-1.3-2.7-2h-.7c-.5-.1-.8-.2-1.1-.3-1.2-.4-2.4-.9-3.7-1.4-.5-.2-.9-.4-1.2-.5-.1,0-.3,0-.7-.1-.4-.1-.8-.2-1.1-.2s-.5,0-.9-.1c-.4-.3-.7-.5-.9-.5-3.2-.2-6.3-.5-9.5-.5s-1.5,1.4-1.9,2.3-.1,2-.2,2.9M202.1,215.8h-.4c.1.1.3.1.4,0Z"/>
            <path class="cls-21" d="M301.1,265.3c-.2-.3-.3-.8-.4-1.2,2.6.9,5.4,1.6,7.9,2.8,12.2,6,24.3,12.2,36.5,18.3.5.3,1.1.7,1.6,1.1-1.5-.5-3-1.1-4.6-1.7-4.8-2.2-9.6-4.5-14.3-6.8-6.6-3.3-13.1-6.9-19.7-10.1-2.2-1.1-4.7-1.6-7.1-2.4h0Z"/>
            <path class="cls-33" d="M296.1,218.9c4.6,5.1,4.2,10.8,2.3,16.8-.3.9-.5,1.9-.8,2.9-.8,1.3-1.5,2.4-2.4,3.8-.2.4-.3.7-.5.9h0c-.8,1.3-1.3,2.6-2,3.8h-.1c-.2,0-.2.2-.2.3-.1.1-.3.3-.5.4,0-1,.2-1.9.4-2.9-.3-.2-.8-.4-1.4-.9.7-1.2,1.3-2.4,2.2-3.4,0,.9-.3,1.6-.5,2.3.8-.3,1.2-.8,1.5-1.3.8-1.4,1.5-2.8,2.4-4.4.8-1.6,1.9-3.2,1.9-4.8.1-3.2.4-6.3-1-9.6-.8-2-1.6-1.5-2.9-1.6-.2,0-.2-.2-.2-.4.4-.9.9-1.5,1.4-2.3.2,0,.3.2.7.3h-.1Z"/>
            <path class="cls-24" d="M287.1,254.3c.5-.8,1.1-1.4,1.6-2.2-.7,2.9-1.4,5.9-2.3,8.8-1.4,4.7-2.9,9.4-4.7,14-1.9,5.1-4,10-6.1,15-.2,0-.4-.2-.8-.3.5-1.2,1-2.5,1.4-3.7,2-5.2,3.9-10.6,5.8-15.8,1.2-3.4,2.3-6.9,3.4-10.2.3-1.1.7-2.1.9-3.2,0-.2-.5-.5-1.1-.9.3-.5.8-1,1.4-1.4h.3s-.1-.1-.2-.2h.3Z"/>
            <path class="cls-19" d="M191.7,210.3c1.9,1,3.8,2.1,5.7,3,1.2.5,2.4,1.1,3.6,1.6,0,.1,0,.2-.1.4-1.2-.4-2.3-1-3.5-1.3-2.7-.7-5.4-1.3-8.2-1.7-2.3-.3-4.6-.4-7.1-.7.3-1.3.8-2.5,1.3-3.8h1.5c2.3.9,4.5,1.6,6.6,2.4h.1Z"/>
            <path class="cls-19" d="M204.6,266c-3.2,1.1-5.7,3-7.6,5.7-2,2.6-3.6,5.4-5.4,8.2-1,1.4-2.1,2.6-3.2,3.9-.1-.1-.1-.3-.1-.7,2.8-4.8,5.7-9.5,8.7-13.9,1.1-1.6,3-2.5,4.9-3.8,1-.4,1.7-.8,2.5-1.2.1,0,.2.1.2.3v1.4h0Z"/>
            <path class="cls-24" d="M269.1,285c1.1-1.9,2.2-3.6,3.3-5.6,0,.4.3,1,0,1.4-1.1,2-2.3,3.9-3.4,5.8-1.7,3-3.5,6.1-5.3,9.1-.7,1.1-1.6,1.9-2.6,2.8.3-1,.8-1.9,1.4-3,.9-1.4,1.5-2.7,2.4-4,.3-.4.5-.8.9-1.3,1.2-1.9,2.2-3.5,3.3-5.2h.1Z"/>
            <path class="cls-20" d="M190,285.9c.1-.4.2-.8.5-1,4-2.7,8.1-5.3,12.1-8.1,0,0,.2-.1.4,0,.1.1.2.3.1.4-.9.9-1.6,1.5-2.5,2.3-.5.2-.9.4-1.3.7-2.7,1.7-5.3,3.4-8.1,5.1-.3.2-.7.4-1,.9-.1,0-.3,0-.4-.2h.1Z"/>
            <path class="cls-21" d="M357.1,291.8v.8c-1.7-.9-3.6-1.9-5.3-2.9-1.6-1-3.4-2-5-3,3.4,1.6,6.9,3.4,10.3,5.2Z"/>
            <path class="cls-24" d="M276.1,272.2c1.1-3.4,2.2-6.8,3.5-10.2-.4,2.1-.9,4.2-1.5,6.4-.4,1.3-1.2,2.5-2,3.8h0Z"/>
            <path class="cls-24" d="M273,278.8c.9-2.2,1.9-4.4,2.8-6.5.3,2.3-1.2,4-1.9,6.1,0,.2-.5.3-1,.4Z"/>
            <path class="cls-33" d="M290,250.3c-.3.1-.5.2-1,.3-.2-.4-.2-1-.2-1,.7-1,1.1-1.6,1.6-2.4.3.2.7.4,1.2.7-.2.7-.5,1.2-1.1,2-.3.2-.4.3-.7.4h.1Z"/>
            <path class="cls-24" d="M292.9,247.1c.4-1.3,1.1-2.5,1.7-3.8.2,1.7.3,3.5.5,5-.5-.3-1.3-.8-2.3-1.2Z"/>
            <path class="cls-20" d="M186.4,285.8c.7-.2,1.1-.4,1.5-.4s.9.1,1.4.3c-1.2.5-2.4,1-3.5,1.5,0-.1-.2-.3-.3-.4.2-.3.5-.7.9-.9h0Z"/>
            <path class="cls-24" d="M281.4,259.3c.9-.9,1.7-1.6,2.8-2.5-.9.8-1.7,1.6-2.8,2.5Z"/>
            <path class="cls-24" d="M279.8,261.4c.2-.7.7-1.4,1.2-2.1-.2.7-.7,1.4-1.2,2.1Z"/>
            <path class="cls-20" d="M182.3,230.9c0,.3.1.8,0,1.3h-.3c0-.4,0-.9.2-1.3h.1Z"/>
            <path class="cls-24" d="M273.8,291.9c.2-.2.4-.3.5-.4-.1.3-.3.7-.4,1v-.7h-.1Z"/>
            <path class="cls-24" d="M284.4,256.8c.1-.3.4-.7.8-1.1-.1.3-.4.7-.8,1.1Z"/>
            <path class="cls-24" d="M290,250.4c.2-.2.3-.3.5-.4,0,.3-.2.7-.5,1v-.5Z"/>
            <path class="cls-24" d="M294.9,243.3c0-.2.1-.4.3-.8,0,.2-.1.5-.3.8Z"/>
            <path class="cls-24" d="M292.5,247.4s0-.2.1-.2c0,0,0,.2-.1.2Z"/>
            <path class="cls-17" d="M198.4,303.2c.8-.9,1.5-1.9,2.4-2.6.3.7.5,1.1.8,1.6h-.1v1.2c-.3.8-1,1.3-1,2,0,3-.1,6.1.2,9.1.7,5.1,2.1,10,4.6,14.7.3.5.7,1,1,1.4.1.5.2,1.1.3,1.6,1,4.4,1.4,8.5.5,12.7-.1-1.7-.3-3.5,0-5.1.3-2.4-.2-4.6-1.5-6.8v-.3c-.1-.1-.2-.2-.3-.4v-.7c-.3-.8-.7-1.4-1-2.1v-1c-.2-.3-.4-.4-.7-.8-.3-.4-.7-.7-1-1-.1-.3-.2-.8-.4-1.3-.2-1.3-.3-2.3-.8-3.3-.3-.8-.9-1.3-1.3-2.1-.1-.5-.2-1.2-.3-2-.1-1-.3-1.7-.5-2.5,0-.8-.2-1.4-.2-2.4s0-1.3-.1-1.7v-2.7c0-.3-.2-.4-.3-.4v-1.1h0c0-1.5-.2-2.8-.4-4.1h.2Z"/>
            <path class="cls-14" d="M198.4,370.7s-.1.2-.4.3c-.1-.8,0-1.6,0-2.4h.1c.2-.2.4-.3.5-.5,1.4-2.3,2.7-4.6,4.1-6.6.2.8.4,1.3.8,2,.7-.3,1.3-.7,2-1,.2,0,.3-.3.4-.4,1.7-1.9,3.8-3.7,5.3-5.8,1.4-2.1,2.4-4.4,3.6-6.6h.9c-.3,1-.7,1.9-1.1,2.6h-.1c-1,1.5-1.9,3-2.6,4.5-1.1,2.7-3.2,4.7-5.3,6.6-1.1.9-2.1,2-3.2,3-.4-.2-.7-.7-1.1-1.3-1,1.5-1.9,2.8-2.6,4.2-.2.2-.4.3-.8.7-.3.3-.4.5-.5.8h0Z"/>
            <path class="cls-18" d="M182.8,352.2h-.4c.5-2.8,1.1-5.7,2-8.5,1.3-4.6,2.7-9,4.2-13.5,1.6-4.9,3.4-9.7,5-14.6.8-2.2,1.6-4.2,2.6-6.5h.4c-.7,2.1-1.3,4.1-2.1,6.2-1.3,3.9-2.7,7.7-4,11.7-1.3,4.1-2.7,8.3-3.9,12.5-1.2,4.1-2.3,8.4-3.5,12.6l-.4.2h.1Z"/>
            <path class="cls-14" d="M216.9,347.7c0,.1,0,.3-.1.5-.3.2-.7.3-.9.3v-1c.2-.3.4-.7.7-1.1.1-.3.2-.7.4-1,.3-.9.7-1.6,1-2.4h0c.5-1.2.9-2.3,1.3-3.5v-.3c0-.2,0-.4.1-.5.2-.2.4-.4.7-.8.8-2.3,1.3-4.4,2.1-6.6.4-.9.8-1.6,1-2.4,1.1-2.9,2.1-6,3.2-9,.1-.9.2-1.6.2-2.5v-3c0-.9,0-1.5,1-.8v5c-.2,1.1-.4,2-.5,2.8,0,.3,0,.8-.1,1.3-.2.9-.4,1.5-.5,2.2h0c-.1.2-.2.4-.2.7-.1.3-.2.8-.5,1.3-.4,1-.9,1.7-1.2,2.6,0,.1,0,.3-.1.7-.4,1-.7,1.7-1,2.5,0,.2,0,.5-.1.9-.2.2-.2.3-.2.4h-.1c-.5,1.2-1.1,2.3-1.5,3.5-.1.7-.2,1.2-.4,2-1.3,2.9-2.5,5.7-3.7,8.5l-.2-.2h0Z"/>
            <path class="cls-26" d="M226.4,324.8c0-.7.2-1.3.4-2.1,1.6.4,3.2,1.2,4.7,1.3,5.7,0,11.3.5,16.9-1.2.4-.1,1,0,1.9,0-.5.4-.7.8-.9.8-3.2.5-6.2,1.2-9.4,1.4-3.9.3-7.9.2-11.9.3-.5,0-1-.3-1.6-.5h-.1,0Z"/>
            <path class="cls-26" d="M227.8,317.8c-.1-1.4-.1-2.8,0-4.4.2-.4.4-.5.7-.8h.3c.9,0,1.6.1,2.4.1,2.6,0,5.3,0,8.2-.1h.5c4.7-.9,9.4-1.7,14.2-2.7,2.4-.9,4.7-1.6,7.2-2.3-.1.3-.3.8-.7.9-6,2.6-12.4,3.9-18.8,4.7-3.7.4-7.5,0-11.3.2-.5,0-1.3.8-1.6,1.3-.4,1-.5,2.1-1,3h0Z"/>
            <path class="cls-14" d="M205.7,333.1c1.2,2.1,1.7,4.2,1.5,6.6-.2,1.7,0,3.4,0,5.3s-.2,4.8-.7,7c-.4,2.2-1.1,4.4-1.7,6.5,0,.3-.8.4-1.2.5.3-.9.8-1.6,1-2.5.7-2.5,1.2-5,1.7-7.5,0-.4-.4-.9-.5-1.4,0-.1,0-.3.1-.5.1-2.7.1-5.2.2-7.7,0-.5-.2-1-.2-1.7,0-1.6,0-3.2-.1-4.6h-.1Z"/>
            <path class="cls-26" d="M205.6,347.8c.3.3.8.9.7,1.3-.5,2.5-1.1,5-1.7,7.5-.2.9-.7,1.6-1.1,2.6-.3.9-.5,1.4-.8,2.1-1.4,2.3-2.7,4.6-4.1,6.9-.1.2-.3.3-.5.5.5-1.4,1.1-2.9,1.7-4.4,1.4-2.8,2.7-5.8,3.9-8.7,1-2.5.7-5.2,1.9-7.7h.1Z"/>
            <path class="cls-26" d="M205.7,333c0,1.5.1,2.9.1,4.5h-.2c-1.1-3-2.1-6.1-3-9.1-.1-.4,0-.9,0-1.4.3.1.7.4,1,1,.2.4.4.5.7.8v1c.3.9.7,1.5,1,2.2v.7c.1.2.2.3.3.4v.2h.2Z"/>
            <path class="cls-26" d="M199.8,369.3c.8-1.4,1.6-2.7,2.5-4.2.4.7.8,1.1,1.1,1.4-.2,1.2-.4,2.3-.8,3.5-.2.1-.4.2-.7.4-.2-.3-.3-.8-.3-.8-.8-.1-1.3-.2-2-.3M202.7,367.7h0Z"/>
            <path class="cls-26" d="M197.8,368.6v2.4c-.5,1.1-1.3,2.2-2.2,3.5-.5-1.7.8-4.9,2.2-5.9h0Z"/>
            <path class="cls-26" d="M196.6,309h-.3c.5-2,1.2-3.8,1.9-5.9.2,1.2.4,2.6.4,4-.7.7-1.3,1.1-2.1,1.7h.1Z"/>
            <path class="cls-26" d="M217,347.7c1.1-2.7,2.3-5.4,3.6-8.3-.1.9-.2,2-.5,2.9-.4,1.3-1,2.7-1.6,3.9-.2.5-.8,1-1.3,1.4h-.1Z"/>
            <path class="cls-26" d="M205.9,339.5v7.5-7.5Z"/>
            <path class="cls-26" d="M215.8,348.8c.2,0,.5-.2.9-.3,1,.7,1.3,1.2,0,1.7-.8.3-1.1,1.3-1.9,2,.2-.9.5-1.6.9-2.7v-.7h.1Z"/>
            <path class="cls-26" d="M200.1,320.3c.4.5,1,1.2,1.3,1.9.3,1,.4,2,.7,3.2-.5-1.1-1.2-2.2-1.6-3.4-.2-.4-.2-1-.3-1.6Z"/>
            <path class="cls-26" d="M212.1,356.8c.8-1.5,1.5-2.9,2.5-4.5-.2,1.7-.9,3.4-2.5,4.5Z"/>
            <path class="cls-26" d="M221.1,337.3c.3-1.1.9-2.3,1.4-3.5-.3,1.1-.9,2.3-1.4,3.5Z"/>
            <path class="cls-26" d="M261.4,307.7c1.1-.7,2.2-1.2,3.5-1.9-.7,1.4-2,1.7-3.5,1.9Z"/>
            <path class="cls-26" d="M224.3,329.3c.2-.8.7-1.6,1.1-2.4-.2.8-.7,1.6-1.1,2.4Z"/>
            <path class="cls-26" d="M199.3,315.8c.3.7.4,1.4.5,2.3-.3-.7-.4-1.4-.5-2.3Z"/>
            <path class="cls-26" d="M223.2,332.4c.2-.8.4-1.5.9-2.4-.2.8-.4,1.5-.9,2.4Z"/>
            <path class="cls-26" d="M227.1,321.3c0-.9.2-1.7.4-2.7,0,.9-.2,1.7-.4,2.7Z"/>
            <path class="cls-26" d="M198.9,311.6c.1.4.2,1,.2,1.5-.2-.4-.2-1-.2-1.5Z"/>
            <path class="cls-26" d="M194.9,374.7c.1.2.2.4.2.7h-.4c0-.2,0-.4.2-.7Z"/>
            <path class="cls-26" d="M198.5,370.7c0-.2.2-.4.4-.7,0,.2-.2.4-.4.7Z"/>
            <path class="cls-26" d="M225.9,325.4c0-.1,0-.3.1-.5,0,.1,0,.3-.1.5Z"/>
            <path class="cls-26" d="M265.2,305.9c0-.1.2-.3.5-.4,0,.1-.2.3-.5.4Z"/>
            <path class="cls-26" d="M222.8,333.8s0-.2.2-.3c0,0,0,.2-.2.3Z"/>
            <path class="cls-26" d="M198.7,307.4v.2-.2Z"/>
            <path class="cls-26" d="M198.7,308.5s.2,0,.2.2c0,0-.1,0-.2-.2Z"/>
            <path class="cls-22" d="M199.8,298.1c.5-.1,1.4.3,1.5-.8,0-.1.5-.2.9-.3,1.2-.5,2.4-1.3,3.6-1.6,1.1-.3,2.4-.1,3.6-.3.9-.1,1.7-.4,2.6-.8.2-.2.2-.3.3-.5.2-.3.4-.4.7-.7.4.5.7,1,1,1.4,1.9,2,4.6,1.2,6.8,2,1.4.5,2.2,1.2,2.2,2.7-.3.1-.4.2-.7.1,0,0-.2,0-.2-.2-2.1-2.2-4.6-2.7-7.5-2.5h-3.7c-1.7-.9-3,0-4.6.8-1.9.8-3.7,1.5-5.4,2.3-.3-.5-.7-1-1-1.6h0Z"/>
            <path class="cls-9" d="M211,296.7h2.3c.3,0,.8,0,1.3.1.8.5,1.3.9,1.7,1.2-1.9,0-3.6-.3-5.3-.2-.7,0-1.2.7-2,1-.8.2-1.4.4-2.1.7-1.9.9-3.3,2.5-5.4,2.8-.2-.5-.3-1-.7-1.6v-.8c1.9-.9,3.6-1.5,5.7-2.3,1.2,0,2.2.1,3.2,0,.4,0,.9-.5,1.4-.8h-.1Z"/>
            <path class="cls-18" d="M169.9,350.9v4.9h-.3v-7.9h.3v2.9h0Z"/>
            <path class="cls-22" d="M199,297.1c.2,0,.4.2.7.5-.2,0-.4-.2-.7-.5Z"/>
            <path class="cls-17" d="M196.3,294.5s.2,0,.3.2c0,0-.2,0-.3-.2Z"/>
            <path class="cls-33" d="M191.7,210.2c-2.2-.7-4.4-1.4-6.5-2.3,4.4-2.6,9.3-3.4,14-3.9,23.1-2.7,45.6,0,67.8,6.3,1.6.4,3.2,1,4.9,1.7.2.5.4,1,.5,1.4v.7c-.2,2.8-.4,5.6-.7,8.5v1.6c0,2.1-.1,3.9-.2,5.9-.2-.1-.5-.2-.5-.3-.2-1.5-.4-3-.5-4.7,0-1.2.1-2.4,0-3.5-.1-1-.8-1.6-1.9-.9-.9.5-1.7,1.2-2.6,1.6-1.2.5-2.5,1-4,1.4-.8,0-1.3,0-1.9.2-1.7.4-3.5,1.1-5.2,1.2-1.4.2-2.9-.2-4.5-.3.7-1.7,2.1-1.2,3.3-.9.9.2,1.5.3,2.5-.1,2-1,4.1-1.4,6.2-2.1,1.7-.5,3.5-1.1,5.2-1.6,1.1-.4,1.4-1.1,1-2.3-.5-1.3-.8-2.6.2-3.9.8-1.1.2-1.6-.9-1.7v.5c-.9.3-1.9,1.2-2.5,1.1-2.3-.7-3.4.8-4.6,2.1-1.1,1.2-2.1,1.5-3.3.1-.1-.1-.4-.3-.5-.3h-7.6c-2.2,0-4.2-.3-6.4-.3s-4.4.3-6.3,2.1c-1.3,1.2-3.8,1.1-5.9,1.6,0,0,.2.5.4,1.2-3-1-5.4-.4-7.8,1.6-.4.1-.7,0-1,0-.1-.4-.2-.8-.2-1.3,1.4-.8,2.7-1.4,4-2,5.2-2,10.5-4.1,16.1-4.6,3.2-.2,6.4-.3,9.7-.2,2.2,0,4.5.3,6.6.5-1.4-3-4.2-4-7-4.6-2.3-.4-4.9-.4-7.3,0-3.8.8-7.5,2.1-11.2,3.2.3-.3.7-.9,1-.9,1.9,0,2.8-1.2,4-2.4,1.2-1.3,2.6-2.4,4-4h-3.3c-.5,0-1.1.1-1.5,0-4.1-.2-8.4-.4-12.5-.8-.4,0-.8-.3-1.2-.4-.5-.2-1.1-.5-1.5-.5-2.1.1-4.4,1-6.1.3-2.1-.8-2.5.9-3.8,1.4-1.1-2.2-2.6-.5-3.9-.5-2.1,0-4,.3-6.2-.4-1.2-.4-2.8.4-4.2.7-.3,0-.8.2-1,.1-2.2-.9-2.9,1.3-4.5,2v.7c1.3.3,2.5.8,3.8.9,2.1.2,2.2.3,1.9,2.4.5.4,1.1.8,1.6,1.3-2.3-.9-4.6-1.9-7-2.8-.3-.1-.7,0-1.1.2h-.1Z"/>
            <path class="cls-3" d="M272,224.1v-1.5c.2-.9.3-1.6.4-2.4.1-1.2.2-2.5.4-3.7h0v-.2c-.1-.9-.2-1.6-.3-2.4v-.7c.1-.5.2-1,.2-1.4,2.5.8,5.1,1.6,7.6,2.4,2.6.9,5.2,1.6,7.8,2.6-1,.5-2,1-3,1.3-.7.2-1.4.2-2.6.4-2.1,3.3-4.5,7-7,10.7-.1,0-.2.2-.2.3-.1.1-.2.2-.4.3-.8.4-1.4.9-2.1,1.4-.2-1.5-.4-3.3-.7-5-.1-.8-.3-1.6-.4-2.4l.2.2h0Z"/>
            <path class="cls-33" d="M275.8,229.4c2.4-3.7,4.8-7.5,6.9-10.7,1.2-.2,2-.2,2.6-.4,1.1-.3,2.1-.8,3.2-1.3,2.2-.1,4.4-.3,6.2,1.2-.5.1-1.2.2-1.6,0-1.3-.3-2.9.5-3.3,1.7h-1.3c-.7-1.2-3.2-1.4-3.9-.3-.5.8-1.2,1.4-1.9,2.3.1.2.3.8.7,1.5-.8.2-1.5.2-2.2.5-.7.2-1.3.5-1.6,1.1-.7.9-1.2,2-1.7,2.9-.2.5-.3,1.1-.5,2-.4.2-1.1.4-2,.7-.1-.2-.1-.4,0-.5,0,0,.2-.2.3-.3.1-.1.2-.3.2-.4h0Z"/>
            <path class="cls-27" d="M290,220c.1-1.2,1.9-2.1,3-1.7.5.1,1.1,0,1.7,0s.4.1.7.3c-.4.8-.9,1.5-1.4,2.4-.7-.1-1.1-.3-1.6-.7-.1-.3-.2-.5-.3-.8,0,.2-.2.3-.4.5h-1.6Z"/>
            <path class="cls-19" d="M272.8,211.9v1.3c-.2-.3-.3-.7-.5-1.2.2-.1.3-.1.5-.1h0Z"/>
            <path class="cls-2" d="M292.4,220.3c.5.2,1,.4,1.6.7.1.1.2.2.4.4,2.3,2.5,3.2,5.2,2.8,8.4-.3,2.5-.7,5-1.1,7.6-.8,1.4-1.5,2.8-2.3,4.2-.3.5-.8,1-1.5,1.3.2-.8.4-1.4.7-2.3,1-3,2.1-6,2.7-8.9.4-2,.3-4,0-6-.5-3.6-4.5-5.4-7.5-4.2-2.6,1-3.9,3.4-4.7,6.1-.2,1-.7,2.2.4,3,.1,0,.3.1.5.2,1.3-3,1.2-7,5.2-8.9-1,2-1.9,3.4-2.6,5-1.3,2.6-1.2,3,.9,5.1s3.2,7.5,1,10.9c-1.5,2.4-2.9,2.8-5.1,1.5,4.6-.9,5.3-4.1,4.7-7.5-.5-2.8-3.7-3.4-6-4.8-.5,3-1.3,6-1.3,8.9s-.4,3.6-1.4,5.3c-.8,1.3-1.1,1.5-2.5,1.4,2.8-4.4,2.8-9.5,4.2-14.3.4-1.7.1-3.7.5-5.4.9-3.4,2.4-6.5,6.1-7.9h3.2c.4.1.5.2.8.2h.2Z"/>
            <path class="cls-12" d="M233.4,213c3.8-1.1,7.5-2.4,11.3-3.2,2.3-.4,4.9-.5,7.3,0,2.8.5,5.6,1.5,7,4.6-2.2-.2-4.5-.5-6.6-.5-3.3,0-6.4,0-9.7.2-5.7.4-10.9,2.6-16.1,4.6-1.3.5-2.6,1.2-4,1.9-.2-1-.3-2.1-.3-3.3.8.4,1.3.5,2.1-.2.2-.1.4-.2.7-.3.2-.1.4-.2.8-.3,2.5-1.1,4.8-2.1,7.2-3h.5v-.3h0Z"/>
            <path class="cls-16" d="M199.6,280.2c.2-.2.7-.4,1.3-.7,2.1-.2,3.9-.5,5.8-.5s3.6.5,5.4.5h13.2c.5.3,1,.7,1.4.9-2.6,1.6-5.3,2.8-8.5,3.3h-.5c-5.3,1.9-10,0-14.6-2.4-1.1-.5-2.3-.8-3.6-1.1h.1Z"/>
            <path class="cls-9" d="M226.6,266c4.2,2.1,6.6,5.6,7.5,10.2,1,5.7,3.4,10.6,7.2,14.8,0,.1.1.3.3.9-4-2.2-7.6-4.1-10.1-7.8,0-.1,0-.2.2-.2.5.3.9.5,1.3.9.9.7,1.9,1.3,2.9,2.1-1.3-4.1-2.6-7.7-3.7-11.5-.8-2.6-1.9-5-4.1-6.5-1-.7-2.1-1.2-3.2-1.6-1.4-.7-2.8-1.1-4.2-1.7.4-.4,1-.7,1.5-1,1.2.4,2.2.8,3.3,1.2h0c.3.2.7.4,1,.5h.1Z"/>
            <path class="cls-29" d="M204.3,264c-.7.4-1.4.9-2.3,1.2-.5-.5-.8-1.3-1.3-1.7-1.2-1.3-2.8-2.4-3.7-3.9-1.6-2.8-.8-4.7,2.2-7.8.7-.7,1-1.7,1.2-2.6,1.3-3.8,2.5-7.6,3.9-11.5.4-.1.7-.1,1-.1-1,3-2.1,6.1-2.7,9.3-.8,3.6-1.3,7.3-1.7,10.9-.3,2.8.7,5.1,3.5,6.4M198.3,259.5c.3.4.7.8,1.3,1.4v-7.8c-2.5,1.5-2.9,3.4-1.3,6.4Z"/>
            <path class="cls-29" d="M264.8,291.7c-.8,1.3-1.5,2.5-2.3,3.8-.5.3-1.1.3-1.4.7-5,5-10.5,9.1-17.5,10.9-3.5.9-6.9,2.2-10.3,3.2-1,.3-2.2.1-3.4,0-.1-.2-.1-.4,0-.5,1.6-.2,3-.3,4.6-.7,1.5-.3,2.9-.9,4.4-1.3,5.7-1.6,11-3.8,15.8-7.4,3.7-2.7,6.9-6,9.9-9.6.2.3.3.5.3.9h0Z"/>
            <path class="cls-33" d="M225.3,230.8c-.2-.4-.8-1.1-.7-1.2.9-1.1,1.7-2.2,2.7-3.2,1.4-1.2,3-1.2,4.7-.8.5,0,1.6-.4,1.7-.9.5-1.7,1.9-1.5,2.9-1.1,2.6,1,5.2,1,7.9.8,1.5,0,2.9.1,4.5.4-.3.3-.7.4-1.2.4h-7.9c-.8,0-1.3.2-2,.2s-.4.2-.9.3c-1.3.1-2.4.3-3.7.4-3.2.8-5.9,2.2-8.2,4.5h0Z"/>
            <path class="cls-33" d="M181.8,218.7c0-1-.1-2.1.2-2.9s1.2-2.3,1.9-2.3c3.2,0,6.3.3,9.5.5.2,0,.4.3.8.5-2.6,1.7-5.6,2.3-8.7,2-1.4-.1-2.4,1.2-2.5,3.3-.2,0-.4,0-.5-.2-.1-.1-.2-.3-.3-.7,0-.1,0-.2-.2-.3h0Z"/>
            <path class="cls-15" d="M222.1,264.1c-.4.3-.9.5-1.5,1-1.5-.2-2.9-.5-4.4-.9-1.3-.2-2.5,1-2.1,2.2.4,1.1,1,2.2,1.6,3.2.5.9,1.2,1.7,1.6,2.7-.5.1-.9.2-1.3.3h0c.7-1.4-.5-.3-.8-.8-.9-1.2-1.6-2.3-2.4-3.5v-.7c.3-1.1.4-2-1-2-2.4.1-4.7.2-7.2.3-.2-.4-.2-.9-.2-1.3h.8c2.8.8,5.4.3,8.1-1.3,1.3-.2,2.4-.3,3.5-.4.1,0,.3,0,.7.1.7,0,1,.1,1.4.1s.3,0,.7.2c.5.1.8.1,1.1.2.1,0,.3,0,.7.2s.5.3.8.5v-.3h0Z"/>
            <path class="cls-33" d="M183.4,220.3c2.1.5,4.1,1.1,6.2,1.5.8.1,1.6,0,2.5-.1,1.3-.3,2.5-.9,3.4.9.2.3,1.2.4,1.9.4s3.3,1.2,3.4,2.2c-.2.2-.4.3-.8.3-2.9-1.1-5.9-1.9-9.1-1.4-.7,0-1.3,0-1.9-.2-2.2-.8-4.5-1.3-5.6-3.6h0Z"/>
            <path class="cls-22" d="M237,232.2c-1.2-.1-2.4-.2-3.8-.4-1.1-.1-2-.2-2.8-.2h-1.6c-.7-.3-1.1-.4-1.4-.8,1.2-.5,2.3-1.1,3.5-1.5,1.1.2,2.2.4,3.4.7,1.6.2,3.2.3,4.9.5,1.1,0,2-.1,2.8-.2.4.2.9.4,1.3.5.7,0,1.3,0,2,.1-2.3,1-4.7,1.4-7.4,1.4h-.8Z"/>
            <path class="cls-19" d="M275.2,230.1c.1.1,0,.2,0,.5v.2c-.5,1.5-1,3-1.4,4.5v.7c0,.5.1.8.2,1.1,0,.3,0,.7-.2,1.2-.2,1.2-.4,2.2-.4,3.2s-.3,1.5-1.3,1.5v-12.7c0-2.1,0-3.9.1-6,.2.7.4,1.4.5,2.2.2,1.7.4,3.5.7,5,.7-.4,1.3-1,2.1-1.4h-.2Z"/>
            <path class="cls-19" d="M216.1,272.6c.4,0,.8-.2,1.4-.2,2.7,2,5.3,3.7,7.8,5.8,1.9,1.5,3.6,3.3,5.4,5v.5c-1.3-1.1-2.5-2.1-3.9-3.2-.5-.3-1-.7-1.6-1.1-.8-.5-1.2-.9-1.9-1.4-2.1-1.4-4.1-2.8-6.2-4.2-.3-.2-.7-.4-1-.7v-.5h-.1Z"/>
            <path class="cls-15" d="M213,293.1c-.2.2-.3.4-.7.7h-.3c-.2-1.4-.4-2.8-.8-4.5-.1-.3-.2-.4-.2-.5v-.7c0-1,0-1.9.1-2.6,1.1,0,2.2.2,3.4.4-.4,2.5-1,4.8-1.5,7.1h0Z"/>
            <path class="cls-15" d="M246,225.3h2c2.4,1.3,4.6.9,6.9.4.8-.1,1.5,0,2.3,0-2.8.8-5.8,1.6-8.8,2.4-.1-.4,0-.9,0-1.5h-5.4c-.5,0-.9,0-1.3-.2.9-.3,1.7-.5,2.6-.8.7-.1,1.3-.3,1.9-.5v.2Z"/>
            <path class="cls-29" d="M227,254.1c1.3,2.5,1.2,4.9,0,7.3-.2.5-1,.8-1.6,1.3-.2-.5-.2-.7-.2-.7,2.6-3.5.8-6.3-1.4-9.1-.3-.4-.3-1.1-.4-1.6.5.1,1.3.1,1.7.4.8.7,1.2,1.5,2,2.4h0Z"/>
            <path class="cls-2" d="M205.5,237.3h-1c.4-1.4.9-2.8,1.5-4.2.9-2,1-1.9-1-2.5-.4-.1-.8-.5-1-.9h.8c.8.1,1.3.2,2,.3.5-.2.9-.4,1.3-.7.7-1.7,1.3-3.4,2-5.1h.5c-.1.9-.1,1.9-.4,2.6-1.3,3-2.7,6.1-4.1,9-.2.3-.3.8-.5,1.2v.2h0Z"/>
            <path class="cls-23" d="M242.9,226.9h5.3c-.1.7-.2,1.1-.2,1.5-2,.7-3.9,1.2-6.1,1.7-1.1,0-2,.2-2.9.1.3-.4.8-.9,1.3-1.1,1.6-.1,3.2-.3,4.6-.7-.8-.8-2.3,0-2.1-1.6h.1Z"/>
            <path class="cls-20" d="M229.7,309.7v.5c-.3.1-.8.1-1.3,0-.5-2.1-2.2-3.7-2-5.9,0-.3-.7-.8-1-1.2-1.1-1.3-2.1-2.6-3.2-3.9h.7c.7.4,1.1.9,1.7,1.5,1.2.9,2.2,1.6,3.3,2.3,0,.1,0,.3-.1.5-.3.1-.7.1-.9.1.2.3.4.7.7,1,0,.3.2.5.3,1.1.2.9.4,1.4.7,2.1.2,0,.3.2.5.4.2.5.3.9.5,1.3h0Z"/>
            <path class="cls-19" d="M215.5,260.7c1.3-2.7,3.7-3.3,6.3-2.7.9.2,1.6,1.1,2.3,2-2.7-.4-5.2-1-7.7.9-.4,0-.7,0-1-.2h.1Z"/>
            <path class="cls-33" d="M206.3,219.8c.3-.2,1-.3,1-.5.3-1.4-.3-2.3-1.5-2.9-1.7-.9-3.5-1.9-5.2-2.8,0-.3.3-.7.4-.8,2.1,1,4,2,6.1,2.9,1.5.7,2.3,3.4,1.2,4.6-.8.9-1.4.9-1.9-.3h-.1Z"/>
            <path class="cls-33" d="M224.8,216.5c-.2.1-.3.2-.7.2-.9-.2-1.5-.4-2.2-.5-.9-.2-1-.8,0-1,1.3-.3,2.6-.4,3.9-.5.4,0,1.1,0,1.3-.3,1.5-2,3.7-1,5.7-1.3-2.3,1.1-4.7,2.2-7.2,3.2-.3,0-.5.3-.8.4h-.1Z"/>
            <path class="cls-28" d="M257.2,226c-.9,0-1.6-.2-2.4,0-2.3.4-4.5.8-6.6-.4.2-.1.5-.2,1-.4h1.3c1.6,0,3.2.4,4.6.2,1.7-.2,3.5-.9,5.2-1.2.5-.1,1.1-.2,1.7-.1-1.5.8-3.2,1.5-4.8,2.2v-.2Z"/>
            <path class="cls-33" d="M271.8,243c1.2,0,1.4-.7,1.4-1.5s.2-2,.4-3c1,1.7.5,6.3-.7,7.4-.3.2-1.1.2-1.4,0s-.5-.8-.5-1.2.4-1.1.8-1.6Z"/>
            <path class="cls-9" d="M230.7,229c-1.1.5-2.2,1-3.5,1.6-.3.2-.5.3-.7.3-.4,0-.9,0-1.2-.1,2.2-2.4,4.9-3.8,8.1-4.5-.2.5-.5.9-1,1.3-.7.4-1.2.9-1.7,1.2h0Z"/>
            <path class="cls-23" d="M213.1,293.1c.4-2.4,1.1-4.7,1.6-7.1.7-.1,1.2-.2,2.1-.2-.5,1-.3,1.7-1.2,2.7-1.2,1.3-1.1,3.7-1.5,5.8-.3-.3-.7-.8-1-1.2h0Z"/>
            <path class="cls-22" d="M229.9,309.7c-.3-.3-.4-.8-.5-1.3,3-.3,6.1-.5,9.4-.8-1.3.4-2.7,1-4.2,1.3-1.4.3-2.9.4-4.6.7h0Z"/>
            <path class="cls-9" d="M206.7,230c-.5-.1-1.2-.2-2-.4-1.3-.9-2.5-1.6-3.6-2.5-.3-.7-.7-1.1-1-1.6.2,0,.3-.1.7-.2h.3c.3.1.5.2.8.3.1,0,.3.2.7.4,1.9,1,3.6,1.9,4.1,4h0Z"/>
            <path class="cls-20" d="M183.4,220.3c1.2,2.3,3.5,2.8,5.6,3.6-1.4-.2-2.7-.5-4-.8h-.4c-.3-.2-.8-.4-1.1-.8,0,1.1-.2,2.2-.4,3.4,0-1,0-2.1-.1-3,0-1-.2-1.9-.2-2.9.2,0,.3,0,.5.2l.3.3h-.1Z"/>
            <path class="cls-28" d="M222.8,221.9c.2-.1.5-.1.9-.1,0,2.6,0,5.2-.2,7.7h-.8v-7.6h.1Z"/>
            <path class="cls-33" d="M206.8,230c-.7-2.1-2.4-2.9-4.1-3.9,1.1-1.1,2.1-.3,2.9.4s1.5,1.9,2.5,2.8c-.3.2-.7.4-1.2.7h-.1Z"/>
            <path class="cls-22" d="M222.2,264.1c-.3-.2-.5-.3-.8-.5,2.5-1.2,3.7-.8,4.1,1.5-1.1-.2-2.1-.7-3.3-1h-.1Z"/>
            <path class="cls-33" d="M284.7,248.2c-.8.1-1.3.2-1.9.3,0-.2-.1-.4-.2-.7,1.9-.7,3.7-1.3,5.6-2,0,.2.2.4.3.8-1.2.5-2.4,1-3.7,1.5h-.1Z"/>
            <path class="cls-22" d="M215.4,260.7c.3,0,.7.1,1,.2.2.5.4,1,.5,1.6-1.1.2-2.1.4-3.4.5.4-.8,1.1-1.5,1.9-2.4h0Z"/>
            <path class="cls-29" d="M269.1,284.9c-1.1,1.9-2.1,3.6-3.4,5.3-.3,0-.4-.2-.5-.3,1.2-1.7,2.3-3.6,3.5-5.4.2,0,.3.2.4.4Z"/>
            <path class="cls-22" d="M227.9,303.1c-1-.5-2.1-1.3-3.2-2.2,1.6-.2,2.7.3,3.2,2.2Z"/>
            <path class="cls-22" d="M210.9,285.4v2.6c-.8-.7-1.4-1.4-2.2-2.2,0-.1.1-.3.2-.4h2Z"/>
            <path class="cls-33" d="M273.7,235.2c.3-1.4.8-2.9,1.4-4.5-.3,1.4-.8,2.9-1.4,4.5Z"/>
            <path class="cls-33" d="M203.6,217.7c.9.5,1.7,1.1,2.7,1.9-1.4.3-2.5,0-2.7-1.9Z"/>
            <path class="cls-22" d="M222,216.3c.7,0,1.3.2,2.1.4-.5.9-1.1.8-1.9.2-.1-.2-.1-.3-.1-.7h-.1Z"/>
            <path class="cls-33" d="M230.4,231.7c.9,0,1.7,0,2.6.1-.8,0-1.7,0-2.6-.1Z"/>
            <path class="cls-33" d="M226.6,231.1c.1-.2.3-.3.5-.4.5.2,1,.3,1.4.7-.7.4-1.4,1.2-2.1-.2h.1Z"/>
            <path class="cls-22" d="M227.8,304.9c-.3-.3-.5-.7-.8-1h.9c.3.2.4.4.7.8-.2.1-.4.2-.8.3h0Z"/>
            <path class="cls-22" d="M228.7,307.9c-.2-.4-.4-1.1-.7-1.9.2.4.4,1.1.7,1.9Z"/>
            <path class="cls-33" d="M257.1,221.5c.1.4.1.9.1,1.3h-.8c.2-.4.3-.9.7-1.2h0Z"/>
            <path class="cls-28" d="M265,289.9c.2,0,.3.2.5.4,0,.4-.3.9-.7,1.3-.1-.2-.2-.5-.3-.9,0-.3.2-.5.4-.8h0Z"/>
            <path class="cls-22" d="M218.9,262.9h-1.3,1.3Z"/>
            <path class="cls-33" d="M201.9,217.3c.3,0,.5,0,1,.2,0,.2-.3.4-.4.7-.1-.2-.3-.5-.4-.9h-.1Z"/>
            <path class="cls-33" d="M274,237c-.2-.2-.2-.5-.3-.9,1.1-.1.8.3.3.9Z"/>
            <path class="cls-33" d="M195.2,214.9c.3,0,.5,0,1,.1-.2,0-.7,0-1-.1Z"/>
            <path class="cls-22" d="M220.6,263.3h-1,1Z"/>
            <path class="cls-22" d="M226.5,265.8c-.3,0-.7-.2-1-.4.3,0,.7.2,1,.4Z"/>
            <path class="cls-33" d="M197,215.2c.3,0,.7.2,1,.4-.3,0-.7-.2-1-.4Z"/>
            <path class="cls-9" d="M230.8,283.7v-.7c.2.1.4.3.5.5h-.1c-.1.1-.3.1-.4,0h0Z"/>
            <path class="cls-33" d="M237,232.3h.5c0,.2,0,.3-.1.5-.1-.1-.3-.2-.4-.4h0Z"/>
            <path class="cls-33" d="M201.8,225.6c-.2,0-.4,0-.7-.2.1,0,.4,0,.7.2Z"/>
            <path class="cls-19" d="M205.2,264.5h-.2c0-.1.2-.1.2-.1h0Z"/>
            <path class="cls-22" d="M211,288.9s.1,0,.2.3c0,0-.1,0-.2-.3Z"/>
            <path class="cls-33" d="M271.8,239.2v.2-.2Z"/>
            <path class="cls-23" d="M212,293.8h.2s0,.2-.2.3v-.2h0Z"/>
            <path class="cls-28" d="M222.9,230.6h0Z"/>
            <path class="cls-23" d="M181.8,218.8s.1,0,.1.1c0,0-.1,0-.1-.1Z"/>
            <path class="cls-32" d="M200,225.4c.4.5.8,1.1,1.1,1.7-.3.9-.5,1.5-.9,2.1-1.9-.2-3.7-.4-5.8-.9-.3-1-.5-1.9-.8-2.9.1-1.4-.8-1-1.4-1.1-.4,0-.9-.3-1.3-.4,3-.5,6,.3,8.9,1.4h.1Z"/>
            <path class="cls-15" d="M190.9,224c.5.2,1,.4,1.4.4.7.1,1.6-.3,1.3,1-1.6.2-3.3-.4-4.1,1.3-2.1-.5-3.8-1.5-4.8-3.7,1.4.2,2.7.5,4.1.8h2v.2h.1Z"/>
            <path class="cls-24" d="M189.7,227c.8-1.9,2.4-1.2,3.9-1.2.3,1,.5,1.9.8,2.8-1.5-.4-3-1-4.7-1.6Z"/>
            <path class="cls-24" d="M200.5,229.4c.1-.7.4-1.2.8-2,1.2.7,2.3,1.4,3.5,2.2h-.5c-1.2,0-2.4-.2-3.7-.3h0Z"/>
            <path class="cls-15" d="M184.4,223.2s.1-.1.3-.1c0,0-.1.1-.3.1Z"/>
            <path class="cls-33" d="M216.1,272.6v.7c.3.3.8.5,1.1.7,2.1,1.3,4.1,2.6,6,4.1-2.5,0-4.8,0-7.2-.1h-5.1c-2.6-.2-5.1-.4-7.7-.8v-.3c0-.2.1-.2.4-.4,2.2-1.1,4.2-2.1,6.4-3.2.7.2,1.2.2,1.5.4,1.1.9,2,.8,2.8-.2.3-.3.8-.7,1.3-1h.5-.1Z"/>
            <path class="cls-20" d="M209.8,273.3c-2.1,1.1-4,2.1-6.2,3.2.5-.7,1.2-1.2,2.1-2,2.2-1.1,3.5-2.5,4.1-4.6h1.4c-.4,1.2-1,2.3-1.4,3.3h0Z"/>
            <path class="cls-19" d="M211.2,269.8h-1.2c.5-1.3,1.2-2.6,1.9-4.1,1.5,0,1.4.8,1,1.9-2-1-1,.7-1.2,1.3-.1.3-.2.7-.4.9h0Z"/>
            <path class="cls-15" d="M209.7,269.8c-.4,2.1-1.9,3.6-3.9,4.5,1.2-1.5,2.5-3,3.9-4.5Z"/>
            <path class="cls-9" d="M222.3,299.4c1.1,1.3,2.2,2.6,3.2,3.9.3.4,1,.9,1,1.2-.2,2.2,1.4,3.8,1.9,5.9v.8c-1.5.9,0,1.1,0,1.5-.2.2-.3.4-.7.7-1.1-.5-1.1.1-1.2,1.1-.2.9-.3,1.4-.3,2.1s.3.8.4,1.1c0,.8,0,1.5-.2,2.2-.4-.9-1.1-1.7-1-2.4.7-2.9.5-5.9-.2-8.8-.7-2.6-1.9-4.9-3.9-6.8-.8-1.1-1.4-2.1-2-2.9,1,.2,1.9.3,2.7.5h.3Z"/>
            <path class="cls-29" d="M231.1,312.7c-.8,0-1.5,0-2.4-.1v-1c.8.3,1.6.8,2.4,1.2h0Z"/>
            <path class="cls-20" d="M228.5,311.5v1c0,.1-.1.1-.3.1-.2-.4-1.6-.8-.2-1.4.2,0,.2.2.4.3h.1Z"/>
            <path class="cls-29" d="M239.8,312.6h-.2.2Z"/>
            <path class="cls-19" d="M202.1,215.9h-.4v-.2h.4v.2Z"/>
            <path class="cls-27" d="M296.3,237.3c.2-2.5.7-5,1-7.5.4-3.2-.5-5.9-2.7-8.3,1.1,0,2-.5,2.7,1.4,1.3,3.3,1.1,6.4,1,9.6,0,1.6-1.2,3.2-1.9,4.8h-.1Z"/>
            <path class="cls-10" d="M287,254.3s.2.1.2.2h-.2v-.2Z"/>
            <path class="cls-29" d="M203.2,277.2c2.6.1,5.2.4,7.7.7,1.7.1,3.4,0,5.1,0s4.7.2,7.2.3c.7.4,1.2.8,1.9,1.3-4.2,0-8.6.1-13,0-1.9,0-3.6-.5-5.4-.5s-3.7.3-5.7.5c.7-.8,1.4-1.5,2.2-2.3h0Z"/>
            <path class="cls-8" d="M221.4,301.8c2.1,1.7,3.2,4,3.8,6.6.8,2.9.9,5.9.2,8.8-.1.7.5,1.5.9,2.5-1,3.2-2.1,6.1-3.2,9-.3.8-.7,1.5-1.2,2.5-.8,2.3-1.4,4.6-2.1,6.8-.1.2-.3.4-.7.7-.5.2-1,.4-1,.7-.2,1.3-.2,2.5-.4,3.8h-.1c-.8.7-1.6,1.3-.9,2.4,0,.3-.2.5-.4,1-.3.4-.4.8-.7,1.2v1.6c-.2.1-.5.1-.9,0v-7.7h-.4c-.2.9-.4,1.7-.8,2.8-2.5-2.4-.4-4.9-1.2-7.2-1.1,1.2-1.7,1-2.5-.4-1-1.6-.9-4-3.2-4.9,0-.4-.2-1-.3-1.6-.3-.7-.7-1.1-1.1-1.4-2.5-4.6-3.9-9.5-4.6-14.6-.4-3-.2-6.1-.2-9.1s.7-1.2,1-2.1v-1.1h0c2.2-.2,3.6-2,5.4-2.8.7-.2,1.3-.4,2.2-.7,1.6,0,3-.3,4.1,1,.1.1.5.2.9,0,1.4-.4,1.9.3,2.2,1.4.2.5.5,1.1.9,1.9.3-1.1.5-2,1-3.4,1.1,1.2,1.7,2.1,2.6,3l.7-.9v.2h-.1Z"/>
            <path class="cls-32" d="M206.7,332.2c2.3.7,2.2,3,3.2,4.7.9,1.4,1.4,1.6,2.5.4.8,2.3-1.3,4.8,1.2,7.2.3-1.2.5-2,.8-2.8h.4v7.7c-1.1,2.4-2.1,4.8-3.5,6.8-1.5,2.1-3.5,3.8-5.3,5.8-.1.1-.2.3-.4.4-.7.3-1.3.7-2,1-.2-.5-.4-1.2-.8-2,.2-.8.4-1.3.8-2.1.4-.3,1.2-.4,1.3-.9.7-2.2,1.4-4.2,1.7-6.5.4-2.3.5-4.6.8-7,.8-4.4.3-8.6-.7-12.8h0Z"/>
            <path class="cls-14" d="M205.4,331.6c-.3-.4-.7-1.1-1-1.9.3.5.7,1.1,1,1.9Z"/>
            <path class="cls-32" d="M205.4,329c.3.3.7.7,1,1.2-.3-.3-.7-.7-1-1.2Z"/>
            <path class="cls-9" d="M201.3,302.1c.1.2.1.5,0,.9,0-.2-.1-.5,0-.9Z"/>
            <path class="cls-14" d="M204.3,328.5c-.2,0-.4-.2-.7-.5.2,0,.4.2.7.5Z"/>
            <path class="cls-14" d="M205.7,332.7s-.1,0-.3-.2c0,0,.1,0,.3.2Z"/>
            <path class="cls-32" d="M220.1,337.9c.5-2.1,1.1-4.4,1.9-6.5-.5,2.2-1.1,4.2-1.9,6.5Z"/>
            <path class="cls-32" d="M218,343.2c0-1.2,0-2.5.3-3.8,0-.2.5-.4.9-.7.1.1.1.3,0,.5-.2.1-.2.2-.3.2.1,0,.3.1.4.2-.4,1.1-.8,2.2-1.3,3.4h0Z"/>
            <path class="cls-32" d="M216.9,345.6c-.8-1.1,0-1.6.9-2.4-.1.8-.4,1.5-.9,2.4Z"/>
            <path class="cls-8" d="M226.6,317.4c-.2-.2-.4-.7-.4-1,0-.7.2-1.2.3-2v2.9h.1Z"/>
            <path class="cls-32" d="M215.9,347.7c0-.3.2-.7.4-1,0,.3-.2.7-.4,1Z"/>
            <path class="cls-9" d="M226.6,316.4v-.5s.1.3,0,.5Z"/>
            <path class="cls-8" d="M219.3,339.7c-.1,0-.3,0-.4-.1,0,0,.2,0,.3-.1v.2h.1Z"/>
            <path class="cls-14" d="M202.7,367.8h0Z"/>
            <path class="cls-20" d="M222,299.2c-.9,0-1.7-.3-2.8-.5s-2-.4-2.7-.8c-.5-.3-1.2-.8-1.7-1.2,2.7-.3,5.2.2,7.3,2.4h0Z"/>
            <path class="cls-20" d="M210.8,296.6c-.3.3-.8.9-1.3.9-1,0-2,0-3-.1,1.2-.8,2.6-1.6,4.4-.8h0Z"/>
            <path class="cls-20" d="M212.9,296.6c-.2,0-.5.1-.9,0,.2,0,.5-.1.9,0Z"/>
            <path class="cls-20" d="M213.3,296.6h-.2.2Z"/>
            <path class="cls-3" d="M216.4,298c1,.2,1.9.4,2.7.8.8,1,1.5,2,2.2,3-.2.4-.5.9-.5,1-.9-1-1.5-1.9-2.6-3-.4,1.4-.7,2.2-1,3.4-.4-.8-.7-1.3-.9-1.9-.4-1.1-.9-1.9-2.2-1.4h-.9c-1.1-1.3-2.5-.9-3.9-1,.4-.3,1.1-.9,1.6-1,1.7,0,3.5.1,5.3.2h.1Z"/>
            <path class="cls-19" d="M272.5,214.1c.1.7.2,1.3.3,2.2h0c-.1,1.3-.2,2.6-.3,3.8,0,.8-.2,1.4-.4,2.2,0-2.6.2-5.4.4-8.3h0Z"/>
            <path class="cls-19" d="M272.9,216.5h.1c0,.1-.1,0-.1,0Z"/>
            <path class="cls-19" d="M275.8,229.4s0,.2-.1.2c0,0,0-.1.1-.2Z"/>
            <path class="cls-33" d="M292.4,220.2c-.2,0-.4,0-.7-.1,0-.2.1-.4.2-.7.1.2.2.4.3.8h.1Z"/>
            <path class="cls-22" d="M225,216.5c0-.1.3-.3.5-.4,0,.2-.2.3-.5.4Z"/>
            <path class="cls-1" d="M231.6,283.7c-.3-.2-.4-.4-.8-.7-2-1.6-3.6-3.4-5.6-4.9-2.5-2-5.1-3.8-7.7-5.8-.7-1-1.3-1.9-1.9-2.7-.5-1-1.2-2.1-1.6-3.2s.8-2.4,2.1-2.2c1.4.3,2.8.7,4.2,1,1.5.5,3,1,4.4,1.6,1.1.4,2.2,1,3.2,1.6,2.3,1.6,3.4,3.9,4.1,6.5,1.1,3.7,2.4,7.4,3.7,11.5-1.1-.8-2-1.4-2.9-2.1-.4-.3-.8-.5-1.3-.9h.1Z"/>
            <path class="cls-4" d="M198.2,259.4c-1.5-2.8-1.2-4.8,1.4-6.3v7.8c-.7-.7-1-1.1-1.4-1.5Z"/>
            <path class="cls-32" d="M232.5,227.7c.3-.3.7-.8,1.1-1.2,1.2-.3,2.3-.4,3.7-.5.4,0,.5-.1.8-.2.7,0,1.2-.2,2-.2h.4c1.7-.1,3.5-.1,5.3-.1-.4.2-1.1.4-1.7.5-.9.2-1.7.4-2.7.8-.3.2-.5.3-.9.4v.3c0,.2,0,.3-.1.3h-.2s.2,0,.3.2c0,.4-.1.7-.2,1-.4.3-.9.7-1.3,1.2-1.6,0-3.2-.2-4.9-.5-.7-.8-1.1-1.3-1.6-2h.1Z"/>
            <path class="cls-15" d="M238,225.6c-.1.2-.3.2-.5.3.1-.1.3-.3.5-.3Z"/>
            <path class="cls-15" d="M240.4,225.3h0c0,.1-.2.1-.2.1h.2Z"/>
            <path class="cls-28" d="M211.2,269.9c.1-.4.2-.7.5-1,.5-.2.9-.3,1.3-.5.8,1.1,1.5,2.2,2.4,3.5v.7c-.4.3-.8.7-1.1,1-.9,1-1.7,1.1-2.8.2-.3-.3-.9-.3-1.5-.4.3-1.1.8-2.2,1.3-3.4h-.1Z"/>
            <path class="cls-20" d="M213,268.2c-.3.2-.8.3-1.3.5,0-.5-.8-2.2,1.1-1.1.1.2.1.3.1.5h.1Z"/>
            <path class="cls-19" d="M215.6,272.6c-.1-.2-.1-.3-.1-.5.2.1,1.3-.9.8.5h-.7,0Z"/>
            <path class="cls-24" d="M232.5,227.8c.5.5,1,1.1,1.5,1.7-1,0-2.1-.2-3.2-.4.4-.4,1-.9,1.6-1.3h0Z"/>
            <path class="cls-28" d="M217.1,273.8c-.3,0-.7-.2-1-.4.3,0,.7.2,1,.4Z"/>
            <path class="cls-24" d="M240.5,227.7v-.7c.2,0,.4-.2.9-.3.5,0,.9,0,1.4.1,0,1.7,1.4.9,2.3,1.6-1.5.2-3,.4-4.6.7,0-.3,0-.7.1-1.1v-.3h-.1Z"/>
            <path class="cls-23" d="M240.4,227.7s.1.1.1.2h-.3.2v-.2Z"/>
            <path class="cls-23" d="M240.4,227.1s.1.1,0,.1c0,0-.1-.1,0-.1Z"/>
          </g>
        </g>
      </g>
    </g>
  </g>
</svg>