<?xml version="1.0" encoding="UTF-8"?>
<svg xmlns="http://www.w3.org/2000/svg" version="1.1" viewBox="0 0 510 515">
  <defs>
    <style>
      .cls-1 {
        fill: #312d28;
      }

      .cls-2 {
        fill: #bc7f47;
      }

      .cls-3 {
        fill: #39322c;
      }

      .cls-4 {
        fill: #d69f61;
      }

      .cls-5 {
        fill: #0d0e12;
      }

      .cls-5, .cls-6, .cls-7 {
        stroke: #fff;
        stroke-miterlimit: 10;
        stroke-width: .5px;
      }

      .cls-8 {
        fill: #2e2925;
      }

      .cls-9 {
        fill: #604c36;
      }

      .cls-10, .cls-11 {
        fill: #fff;
      }

      .cls-12 {
        fill: #8e7655;
      }

      .cls-13 {
        fill: #342f29;
      }

      .cls-14 {
        fill: #692021;
      }

      .cls-15 {
        fill: #543;
      }

      .cls-6 {
        fill: #15191b;
      }

      .cls-16 {
        fill: #cd8f56;
      }

      .cls-17 {
        fill: #6f2826;
      }

      .cls-18 {
        fill: #a31820;
      }

      .cls-11 {
        display: none;
      }

      .cls-19 {
        fill: #755f44;
      }

      .cls-20 {
        fill: #93714f;
      }

      .cls-21 {
        fill: #7c312f;
      }

      .cls-22 {
        fill: #bc915b;
      }

      .cls-23 {
        fill: #a0815a;
      }

      .cls-24 {
        fill: #f3e3d6;
      }

      .cls-25 {
        fill: #b9202a;
      }

      .cls-7 {
        fill: #15181b;
      }

      .cls-26 {
        fill: #992128;
      }

      .cls-27 {
        fill: #daa661;
      }

      .cls-28 {
        fill: #b98556;
      }

      .cls-29 {
        fill: #ad7140;
      }

      .cls-30 {
        fill: #d8a662;
      }

      .cls-31 {
        fill: #ba202b;
      }

      .cls-32 {
        fill: #291d1b;
      }

      .cls-33 {
        fill: #d4a362;
      }

      .cls-34 {
        fill: #98131b;
      }
    </style>
  </defs>
  <!-- Generator: Adobe Illustrator 28.7.9, SVG Export Plug-In . SVG Version: 1.2.0 Build 218)  -->
  <g>
    <g id="Layer_1">
      <g id="Layer_1-2" data-name="Layer_1">
        <g id="Layer_1-2">
          <g>
            <path class="cls-11" d="M2.4,515.6h-196.2V9.4h900v506.2c-49.6,0-99.2,0-149.2-.2-1-4.4-1.6-8.6-2.6-12.8-5-23.8-12-47.2-21.2-69.8-8.2-19.8-18.6-38.2-33.8-53.6-12.4-12.6-26.2-23.6-40.4-34.2-4.2-3.2-8.6-5.8-13-9-6.4-3.4-12.8-6.6-19.2-9.8h0c-1-.8-2-1.6-3-2-22.2-11.2-44.6-22.6-67-33.6-4.6-2.2-9.6-3.6-14.6-5.6-1.2,0-1.4,0-1.2,1.4.6,6.2-.6,12-4,17.2-2,3-3.4,6.2-5.2,9.4-4.4,7.6-10.2,13.8-16.8,19.6-2.4,2.2-5.6,3.8-7.4,6.4-2.8,4-7,6-10.6,9-5.4,4.4-11,8.2-17.4,10.8-1.2.4-2.4.6-3.6,1-5.4,5.2-10.4,6.8-14,3.4,1-1.6,2-3.4,3-5,1.6-2.8,3-5.8,4.4-8.8,0,0,0-.4.4-.4,1.8-1.8,3.6-3.2,4.8-5.2,3.4-5.4,6.4-11.2,9.8-16.8,2-3.6,4.2-7,6.2-10.6.4-.6,0-1.8,0-2.8.2-.4.6-.8,1-1,.8-.2,1.8-.4,1.8-.8,1.2-3.8,4-7,3.6-11.4h.2c1.4-2.4,2.8-4.6,3.6-7,1.2-3.8,2-8,3-12,0-.4,0-.6.4-.8,1-1.2,1.6-2.6,2.4-3.8h.2c2-1.6,3.6-3,5.4-4.6h0c.8-.6,1.2-1.4,1.8-2h.2c.8.6,2,1.2,2,1.6-.4,2-1,3.8-1.6,5.8-2,6.2-4,12.6-6.2,18.8-3.4,9.8-7.2,19.4-10.6,29-.8,2.2-1.8,4.6-2.6,6.8.4,0,.8.4,1.4.6,3.8-9.2,7.8-18.4,11.2-27.6,3.2-8.4,5.8-17.2,8.6-25.8,1.6-5.4,3-10.8,4.4-16.4.6-.8,1.2-1.2,2-1.8.6-.6.8-1.2,1.2-2,.8-1.2,1.4-2.4,2-3.4h.2c.4-.2.8-.6,1.2-.8.2,0,.4-.4.4-.6h.4c1.6.8,3.2,1.6,4.2,2.2-.2-2.8-.4-6-.6-9.2h.2c.4-.6.6-1,.8-1.8,1.4-2.4,2.8-4.4,4.4-6.6,2,.2,3.6.4,5.4.6,28,2.6,56,5.2,84,8,33.4,3.2,67,6.8,100.4,10.2,22.4,2.2,44.6,4.6,67,6.8,17.2,1.8,34.6,3.6,51.8,5.2,6.6.6,9.6-2.8,8.4-9.2-.8-3.6-2-7.2-3-10.8-3.2-10.4-10-15.8-21.2-16.4-14.6-1-29.2-3-43.8-4.6-24.6-2.8-49.2-5.4-74-8.2-18.6-2-37-3.8-55.6-5.8-19-2-38-4.2-57.2-6.2-21.4-2.2-42.8-4.2-64.2-6.6.2-1.8.4-3.2.6-4.6,5-22.4,10-44.6,15.2-67,6.4-27.2,13-54.2,19.4-81.6-.4-.2-1.4-1-2.6-1.2-13.2-4.2-26.2-9.2-39.4-12.6-30.4-8-61.6-13.4-93-16.6-19.8-2-39.4-3.8-59.2-3.2-3.6,0-5.7,1.9-6.4,5.6l-6,30c-.4,1.8-1,3-3.2,3-10.6.8-21,1.6-31.4,2.8-8.2,1-16.4,2.4-24.6,3.8-4.6.8-5,1.8-3.8,6.4,2,8.4,4.2,16.8,6.2,25.2,6.8,30.2,13.6,60.4,20.4,90.8-1,2.4-1.8,4.6-2.8,7-.8,1.6-1.4,3-2.2,4.4-17.6-1.8-34.8-3.6-52-5.4-14.2-1.4-28.4-3-42.6-4.6-18-2-36.2-4.2-54.2-6.2-16.4-1.8-33-3.6-49.6-5.4-19.8-2.2-39.6-4.4-59.4-6.6-4.8-.6-6.4,1-6.2,6,0,1.2,0,2.6.8,3.8,3,6,6,12,9.4,17.6,2.6,4.2,7,6.6,12.2,7.2,11.2,1.2,22.2,2.4,33.4,3.6,24.2,2.6,48.4,5.2,72.8,8,24,2.6,47.8,5.4,71.8,8,15.8,1.8,31.6,3.4,47.4,5,6,.6,12.2,1.2,18.4,2,.2,0,.4.2.4.4,0,2.2-.4,4-.4,6,0,16-.2,32.2,1.8,48.2,1.6,13.4,4.2,26.4,9.6,39,0,.6,0,.8-.2,1.2-1.2,1.2-2,2.6-3.2,3.8-.6.6-1.2,1.2-1.6,1.6,0,.2.4.6.6.8,2.2-.8,4.4-1.6,6.8-2.6h1c.2.4.4.6.6.8.8,1.6,1.6,3,2.4,4.2,2,3,4.2,6,6,9.2-1.6.8-2.8,1.6-4.2,2-15.6,5.6-30.4,13.2-44.2,22.6-17.8,12.2-33.4,26.4-45.2,44.6-16,24.8-29.6,50.8-41.2,78-3.4,8-6.4,16-9.6,24.2-.6,1.6-1,3.2-1.6,4.8M293,336.6c0,.4,0,.6.2,1,.2-.6.6-1.2.8-1.8-.4,0-.6.4-1,.8Z"/>
            <path class="cls-31" d="M554.8,515.6c-39.2,0-78.4,0-118-.2,1-4.2,2.6-8.2,3.8-12.2,2-7.6,4-15,5.6-22.6,2.2-10.6,4.4-21.2,6.2-32,1.2-7,1.8-14.2,2.6-21.4.2-1.8.4-3.8.6-5.6h-1.2c-3.4,32.2-8.8,63.8-19.8,94.4-18.6,0-37.2,0-56-.2,0-5.2,0-10.2.4-15.2,1-12.2,2.2-24.4,3-36.6.6-9.2,1-18.4,1.2-27.6.4-11.8.4-23.6.6-35.4,0-.6-.2-1.4-.4-2-.6.4-.8.8-.8,1.2-.4,14.4-.8,28.6-1.4,43v2.8c-.8,12.2-1.6,24.2-2.6,36.4-.2,3.2-.6,6.6-.8,9.8-.8,8-1.6,16-2.4,24-87.6,0-175.2,0-263-.2.6-5.2,1.4-10.2,2.4-15.2,2.4-11.4,5-22.8,7.4-34.2,1.2-6.2,2.2-12.4,3.6-18.8.4,0,.6-.2.8-.4,2.2-7.8,4.2-15.4,6.4-23.2,2.2-7.6,4.8-15.4,7.2-23,2.4-7.2,4.8-14.2,7.4-21.4,1.2-3.8,2.4-7.6,3.8-11.6,1.2-1.2,2.4-2,3.6-3h0v1.8c0,.4.4.4.6.8v5c0,1.2,0,2,.2,3.2,0,1.6.4,3,.4,4.4s.6,3,1,4.6c.2,1.4.4,2.4.6,3.8,0,1.2.2,2.2.6,3,1,2.2,2,4.4,3,6.8.2.8.6,1.6.8,2.4,0,1-.4,2,0,2.6,1.8,5.6,3.8,11.2,5.6,16.8v.4c.4,1.2.6,2,.6,3.2-.2,4.8-.4,9.4-.4,14.2v1.2c-2,4.6-1.4,9.4-3.4,14.2-2.2,5.4-4.6,10.8-7.2,16-1.2,2.6-2.4,5.4-3.4,8h-.2c-2.6,1.8-5,7.6-4,10.8,1.6-2.4,3-4.4,4.4-6.4.4-.2.4-.4.8-.6.4-.4.8-.8,1-1.4.4-.6.8-.8,1.4-1,1.2,0,2.2.4,3.6.6,0,0,.4.6.6,1.4.4-.2.8-.4,1.2-.8.6-2,1-4.2,1.6-6.6,1.8-2,3.6-3.8,5.6-5.6,4-3.4,7.8-7,10-12.2,3-2.2,4.2-5,4.8-8.4h.2c1.2-1.2,2-3,3.4-3.6,2.6-1.2,1.8-2.2.2-3.6,0-.4,0-.8.4-1,1-.8,2-1.6,2.4-2.6,1.2-2.4,2.2-4.8,3-7.2.6-1.8.8-3.6,1.2-5.8.2-1.4.4-2.4,1-3.6,1-2.2,2-4.2,2.8-6.4h0c.4,0,.4-.4.4-.8,0-.6,0-1.2.2-1.6.8-1.6,1.2-3,1.8-4.6,0-.4,0-.8.2-1,.8-1.6,1.6-3,2.2-4.8.2-1,.4-1.6.8-2.4.2-.4.4-.8.4-1.2h.2c1.2.4,2.2,1,3,1,7.2,0,14.6,0,21.8-.6,5.8-.4,11.4-1.8,17.2-2.6.4,0,.6-.6,1.6-1.4-1.6,0-2.6-.2-3.4,0-10.2,3.2-20.6,2.4-31,2.2-2.8,0-5.6-1.6-8.4-2.8,0-1,0-1.6.4-2.2.4-1.8.8-3.4,1-5.4,0-.4,0-.8.2-1.2.8-2,1-4,1.8-5.6.6-1,2-2.4,3-2.4,7-.2,14,.4,20.8-.4,11.8-1.4,23.6-4,34.6-8.6.6-.2,1-1,1.4-1.6h.2c2.8-.2,5.4-.8,6.8-3.4h.2c.6-.2.8-.6,1.4-1,21.4-11.2,39.8-25.8,53-46,5.6-8.4,11-17,11.4-27.6,4.6,1.4,9,2.4,13,4.4,12.2,6,24,12.4,36.2,18.6,8.6,4.4,17.4,8.4,26.2,12.4,2.8,1.2,5.6,2.4,8.4,3.4h0c3.2,2.2,6.2,4,9.2,5.8,3.2,2,6.6,3.8,10,5.8,9,6.6,18,13,26.8,19.8,10.6,8.2,20.8,17,29.2,27.2,5,6.2,10.2,12.2,14.6,18.8,8,12.4,13.8,26,19,39.8,6.4,17.2,12,34.8,15.6,53,1.2,6.4,2.2,12.8,3.2,19M148,488.6c0,.4,0,.8-.2,1.2h.8c0-.4,0-.8-.6-1.2h0Z"/>
            <path class="cls-25" d="M96.4,515.6c-30,0-60.2,0-90.4-.2,0-2.2,0-4.4.6-6.2,1.8-5,3.8-9.8,5.8-14.6,2.6-6.4,5-12.8,8-19,4.8-10.2,9.8-20.2,15.2-30.2,4-7.4,8.4-14.6,12.6-21.8,3.4-6,6.8-12,10.6-17.6,3.2-4.8,7-9.4,11-13.6,6-6.2,12.2-12.2,18.6-18,3.6-3.2,7.6-5.8,11.6-8.4,6-3.8,12-7.8,18.4-11.2,5.8-3.2,11.6-6,17.6-8.6,4.8-2,9.8-3.6,14.8-5.2h0c.2.2.4.4.8.6,1.4,1.4,2.8,2.6,4,4.2.4.6.8.8,1.4,1.2v.6c.6,1.2,1.2,2,1.8,3.2,0,.6,0,.8-.2,1.2-1.6,1.6-3,3.4-4.4,5.2-1.4,3.6-2.4,7.2-3.8,10.8-1.6,4-3.2,8-4.6,12-3.2,9-6.2,17.8-9.2,26.8-2.8,8.2-5.4,16.4-7.8,24.8-1.6,5.2-2.6,10.4-4,15.8-2.4,10-5,19.8-7,29.8-2.6,12.8-5,25.6-7.4,38.6-3.6,0-7.2,0-11.2-.2.4-11.8,1-23.2,1.6-34.6.4-7.8.8-15.4,1.2-23.2,0-.6-.4-1-.6-1.6-1,6.2-1.8,12.2-2.2,18.2-.2,4,0,8.2-.4,12.2-.8,9.6-1.6,19.4-2.4,29M102.2,444.6v-5.2h-.6v14.6h.6v-9.4h0Z"/>
            <path class="cls-17" d="M150.8,341c-5,1.8-10,3.2-14.8,5.2-6,2.6-12,5.4-17.6,8.6-6.2,3.4-12.4,7.4-18.4,11.2-4,2.6-8.2,5.2-11.6,8.4-6.4,5.8-12.6,11.8-18.6,18-4,4.2-7.8,8.8-11,13.6-3.8,5.6-7.2,11.8-10.6,17.6-4.2,7.2-8.6,14.4-12.6,21.8-5.2,10-10.2,20-15.2,30.2-3,6.2-5.4,12.8-8,19-2,4.8-4,9.8-5.8,14.6-.6,1.8-.6,4-.8,6.2-.8.2-1.8.2-3,.2.2-1.6.8-3.2,1.4-4.8,3.2-8,6.2-16.2,9.6-24.2,11.6-27.2,25.2-53.2,41.2-78,11.6-18.2,27.2-32.4,45.2-44.6,13.8-9.4,28.6-16.8,44.2-22.6,1.4-.4,2.6-1.2,4.4-2,1,.4,1.8,1,2.4,1.4h-.4v.2Z"/>
            <path class="cls-17" d="M555,515.6c-1.4-6.4-2.2-12.8-3.4-19-3.6-18.2-9.2-35.8-15.6-53-5.2-13.8-11-27.4-19-39.8-4.2-6.6-9.6-12.6-14.6-18.8-8.6-10.4-18.8-19-29.2-27.2-8.6-6.8-17.6-13.2-26.8-20v-1.4c4.4,3,8.8,5.6,12.8,8.8,14.2,10.6,28,21.6,40.4,34.2,15.2,15.4,25.6,33.8,33.8,53.6,9.2,22.6,16.2,45.8,21.2,69.8.8,4.2,1.4,8.4,2.2,12.8-.4.2-1,.2-1.6.2h-.2v-.2Z"/>
            <path class="cls-34" d="M376,515.6c.6-8,1.4-16,2-24,.4-3.2.6-6.6.8-9.8.8-12.2,1.6-24.2,2.6-36.4v-2.8c.4-14.4.8-28.6,1.4-43,0-.4,0-.8.8-1.2,0,.6.4,1.4.4,2,0,11.8-.4,23.6-.6,35.4-.2,9.2-.6,18.4-1.2,27.6-.8,12.2-2.2,24.4-3,36.6-.4,5-.4,10-.8,15.2-.6.2-1.4.2-2.2.2h-.2v.2Z"/>
            <path class="cls-18" d="M434.8,515.6c10.8-30.4,16.2-62.2,19.6-94.4h1.2c-.2,1.8-.4,3.8-.6,5.6-.8,7.2-1.4,14.4-2.6,21.4-1.8,10.6-4,21.4-6.2,32-1.6,7.6-3.6,15.2-5.6,22.6-1.2,4-2.6,8-4,12.2-.4.2-1,.2-1.6.2v.4h-.2Z"/>
            <path class="cls-34" d="M110.8,515.6c2.2-12.8,4.6-25.8,7.2-38.6,2-10,4.6-19.8,7.2-29.8h.8c-1.2,6.2-2.2,12.4-3.4,18.6-2.4,11.4-5,22.8-7.4,34.2-1,5-1.8,10-2.6,15.2-.6.2-1,.2-1.8.2h0v.2Z"/>
            <path class="cls-18" d="M96.6,515.6c.6-9.6,1.4-19.4,2.2-29,.4-4,0-8.2.4-12.2.4-6,1-12.2,2.2-18.2.2.6.6,1.2.6,1.6-.4,7.8-.8,15.4-1.2,23.2-.6,11.4-1.2,22.8-1.8,34.6-.6.2-1.4.2-2.4.2h0v-.2Z"/>
            <path class="cls-5" d="M127.4,182c-6.8-30.2-13.6-60.4-20.4-90.6-2-8.4-4-16.8-6.2-25.2-1.2-4.6-.8-5.6,3.8-6.4,8.2-1.4,16.4-2.8,24.6-3.8,10.4-1.2,21-2,31.4-2.8,2.2,0,2.8-1.2,3.2-3l6-30c.6-3.6,2.8-5.4,6.4-5.6,19.8-.6,39.6,1.4,59.2,3.2,31.4,3,62.4,8.4,93,16.6,13.4,3.6,26.4,8.4,39.4,12.6,1,.4,2,1,2.6,1.2-6.6,27.4-13.2,54.4-19.4,81.6-5.2,22.2-10.2,44.6-15.2,67-.4,1.4-.4,3-.8,4.8-.4.4-.6.6-1,.8-.6-.2-.8-.4-1.2-.6-.4-.4-.8-.4-1.2-.8-3.6-2.6-7.4-2.4-11.6-2.2-5-1.6-9.8-3-14.6-4.6-4.6-1.4-9.4-3-14.2-4.4h-1.2c-3.2-1-6-2.2-9-3-40.8-11.6-82.2-16.6-124.6-11.6-9,1-17.8,2.4-26.2,7h-2.8v-.2Z"/>
            <path class="cls-27" d="M150.8,341.2c-.6-.6-1.2-1-2.2-1.6-2.2-3-4.4-6-6.4-9-.8-1.2-1.6-2.6-2.4-4.4.6-.8,1.2-1.4,1.8-1.8,5-3.2,9.8-6.2,15-9.4,2.4.6,4.6,1,6.6,2,8.6,4.2,17,7.8,26.8,4.4h1c5.6-.8,10.8-3,15.8-5.8,2.6,2,5,4,7.4,6,.4,0,.6.2.8.6,4.6,6.6,11.4,10.4,18.8,14.4-.4-1-.4-1.4-.6-1.6-7-7.8-11.4-16.8-13.2-27.2-1.4-8.4-6-14.8-13.8-19-.6-.4-1.2-.8-2-1h0c-.8-4.6-3-5.4-7.8-3.2-.4,0-.8,0-1-.4-.6-.2-1.2-.2-2.2-.2s-.8,0-1-.4c-.8-.2-1.8-.2-2.8-.2s-.8,0-1-.4c-.2-1.2-.6-2.2-.6-3.2,4.4-3.4,9-2.4,14-1.6-1.2-1.6-2.6-3.2-4.2-3.6-4.8-1-9.2,0-11.8,5-1.4,1.6-2.4,3-3.8,4.6-4.6,3-9.4,4-14.6,2.4h-.4s0,.2-.4.2c0,0-.4,0-.6-.2,0-.4-.4-.4-.6-.8-5.2-2.6-7-6.6-6.4-11.8.8-6.8,1.8-13.4,3.2-20,1.2-5.8,3.4-11.4,5.2-17.2.4-.8.8-1.6,1-2.2,2.6-5.6,5.2-11,7.6-16.6.6-1.4.6-3.2.8-4.8h-1c-1.2,3.2-2.4,6.2-4,9.2-1.6-1.8-2.8-3.8-4.6-5.2-1.4-1.4-3.4-2.8-5.8-1-.4-.2-.8-.4-1.2-.8-.6-.4-1-.4-1.6-.6,0,0-.2,0-.2-.2-.4-1.8-4.8-4.2-6.4-4-1.2,0-3,0-3.4-.8-1.6-3.2-3.8-2.2-6.2-1.6-1.4.4-3.2.6-4.6.2-3.8-.8-7.6-1.8-11.6-2.8-.4-.2-.4-.4-.4-.8,0-3.8,1.8-6.4,4.4-6,5.8.6,11-.4,16.2-3.4.6,0,1.2,0,1.6.2.6.2,1.2.4,2.2.4s.8,0,1,.2c.6.4,1.4.8,2.2,1,2.4.8,4.6,1.6,6.8,2.8.2.8.6,1.2.8,1.6l1.2-1.2c.4,0,.8,0,1,.2.4,3.2,2.4,4,5,3.6h0c.8,2.4,2,2.4,3.4.8,2-2.2.6-7.2-2.2-8.4-3.6-1.6-7.2-3.4-11.2-5.4,0,.2-.6.8-1.2,1.4-.4-.2-.8-.4-1.2-.8-1-1-2-1.6-3-2.4.8-4,.6-4-3.4-4.4-2.4-.2-4.6-1-7-1.6v-1.2c2.8-1.2,4.2-5.2,8.2-3.6.6,0,1.2,0,1.8-.2,2.6-.4,5.6-2,7.8-1.2,3.8,1.4,7.4.8,11.4.8s5.4-3,7.2,1c2.4-1.2,3.2-4,7-2.6,3.2,1.2,7.4-.4,11.2-.6,1,0,1.8.6,2.8,1,.8.2,1.4.8,2.2.8,7.6.4,15.4,1,23,1.4h8.8c-2.4,3-5,5.2-7.4,7.4-2,2.2-4,4.4-7.4,4.4s-1.2,1-2,1.6h-1.2c-3.6.6-7.6-1.2-10.4,2.4-.4.4-1.6.4-2.4.6-2.4.4-4.8.4-7.2,1-1.6.4-1.4,1.4,0,2v1.4c0,2.2.4,4,.6,6.2.2,1,.4,1.6.6,2.8v14h1.4c0-4.8.4-9.6.6-14.4,4-3.8,8.6-5,14.2-3-.6-1.2-.8-2-.8-2.2,3.8-1,8.4-.8,10.8-3,3.6-3.2,7.4-3.8,11.6-3.8s7.8.4,11.8.6h14c.4,0,.8.2,1,.6,2.2,2.6,3.8,2,6-.2,2.2-2.4,4.4-5,8.4-3.8,1.2.4,3-1.2,4.6-2v-1c2,.2,3,1.2,1.6,3.2-1.8,2.4-1.4,4.8-.4,7.2.8,2.2.2,3.6-1.8,4.2-3.2,1.2-6.4,2-9.6,3-3.8,1.2-7.8,2.2-11.4,3.8-1.8.8-3,.6-4.6.2-2.2-.6-4.8-1.6-6.2,1.6-1,0-1.6,0-2.4-.2-2.8-.4-5.6-.8-8.2-.6-5,.4-9.8.4-14.6-1.4-2-.8-4.4-1.2-5.4,2-.2.8-2.2,1.8-3.2,1.6-3.2-.6-6.2-.8-8.6,1.4-1.8,1.8-3.6,3.8-5,5.8-.2.2.8,1.4,1.4,2.4.8,0,1.6.2,2.4.4,1.2,2.6,2.6,1,4.2.6,1.2,0,2,0,3,.2,1.8.2,3.4.4,5.4.4,2.4.2,4.6.4,6.8.8.2.4.6.6.8.8,0-.4.2-.6.8-1,4.8,0,9.2-.8,13.4-2.6-1.2-.4-2.4,0-3.6-.2-.8,0-1.6-.6-2.2-1,4-1,7.6-2,11.6-3,5.6-1.6,10.8-3,16.2-4.6,3.2-1.4,6-2.6,9.2-4,2.6-1,5-1.8,7.2-2.8,1.6-.8,3.2-2,4.8-3,2-1.2,3.2,0,3.4,1.6.4,2.2,0,4.2,0,6.4.2,2.8.6,5.8,1,8.6,0,.2.6.4,1,1v23.4c-.6,1.2-1.2,2-1.4,3,0,.8.4,1.8,1,2.2.6.4,2,.4,2.6,0,2.4-2,3.2-10.6,1.4-14,0-.8,0-1.4.2-2.2,1-1,1.4-2-.6-2,0-.4,0-.8.2-1.2,1-2.8,1.8-5.6,2.6-8.4h.2c1.6-.6,2.8-1,3.6-1.4.4-1.6.4-2.6,1-3.6,1-1.8,1.8-3.8,3.2-5.4.6-1,2-1.6,3-2,1.2-.4,2.6-.6,4-1-.6-1.4-1-2.4-1.2-2.8,1.2-1.6,2.4-3,3.4-4.2,1.6-2,6.2-1.6,7,.6-6.8,2.6-9.6,8.4-11.2,14.6-.8,3.2,0,6.8-1,10-2.4,8.8-2.6,18.2-7.8,26.2,2.6.4,3.2,0,4.6-2.6,1.8-3,2.6-6,2.6-9.8,0-5.4,1.6-10.8,2.4-16.4,4,2.6,9.8,3.6,11,8.8,1.4,6.4-.2,12.4-8.6,13.8,4,2.4,6.6,1.6,9.4-2.8,4-6,3.2-14.8-1.8-20-3.8-3.8-4-4.6-1.6-9.4,1.4-2.8,3-5.6,4.8-9.2-7.6,3.6-7.2,10.8-9.6,16.4-.4,0-.8-.2-1-.4-2-1.6-1.4-3.6-.8-5.6,1.2-4.8,3.8-9.2,8.6-11.2,5.6-2.2,12.8,1.2,13.8,7.8.6,3.6.6,7.4,0,11-1.2,5.4-3.2,10.8-5.2,16.2-1.4,2.2-2.6,4.2-4,6.6,1.2.8,2,1.2,2.6,1.6-.4,2-.6,3.6-1,5.4h-.2c-1-.6-1.6-1-2.2-1.2-1,1.4-1.8,2.6-3,4.4v2c-7.4,7.6-15,14-26.8,13,2,1.2,4.2,2.4,6.6,3.6-.8,3.4-1.6,7.2-2.6,10.6-2,6.4-4.2,12.8-6.6,19-2.2,5.2-5,10.2-7.6,15.6-2.2,3.4-4.4,6.8-6.6,10-.4.4-.8.8-1.2,1.4-5.4,6.6-11.2,12.6-18,17.8-8.8,6.6-18.6,10.8-29.4,13.6-5.8.4-11.4.8-17.2,1.2-.6,0-.8-.4-1.2-.8-.4-1.4-.8-2.6-1.4-3.8-.2-.6-.4-1.2-.4-1.8.6-.2,1-.4,1.4-.6-.4-.4-.6-.8-1-1.6v-1.4c-.8-3.4-2.8-4.4-6-4.2-1-1-2-1.8-3-2.8-.2-2.8-1.6-4-4.2-5-4-1.6-9,0-12.4-4,.8-3.8.8-8.2,2.8-10.6,1.6-1.8,1.2-3.2,2.2-5h-4.2c-2.2-.2-4.2-.4-6.6-.6h-3.6c0,.2-.2.6-.4.8,1.4,1.4,2.6,2.8,4,4.4v1c0,.4.2.6.6,1,.4,2.8,1,5.4,1.4,8.2v.8c-1.6.6-3.2,1.2-4.8,1.4-2.2.2-4.4,0-6.6.6-2.4.6-4.4,2-6.6,3-.6.2-1.6.4-1.6.6-.2,2.2-1.6,1.2-2.8,1.2v-.6c-.4-.6-1-1-1.4-1.2-1.2-1.4-2.6-2.6-4-4-.4-.4-.6-.4-.8-.6h0M207,266.8c-1.2-1.4-2-3-3.4-4.2-.8-.6-2-.6-3.2-.8.2,1,.2,2.2.8,3,3.8,5.2,7.4,10.2,2.6,16.8l.4,1.2c1.2-1,2.6-1.4,3-2.4,2-4.4,2.4-8.8-.2-13.6M313.4,256.2c2.2-1,4.4-1.8,6.6-2.8,0-.4-.4-.8-.6-1.4-3.4,1.2-6.8,2.4-10.2,3.6,0,.4.2.8.4,1.2,1,0,2.2-.4,3.8-.6M262.2,207.2c-.4.8-.6,1.6-1,2.4h1.4c0-.8,0-1.6-.4-2.6M199.6,224h0Z"/>
            <path class="cls-7" d="M334.2,206.6c.1,0,.3-.2.6-.4,15.5,2,30.7,4.2,46.1,6.4,13.6,2,27.3,4,41,6.2,13.3,2,26.5,3.8,39.9,5.8,17.6,2.6,35.3,5.4,53.1,8.2,10.5,1.6,20.9,3.6,31.4,4.6,8,.8,12.9,6,15.2,16.4.9,3.6,1.6,7.2,2.2,10.8,1,6.4-1.3,9.8-6,9.2-12.3-1.6-24.8-3.4-37.2-5.2-16.1-2.2-32-4.6-48.1-6.8-24-3.4-48.1-6.8-72-10.2-20.1-2.8-40.2-5.2-60.3-8-1.1,0-2.4-.4-3.9-.8.1-2,.4-3.8.9-5.4,2.6-11,3-21.4-2.9-30.8h0Z"/>
            <path class="cls-6" d="M124.7,226.6c-4.2-.6-8.6-1.2-12.9-2-11.2-1.6-22.4-3.2-33.5-5-17-2.6-33.8-5.4-50.8-8-17.1-2.6-34.2-5.2-51.5-8-7.9-1.2-15.7-2.6-23.6-3.6-3.7-.6-6.8-3-8.6-7.2-2.5-5.6-4.5-11.8-6.7-17.6-.4-1-.4-2.4-.6-3.8-.3-5,.8-6.4,4.4-6,14,2.2,28,4.4,42,6.6,11.6,1.8,23.3,3.4,35.1,5.4,12.7,2,25.6,4.2,38.3,6.2,10,1.6,20.1,3.2,30.1,4.6,12.2,1.8,24.5,3.6,36.8,5.6.6,2.8,1,5.4,1.4,8h0v.4c.1.4.3.8.4,1.4,0,2,.3,3.8.3,5.4v6c0,3-.1,5.8-.4,8.8-.3.8-.3,1.6-.4,2.2v.6h.1Z"/>
            <path class="cls-30" d="M125.2,224.2c0-2.8.2-5.6.6-8.8.4-2.4.6-4.4.8-6.6.8.4,1.4,1,2.2,1.4h.6c1.6,4.2,5,5.8,9,7,3,1,5.8,2.2,8.8,3.2,3.6.4,7.2.8,10.8,1.2,2.4,0,4.4.4,6.4.8.6.6,1.2,1.2,2,1.6,3.6,1.2,3.4,1.2,1.8,4.6-1.2,2.6-2,5.2-3.2,8-2.4,7.2-4.6,14.2-7,21.2-.6,1.6-1,3.6-2.2,4.8-5.6,5.8-7,9.2-4,14.4,1.6,2.8,4.6,4.8,6.8,7.2.8,1,1.4,2.2,1.8,3.4-3,2.4-6.8,4.2-8.8,7-5.6,8.2-10.6,17-16,25.4-5.4-12.4-8-25.4-9.6-38.6-2-16-2-32-1.8-48.2,0-2,.2-3.8.6-6.2v-2.8h.4Z"/>
            <path class="cls-13" d="M139.2,325.2h-1c-1-.4-2-.6-2.8-.6s-1.8.6-2.6.8c1-1.2,2-2.4,3.2-3.8,2.4-2.4,4.4-4.8,6-7.4,3.4-5,6.4-10.2,10-15s8.2-8.4,14.2-10.4c4.6,0,9-.4,13.2-.4-1.2,2.6-2.4,5-3.6,7.6h-.4c-2.6,2.8-5,5.6-7.6,8.4-1.4,1.2-2.6,2.4-4,3.6-.2.2-.4.4-.8.6-.4,0-.6.2-.8.4-7.4,5-14.8,9.8-22.2,14.8-.4.4-.6,1-1,1.6h0l.2-.2Z"/>
            <path class="cls-4" d="M269.6,348.8l-.4.4c-3.6,5.2-6.8,10.2-10,15.4-1,1.4-1.6,3.2-2.6,5-8.8,1.8-17.4,3.4-26.2,5h-.8c-5.2,0-10,.2-15,0-1.6-.8-3-1.6-4.6-2.2-.2-.2-.4-.4-.6-.8,0-.6,0-.8.2-1h2.6c2.2,0,4.4,0,6.2-.4,6.4-1.8,12.6-4.2,19-5.8,12.8-3.2,23-10.8,32.2-20,9.2-9.2,1.6-.8,2.4-.8-.8,2-1.8,3.8-2.6,5.4h0l.2-.2Z"/>
            <path class="cls-24" d="M257,369.4c.8-1.6,1.4-3.2,2.4-4.8,3.2-5,6.6-10.2,10-15.2-1.2,2.8-2.6,5.6-4.2,8.6-1,1.8-2,3.4-3,5,3.6,3.4,8.6,1.8,14-3.4,1.2-.4,2.4-.4,3.6-1,6.4-2.6,12-6.4,17.4-10.8,3.6-3,7.8-5,10.6-9,1.8-2.6,5-4.2,7.4-6.4,6.6-5.8,12.4-12,16.8-19.6,1.8-3,3.2-6.4,5.2-9.4,3.4-5.4,4.6-11,4-17.2,0-1,.4-1.4,1.2-1.2.2,1.2.4,1.8.6,2.6,0,10.6-5.6,19.2-11.2,27.6-13.4,20.2-31.8,34.6-53.4,46-.6.4-1,.6-1.4,1h-.2c-2.4,1-4.6,2.2-6.8,3.2h-.2c-4.6,1.4-8.8,2.8-13,4h.2Z"/>
            <path class="cls-28" d="M283.6,322.6c2.4-5.2,5.2-10.2,7.4-15.4,2.6-6.2,4.6-12.6,6.6-19,1.2-3.6,1.8-7.2,2.6-10.6-2.4-1.4-4.4-2.6-6.6-3.6,11.8,1,19.4-5.4,27-13,.8-.4,1.4-.6,1.8-.6v1c-.6.6-1,1.2-2,2-1.2,1.6-2.2,2.8-3.2,4.2,0,0,0,.2-.4,0-1,.8-2,1.6-2.8,2.6h0c-.8.6-1.2,1.2-1.8,1.8h0c-2,1.4-3.8,3-5.6,4.4h0c-1,1.2-1.8,2.6-2.4,3.8,0,.2,0,.4-.4,1-2.4,6.4-4.4,12.8-6.6,19h0c-2,4-3.8,8-5.6,12-.2.2-.4.6-1,1.2-2.2,3.6-4.2,7-6.2,10-.2-.4-.4-.8-.6-1h-.2v.2Z"/>
            <path class="cls-23" d="M124.2,202c-.6-2.6-1-5.2-1.6-8,.6-1.8,1.2-3.2,2-4.6,4.6.2,9,.4,13.2,1,5,.8,10,2,15,3.2,2.2.6,4.2,1.6,6.4,2.4,0-.2,0-.4.2-.8-2.2-1-4.4-1.8-6.6-3-3.6-1.8-7-3.6-10.4-5.8.6-.2,1.4-.6,2-.4,4.2,1.8,8.6,3.6,12.8,5.4.4,0,.6.4,1.2.6,3.6,1.8,6.6,3.6,9.8,5.2,2.2,1.2,3.4,2.8,2.8,5.4,0,.4-1.2.6-1.8.8h0c-1.8-1.4-3.4-2.4-5-3.6h-1.2c-1-.2-1.4-.4-2-.6-2.2-.8-4.4-1.6-6.8-2.6-1-.4-1.6-.8-2.2-1-.2,0-.6,0-1.2-.2-.8-.2-1.4-.4-2-.4s-1,0-1.6-.2c-.8-.6-1.2-1-1.6-1-5.8-.4-11.6-1-17.4-1s-2.8,2.6-3.4,4.2-.2,3.6-.4,5.4M161.4,196.6h-.8c.2.2.6.2.8,0Z"/>
            <path class="cls-21" d="M343.2,287.6c-.4-.6-.6-1.4-.8-2.2,4.8,1.6,10,3,14.6,5.2,22.4,11,44.6,22.4,67,33.6,1,.6,2,1.2,3,2-2.8-1-5.6-2-8.4-3.2-8.8-4-17.6-8.2-26.2-12.4-12.2-6-24-12.6-36.2-18.6-4-2-8.6-3-13-4.4h0Z"/>
            <path class="cls-33" d="M334,202.4c8.4,9.4,7.8,19.8,4.2,30.8-.6,1.6-1,3.4-1.4,5.4-1.4,2.4-2.8,4.4-4.4,7-.4.8-.6,1.2-1,1.6h0c-1.4,2.4-2.4,4.8-3.6,7h-.2c-.4,0-.4.4-.4.6-.2.2-.6.6-1,.8,0-1.8.4-3.4.8-5.4-.6-.4-1.4-.8-2.6-1.6,1.2-2.2,2.4-4.4,4-6.2,0,1.6-.6,3-1,4.2,1.4-.6,2.2-1.4,2.8-2.4,1.4-2.6,2.8-5.2,4.4-8,1.4-3,3.4-5.8,3.4-8.8.2-5.8.8-11.6-1.8-17.6-1.4-3.6-3-2.8-5.4-3-.4,0-.4-.4-.4-.8.8-1.6,1.6-2.8,2.6-4.2.4,0,.6.4,1.2.6h-.2Z"/>
            <path class="cls-24" d="M317.6,267.4c1-1.4,2-2.6,3-4-1.2,5.4-2.6,10.8-4.2,16.2-2.6,8.6-5.4,17.2-8.6,25.8-3.4,9.4-7.4,18.4-11.2,27.6-.4,0-.8-.4-1.4-.6,1-2.2,1.8-4.6,2.6-6.8,3.6-9.6,7.2-19.4,10.6-29,2.2-6.2,4.2-12.6,6.2-18.8.6-2,1.2-3.8,1.6-5.8,0-.4-1-1-2-1.6.6-1,1.4-1.8,2.6-2.6h.6s-.2-.2-.4-.4h.6Z"/>
            <path class="cls-19" d="M142.4,186.6c3.4,1.8,7,3.8,10.4,5.6,2.2,1,4.4,2,6.6,3,0,.2,0,.4-.2.8-2.2-.8-4.2-1.8-6.4-2.4-5-1.2-10-2.4-15-3.2-4.2-.6-8.4-.8-13-1.2.6-2.4,1.4-4.6,2.4-7h2.8c4.2,1.6,8.2,3,12.2,4.4h.2Z"/>
            <path class="cls-19" d="M166,288.8c-5.8,2-10.4,5.6-14,10.4-3.6,4.8-6.6,10-10,15-1.8,2.6-3.8,4.8-5.8,7.2-.2-.2-.2-.6-.2-1.2,5.2-8.8,10.4-17.4,16-25.6,2-3,5.6-4.6,9-7,1.8-.8,3.2-1.4,4.6-2.2.2,0,.4.2.4.6v2.6h0v.2Z"/>
            <path class="cls-24" d="M284.4,323.8c2-3.4,4-6.6,6-10.2,0,.8.6,1.8,0,2.6-2,3.6-4.2,7.2-6.2,10.6-3.2,5.6-6.4,11.2-9.8,16.8-1.2,2-3,3.4-4.8,5.2.6-1.8,1.4-3.4,2.6-5.6,1.6-2.6,2.8-5,4.4-7.4.6-.8,1-1.4,1.6-2.4,2.2-3.4,4-6.4,6-9.6h.2Z"/>
            <path class="cls-20" d="M139.2,325.4c.2-.8.4-1.4,1-1.8,7.4-5,14.8-9.8,22.2-14.8,0,0,.4-.2.8,0,.2.2.4.6.2.8-1.6,1.6-3,2.8-4.6,4.2-1,.4-1.6.8-2.4,1.2-5,3.2-9.8,6.2-14.8,9.4-.6.4-1.2.8-1.8,1.6-.2,0-.6,0-.8-.4h0l.2-.2Z"/>
            <path class="cls-21" d="M446.2,336.2v1.4c-3.2-1.6-6.6-3.4-9.8-5.4-3-1.8-6.2-3.6-9.2-5.6,6.2,3,12.6,6.2,19,9.6Z"/>
            <path class="cls-24" d="M297.4,300.2c2-6.2,4-12.4,6.4-18.8-.8,3.8-1.6,7.8-2.8,11.8-.8,2.4-2.2,4.6-3.6,7h0Z"/>
            <path class="cls-24" d="M291.6,312.4c1.6-4,3.4-8,5.2-12,.6,4.2-2.2,7.4-3.4,11.2,0,.4-1,.6-1.8.8Z"/>
            <path class="cls-33" d="M322.8,260c-.6.2-1,.4-1.8.6-.4-.8-.4-1.8-.4-1.8,1.2-1.8,2-3,3-4.4.6.4,1.2.8,2.2,1.2-.4,1.2-1,2.2-2,3.6-.6.4-.8.6-1.2.8h.2Z"/>
            <path class="cls-24" d="M328.2,254.2c.8-2.4,2-4.6,3.2-7,.4,3.2.6,6.4,1,9.2-1-.6-2.4-1.4-4.2-2.2Z"/>
            <path class="cls-20" d="M132.6,325.2c1.2-.4,2-.8,2.8-.8s1.6.2,2.6.6c-2.2,1-4.4,1.8-6.4,2.8,0-.2-.4-.6-.6-.8.4-.6,1-1.2,1.6-1.6h0v-.2Z"/>
            <path class="cls-24" d="M307,276.6c1.6-1.6,3.2-3,5.2-4.6-1.6,1.4-3.2,3-5.2,4.6Z"/>
            <path class="cls-24" d="M304.2,280.4c.4-1.2,1.2-2.6,2.2-3.8-.4,1.2-1.2,2.6-2.2,3.8Z"/>
            <path class="cls-20" d="M125,224.4c0,.6.2,1.4,0,2.4h-.6c0-.8,0-1.6.4-2.4h.2Z"/>
            <path class="cls-24" d="M293.2,336.4c.4-.4.8-.6,1-.8-.2.6-.6,1.2-.8,1.8v-1.2h-.2v.2Z"/>
            <path class="cls-24" d="M312.6,272c.2-.6.8-1.2,1.4-2-.2.6-.8,1.2-1.4,2Z"/>
            <path class="cls-24" d="M322.8,260.2c.4-.4.6-.6,1-.8,0,.6-.4,1.2-1,1.8v-1Z"/>
            <path class="cls-24" d="M331.8,247.2c0-.4.2-.8.6-1.4,0,.4-.2,1-.6,1.4Z"/>
            <path class="cls-24" d="M327.4,254.8s0-.4.2-.4c0,0,0,.4-.2.4Z"/>
            <path class="cls-17" d="M154.6,357.2c1.4-1.6,2.8-3.4,4.4-4.8.6,1.2,1,2,1.4,3h-.2v2.2c-.6,1.4-1.8,2.4-1.8,3.6,0,5.6-.2,11.2.4,16.8,1.2,9.4,3.8,18.4,8.4,27,.6,1,1.2,1.8,1.8,2.6.2,1,.4,2,.6,3,1.8,8,2.6,15.6,1,23.4-.2-3.2-.6-6.4,0-9.4.6-4.4-.4-8.4-2.8-12.4v-.6c-.2-.2-.4-.4-.6-.8v-1.2c-.6-1.4-1.2-2.6-1.8-3.8v-1.8c-.4-.6-.8-.8-1.2-1.4-.6-.8-1.2-1.2-1.8-1.8-.2-.6-.4-1.4-.8-2.4-.4-2.4-.6-4.2-1.4-6-.6-1.4-1.6-2.4-2.4-3.8-.2-1-.4-2.2-.6-3.6-.2-1.8-.6-3.2-1-4.6,0-1.4-.4-2.6-.4-4.4s0-2.4-.2-3.2v-5c0-.6-.4-.8-.6-.8v-2h0c0-2.8-.4-5.2-.8-7.6h.4v-.2Z"/>
            <path class="cls-14" d="M154.6,481.2s-.2.4-.8.6c-.2-1.4,0-3,0-4.4h.2c.4-.4.8-.6,1-1,2.6-4.2,5-8.4,7.6-12.2.4,1.4.8,2.4,1.4,3.6,1.2-.6,2.4-1.2,3.6-1.8.4,0,.6-.6.8-.8,3.2-3.4,7-6.8,9.8-10.6,2.6-3.8,4.4-8,6.6-12.2h1.6c-.6,1.8-1.2,3.4-2,4.8h-.2c-1.8,2.8-3.4,5.6-4.8,8.2-2,5-5.8,8.6-9.8,12.2-2,1.6-3.8,3.6-5.8,5.6-.8-.4-1.2-1.2-2-2.4-1.8,2.8-3.4,5.2-4.8,7.8-.4.4-.8.6-1.4,1.2-.6.6-.8,1-1,1.4h0Z"/>
            <path class="cls-18" d="M126,447.2h-.8c1-5.2,2-10.4,3.6-15.6,2.4-8.4,5-16.6,7.8-24.8,3-9,6.2-17.8,9.2-26.8,1.4-4,3-7.8,4.8-12h.8c-1.2,3.8-2.4,7.6-3.8,11.4-2.4,7.2-5,14.2-7.4,21.4-2.4,7.6-5,15.2-7.2,23-2.2,7.6-4.2,15.4-6.4,23.2l-.8.4h0l.2-.2Z"/>
            <path class="cls-14" d="M188.6,439c0,.2,0,.6-.2,1-.6.4-1.2.6-1.6.6v-1.8c.4-.6.8-1.2,1.2-2,.2-.6.4-1.2.8-1.8.6-1.6,1.2-3,1.8-4.4h0c1-2.2,1.6-4.2,2.4-6.4v-.6c0-.4,0-.8.2-1,.4-.4.8-.8,1.2-1.4,1.4-4.2,2.4-8,3.8-12.2.8-1.6,1.4-3,1.8-4.4,2-5.4,3.8-11,5.8-16.6.2-1.6.4-3,.4-4.6v-5.6c0-1.6,0-2.8,1.8-1.4v9.2c-.4,2-.8,3.6-1,5.2,0,.6,0,1.4-.2,2.4-.4,1.6-.8,2.8-1,4h0c-.2.4-.4.8-.4,1.2-.2.6-.4,1.4-1,2.4-.8,1.8-1.6,3.2-2.2,4.8,0,.2,0,.6-.2,1.2-.8,1.8-1.2,3.2-1.8,4.6,0,.4,0,1-.2,1.6-.4.4-.4.6-.4.8h-.2c-1,2.2-2,4.2-2.8,6.4-.2,1.2-.4,2.2-.8,3.6-2.4,5.4-4.6,10.4-6.8,15.6l-.4-.4h0Z"/>
            <path class="cls-26" d="M206,396.8c0-1.2.4-2.4.8-3.8,3,.8,5.8,2.2,8.6,2.4,10.4,0,20.8,1,31-2.2.8-.2,1.8,0,3.4,0-1,.8-1.2,1.4-1.6,1.4-5.8,1-11.4,2.2-17.2,2.6-7.2.6-14.6.4-21.8.6-1,0-1.8-.6-3-1h-.2,0Z"/>
            <path class="cls-26" d="M208.6,384c-.2-2.6-.2-5.2,0-8,.4-.8.8-1,1.2-1.4h.6c1.6,0,3,.2,4.4.2,4.8,0,9.8,0,15-.2h1c8.6-1.6,17.2-3.2,26-5,4.4-1.6,8.6-3,13.2-4.2-.2.6-.6,1.4-1.2,1.6-11,4.8-22.8,7.2-34.6,8.6-6.8.8-13.8,0-20.8.4-1,0-2.4,1.4-3,2.4-.8,1.8-1,3.8-1.8,5.6h0Z"/>
            <path class="cls-14" d="M168,412.2c2.2,3.8,3.2,7.8,2.8,12.2-.4,3.2,0,6.2,0,9.8s-.4,8.8-1.2,12.8c-.8,4-2,8-3.2,12,0,.6-1.4.8-2.2,1,.6-1.6,1.4-3,1.8-4.6,1.2-4.6,2.2-9.2,3.2-13.8,0-.8-.8-1.6-1-2.6,0-.2,0-.6.2-1,.2-5,.2-9.6.4-14.2,0-1-.4-1.8-.4-3.2,0-3,0-5.8-.2-8.4h-.2Z"/>
            <path class="cls-26" d="M167.8,439.2c.6.6,1.4,1.6,1.2,2.4-1,4.6-2,9.2-3.2,13.8-.4,1.6-1.2,3-2,4.8-.6,1.6-1,2.6-1.4,3.8-2.6,4.2-5,8.4-7.6,12.6-.2.4-.6.6-1,1,1-2.6,2-5.4,3.2-8,2.6-5.2,5-10.6,7.2-16,1.8-4.6,1.2-9.6,3.4-14.2h0l.2-.2Z"/>
            <path class="cls-26" d="M168,412c0,2.8.2,5.4.2,8.2h-.4c-2-5.6-3.8-11.2-5.6-16.8-.2-.8,0-1.6,0-2.6.6.2,1.2.8,1.8,1.8.4.8.8,1,1.2,1.4v1.8c.6,1.6,1.2,2.8,1.8,4v1.2c.2.4.4.6.6.8v.4h.4v-.2Z"/>
            <path class="cls-26" d="M157.2,478.6c1.4-2.6,3-5,4.6-7.8.8,1.2,1.4,2,2,2.6-.4,2.2-.8,4.2-1.4,6.4-.4.2-.8.4-1.2.8-.4-.6-.6-1.4-.6-1.4-1.4-.2-2.4-.4-3.6-.6M162.6,475.6h0Z"/>
            <path class="cls-26" d="M153.6,477.4v4.4c-1,2-2.4,4-4,6.4-1-3.2,1.4-9,4-10.8h0Z"/>
            <path class="cls-26" d="M151.4,367.8h-.6c1-3.6,2.2-7,3.4-10.8.4,2.2.8,4.8.8,7.4-1.2,1.2-2.4,2-3.8,3.2h.2v.2Z"/>
            <path class="cls-26" d="M188.8,439c2-5,4.2-10,6.6-15.2-.2,1.6-.4,3.6-1,5.4-.8,2.4-1.8,5-3,7.2-.4,1-1.4,1.8-2.4,2.6h-.2Z"/>
            <path class="cls-26" d="M168.4,423.8v13.8-13.8Z"/>
            <path class="cls-26" d="M186.6,441c.4,0,1-.4,1.6-.6,1.8,1.2,2.4,2.2,0,3.2-1.4.6-2,2.4-3.4,3.6.4-1.6,1-3,1.6-5v-1.2h.2Z"/>
            <path class="cls-26" d="M157.8,388.6c.8,1,1.8,2.2,2.4,3.4.6,1.8.8,3.6,1.2,5.8-1-2-2.2-4-3-6.2-.4-.8-.4-1.8-.6-3Z"/>
            <path class="cls-26" d="M179.8,455.6c1.4-2.8,2.8-5.4,4.6-8.2-.4,3.2-1.6,6.2-4.6,8.2Z"/>
            <path class="cls-26" d="M196.4,419.8c.6-2,1.6-4.2,2.6-6.4-.6,2-1.6,4.2-2.6,6.4Z"/>
            <path class="cls-26" d="M270.4,365.4c2-1.2,4-2.2,6.4-3.4-1.2,2.6-3.6,3.2-6.4,3.4Z"/>
            <path class="cls-26" d="M202.2,405.2c.4-1.4,1.2-3,2-4.4-.4,1.4-1.2,3-2,4.4Z"/>
            <path class="cls-26" d="M156.2,380.4c.6,1.2.8,2.6,1,4.2-.6-1.2-.8-2.6-1-4.2Z"/>
            <path class="cls-26" d="M200.2,410.8c.4-1.4.8-2.8,1.6-4.4-.4,1.4-.8,2.8-1.6,4.4Z"/>
            <path class="cls-26" d="M207.4,390.4c0-1.6.4-3.2.8-5,0,1.6-.4,3.2-.8,5Z"/>
            <path class="cls-26" d="M155.6,372.6c.2.8.4,1.8.4,2.8-.4-.8-.4-1.8-.4-2.8Z"/>
            <path class="cls-26" d="M148.2,488.6c.2.4.4.8.4,1.2h-.8c0-.4,0-.8.4-1.2Z"/>
            <path class="cls-26" d="M154.8,481.2c0-.4.4-.8.8-1.2,0,.4-.4.8-.8,1.2Z"/>
            <path class="cls-26" d="M205.2,398c0-.2,0-.6.2-1,0,.2,0,.6-.2,1Z"/>
            <path class="cls-26" d="M277.4,362.2c0-.2.4-.6,1-.8,0,.2-.4.6-1,.8Z"/>
            <path class="cls-26" d="M199.4,413.4s0-.4.4-.6c0,0,0,.4-.4.6Z"/>
            <path class="cls-26" d="M155.2,365v.4-.4Z"/>
            <path class="cls-26" d="M155.2,367s.4,0,.4.4c0,0-.2,0-.4-.4Z"/>
            <path class="cls-22" d="M157.2,347.8c1-.2,2.6.6,2.8-1.4,0-.2,1-.4,1.6-.6,2.2-1,4.4-2.4,6.6-3,2-.6,4.4-.2,6.6-.6,1.6-.2,3.2-.8,4.8-1.4.4-.4.4-.6.6-1,.4-.6.8-.8,1.2-1.2.8,1,1.2,1.8,1.8,2.6,3.4,3.6,8.4,2.2,12.4,3.6,2.6,1,4,2.2,4,5-.6.2-.8.4-1.2.2,0,0-.4,0-.4-.4-3.8-4-8.4-5-13.8-4.6h-6.8c-3.2-1.6-5.6,0-8.4,1.4-3.4,1.4-6.8,2.8-10,4.2-.6-1-1.2-1.8-1.8-3h0v.2Z"/>
            <path class="cls-9" d="M177.8,345.2h4.2c.6,0,1.4,0,2.4.2,1.4,1,2.4,1.6,3.2,2.2-3.4,0-6.6-.6-9.8-.4-1.2,0-2.2,1.2-3.6,1.8-1.4.4-2.6.8-3.8,1.2-3.4,1.6-6,4.6-10,5.2-.4-1-.6-1.8-1.2-3v-1.4c3.4-1.6,6.6-2.8,10.4-4.2,2.2,0,4,.2,5.8,0,.8,0,1.6-1,2.6-1.4h-.2v-.2Z"/>
            <path class="cls-18" d="M102.2,444.8v9h-.6v-14.6h.6v5.4h0v.2Z"/>
            <path class="cls-22" d="M155.8,346c.4,0,.8.4,1.2,1-.4,0-.8-.4-1.2-1Z"/>
            <path class="cls-17" d="M150.8,341.2s.4,0,.6.4c0,0-.4,0-.6-.4Z"/>
            <path class="cls-33" d="M142.4,186.4c-4-1.2-8-2.6-12-4.2,8-4.8,17-6.2,25.8-7.2,42.4-5,83.8,0,124.6,11.6,3,.8,5.8,1.8,9,3.2.4,1,.8,1.8,1,2.6v1.2c-.4,5.2-.8,10.2-1.2,15.6v3c0,3.8-.2,7.2-.4,10.8-.4-.2-1-.4-1-.6-.4-2.8-.8-5.6-1-8.6,0-2.2.2-4.4,0-6.4-.2-1.8-1.4-3-3.4-1.6-1.6,1-3.2,2.2-4.8,3-2.2,1-4.6,1.8-7.4,2.6-1.4,0-2.4,0-3.4.4-3.2.8-6.4,2-9.6,2.2-2.6.4-5.4-.4-8.2-.6,1.2-3.2,3.8-2.2,6-1.6,1.6.4,2.8.6,4.6-.2,3.6-1.8,7.6-2.6,11.4-3.8,3.2-1,6.4-2,9.6-3,2-.8,2.6-2,1.8-4.2-1-2.4-1.4-4.8.4-7.2,1.4-2,.4-3-1.6-3.2v1c-1.6.6-3.4,2.2-4.6,2-4.2-1.2-6.2,1.4-8.4,3.8-2,2.2-3.8,2.8-6,.2-.2-.2-.8-.6-1-.6h-14c-4,0-7.8-.6-11.8-.6s-8,.6-11.6,3.8c-2.4,2.2-7,2-10.8,3,0,0,.4,1,.8,2.2-5.6-1.8-10-.8-14.4,3-.8.2-1.2,0-1.8,0-.2-.8-.4-1.4-.4-2.4,2.6-1.4,5-2.6,7.4-3.6,9.6-3.6,19.2-7.6,29.6-8.4,5.8-.4,11.8-.6,17.8-.4,4,0,8.2.6,12.2,1-2.6-5.6-7.8-7.4-12.8-8.4-4.2-.8-9-.8-13.4,0-7,1.4-13.8,3.8-20.6,5.8.6-.6,1.2-1.6,1.8-1.6,3.4,0,5.2-2.2,7.4-4.4,2.2-2.4,4.8-4.4,7.4-7.4h-6c-1,0-2,.2-2.8,0-7.6-.4-15.4-.8-23-1.4-.8,0-1.4-.6-2.2-.8-1-.4-2-1-2.8-1-3.8.2-8,1.8-11.2.6-3.8-1.4-4.6,1.6-7,2.6-2-4-4.8-1-7.2-1-3.8,0-7.4.6-11.4-.8-2.2-.8-5.2.8-7.8,1.2-.6,0-1.4.4-1.8.2-4-1.6-5.4,2.4-8.2,3.6v1.2c2.4.6,4.6,1.4,7,1.6,3.8.4,4,.6,3.4,4.4,1,.8,2,1.4,3,2.4-4.2-1.6-8.4-3.4-12.8-5.2-.6-.2-1.2,0-2,.4h0l-.2.2Z"/>
            <path class="cls-3" d="M289.8,212v-2.8c.4-1.6.6-3,.8-4.4.2-2.2.4-4.6.8-6.8h0v-.4c-.2-1.6-.4-3-.6-4.4v-1.2c.2-1,.4-1.8.4-2.6,4.6,1.4,9.4,3,14,4.4,4.8,1.6,9.6,3,14.4,4.8-1.8,1-3.6,1.8-5.6,2.4-1.2.4-2.6.4-4.8.8-3.8,6-8.2,12.8-12.8,19.6-.2,0-.4.4-.4.6-.2.2-.4.4-.8.6-1.4.8-2.6,1.6-3.8,2.6-.4-2.8-.8-6-1.2-9.2-.2-1.4-.6-3-.8-4.4l.4.4h0Z"/>
            <path class="cls-33" d="M296.8,221.6c4.4-6.8,8.8-13.8,12.6-19.6,2.2-.4,3.6-.4,4.8-.8,2-.6,3.8-1.4,5.8-2.4,4-.2,8-.6,11.4,2.2-1,.2-2.2.4-3,0-2.4-.6-5.4,1-6,3.2h-2.4c-1.2-2.2-5.8-2.6-7.2-.6-1,1.4-2.2,2.6-3.4,4.2.2.4.6,1.4,1.2,2.8-1.4.4-2.8.4-4,1-1.2.4-2.4,1-3,2-1.2,1.6-2.2,3.6-3.2,5.4-.4,1-.6,2-1,3.6-.8.4-2,.8-3.6,1.2-.2-.4-.2-.8,0-1,0,0,.4-.4.6-.6.2-.2.4-.6.4-.8h0v.2Z"/>
            <path class="cls-27" d="M322.8,204.4c.2-2.2,3.4-3.8,5.6-3.2,1,.2,2,0,3.2,0s.8.2,1.2.6c-.8,1.4-1.6,2.8-2.6,4.4-1.2-.2-2-.6-3-1.2-.2-.6-.4-1-.6-1.4,0,.4-.4.6-.8,1h-3v-.2Z"/>
            <path class="cls-19" d="M291.2,189.6v2.4c-.4-.6-.6-1.2-1-2.2.4-.2.6-.2,1-.2h0Z"/>
            <path class="cls-2" d="M327.2,205c1,.4,1.8.8,3,1.2.2.2.4.4.8.8,4.2,4.6,5.8,9.6,5.2,15.4-.6,4.6-1.2,9.2-2,14-1.4,2.6-2.8,5.2-4.2,7.8-.6,1-1.4,1.8-2.8,2.4.4-1.4.8-2.6,1.2-4.2,1.8-5.6,3.8-11,5-16.4.8-3.6.6-7.4,0-11-1-6.6-8.2-10-13.8-7.8-4.8,1.8-7.2,6.2-8.6,11.2-.4,1.8-1.2,4,.8,5.6.2,0,.6.2,1,.4,2.4-5.6,2.2-12.8,9.6-16.4-1.8,3.6-3.4,6.2-4.8,9.2-2.4,4.8-2.2,5.6,1.6,9.4s5.8,13.8,1.8,20c-2.8,4.4-5.4,5.2-9.4,2.8,8.4-1.6,9.8-7.6,8.6-13.8-1-5.2-6.8-6.2-11-8.8-1,5.6-2.4,11-2.4,16.4s-.8,6.6-2.6,9.8c-1.4,2.4-2,2.8-4.6,2.6,5.2-8,5.2-17.4,7.8-26.2.8-3.2.2-6.8,1-10,1.6-6.2,4.4-12,11.2-14.6h5.8c.8.2,1,.4,1.4.4h.4v-.2Z"/>
            <path class="cls-12" d="M219,191.6c7-2,13.8-4.4,20.8-5.8,4.2-.8,9-1,13.4,0,5.2,1,10.2,2.8,12.8,8.4-4-.4-8.2-1-12.2-1-6,0-11.8,0-17.8.4-10.4.8-20,4.8-29.6,8.4-2.4,1-4.8,2.2-7.4,3.4-.4-1.8-.6-3.8-.6-6,1.4.8,2.4,1,3.8-.4.4-.2.8-.4,1.2-.6.4-.2.8-.4,1.4-.6,4.6-2,8.8-3.8,13.2-5.6h1v-.6h0Z"/>
            <path class="cls-16" d="M156.8,315c.4-.4,1.2-.8,2.4-1.2,3.8-.4,7.2-1,10.6-1s6.6,1,10,1h24.2c1,.6,1.8,1.2,2.6,1.6-4.8,3-9.8,5.2-15.6,6h-1c-9.8,3.4-18.4,0-26.8-4.4-2-1-4.2-1.4-6.6-2h.2Z"/>
            <path class="cls-9" d="M206.4,288.8c7.8,3.8,12.2,10.2,13.8,18.8,1.8,10.4,6.2,19.4,13.2,27.2,0,.2.2.6.6,1.6-7.4-4-14-7.6-18.6-14.4,0-.2,0-.4.4-.4,1,.6,1.6,1,2.4,1.6,1.6,1.2,3.4,2.4,5.4,3.8-2.4-7.6-4.8-14.2-6.8-21.2-1.4-4.8-3.4-9.2-7.6-12-1.8-1.2-3.8-2.2-5.8-3-2.6-1.2-5.2-2-7.8-3.2.8-.8,1.8-1.2,2.8-1.8,2.2.8,4,1.4,6,2.2h0c.6.4,1.2.8,1.8,1h.2v-.2Z"/>
            <path class="cls-29" d="M165.4,285.2c-1.2.8-2.6,1.6-4.2,2.2-1-1-1.4-2.4-2.4-3.2-2.2-2.4-5.2-4.4-6.8-7.2-3-5.2-1.4-8.6,4-14.4,1.2-1.2,1.8-3.2,2.2-4.8,2.4-7,4.6-14,7.2-21.2.8-.2,1.2-.2,1.8-.2-1.8,5.6-3.8,11.2-5,17-1.4,6.6-2.4,13.4-3.2,20-.6,5.2,1.2,9.4,6.4,11.8M154.4,277c.6.8,1.2,1.4,2.4,2.6v-14.4c-4.6,2.8-5.4,6.2-2.4,11.8Z"/>
            <path class="cls-29" d="M276.6,336c-1.4,2.4-2.8,4.6-4.2,7-1,.6-2,.6-2.6,1.2-9.2,9.2-19.2,16.8-32.2,20-6.4,1.6-12.6,4-19,5.8-1.8.6-4,.2-6.2,0-.2-.4-.2-.8,0-1,3-.4,5.6-.6,8.4-1.2,2.8-.6,5.4-1.6,8-2.4,10.4-3,20.2-7,29-13.6,6.8-5,12.6-11,18.2-17.6.4.6.6,1,.6,1.6h0v.2Z"/>
            <path class="cls-33" d="M204,224.2c-.4-.8-1.4-2-1.2-2.2,1.6-2,3.2-4,5-5.8,2.6-2.2,5.6-2.2,8.6-1.4,1,0,3-.8,3.2-1.6,1-3.2,3.4-2.8,5.4-2,4.8,1.8,9.6,1.8,14.6,1.4,2.8,0,5.4.2,8.2.8-.6.6-1.2.8-2.2.8h-14.6c-1.4,0-2.4.4-3.6.4s-.8.4-1.6.6c-2.4.2-4.4.6-6.8.8-5.8,1.4-10.8,4-15,8.2h0Z"/>
            <path class="cls-33" d="M124.2,202c0-1.8-.2-3.8.4-5.4s2.2-4.2,3.4-4.2c5.8,0,11.6.6,17.4,1,.4,0,.8.6,1.4,1-4.8,3.2-10.2,4.2-16,3.6-2.6-.2-4.4,2.2-4.6,6-.4,0-.8,0-1-.4-.2-.2-.4-.6-.6-1.2,0-.2,0-.4-.4-.6h0v.2Z"/>
            <path class="cls-15" d="M198.2,285.4c-.8.6-1.6,1-2.8,1.8-2.8-.4-5.4-1-8-1.6-2.4-.4-4.6,1.8-3.8,4,.8,2,1.8,4,3,5.8,1,1.6,2.2,3.2,3,5-1,.2-1.6.4-2.4.6h0c1.2-2.6-1-.6-1.4-1.4-1.6-2.2-3-4.2-4.4-6.4v-1.2c.6-2,.8-3.6-1.8-3.6-4.4.2-8.6.4-13.2.6-.4-.8-.4-1.6-.4-2.4h1.4c5.2,1.4,10,.6,14.8-2.4,2.4-.4,4.4-.6,6.4-.8.2,0,.6,0,1.2.2,1.2,0,1.8.2,2.6.2s.6,0,1.2.4c1,.2,1.4.2,2,.4.2,0,.6,0,1.2.4s1,.6,1.4,1v-.6h0Z"/>
            <path class="cls-33" d="M127,205c3.8,1,7.6,2,11.4,2.8,1.4.2,3,0,4.6-.2,2.4-.6,4.6-1.6,6.2,1.6.4.6,2.2.8,3.4.8s6,2.2,6.2,4c-.4.4-.8.6-1.4.6-5.4-2-10.8-3.4-16.8-2.6-1.2,0-2.4,0-3.4-.4-4-1.4-8.2-2.4-10.2-6.6h0Z"/>
            <path class="cls-22" d="M225.6,226.8c-2.2-.2-4.4-.4-7-.8-2-.2-3.6-.4-5.2-.4h-3c-1.2-.6-2-.8-2.6-1.4,2.2-1,4.2-2,6.4-2.8,2,.4,4,.8,6.2,1.2,3,.4,5.8.6,9,1,2,0,3.6-.2,5.2-.4.8.4,1.6.8,2.4,1,1.2,0,2.4,0,3.6.2-4.2,1.8-8.6,2.6-13.6,2.6h-1.4v-.2Z"/>
            <path class="cls-19" d="M295.6,223c.2.2,0,.4,0,1v.4c-1,2.8-1.8,5.6-2.6,8.2v1.2c0,1,.2,1.4.4,2,0,.6,0,1.2-.4,2.2-.4,2.2-.8,4-.8,5.8s-.6,2.8-2.4,2.8v-23.4c0-3.8,0-7.2.2-11,.4,1.2.8,2.6,1,4,.4,3.2.8,6.4,1.2,9.2,1.2-.8,2.4-1.8,3.8-2.6h-.4v.2Z"/>
            <path class="cls-19" d="M187.2,301c.8,0,1.4-.4,2.6-.4,5,3.6,9.8,6.8,14.4,10.6,3.4,2.8,6.6,6,10,9.2v1c-2.4-2-4.6-3.8-7.2-5.8-1-.6-1.8-1.2-3-2-1.4-1-2.2-1.6-3.4-2.6-3.8-2.6-7.6-5.2-11.4-7.8-.6-.4-1.2-.8-1.8-1.2v-1h-.2Z"/>
            <path class="cls-15" d="M181.4,338.6c-.4.4-.6.8-1.2,1.2h-.6c-.4-2.6-.8-5.2-1.4-8.2-.2-.6-.4-.8-.4-1v-1.2c0-1.8,0-3.4.2-4.8,2,0,4,.4,6.2.8-.8,4.6-1.8,8.8-2.8,13h0v.2Z"/>
            <path class="cls-15" d="M242,214.2h3.6c4.4,2.4,8.4,1.6,12.6.8,1.4-.2,2.8,0,4.2,0-5.2,1.4-10.6,3-16.2,4.4-.2-.8,0-1.6,0-2.8h-10c-1,0-1.6,0-2.4-.4,1.6-.6,3.2-1,4.8-1.4,1.2-.2,2.4-.6,3.4-1v.4Z"/>
            <path class="cls-29" d="M207.2,267c2.4,4.6,2.2,9,0,13.4-.4,1-1.8,1.4-3,2.4-.4-1-.4-1.2-.4-1.2,4.8-6.4,1.4-11.6-2.6-16.8-.6-.8-.6-2-.8-3,1,.2,2.4.2,3.2.8,1.4,1.2,2.2,2.8,3.6,4.4h0Z"/>
            <path class="cls-2" d="M167.6,236.2h-1.8c.8-2.6,1.6-5.2,2.8-7.8,1.6-3.6,1.8-3.4-1.8-4.6-.8-.2-1.4-1-1.8-1.6h1.4c1.4.2,2.4.4,3.6.6,1-.4,1.6-.8,2.4-1.2,1.2-3.2,2.4-6.2,3.6-9.4h1c-.2,1.6-.2,3.4-.8,4.8-2.4,5.6-5,11.2-7.6,16.6-.4.6-.6,1.4-1,2.2v.4h0Z"/>
            <path class="cls-23" d="M236.4,217h9.8c-.2,1.2-.4,2-.4,2.8-3.6,1.2-7.2,2.2-11.2,3.2-2,0-3.6.4-5.4.2.6-.8,1.4-1.6,2.4-2,3-.2,5.8-.6,8.4-1.2-1.4-1.4-4.2,0-3.8-3h.2Z"/>
            <path class="cls-20" d="M212.2,369.2v1c-.6.2-1.4.2-2.4,0-1-3.8-4-6.8-3.6-10.8,0-.6-1.2-1.4-1.8-2.2-2-2.4-3.8-4.8-5.8-7.2h1.2c1.2.8,2,1.6,3.2,2.8,2.2,1.6,4,3,6,4.2,0,.2,0,.6-.2,1-.6.2-1.2.2-1.6.2.4.6.8,1.2,1.2,1.8,0,.6.4,1,.6,2,.4,1.6.8,2.6,1.2,3.8.4,0,.6.4,1,.8.4,1,.6,1.6,1,2.4h0v.2Z"/>
            <path class="cls-19" d="M186,279.2c2.4-5,6.8-6,11.6-5,1.6.4,3,2,4.2,3.6-5-.8-9.6-1.8-14.2,1.6-.8,0-1.2,0-1.8-.4h0l.2.2Z"/>
            <path class="cls-33" d="M169.2,204c.6-.4,1.8-.6,1.8-1,.6-2.6-.6-4.2-2.8-5.4-3.2-1.6-6.4-3.4-9.6-5.2,0-.6.6-1.2.8-1.4,3.8,1.8,7.4,3.6,11.2,5.4,2.8,1.2,4.2,6.2,2.2,8.4-1.4,1.6-2.6,1.6-3.4-.6h-.2v-.2Z"/>
            <path class="cls-33" d="M203.2,198c-.4.2-.6.4-1.2.4-1.6-.4-2.8-.8-4-1-1.6-.4-1.8-1.4,0-1.8,2.4-.6,4.8-.8,7.2-1,.8,0,2,0,2.4-.6,2.8-3.6,6.8-1.8,10.4-2.4-4.2,2-8.6,4-13.2,5.8-.6,0-1,.6-1.4.8h0l-.2-.2Z"/>
            <path class="cls-28" d="M262.6,215.4c-1.6,0-3-.4-4.4,0-4.2.8-8.2,1.4-12.2-.8.4-.2,1-.4,1.8-.8h2.4c3,0,5.8.8,8.4.4,3.2-.4,6.4-1.6,9.6-2.2,1-.2,2-.4,3.2-.2-2.8,1.4-5.8,2.8-8.8,4v-.4Z"/>
            <path class="cls-33" d="M289.4,246.6c2.2,0,2.6-1.2,2.6-2.8s.4-3.6.8-5.6c1.8,3.2,1,11.6-1.2,13.6-.6.4-2,.4-2.6,0s-1-1.4-1-2.2.8-2,1.4-3Z"/>
            <path class="cls-9" d="M214,221c-2,1-4,1.8-6.4,3-.6.4-1,.6-1.2.6-.8,0-1.6,0-2.2-.2,4-4.4,9-7,14.8-8.2-.4,1-1,1.6-1.8,2.4-1.2.8-2.2,1.6-3.2,2.2h0v.2Z"/>
            <path class="cls-23" d="M181.6,338.6c.8-4.4,2-8.6,3-13,1.2-.2,2.2-.4,3.8-.4-1,1.8-.6,3.2-2.2,5-2.2,2.4-2,6.8-2.8,10.6-.6-.6-1.2-1.4-1.8-2.2h0Z"/>
            <path class="cls-22" d="M212.4,369.2c-.6-.6-.8-1.4-1-2.4,5.6-.6,11.2-1,17.2-1.4-2.4.8-5,1.8-7.8,2.4-2.6.6-5.4.8-8.4,1.2h0v.2Z"/>
            <path class="cls-9" d="M169.8,222.8c-1-.2-2.2-.4-3.6-.8-2.4-1.6-4.6-3-6.6-4.6-.6-1.2-1.2-2-1.8-3,.4,0,.6-.2,1.2-.4h.6c.6.2,1,.4,1.4.6.2,0,.6.4,1.2.8,3.4,1.8,6.6,3.4,7.6,7.4h0Z"/>
            <path class="cls-20" d="M127,205c2.2,4.2,6.4,5.2,10.2,6.6-2.6-.4-5-1-7.4-1.4h-.8c-.6-.4-1.4-.8-2-1.4,0,2-.4,4-.8,6.2,0-1.8,0-3.8-.2-5.6,0-1.8-.4-3.4-.4-5.4.4,0,.6,0,1,.4l.6.6h-.2Z"/>
            <path class="cls-28" d="M199.4,207.8c.4-.2,1-.2,1.6-.2,0,4.8,0,9.6-.4,14.2h-1.4v-14h.2Z"/>
            <path class="cls-33" d="M170,222.8c-1.2-3.8-4.4-5.4-7.6-7.2,2-2,3.8-.6,5.4.8s2.8,3.4,4.6,5.2c-.6.4-1.2.8-2.2,1.2h-.2Z"/>
            <path class="cls-22" d="M198.4,285.4c-.6-.4-1-.6-1.4-1,4.6-2.2,6.8-1.4,7.6,2.8-2-.4-3.8-1.2-6-1.8h-.2Z"/>
            <path class="cls-33" d="M313.2,256.2c-1.4.2-2.4.4-3.4.6,0-.4-.2-.8-.4-1.2,3.4-1.2,6.8-2.4,10.2-3.6,0,.4.4.8.6,1.4-2.2,1-4.4,1.8-6.8,2.8h-.2Z"/>
            <path class="cls-22" d="M185.8,279.2c.6,0,1.2.2,1.8.4.4,1,.8,1.8,1,3-2,.4-3.8.8-6.2,1,.8-1.4,2-2.8,3.4-4.4h0Z"/>
            <path class="cls-29" d="M284.4,323.6c-2,3.4-3.8,6.6-6.2,9.8-.6,0-.8-.4-1-.6,2.2-3.2,4.2-6.6,6.4-10,.4,0,.6.4.8.8Z"/>
            <path class="cls-22" d="M208.8,357c-1.8-1-3.8-2.4-5.8-4,3-.4,5,.6,5.8,4Z"/>
            <path class="cls-22" d="M177.6,324.6v4.8c-1.4-1.2-2.6-2.6-4-4,0-.2.2-.6.4-.8h3.6Z"/>
            <path class="cls-33" d="M293,232.4c.6-2.6,1.4-5.4,2.6-8.2-.6,2.6-1.4,5.4-2.6,8.2Z"/>
            <path class="cls-33" d="M164.2,200.2c1.6,1,3.2,2,5,3.4-2.6.6-4.6,0-5-3.4Z"/>
            <path class="cls-22" d="M198,197.6c1.2,0,2.4.4,3.8.8-1,1.6-2,1.4-3.4.4-.2-.4-.2-.6-.2-1.2h-.2Z"/>
            <path class="cls-33" d="M213.4,225.8c1.6,0,3.2,0,4.8.2-1.4,0-3.2,0-4.8-.2Z"/>
            <path class="cls-33" d="M206.4,224.8c.2-.4.6-.6,1-.8,1,.4,1.8.6,2.6,1.2-1.2.8-2.6,2.2-3.8-.4h.2Z"/>
            <path class="cls-22" d="M208.6,360.4c-.6-.6-1-1.2-1.4-1.8h1.6c.6.4.8.8,1.2,1.4-.4.2-.8.4-1.4.6h0v-.2Z"/>
            <path class="cls-22" d="M210.2,365.8c-.4-.8-.8-2-1.2-3.4.4.8.8,2,1.2,3.4Z"/>
            <path class="cls-33" d="M262.4,207.2c.2.8.2,1.6.2,2.4h-1.4c.4-.8.6-1.6,1.2-2.2h0v-.2Z"/>
            <path class="cls-28" d="M277,332.8c.4,0,.6.4,1,.8,0,.8-.6,1.6-1.2,2.4-.2-.4-.4-1-.6-1.6,0-.6.4-1,.8-1.4h0v-.2Z"/>
            <path class="cls-22" d="M192.2,283.2h-2.4,2.4Z"/>
            <path class="cls-33" d="M161,199.4c.6,0,1,0,1.8.4,0,.4-.6.8-.8,1.2-.2-.4-.6-1-.8-1.6h-.2Z"/>
            <path class="cls-33" d="M293.4,235.6c-.4-.4-.4-1-.6-1.6,2-.2,1.4.6.6,1.6Z"/>
            <path class="cls-33" d="M148.8,195c.6,0,1,0,1.8.2-.4,0-1.2,0-1.8-.2Z"/>
            <path class="cls-22" d="M195.4,284h-1.8,1.8Z"/>
            <path class="cls-22" d="M206.2,288.6c-.6,0-1.2-.4-1.8-.8.6,0,1.2.4,1.8.8Z"/>
            <path class="cls-33" d="M152,195.6c.6,0,1.2.4,1.8.8-.6,0-1.2-.4-1.8-.8Z"/>
            <path class="cls-9" d="M214.2,321.4v-1.2c.4.2.8.6,1,1h-.2c-.2.2-.6.2-.8,0h0v.2Z"/>
            <path class="cls-33" d="M225.6,227h1c0,.4,0,.6-.2,1-.2-.2-.6-.4-.8-.8h0v-.2Z"/>
            <path class="cls-33" d="M160.8,214.6c-.4,0-.8,0-1.2-.4.2,0,.8,0,1.2.4Z"/>
            <path class="cls-19" d="M167.2,286.2h-.4c0-.2.4-.2.4-.2h0v.2Z"/>
            <path class="cls-22" d="M177.8,331s.2,0,.4.6c0,0-.2,0-.4-.6Z"/>
            <path class="cls-33" d="M289.4,239.6v.4-.4Z"/>
            <path class="cls-23" d="M179.6,340h.4s0,.4-.4.6v-.4h0v-.2Z"/>
            <path class="cls-28" d="M199.6,223.8h0Z"/>
            <path class="cls-23" d="M124.2,202.2s.2,0,.2.2c0,0-.2,0-.2-.2Z"/>
            <path class="cls-32" d="M157.6,214.4c.8,1,1.4,2,2,3.2-.6,1.6-1,2.8-1.6,3.8-3.4-.4-6.8-.8-10.6-1.6-.6-1.8-1-3.4-1.4-5.4.2-2.6-1.4-1.8-2.6-2-.8,0-1.6-.6-2.4-.8,5.6-1,11,.6,16.4,2.6h.2v.2Z"/>
            <path class="cls-15" d="M140.8,211.8c1,.4,1.8.8,2.6.8,1.2.2,3-.6,2.4,1.8-3,.4-6-.8-7.6,2.4-3.8-1-7-2.8-8.8-6.8,2.6.4,5,1,7.6,1.4h3.6v.4h.2Z"/>
            <path class="cls-24" d="M138.6,217.2c1.4-3.4,4.4-2.2,7.2-2.2.6,1.8,1,3.4,1.4,5.2-2.8-.8-5.6-1.8-8.6-3Z"/>
            <path class="cls-24" d="M158.4,221.6c.2-1.2.8-2.2,1.4-3.6,2.2,1.2,4.2,2.6,6.4,4h-1c-2.2,0-4.4-.4-6.8-.6h0v.2Z"/>
            <path class="cls-15" d="M129,210.2s.2-.2.6-.2c0,0-.2.2-.6.2Z"/>
            <path class="cls-33" d="M187.2,301v1.2c.6.6,1.4,1,2,1.2,3.8,2.4,7.6,4.8,11,7.6-4.6,0-8.8,0-13.2-.2h-9.4c-4.8-.4-9.4-.8-14.2-1.4v-.6c0-.4.2-.4.8-.8,4-2,7.8-3.8,11.8-5.8,1.2.4,2.2.4,2.8.8,2,1.6,3.6,1.4,5.2-.4.6-.6,1.4-1.2,2.4-1.8h1l-.2.2Z"/>
            <path class="cls-20" d="M175.6,302.2c-3.8,2-7.4,3.8-11.4,5.8,1-1.2,2.2-2.2,3.8-3.6,4-2,6.4-4.6,7.6-8.4h2.6c-.8,2.2-1.8,4.2-2.6,6h0v.2Z"/>
            <path class="cls-19" d="M178.2,295.8h-2.2c1-2.4,2.2-4.8,3.4-7.6,2.8,0,2.6,1.4,1.8,3.4-3.6-1.8-1.8,1.2-2.2,2.4-.2.6-.4,1.2-.8,1.6h0v.2Z"/>
            <path class="cls-15" d="M175.4,295.8c-.8,3.8-3.4,6.6-7.2,8.2,2.2-2.8,4.6-5.6,7.2-8.2Z"/>
            <path class="cls-9" d="M198.6,350.2c2,2.4,4,4.8,5.8,7.2.6.8,1.8,1.6,1.8,2.2-.4,4,2.6,7,3.4,10.8v1.4c-2.8,1.6,0,2,0,2.8-.4.4-.6.8-1.2,1.2-2-1-2,.2-2.2,2-.4,1.6-.6,2.6-.6,3.8s.6,1.4.8,2c0,1.4,0,2.8-.4,4-.8-1.6-2-3.2-1.8-4.4,1.2-5.4,1-10.8-.4-16.2-1.2-4.8-3.4-9-7.2-12.4-1.4-2-2.6-3.8-3.6-5.4,1.8.4,3.4.6,5,1h.6Z"/>
            <path class="cls-29" d="M214.6,374.6c-1.4,0-2.8,0-4.4-.2v-1.8c1.4.6,3,1.4,4.4,2.2h0v-.2Z"/>
            <path class="cls-20" d="M210,372.4v1.8c0,.2-.2.2-.6.2-.4-.8-3-1.4-.4-2.6.4,0,.4.4.8.6h.2Z"/>
            <path class="cls-29" d="M230.6,374.4h-.4.4Z"/>
            <path class="cls-19" d="M161.4,196.8h-.8v-.4h.8v.4Z"/>
            <path class="cls-27" d="M334.4,236.2c.4-4.6,1.2-9.2,1.8-13.8.8-5.8-1-10.8-5-15.2,2,0,3.6-1,5,2.6,2.4,6,2,11.8,1.8,17.6,0,3-2.2,5.8-3.4,8.8h-.2Z"/>
            <path class="cls-10" d="M317.4,267.4s.4.2.4.4h-.4v-.4Z"/>
            <path class="cls-29" d="M163.4,309.4c4.8.2,9.6.8,14.2,1.2,3.2.2,6.2,0,9.4,0s8.6.4,13.2.6c1.2.8,2.2,1.4,3.4,2.4-7.8,0-15.8.2-23.8,0-3.4,0-6.6-1-10-1s-6.8.6-10.4,1c1.2-1.4,2.6-2.8,4-4.2h0Z"/>
            <path class="cls-8" d="M196.8,354.6c3.8,3.2,5.8,7.4,7,12.2,1.4,5.4,1.6,10.8.4,16.2-.2,1.2,1,2.8,1.6,4.6-1.8,5.8-3.8,11.2-5.8,16.6-.6,1.4-1.2,2.8-2.2,4.6-1.4,4.2-2.6,8.4-3.8,12.4-.2.4-.6.8-1.2,1.2-1,.4-1.8.8-1.8,1.2-.4,2.4-.4,4.6-.8,7h-.2c-1.4,1.2-3,2.4-1.6,4.4,0,.6-.4,1-.8,1.8-.6.8-.8,1.4-1.2,2.2v3c-.4.2-1,.2-1.6,0v-14.2h-.8c-.4,1.6-.8,3.2-1.4,5.2-4.6-4.4-.8-9-2.2-13.2-2,2.2-3.2,1.8-4.6-.8-1.8-3-1.6-7.4-5.8-9,0-.8-.4-1.8-.6-3-.6-1.2-1.2-2-2-2.6-4.6-8.4-7.2-17.4-8.4-26.8-.8-5.6-.4-11.2-.4-16.8s1.2-2.2,1.8-3.8v-2h0c4-.4,6.6-3.6,10-5.2,1.2-.4,2.4-.8,4-1.2,3,0,5.6-.6,7.6,1.8.2.2,1,.4,1.6,0,2.6-.8,3.4.6,4,2.6.4,1,1,2,1.6,3.4.6-2,1-3.6,1.8-6.2,2,2.2,3.2,3.8,4.8,5.6l1.2-1.6v.4h-.2Z"/>
            <path class="cls-32" d="M169.8,410.4c4.2,1.2,4,5.6,5.8,8.6,1.6,2.6,2.6,3,4.6.8,1.4,4.2-2.4,8.8,2.2,13.2.6-2.2,1-3.6,1.4-5.2h.8v14.2c-2,4.4-3.8,8.8-6.4,12.4-2.8,3.8-6.4,7-9.8,10.6-.2.2-.4.6-.8.8-1.2.6-2.4,1.2-3.6,1.8-.4-1-.8-2.2-1.4-3.6.4-1.4.8-2.4,1.4-3.8.8-.6,2.2-.8,2.4-1.6,1.2-4,2.6-7.8,3.2-12,.8-4.2,1-8.4,1.4-12.8,1.4-8,.6-15.8-1.2-23.6h0v.2Z"/>
            <path class="cls-14" d="M167.4,409.4c-.6-.8-1.2-2-1.8-3.4.6,1,1.2,2,1.8,3.4Z"/>
            <path class="cls-32" d="M167.4,404.6c.6.6,1.2,1.2,1.8,2.2-.6-.6-1.2-1.2-1.8-2.2Z"/>
            <path class="cls-9" d="M160,355.2c.2.4.2,1,0,1.6,0-.4-.2-1,0-1.6Z"/>
            <path class="cls-14" d="M165.4,403.6c-.4,0-.8-.4-1.2-1,.4,0,.8.4,1.2,1Z"/>
            <path class="cls-14" d="M168,411.4s-.2,0-.6-.4c0,0,.2,0,.6.4Z"/>
            <path class="cls-32" d="M194.4,421c1-3.8,2-8,3.4-12-1,4-2,7.8-3.4,12Z"/>
            <path class="cls-32" d="M190.6,430.6c0-2.2,0-4.6.6-7,0-.4,1-.8,1.6-1.2.2.2.2.6,0,1-.4.2-.4.4-.6.4.2,0,.6.2.8.4-.8,2-1.4,4-2.4,6.2h0v.2Z"/>
            <path class="cls-32" d="M188.6,435c-1.4-2,0-3,1.6-4.4-.2,1.4-.8,2.8-1.6,4.4Z"/>
            <path class="cls-8" d="M206.4,383.2c-.4-.4-.8-1.2-.8-1.8,0-1.2.4-2.2.6-3.6v5.4h.2Z"/>
            <path class="cls-32" d="M186.8,439c0-.6.4-1.2.8-1.8,0,.6-.4,1.2-.8,1.8Z"/>
            <path class="cls-9" d="M206.4,381.4v-1s.2.6,0,1Z"/>
            <path class="cls-8" d="M193,424.2c-.2,0-.6,0-.8-.2,0,0,.4,0,.6-.2v.4h.2Z"/>
            <path class="cls-14" d="M162.6,475.8h0Z"/>
            <path class="cls-20" d="M198,349.8c-1.6,0-3.2-.6-5.2-1s-3.6-.8-5-1.4c-1-.6-2.2-1.4-3.2-2.2,5-.6,9.6.4,13.4,4.4h0v.2Z"/>
            <path class="cls-20" d="M177.4,345c-.6.6-1.4,1.6-2.4,1.6-1.8,0-3.6,0-5.6-.2,2.2-1.4,4.8-3,8-1.4h0Z"/>
            <path class="cls-20" d="M181.2,345c-.4,0-1,.2-1.6,0,.4,0,1-.2,1.6,0Z"/>
            <path class="cls-20" d="M182,345h-.4.4Z"/>
            <path class="cls-3" d="M187.6,347.6c1.8.4,3.4.8,5,1.4,1.4,1.8,2.8,3.6,4,5.6-.4.8-1,1.6-1,1.8-1.6-1.8-2.8-3.4-4.8-5.6-.8,2.6-1.2,4-1.8,6.2-.8-1.4-1.2-2.4-1.6-3.4-.8-2-1.6-3.4-4-2.6h-1.6c-2-2.4-4.6-1.6-7.2-1.8.8-.6,2-1.6,3-1.8,3.2,0,6.4.2,9.8.4h.2v-.2Z"/>
            <path class="cls-19" d="M290.8,193.6c.2,1.2.4,2.4.6,4h0c-.2,2.4-.4,4.8-.6,7,0,1.4-.4,2.6-.8,4,0-4.8.4-10,.8-15.2h0v.2Z"/>
            <path class="cls-19" d="M291.4,198h.2c0,.2-.2,0-.2,0Z"/>
            <path class="cls-19" d="M296.8,221.6s0,.4-.2.4c0,0,0-.2.2-.4Z"/>
            <path class="cls-33" d="M327.2,204.8c-.4,0-.8,0-1.2-.2,0-.4.2-.8.4-1.2.2.4.4.8.6,1.4h.2Z"/>
            <path class="cls-22" d="M203.4,198c0-.2.6-.6,1-.8,0,.4-.4.6-1,.8Z"/>
            <path class="cls-1" d="M215.6,321.4c-.6-.4-.8-.8-1.4-1.2-3.6-3-6.6-6.2-10.2-9-4.6-3.6-9.4-7-14.2-10.6-1.2-1.8-2.4-3.4-3.4-5-1-1.8-2.2-3.8-3-5.8s1.4-4.4,3.8-4c2.6.6,5.2,1.2,7.8,1.8,2.8,1,5.6,1.8,8,3,2,.8,4,1.8,5.8,3,4.2,3,6.2,7.2,7.6,12,2,6.8,4.4,13.6,6.8,21.2-2-1.4-3.6-2.6-5.4-3.8-.8-.6-1.4-1-2.4-1.6h.2Z"/>
            <path class="cls-4" d="M154.2,276.8c-2.8-5.2-2.2-8.8,2.6-11.6v14.4c-1.2-1.2-1.8-2-2.6-2.8Z"/>
            <path class="cls-32" d="M217.2,218.6c.6-.6,1.2-1.4,2-2.2,2.2-.6,4.2-.8,6.8-1,.8,0,1-.2,1.4-.4,1.2,0,2.2-.4,3.6-.4h.8c3.2-.2,6.4-.2,9.8-.2-.8.4-2,.8-3.2,1-1.6.4-3.2.8-5,1.4-.6.4-1,.6-1.6.8v.6c0,.4,0,.6-.2.6h-.4s.4,0,.6.4c0,.8-.2,1.2-.4,1.8-.8.6-1.6,1.2-2.4,2.2-3,0-5.8-.4-9-1-1.2-1.4-2-2.4-3-3.6h.2Z"/>
            <path class="cls-15" d="M227.4,214.6c-.2.4-.6.4-1,.6.2-.2.6-.6,1-.6Z"/>
            <path class="cls-15" d="M231.8,214.2h0c0,.2-.4.2-.4.2h.4v-.2Z"/>
            <path class="cls-28" d="M178.2,296c.2-.8.4-1.2,1-1.8,1-.4,1.6-.6,2.4-1,1.4,2,2.8,4,4.4,6.4v1.2c-.8.6-1.4,1.2-2,1.8-1.6,1.8-3.2,2-5.2.4-.6-.6-1.6-.6-2.8-.8.6-2,1.4-4,2.4-6.2h-.2Z"/>
            <path class="cls-20" d="M181.4,293c-.6.4-1.4.6-2.4,1,0-1-1.4-4,2-2,.2.4.2.6.2,1h.2Z"/>
            <path class="cls-19" d="M186.2,301c-.2-.4-.2-.6-.2-1,.4.2,2.4-1.6,1.4,1h-1.2,0Z"/>
            <path class="cls-24" d="M217.2,218.8c1,1,1.8,2,2.8,3.2-1.8,0-3.8-.4-5.8-.8.8-.8,1.8-1.6,3-2.4h0Z"/>
            <path class="cls-28" d="M189,303.2c-.6,0-1.2-.4-1.8-.8.6,0,1.2.4,1.8.8Z"/>
            <path class="cls-24" d="M232,218.6v-1.2c.4,0,.8-.4,1.6-.6,1,0,1.6,0,2.6.2,0,3.2,2.6,1.6,4.2,3-2.8.4-5.6.8-8.4,1.2,0-.6,0-1.2.2-2v-.6h-.2Z"/>
            <path class="cls-23" d="M231.8,218.6s.2.2.2.4h-.6.4v-.4Z"/>
            <path class="cls-23" d="M231.8,217.4s.2.2,0,.2c0,0-.2-.2,0-.2Z"/>
          </g>
        </g>
      </g>
    </g>
  </g>
</svg>