<?xml version="1.0" encoding="UTF-8"?>
<svg xmlns="http://www.w3.org/2000/svg" version="1.1" viewBox="0 0 510 515">
  <defs>
    <style>
      .cls-1 {
        fill: #312d28;
      }

      .cls-2 {
        fill: #bc7f47;
      }

      .cls-3 {
        fill: #39322c;
      }

      .cls-4 {
        fill: #d69f61;
      }

      .cls-5 {
        fill: #0d0e12;
      }

      .cls-5, .cls-6, .cls-7 {
        stroke: #fff;
        stroke-miterlimit: 10;
        stroke-width: .5px;
      }

      .cls-8 {
        fill: #2e2925;
      }

      .cls-9 {
        fill: #604c36;
      }

      .cls-10, .cls-11 {
        fill: #fff;
      }

      .cls-12 {
        fill: #8e7655;
      }

      .cls-13 {
        fill: #342f29;
      }

      .cls-14 {
        fill: #692021;
      }

      .cls-15 {
        fill: #543;
      }

      .cls-6 {
        fill: #15191b;
      }

      .cls-16 {
        fill: #cd8f56;
      }

      .cls-17 {
        fill: #6f2826;
      }

      .cls-18 {
        fill: #a31820;
      }

      .cls-11 {
        display: none;
      }

      .cls-19 {
        fill: #755f44;
      }

      .cls-20 {
        fill: #93714f;
      }

      .cls-21 {
        fill: #7c312f;
      }

      .cls-22 {
        fill: #bc915b;
      }

      .cls-23 {
        fill: #a0815a;
      }

      .cls-24 {
        fill: #f3e3d6;
      }

      .cls-25 {
        fill: #b9202a;
      }

      .cls-7 {
        fill: #15181b;
      }

      .cls-26 {
        fill: #992128;
      }

      .cls-27 {
        fill: #daa661;
      }

      .cls-28 {
        fill: #b98556;
      }

      .cls-29 {
        fill: #ad7140;
      }

      .cls-30 {
        fill: #d8a662;
      }

      .cls-31 {
        fill: #ba202b;
      }

      .cls-32 {
        fill: #291d1b;
      }

      .cls-33 {
        fill: #d4a362;
      }

      .cls-34 {
        fill: #98131b;
      }
    </style>
  </defs>
  <!-- Generator: Adobe Illustrator 28.7.9, SVG Export Plug-In . SVG Version: 1.2.0 Build 218)  -->
  <g>
    <g id="Layer_1">
      <g id="Layer_1-2" data-name="Layer_1">
        <g id="Layer_1-2">
          <g>
            <path class="cls-11" d="M56.3,448.4H-96.3V54.7h700v393.7c-38.6,0-77.2,0-116-.2-.8-3.4-1.2-6.7-2-10-3.9-18.5-9.3-36.7-16.5-54.3-6.4-15.4-14.5-29.7-26.3-41.7-9.6-9.8-20.4-18.4-31.4-26.6-3.3-2.5-6.7-4.5-10.1-7-5-2.6-10-5.1-14.9-7.6h0c-.8-.6-1.6-1.2-2.3-1.6-17.3-8.7-34.7-17.6-52.1-26.1-3.6-1.7-7.5-2.8-11.4-4.4-.9,0-1.1,0-.9,1.1.5,4.8-.5,9.3-3.1,13.4-1.6,2.3-2.6,4.8-4,7.3-3.4,5.9-7.9,10.7-13.1,15.2-1.9,1.7-4.4,3-5.8,5-2.2,3.1-5.4,4.7-8.2,7-4.2,3.4-8.6,6.4-13.5,8.4-.9.3-1.9.5-2.8.8-4.2,4-8.1,5.3-10.9,2.6.8-1.2,1.6-2.6,2.3-3.9,1.2-2.2,2.3-4.5,3.4-6.8,0,0,0-.3.3-.3,1.4-1.4,2.8-2.5,3.7-4,2.6-4.2,5-8.7,7.6-13.1,1.6-2.8,3.3-5.4,4.8-8.2.3-.5,0-1.4,0-2.2.2-.3.5-.6.8-.8.6-.2,1.4-.3,1.4-.6.9-3,3.1-5.4,2.8-8.9h.2c1.1-1.9,2.2-3.6,2.8-5.4.9-3,1.6-6.2,2.3-9.3,0-.3,0-.5.3-.6.8-.9,1.2-2,1.9-3h.2c1.6-1.2,2.8-2.3,4.2-3.6h0c.6-.5.9-1.1,1.4-1.6h.2c.6.5,1.6.9,1.6,1.2-.3,1.6-.8,3-1.2,4.5-1.6,4.8-3.1,9.8-4.8,14.6-2.6,7.6-5.6,15.1-8.2,22.6-.6,1.7-1.4,3.6-2,5.3.3,0,.6.3,1.1.5,3-7.2,6.1-14.3,8.7-21.5,2.5-6.5,4.5-13.4,6.7-20.1,1.2-4.2,2.3-8.4,3.4-12.8.5-.6.9-.9,1.6-1.4.5-.5.6-.9.9-1.6.6-.9,1.1-1.9,1.6-2.6h.2c.3-.2.6-.5.9-.6.2,0,.3-.3.3-.5h.3c1.2.6,2.5,1.2,3.3,1.7-.2-2.2-.3-4.7-.5-7.2h.2c.3-.5.5-.8.6-1.4,1.1-1.9,2.2-3.4,3.4-5.1,1.6.2,2.8.3,4.2.5,21.8,2,43.6,4,65.3,6.2,26,2.5,52.1,5.3,78.1,7.9,17.4,1.7,34.7,3.6,52.1,5.3,13.4,1.4,26.9,2.8,40.3,4,5.1.5,7.5-2.2,6.5-7.2-.6-2.8-1.6-5.6-2.3-8.4-2.5-8.1-7.8-12.3-16.5-12.8-11.4-.8-22.7-2.3-34.1-3.6-19.1-2.2-38.3-4.2-57.6-6.4-14.5-1.6-28.8-3-43.2-4.5-14.8-1.6-29.6-3.3-44.5-4.8-16.6-1.7-33.3-3.3-49.9-5.1.2-1.4.3-2.5.5-3.6,3.9-17.4,7.8-34.7,11.8-52.1,5-21.2,10.1-42.2,15.1-63.5-.3-.2-1.1-.8-2-.9-10.3-3.3-20.4-7.2-30.6-9.8-23.6-6.2-47.9-10.4-72.3-12.9-15.4-1.6-30.6-3-46-2.5-2.8,0-4.5,1.5-5,4.4l-4.7,23.3c-.3,1.4-.8,2.3-2.5,2.3-8.2.6-16.3,1.2-24.4,2.2-6.4.8-12.8,1.9-19.1,3-3.6.6-3.9,1.4-3,5,1.6,6.5,3.3,13.1,4.8,19.6,5.3,23.5,10.6,47,15.9,70.6-.8,1.9-1.4,3.6-2.2,5.4-.6,1.2-1.1,2.3-1.7,3.4-13.7-1.4-27.1-2.8-40.4-4.2-11-1.1-22.1-2.3-33.1-3.6-14-1.6-28.2-3.3-42.2-4.8-12.8-1.4-25.7-2.8-38.6-4.2-15.4-1.7-30.8-3.4-46.2-5.1-3.7-.5-5,.8-4.8,4.7,0,.9,0,2,.6,3,2.3,4.7,4.7,9.3,7.3,13.7,2,3.3,5.4,5.1,9.5,5.6,8.7.9,17.3,1.9,26,2.8,18.8,2,37.6,4,56.6,6.2,18.7,2,37.2,4.2,55.8,6.2,12.3,1.4,24.6,2.6,36.9,3.9,4.7.5,9.5.9,14.3,1.6.2,0,.3.2.3.3,0,1.7-.3,3.1-.3,4.7,0,12.4-.2,25,1.4,37.5,1.2,10.4,3.3,20.5,7.5,30.3,0,.5,0,.6-.2.9-.9.9-1.6,2-2.5,3-.5.5-.9.9-1.2,1.2,0,.2.3.5.5.6,1.7-.6,3.4-1.2,5.3-2h.8c.2.3.3.5.5.6.6,1.2,1.2,2.3,1.9,3.3,1.6,2.3,3.3,4.7,4.7,7.2-1.2.6-2.2,1.2-3.3,1.6-12.1,4.4-23.6,10.3-34.4,17.6-13.8,9.5-26,20.5-35.2,34.7-12.4,19.3-23,39.5-32,60.7-2.6,6.2-5,12.4-7.5,18.8-.5,1.2-.8,2.5-1.2,3.7M282.3,309.2c0,.3,0,.5.2.8.2-.5.5-.9.6-1.4-.3,0-.5.3-.8.6Z"/>
            <path class="cls-31" d="M485.9,448.4c-30.5,0-61,0-91.8-.2.8-3.3,2-6.4,3-9.5,1.6-5.9,3.1-11.7,4.4-17.6,1.7-8.2,3.4-16.5,4.8-24.9.9-5.4,1.4-11,2-16.6.2-1.4.3-3,.5-4.4h-.9c-2.6,25-6.8,49.6-15.4,73.4-14.5,0-28.9,0-43.6-.2,0-4,0-7.9.3-11.8.8-9.5,1.7-19,2.3-28.5.5-7.2.8-14.3.9-21.5.3-9.2.3-18.4.5-27.5,0-.5-.2-1.1-.3-1.6-.5.3-.6.6-.6.9-.3,11.2-.6,22.2-1.1,33.4v2.2c-.6,9.5-1.2,18.8-2,28.3-.2,2.5-.5,5.1-.6,7.6-.6,6.2-1.2,12.4-1.9,18.7-68.1,0-136.3,0-204.6-.2.5-4,1.1-7.9,1.9-11.8,1.9-8.9,3.9-17.7,5.8-26.6.9-4.8,1.7-9.6,2.8-14.6.3,0,.5-.2.6-.3,1.7-6.1,3.3-12,5-18,1.7-5.9,3.7-12,5.6-17.9,1.9-5.6,3.7-11,5.8-16.6.9-3,1.9-5.9,3-9,.9-.9,1.9-1.6,2.8-2.3h0v1.4c0,.3.3.3.5.6v3.9c0,.9,0,1.6.2,2.5,0,1.2.3,2.3.3,3.4s.5,2.3.8,3.6c.2,1.1.3,1.9.5,3,0,.9.2,1.7.5,2.3.8,1.7,1.6,3.4,2.3,5.3.2.6.5,1.2.6,1.9,0,.8-.3,1.6,0,2,1.4,4.4,3,8.7,4.4,13.1v.3c.3.9.5,1.6.5,2.5-.2,3.7-.3,7.3-.3,11v.9c-1.6,3.6-1.1,7.3-2.6,11-1.7,4.2-3.6,8.4-5.6,12.4-.9,2-1.9,4.2-2.6,6.2h-.2c-2,1.4-3.9,5.9-3.1,8.4,1.2-1.9,2.3-3.4,3.4-5,.3-.2.3-.3.6-.5.3-.3.6-.6.8-1.1.3-.5.6-.6,1.1-.8.9,0,1.7.3,2.8.5,0,0,.3.5.5,1.1.3-.2.6-.3.9-.6.5-1.6.8-3.3,1.2-5.1,1.4-1.6,2.8-3,4.4-4.4,3.1-2.6,6.1-5.4,7.8-9.5,2.3-1.7,3.3-3.9,3.7-6.5h.2c.9-.9,1.6-2.3,2.6-2.8,2-.9,1.4-1.7.2-2.8,0-.3,0-.6.3-.8.8-.6,1.6-1.2,1.9-2,.9-1.9,1.7-3.7,2.3-5.6.5-1.4.6-2.8.9-4.5.2-1.1.3-1.9.8-2.8.8-1.7,1.6-3.3,2.2-5h0c.3,0,.3-.3.3-.6,0-.5,0-.9.2-1.2.6-1.2.9-2.3,1.4-3.6,0-.3,0-.6.2-.8.6-1.2,1.2-2.3,1.7-3.7.2-.8.3-1.2.6-1.9.2-.3.3-.6.3-.9h.2c.9.3,1.7.8,2.3.8,5.6,0,11.4,0,17-.5,4.5-.3,8.9-1.4,13.4-2,.3,0,.5-.5,1.2-1.1-1.2,0-2-.2-2.6,0-7.9,2.5-16,1.9-24.1,1.7-2.2,0-4.4-1.2-6.5-2.2,0-.8,0-1.2.3-1.7.3-1.4.6-2.6.8-4.2,0-.3,0-.6.2-.9.6-1.6.8-3.1,1.4-4.4.5-.8,1.6-1.9,2.3-1.9,5.4-.2,10.9.3,16.2-.3,9.2-1.1,18.4-3.1,26.9-6.7.5-.2.8-.8,1.1-1.2h.2c2.2-.2,4.2-.6,5.3-2.6h.2c.5-.2.6-.5,1.1-.8,16.6-8.7,31-20.1,41.2-35.8,4.4-6.5,8.6-13.2,8.9-21.5,3.6,1.1,7,1.9,10.1,3.4,9.5,4.7,18.7,9.6,28.2,14.5,6.7,3.4,13.5,6.5,20.4,9.6,2.2.9,4.4,1.9,6.5,2.6h0c2.5,1.7,4.8,3.1,7.2,4.5,2.5,1.6,5.1,3,7.8,4.5,7,5.1,14,10.1,20.8,15.4,8.2,6.4,16.2,13.2,22.7,21.2,3.9,4.8,7.9,9.5,11.4,14.6,6.2,9.6,10.7,20.2,14.8,31,5,13.4,9.3,27.1,12.1,41.2.9,5,1.7,10,2.5,14.8M169.5,427.4c0,.3,0,.6-.2.9h.6c0-.3,0-.6-.5-.9h0Z"/>
            <path class="cls-25" d="M129.4,448.4c-23.3,0-46.8,0-70.3-.2,0-1.7,0-3.4.5-4.8,1.4-3.9,3-7.6,4.5-11.4,2-5,3.9-10,6.2-14.8,3.7-7.9,7.6-15.7,11.8-23.5,3.1-5.8,6.5-11.4,9.8-17,2.6-4.7,5.3-9.3,8.2-13.7,2.5-3.7,5.4-7.3,8.6-10.6,4.7-4.8,9.5-9.5,14.5-14,2.8-2.5,5.9-4.5,9-6.5,4.7-3,9.3-6.1,14.3-8.7,4.5-2.5,9-4.7,13.7-6.7,3.7-1.6,7.6-2.8,11.5-4h0c.2.2.3.3.6.5,1.1,1.1,2.2,2,3.1,3.3.3.5.6.6,1.1.9v.5c.5.9.9,1.6,1.4,2.5,0,.5,0,.6-.2.9-1.2,1.2-2.3,2.6-3.4,4-1.1,2.8-1.9,5.6-3,8.4-1.2,3.1-2.5,6.2-3.6,9.3-2.5,7-4.8,13.8-7.2,20.8-2.2,6.4-4.2,12.8-6.1,19.3-1.2,4-2,8.1-3.1,12.3-1.9,7.8-3.9,15.4-5.4,23.2-2,10-3.9,19.9-5.8,30-2.8,0-5.6,0-8.7-.2.3-9.2.8-18,1.2-26.9.3-6.1.6-12,.9-18,0-.5-.3-.8-.5-1.2-.8,4.8-1.4,9.5-1.7,14.2-.2,3.1,0,6.4-.3,9.5-.6,7.5-1.2,15.1-1.9,22.6M133.9,393.2v-4h-.5v11.4h.5v-7.3h0Z"/>
            <path class="cls-17" d="M171.7,312.6c-3.9,1.4-7.8,2.5-11.5,4-4.7,2-9.3,4.2-13.7,6.7-4.8,2.6-9.6,5.8-14.3,8.7-3.1,2-6.4,4-9,6.5-5,4.5-9.8,9.2-14.5,14-3.1,3.3-6.1,6.8-8.6,10.6-3,4.4-5.6,9.2-8.2,13.7-3.3,5.6-6.7,11.2-9.8,17-4,7.8-7.9,15.6-11.8,23.5-2.3,4.8-4.2,10-6.2,14.8-1.6,3.7-3.1,7.6-4.5,11.4-.5,1.4-.5,3.1-.6,4.8-.6.2-1.4.2-2.3.2.2-1.2.6-2.5,1.1-3.7,2.5-6.2,4.8-12.6,7.5-18.8,9-21.2,19.6-41.4,32-60.7,9-14.2,21.2-25.2,35.2-34.7,10.7-7.3,22.2-13.1,34.4-17.6,1.1-.3,2-.9,3.4-1.6.8.3,1.4.8,1.9,1.1h-.3v.2Z"/>
            <path class="cls-17" d="M486.1,448.4c-1.1-5-1.7-10-2.6-14.8-2.8-14.2-7.2-27.8-12.1-41.2-4-10.7-8.6-21.3-14.8-31-3.3-5.1-7.5-9.8-11.4-14.6-6.7-8.1-14.6-14.8-22.7-21.2-6.7-5.3-13.7-10.3-20.8-15.6v-1.1c3.4,2.3,6.8,4.4,10,6.8,11,8.2,21.8,16.8,31.4,26.6,11.8,12,19.9,26.3,26.3,41.7,7.2,17.6,12.6,35.6,16.5,54.3.6,3.3,1.1,6.5,1.7,10-.3.2-.8.2-1.2.2h-.2v-.2Z"/>
            <path class="cls-34" d="M346.9,448.4c.5-6.2,1.1-12.4,1.6-18.7.3-2.5.5-5.1.6-7.6.6-9.5,1.2-18.8,2-28.3v-2.2c.3-11.2.6-22.2,1.1-33.4,0-.3,0-.6.6-.9,0,.5.3,1.1.3,1.6,0,9.2-.3,18.4-.5,27.5-.2,7.2-.5,14.3-.9,21.5-.6,9.5-1.7,19-2.3,28.5-.3,3.9-.3,7.8-.6,11.8-.5.2-1.1.2-1.7.2h-.2v.2Z"/>
            <path class="cls-18" d="M392.6,448.4c8.4-23.6,12.6-48.4,15.2-73.4h.9c-.2,1.4-.3,3-.5,4.4-.6,5.6-1.1,11.2-2,16.6-1.4,8.2-3.1,16.6-4.8,24.9-1.2,5.9-2.8,11.8-4.4,17.6-.9,3.1-2,6.2-3.1,9.5-.3.2-.8.2-1.2.2v.3h-.2Z"/>
            <path class="cls-34" d="M140.6,448.4c1.7-10,3.6-20.1,5.6-30,1.6-7.8,3.6-15.4,5.6-23.2h.6c-.9,4.8-1.7,9.6-2.6,14.5-1.9,8.9-3.9,17.7-5.8,26.6-.8,3.9-1.4,7.8-2,11.8-.5.2-.8.2-1.4.2h0v.2Z"/>
            <path class="cls-18" d="M129.6,448.4c.5-7.5,1.1-15.1,1.7-22.6.3-3.1,0-6.4.3-9.5.3-4.7.8-9.5,1.7-14.2.2.5.5.9.5,1.2-.3,6.1-.6,12-.9,18-.5,8.9-.9,17.7-1.4,26.9-.5.2-1.1.2-1.9.2h0v-.2Z"/>
            <path class="cls-5" d="M153.5,189c-5.3-23.5-10.6-47-15.9-70.5-1.6-6.5-3.1-13.1-4.8-19.6-.9-3.6-.6-4.4,3-5,6.4-1.1,12.8-2.2,19.1-3,8.1-.9,16.3-1.6,24.4-2.2,1.7,0,2.2-.9,2.5-2.3l4.7-23.3c.5-2.8,2.2-4.2,5-4.4,15.4-.5,30.8,1.1,46,2.5,24.4,2.3,48.5,6.5,72.3,12.9,10.4,2.8,20.5,6.5,30.6,9.8.8.3,1.6.8,2,.9-5.1,21.3-10.3,42.3-15.1,63.5-4,17.3-7.9,34.7-11.8,52.1-.3,1.1-.3,2.3-.6,3.7-.3.3-.5.5-.8.6-.5-.2-.6-.3-.9-.5-.3-.3-.6-.3-.9-.6-2.8-2-5.8-1.9-9-1.7-3.9-1.2-7.6-2.3-11.4-3.6-3.6-1.1-7.3-2.3-11-3.4h-.9c-2.5-.8-4.7-1.7-7-2.3-31.7-9-63.9-12.9-96.9-9-7,.8-13.8,1.9-20.4,5.4h-2.2v-.2Z"/>
            <path class="cls-27" d="M171.7,312.8c-.5-.5-.9-.8-1.7-1.2-1.7-2.3-3.4-4.7-5-7-.6-.9-1.2-2-1.9-3.4.5-.6.9-1.1,1.4-1.4,3.9-2.5,7.6-4.8,11.7-7.3,1.9.5,3.6.8,5.1,1.6,6.7,3.3,13.2,6.1,20.8,3.4h.8c4.4-.6,8.4-2.3,12.3-4.5,2,1.6,3.9,3.1,5.8,4.7.3,0,.5.2.6.5,3.6,5.1,8.9,8.1,14.6,11.2-.3-.8-.3-1.1-.5-1.2-5.4-6.1-8.9-13.1-10.3-21.2-1.1-6.5-4.7-11.5-10.7-14.8-.5-.3-.9-.6-1.6-.8h0c-.6-3.6-2.3-4.2-6.1-2.5-.3,0-.6,0-.8-.3-.5-.2-.9-.2-1.7-.2s-.6,0-.8-.3c-.6-.2-1.4-.2-2.2-.2s-.6,0-.8-.3c-.2-.9-.5-1.7-.5-2.5,3.4-2.6,7-1.9,10.9-1.2-.9-1.2-2-2.5-3.3-2.8-3.7-.8-7.2,0-9.2,3.9-1.1,1.2-1.9,2.3-3,3.6-3.6,2.3-7.3,3.1-11.4,1.9h-.3s0,.2-.3.2c0,0-.3,0-.5-.2,0-.3-.3-.3-.5-.6-4-2-5.4-5.1-5-9.2.6-5.3,1.4-10.4,2.5-15.6.9-4.5,2.6-8.9,4-13.4.3-.6.6-1.2.8-1.7,2-4.4,4-8.6,5.9-12.9.5-1.1.5-2.5.6-3.7h-.8c-.9,2.5-1.9,4.8-3.1,7.2-1.2-1.4-2.2-3-3.6-4-1.1-1.1-2.6-2.2-4.5-.8-.3-.2-.6-.3-.9-.6-.5-.3-.8-.3-1.2-.5,0,0-.2,0-.2-.2-.3-1.4-3.7-3.3-5-3.1-.9,0-2.3,0-2.6-.6-1.2-2.5-3-1.7-4.8-1.2-1.1.3-2.5.5-3.6.2-3-.6-5.9-1.4-9-2.2-.3-.2-.3-.3-.3-.6,0-3,1.4-5,3.4-4.7,4.5.5,8.6-.3,12.6-2.6.5,0,.9,0,1.2.2.5.2.9.3,1.7.3s.6,0,.8.2c.5.3,1.1.6,1.7.8,1.9.6,3.6,1.2,5.3,2.2.2.6.5.9.6,1.2l.9-.9c.3,0,.6,0,.8.2.3,2.5,1.9,3.1,3.9,2.8h0c.6,1.9,1.6,1.9,2.6.6,1.6-1.7.5-5.6-1.7-6.5-2.8-1.2-5.6-2.6-8.7-4.2,0,.2-.5.6-.9,1.1-.3-.2-.6-.3-.9-.6-.8-.8-1.6-1.2-2.3-1.9.6-3.1.5-3.1-2.6-3.4-1.9-.2-3.6-.8-5.4-1.2v-.9c2.2-.9,3.3-4,6.4-2.8.5,0,.9,0,1.4-.2,2-.3,4.4-1.6,6.1-.9,3,1.1,5.8.6,8.9.6s4.2-2.3,5.6.8c1.9-.9,2.5-3.1,5.4-2,2.5.9,5.8-.3,8.7-.5.8,0,1.4.5,2.2.8.6.2,1.1.6,1.7.6,5.9.3,12,.8,17.9,1.1h6.8c-1.9,2.3-3.9,4-5.8,5.8-1.6,1.7-3.1,3.4-5.8,3.4s-.9.8-1.6,1.2h-.9c-2.8.5-5.9-.9-8.1,1.9-.3.3-1.2.3-1.9.5-1.9.3-3.7.3-5.6.8-1.2.3-1.1,1.1,0,1.6v1.1c0,1.7.3,3.1.5,4.8.2.8.3,1.2.5,2.2v10.9h1.1c0-3.7.3-7.5.5-11.2,3.1-3,6.7-3.9,11-2.3-.5-.9-.6-1.6-.6-1.7,3-.8,6.5-.6,8.4-2.3,2.8-2.5,5.8-3,9-3s6.1.3,9.2.5h10.9c.3,0,.6.2.8.5,1.7,2,3,1.6,4.7-.2,1.7-1.9,3.4-3.9,6.5-3,.9.3,2.3-.9,3.6-1.6v-.8c1.6.2,2.3.9,1.2,2.5-1.4,1.9-1.1,3.7-.3,5.6.6,1.7.2,2.8-1.4,3.3-2.5.9-5,1.6-7.5,2.3-3,.9-6.1,1.7-8.9,3-1.4.6-2.3.5-3.6.2-1.7-.5-3.7-1.2-4.8,1.2-.8,0-1.2,0-1.9-.2-2.2-.3-4.4-.6-6.4-.5-3.9.3-7.6.3-11.4-1.1-1.6-.6-3.4-.9-4.2,1.6-.2.6-1.7,1.4-2.5,1.2-2.5-.5-4.8-.6-6.7,1.1-1.4,1.4-2.8,3-3.9,4.5-.2.2.6,1.1,1.1,1.9.6,0,1.2.2,1.9.3.9,2,2,.8,3.3.5.9,0,1.6,0,2.3.2,1.4.2,2.6.3,4.2.3,1.9.2,3.6.3,5.3.6.2.3.5.5.6.6,0-.3.2-.5.6-.8,3.7,0,7.2-.6,10.4-2-.9-.3-1.9,0-2.8-.2-.6,0-1.2-.5-1.7-.8,3.1-.8,5.9-1.6,9-2.3,4.4-1.2,8.4-2.3,12.6-3.6,2.5-1.1,4.7-2,7.2-3.1,2-.8,3.9-1.4,5.6-2.2,1.2-.6,2.5-1.6,3.7-2.3,1.6-.9,2.5,0,2.6,1.2.3,1.7,0,3.3,0,5,.2,2.2.5,4.5.8,6.7,0,.2.5.3.8.8v18.2c-.5.9-.9,1.6-1.1,2.3,0,.6.3,1.4.8,1.7.5.3,1.6.3,2,0,1.9-1.6,2.5-8.2,1.1-10.9,0-.6,0-1.1.2-1.7.8-.8,1.1-1.6-.5-1.6,0-.3,0-.6.2-.9.8-2.2,1.4-4.4,2-6.5h.2c1.2-.5,2.2-.8,2.8-1.1.3-1.2.3-2,.8-2.8.8-1.4,1.4-3,2.5-4.2.5-.8,1.6-1.2,2.3-1.6.9-.3,2-.5,3.1-.8-.5-1.1-.8-1.9-.9-2.2.9-1.2,1.9-2.3,2.6-3.3,1.2-1.6,4.8-1.2,5.4.5-5.3,2-7.5,6.5-8.7,11.4-.6,2.5,0,5.3-.8,7.8-1.9,6.8-2,14.2-6.1,20.4,2,.3,2.5,0,3.6-2,1.4-2.3,2-4.7,2-7.6,0-4.2,1.2-8.4,1.9-12.8,3.1,2,7.6,2.8,8.6,6.8,1.1,5-.2,9.6-6.7,10.7,3.1,1.9,5.1,1.2,7.3-2.2,3.1-4.7,2.5-11.5-1.4-15.6-3-3-3.1-3.6-1.2-7.3,1.1-2.2,2.3-4.4,3.7-7.2-5.9,2.8-5.6,8.4-7.5,12.8-.3,0-.6-.2-.8-.3-1.6-1.2-1.1-2.8-.6-4.4.9-3.7,3-7.2,6.7-8.7,4.4-1.7,10,.9,10.7,6.1.5,2.8.5,5.8,0,8.6-.9,4.2-2.5,8.4-4,12.6-1.1,1.7-2,3.3-3.1,5.1.9.6,1.6.9,2,1.2-.3,1.6-.5,2.8-.8,4.2h-.2c-.8-.5-1.2-.8-1.7-.9-.8,1.1-1.4,2-2.3,3.4v1.6c-5.8,5.9-11.7,10.9-20.8,10.1,1.6.9,3.3,1.9,5.1,2.8-.6,2.6-1.2,5.6-2,8.2-1.6,5-3.3,10-5.1,14.8-1.7,4-3.9,7.9-5.9,12.1-1.7,2.6-3.4,5.3-5.1,7.8-.3.3-.6.6-.9,1.1-4.2,5.1-8.7,9.8-14,13.8-6.8,5.1-14.5,8.4-22.9,10.6-4.5.3-8.9.6-13.4.9-.5,0-.6-.3-.9-.6-.3-1.1-.6-2-1.1-3-.2-.5-.3-.9-.3-1.4.5-.2.8-.3,1.1-.5-.3-.3-.5-.6-.8-1.2v-1.1c-.6-2.6-2.2-3.4-4.7-3.3-.8-.8-1.6-1.4-2.3-2.2-.2-2.2-1.2-3.1-3.3-3.9-3.1-1.2-7,0-9.6-3.1.6-3,.6-6.4,2.2-8.2,1.2-1.4.9-2.5,1.7-3.9h-3.3c-1.7-.2-3.3-.3-5.1-.5h-2.8c0,.2-.2.5-.3.6,1.1,1.1,2,2.2,3.1,3.4v.8c0,.3.2.5.5.8.3,2.2.8,4.2,1.1,6.4v.6c-1.2.5-2.5.9-3.7,1.1-1.7.2-3.4,0-5.1.5-1.9.5-3.4,1.6-5.1,2.3-.5.2-1.2.3-1.2.5-.2,1.7-1.2.9-2.2.9v-.5c-.3-.5-.8-.8-1.1-.9-.9-1.1-2-2-3.1-3.1-.3-.3-.5-.3-.6-.5h0M215.4,254.9c-.9-1.1-1.6-2.3-2.6-3.3-.6-.5-1.6-.5-2.5-.6.2.8.2,1.7.6,2.3,3,4,5.8,7.9,2,13.1l.3.9c.9-.8,2-1.1,2.3-1.9,1.6-3.4,1.9-6.8-.2-10.6M298.2,246.7c1.7-.8,3.4-1.4,5.1-2.2,0-.3-.3-.6-.5-1.1-2.6.9-5.3,1.9-7.9,2.8,0,.3.2.6.3.9.8,0,1.7-.3,3-.5M258.4,208.6c-.3.6-.5,1.2-.8,1.9h1.1c0-.6,0-1.2-.3-2M209.7,221.6h0Z"/>
            <path class="cls-7" d="M314.4,208.1c.1,0,.2-.2.4-.3,12.1,1.6,23.9,3.3,35.8,5,10.6,1.6,21.2,3.1,31.9,4.8,10.4,1.6,20.6,3,31,4.5,13.7,2,27.5,4.2,41.3,6.4,8.1,1.2,16.3,2.8,24.4,3.6,6.2.6,10,4.7,11.8,12.8.7,2.8,1.2,5.6,1.7,8.4.8,5-1,7.6-4.7,7.2-9.6-1.2-19.3-2.6-28.9-4-12.5-1.7-24.9-3.6-37.4-5.3-18.6-2.6-37.4-5.3-56-7.9-15.6-2.2-31.2-4-46.9-6.2-.9,0-1.9-.3-3-.6.1-1.6.3-3,.7-4.2,2-8.6,2.3-16.6-2.2-24h0Z"/>
            <path class="cls-6" d="M151.4,223.6c-3.3-.5-6.7-.9-10-1.6-8.7-1.2-17.4-2.5-26.1-3.9-13.2-2-26.3-4.2-39.5-6.2-13.3-2-26.6-4-40.1-6.2-6.2-.9-12.2-2-18.4-2.8-2.9-.5-5.3-2.3-6.7-5.6-2-4.4-3.5-9.2-5.2-13.7-.3-.8-.3-1.9-.4-3-.2-3.9.7-5,3.4-4.7,10.9,1.7,21.8,3.4,32.7,5.1,9,1.4,18.2,2.6,27.3,4.2,9.9,1.6,19.9,3.3,29.8,4.8,7.8,1.2,15.6,2.5,23.4,3.6,9.5,1.4,19,2.8,28.6,4.4.4,2.2.8,4.2,1.1,6.2h0v.3c.1.3.2.6.3,1.1,0,1.6.2,3,.2,4.2v4.7c0,2.3-.1,4.5-.3,6.8-.2.6-.2,1.2-.3,1.7v.5h.1Z"/>
            <path class="cls-30" d="M151.8,221.8c0-2.2.2-4.4.5-6.8.3-1.9.5-3.4.6-5.1.6.3,1.1.8,1.7,1.1h.5c1.2,3.3,3.9,4.5,7,5.4,2.3.8,4.5,1.7,6.8,2.5,2.8.3,5.6.6,8.4.9,1.9,0,3.4.3,5,.6.5.5.9.9,1.6,1.2,2.8.9,2.6.9,1.4,3.6-.9,2-1.6,4-2.5,6.2-1.9,5.6-3.6,11-5.4,16.5-.5,1.2-.8,2.8-1.7,3.7-4.4,4.5-5.4,7.2-3.1,11.2,1.2,2.2,3.6,3.7,5.3,5.6.6.8,1.1,1.7,1.4,2.6-2.3,1.9-5.3,3.3-6.8,5.4-4.4,6.4-8.2,13.2-12.4,19.8-4.2-9.6-6.2-19.8-7.5-30-1.6-12.4-1.6-24.9-1.4-37.5,0-1.6.2-3,.5-4.8v-2.2h.3Z"/>
            <path class="cls-13" d="M162.7,300.3h-.8c-.8-.3-1.6-.5-2.2-.5s-1.4.5-2,.6c.8-.9,1.6-1.9,2.5-3,1.9-1.9,3.4-3.7,4.7-5.8,2.6-3.9,5-7.9,7.8-11.7s6.4-6.5,11-8.1c3.6,0,7-.3,10.3-.3-.9,2-1.9,3.9-2.8,5.9h-.3c-2,2.2-3.9,4.4-5.9,6.5-1.1.9-2,1.9-3.1,2.8-.2.2-.3.3-.6.5-.3,0-.5.2-.6.3-5.8,3.9-11.5,7.6-17.3,11.5-.3.3-.5.8-.8,1.2h0l.2-.2Z"/>
            <path class="cls-4" d="M264.1,318.7l-.3.3c-2.8,4-5.3,7.9-7.8,12-.8,1.1-1.2,2.5-2,3.9-6.8,1.4-13.5,2.6-20.4,3.9h-.6c-4,0-7.8.2-11.7,0-1.2-.6-2.3-1.2-3.6-1.7-.2-.2-.3-.3-.5-.6,0-.5,0-.6.2-.8h2c1.7,0,3.4,0,4.8-.3,5-1.4,9.8-3.3,14.8-4.5,10-2.5,17.9-8.4,25-15.6,7.2-7.2,1.2-.6,1.9-.6-.6,1.6-1.4,3-2,4.2h0l.2-.2Z"/>
            <path class="cls-24" d="M254.3,334.7c.6-1.2,1.1-2.5,1.9-3.7,2.5-3.9,5.1-7.9,7.8-11.8-.9,2.2-2,4.4-3.3,6.7-.8,1.4-1.6,2.6-2.3,3.9,2.8,2.6,6.7,1.4,10.9-2.6.9-.3,1.9-.3,2.8-.8,5-2,9.3-5,13.5-8.4,2.8-2.3,6.1-3.9,8.2-7,1.4-2,3.9-3.3,5.8-5,5.1-4.5,9.6-9.3,13.1-15.2,1.4-2.3,2.5-5,4-7.3,2.6-4.2,3.6-8.6,3.1-13.4,0-.8.3-1.1.9-.9.2.9.3,1.4.5,2,0,8.2-4.4,14.9-8.7,21.5-10.4,15.7-24.7,26.9-41.5,35.8-.5.3-.8.5-1.1.8h-.2c-1.9.8-3.6,1.7-5.3,2.5h-.2c-3.6,1.1-6.8,2.2-10.1,3.1h.2Z"/>
            <path class="cls-28" d="M275,298.3c1.9-4,4-7.9,5.8-12,2-4.8,3.6-9.8,5.1-14.8.9-2.8,1.4-5.6,2-8.2-1.9-1.1-3.4-2-5.1-2.8,9.2.8,15.1-4.2,21-10.1.6-.3,1.1-.5,1.4-.5v.8c-.5.5-.8.9-1.6,1.6-.9,1.2-1.7,2.2-2.5,3.3,0,0,0,.2-.3,0-.8.6-1.6,1.2-2.2,2h0c-.6.5-.9.9-1.4,1.4h0c-1.6,1.1-3,2.3-4.4,3.4h0c-.8.9-1.4,2-1.9,3,0,.2,0,.3-.3.8-1.9,5-3.4,10-5.1,14.8h0c-1.6,3.1-3,6.2-4.4,9.3-.2.2-.3.5-.8.9-1.7,2.8-3.3,5.4-4.8,7.8-.2-.3-.3-.6-.5-.8h-.2v.2Z"/>
            <path class="cls-23" d="M151,204.5c-.5-2-.8-4-1.2-6.2.5-1.4.9-2.5,1.6-3.6,3.6.2,7,.3,10.3.8,3.9.6,7.8,1.6,11.7,2.5,1.7.5,3.3,1.2,5,1.9,0-.2,0-.3.2-.6-1.7-.8-3.4-1.4-5.1-2.3-2.8-1.4-5.4-2.8-8.1-4.5.5-.2,1.1-.5,1.6-.3,3.3,1.4,6.7,2.8,10,4.2.3,0,.5.3.9.5,2.8,1.4,5.1,2.8,7.6,4,1.7.9,2.6,2.2,2.2,4.2,0,.3-.9.5-1.4.6h0c-1.4-1.1-2.6-1.9-3.9-2.8h-.9c-.8-.2-1.1-.3-1.6-.5-1.7-.6-3.4-1.2-5.3-2-.8-.3-1.2-.6-1.7-.8-.2,0-.5,0-.9-.2-.6-.2-1.1-.3-1.6-.3s-.8,0-1.2-.2c-.6-.5-.9-.8-1.2-.8-4.5-.3-9-.8-13.5-.8s-2.2,2-2.6,3.3-.2,2.8-.3,4.2M180,200.3h-.6c.2.2.5.2.6,0Z"/>
            <path class="cls-21" d="M321.4,271.1c-.3-.5-.5-1.1-.6-1.7,3.7,1.2,7.8,2.3,11.4,4,17.4,8.6,34.7,17.4,52.1,26.1.8.5,1.6.9,2.3,1.6-2.2-.8-4.4-1.6-6.5-2.5-6.8-3.1-13.7-6.4-20.4-9.6-9.5-4.7-18.7-9.8-28.2-14.5-3.1-1.6-6.7-2.3-10.1-3.4h0Z"/>
            <path class="cls-33" d="M314.2,204.8c6.5,7.3,6.1,15.4,3.3,24-.5,1.2-.8,2.6-1.1,4.2-1.1,1.9-2.2,3.4-3.4,5.4-.3.6-.5.9-.8,1.2h0c-1.1,1.9-1.9,3.7-2.8,5.4h-.2c-.3,0-.3.3-.3.5-.2.2-.5.5-.8.6,0-1.4.3-2.6.6-4.2-.5-.3-1.1-.6-2-1.2.9-1.7,1.9-3.4,3.1-4.8,0,1.2-.5,2.3-.8,3.3,1.1-.5,1.7-1.1,2.2-1.9,1.1-2,2.2-4,3.4-6.2,1.1-2.3,2.6-4.5,2.6-6.8.2-4.5.6-9-1.4-13.7-1.1-2.8-2.3-2.2-4.2-2.3-.3,0-.3-.3-.3-.6.6-1.2,1.2-2.2,2-3.3.3,0,.5.3.9.5h-.2Z"/>
            <path class="cls-24" d="M301.5,255.4c.8-1.1,1.6-2,2.3-3.1-.9,4.2-2,8.4-3.3,12.6-2,6.7-4.2,13.4-6.7,20.1-2.6,7.3-5.8,14.3-8.7,21.5-.3,0-.6-.3-1.1-.5.8-1.7,1.4-3.6,2-5.3,2.8-7.5,5.6-15.1,8.2-22.6,1.7-4.8,3.3-9.8,4.8-14.6.5-1.6.9-3,1.2-4.5,0-.3-.8-.8-1.6-1.2.5-.8,1.1-1.4,2-2h.5s-.2-.2-.3-.3h.5Z"/>
            <path class="cls-19" d="M165.2,192.5c2.6,1.4,5.4,3,8.1,4.4,1.7.8,3.4,1.6,5.1,2.3,0,.2,0,.3-.2.6-1.7-.6-3.3-1.4-5-1.9-3.9-.9-7.8-1.9-11.7-2.5-3.3-.5-6.5-.6-10.1-.9.5-1.9,1.1-3.6,1.9-5.4h2.2c3.3,1.2,6.4,2.3,9.5,3.4h.2Z"/>
            <path class="cls-19" d="M183.5,272c-4.5,1.6-8.1,4.4-10.9,8.1-2.8,3.7-5.1,7.8-7.8,11.7-1.4,2-3,3.7-4.5,5.6-.2-.2-.2-.5-.2-.9,4-6.8,8.1-13.5,12.4-19.9,1.6-2.3,4.4-3.6,7-5.4,1.4-.6,2.5-1.1,3.6-1.7.2,0,.3.2.3.5v2h0v.2Z"/>
            <path class="cls-24" d="M275.6,299.2c1.6-2.6,3.1-5.1,4.7-7.9,0,.6.5,1.4,0,2-1.6,2.8-3.3,5.6-4.8,8.2-2.5,4.4-5,8.7-7.6,13.1-.9,1.6-2.3,2.6-3.7,4,.5-1.4,1.1-2.6,2-4.4,1.2-2,2.2-3.9,3.4-5.8.5-.6.8-1.1,1.2-1.9,1.7-2.6,3.1-5,4.7-7.5h.2Z"/>
            <path class="cls-20" d="M162.7,300.5c.2-.6.3-1.1.8-1.4,5.8-3.9,11.5-7.6,17.3-11.5,0,0,.3-.2.6,0,.2.2.3.5.2.6-1.2,1.2-2.3,2.2-3.6,3.3-.8.3-1.2.6-1.9.9-3.9,2.5-7.6,4.8-11.5,7.3-.5.3-.9.6-1.4,1.2-.2,0-.5,0-.6-.3h0l.2-.2Z"/>
            <path class="cls-21" d="M401.5,308.9v1.1c-2.5-1.2-5.1-2.6-7.6-4.2-2.3-1.4-4.8-2.8-7.2-4.4,4.8,2.3,9.8,4.8,14.8,7.5Z"/>
            <path class="cls-24" d="M285.7,280.9c1.6-4.8,3.1-9.6,5-14.6-.6,3-1.2,6.1-2.2,9.2-.6,1.9-1.7,3.6-2.8,5.4h0Z"/>
            <path class="cls-24" d="M281.2,290.4c1.2-3.1,2.6-6.2,4-9.3.5,3.3-1.7,5.8-2.6,8.7,0,.3-.8.5-1.4.6Z"/>
            <path class="cls-33" d="M305.5,249.6c-.5.2-.8.3-1.4.5-.3-.6-.3-1.4-.3-1.4.9-1.4,1.6-2.3,2.3-3.4.5.3.9.6,1.7.9-.3.9-.8,1.7-1.6,2.8-.5.3-.6.5-.9.6h.2Z"/>
            <path class="cls-24" d="M309.7,245.1c.6-1.9,1.6-3.6,2.5-5.4.3,2.5.5,5,.8,7.2-.8-.5-1.9-1.1-3.3-1.7Z"/>
            <path class="cls-20" d="M157.6,300.3c.9-.3,1.6-.6,2.2-.6s1.2.2,2,.5c-1.7.8-3.4,1.4-5,2.2,0-.2-.3-.5-.5-.6.3-.5.8-.9,1.2-1.2h0v-.2Z"/>
            <path class="cls-24" d="M293.2,262.5c1.2-1.2,2.5-2.3,4-3.6-1.2,1.1-2.5,2.3-4,3.6Z"/>
            <path class="cls-24" d="M291,265.5c.3-.9.9-2,1.7-3-.3.9-.9,2-1.7,3Z"/>
            <path class="cls-20" d="M151.7,221.9c0,.5.2,1.1,0,1.9h-.5c0-.6,0-1.2.3-1.9h.2Z"/>
            <path class="cls-24" d="M282.5,309c.3-.3.6-.5.8-.6-.2.5-.5.9-.6,1.4v-.9h-.2v.2Z"/>
            <path class="cls-24" d="M297.6,259c.2-.5.6-.9,1.1-1.6-.2.5-.6.9-1.1,1.6Z"/>
            <path class="cls-24" d="M305.5,249.8c.3-.3.5-.5.8-.6,0,.5-.3.9-.8,1.4v-.8Z"/>
            <path class="cls-24" d="M312.5,239.7c0-.3.2-.6.5-1.1,0,.3-.2.8-.5,1.1Z"/>
            <path class="cls-24" d="M309.1,245.6s0-.3.2-.3c0,0,0,.3-.2.3Z"/>
            <path class="cls-17" d="M174.7,325.2c1.1-1.2,2.2-2.6,3.4-3.7.5.9.8,1.6,1.1,2.3h-.2v1.7c-.5,1.1-1.4,1.9-1.4,2.8,0,4.4-.2,8.7.3,13.1.9,7.3,3,14.3,6.5,21,.5.8.9,1.4,1.4,2,.2.8.3,1.6.5,2.3,1.4,6.2,2,12.1.8,18.2-.2-2.5-.5-5,0-7.3.5-3.4-.3-6.5-2.2-9.6v-.5c-.2-.2-.3-.3-.5-.6v-.9c-.5-1.1-.9-2-1.4-3v-1.4c-.3-.5-.6-.6-.9-1.1-.5-.6-.9-.9-1.4-1.4-.2-.5-.3-1.1-.6-1.9-.3-1.9-.5-3.3-1.1-4.7-.5-1.1-1.2-1.9-1.9-3-.2-.8-.3-1.7-.5-2.8-.2-1.4-.5-2.5-.8-3.6,0-1.1-.3-2-.3-3.4s0-1.9-.2-2.5v-3.9c0-.5-.3-.6-.5-.6v-1.6h0c0-2.2-.3-4-.6-5.9h.3v-.2Z"/>
            <path class="cls-14" d="M174.7,421.7s-.2.3-.6.5c-.2-1.1,0-2.3,0-3.4h.2c.3-.3.6-.5.8-.8,2-3.3,3.9-6.5,5.9-9.5.3,1.1.6,1.9,1.1,2.8.9-.5,1.9-.9,2.8-1.4.3,0,.5-.5.6-.6,2.5-2.6,5.4-5.3,7.6-8.2,2-3,3.4-6.2,5.1-9.5h1.2c-.5,1.4-.9,2.6-1.6,3.7h-.2c-1.4,2.2-2.6,4.4-3.7,6.4-1.6,3.9-4.5,6.7-7.6,9.5-1.6,1.2-3,2.8-4.5,4.4-.6-.3-.9-.9-1.6-1.9-1.4,2.2-2.6,4-3.7,6.1-.3.3-.6.5-1.1.9-.5.5-.6.8-.8,1.1h0Z"/>
            <path class="cls-18" d="M152.4,395.2h-.6c.8-4,1.6-8.1,2.8-12.1,1.9-6.5,3.9-12.9,6.1-19.3,2.3-7,4.8-13.8,7.2-20.8,1.1-3.1,2.3-6.1,3.7-9.3h.6c-.9,3-1.9,5.9-3,8.9-1.9,5.6-3.9,11-5.8,16.6-1.9,5.9-3.9,11.8-5.6,17.9-1.7,5.9-3.3,12-5,18l-.6.3h0l.2-.2Z"/>
            <path class="cls-14" d="M201.1,388.8c0,.2,0,.5-.2.8-.5.3-.9.5-1.2.5v-1.4c.3-.5.6-.9.9-1.6.2-.5.3-.9.6-1.4.5-1.2.9-2.3,1.4-3.4h0c.8-1.7,1.2-3.3,1.9-5v-.5c0-.3,0-.6.2-.8.3-.3.6-.6.9-1.1,1.1-3.3,1.9-6.2,3-9.5.6-1.2,1.1-2.3,1.4-3.4,1.6-4.2,3-8.6,4.5-12.9.2-1.2.3-2.3.3-3.6v-4.4c0-1.2,0-2.2,1.4-1.1v7.2c-.3,1.6-.6,2.8-.8,4,0,.5,0,1.1-.2,1.9-.3,1.2-.6,2.2-.8,3.1h0c-.2.3-.3.6-.3.9-.2.5-.3,1.1-.8,1.9-.6,1.4-1.2,2.5-1.7,3.7,0,.2,0,.5-.2.9-.6,1.4-.9,2.5-1.4,3.6,0,.3,0,.8-.2,1.2-.3.3-.3.5-.3.6h-.2c-.8,1.7-1.6,3.3-2.2,5-.2.9-.3,1.7-.6,2.8-1.9,4.2-3.6,8.1-5.3,12.1l-.3-.3h0Z"/>
            <path class="cls-26" d="M214.7,356c0-.9.3-1.9.6-3,2.3.6,4.5,1.7,6.7,1.9,8.1,0,16.2.8,24.1-1.7.6-.2,1.4,0,2.6,0-.8.6-.9,1.1-1.2,1.1-4.5.8-8.9,1.7-13.4,2-5.6.5-11.4.3-17,.5-.8,0-1.4-.5-2.3-.8h-.2,0Z"/>
            <path class="cls-26" d="M216.7,346.1c-.2-2-.2-4,0-6.2.3-.6.6-.8.9-1.1h.5c1.2,0,2.3.2,3.4.2,3.7,0,7.6,0,11.7-.2h.8c6.7-1.2,13.4-2.5,20.2-3.9,3.4-1.2,6.7-2.3,10.3-3.3-.2.5-.5,1.1-.9,1.2-8.6,3.7-17.7,5.6-26.9,6.7-5.3.6-10.7,0-16.2.3-.8,0-1.9,1.1-2.3,1.9-.6,1.4-.8,3-1.4,4.4h0Z"/>
            <path class="cls-14" d="M185.1,368c1.7,3,2.5,6.1,2.2,9.5-.3,2.5,0,4.8,0,7.6s-.3,6.8-.9,10c-.6,3.1-1.6,6.2-2.5,9.3,0,.5-1.1.6-1.7.8.5-1.2,1.1-2.3,1.4-3.6.9-3.6,1.7-7.2,2.5-10.7,0-.6-.6-1.2-.8-2,0-.2,0-.5.2-.8.2-3.9.2-7.5.3-11,0-.8-.3-1.4-.3-2.5,0-2.3,0-4.5-.2-6.5h-.2Z"/>
            <path class="cls-26" d="M184.9,389c.5.5,1.1,1.2.9,1.9-.8,3.6-1.6,7.2-2.5,10.7-.3,1.2-.9,2.3-1.6,3.7-.5,1.2-.8,2-1.1,3-2,3.3-3.9,6.5-5.9,9.8-.2.3-.5.5-.8.8.8-2,1.6-4.2,2.5-6.2,2-4,3.9-8.2,5.6-12.4,1.4-3.6.9-7.5,2.6-11h0l.2-.2Z"/>
            <path class="cls-26" d="M185.1,367.8c0,2.2.2,4.2.2,6.4h-.3c-1.6-4.4-3-8.7-4.4-13.1-.2-.6,0-1.2,0-2,.5.2.9.6,1.4,1.4.3.6.6.8.9,1.1v1.4c.5,1.2.9,2.2,1.4,3.1v.9c.2.3.3.5.5.6v.3h.3v-.2Z"/>
            <path class="cls-26" d="M176.7,419.6c1.1-2,2.3-3.9,3.6-6.1.6.9,1.1,1.6,1.6,2-.3,1.7-.6,3.3-1.1,5-.3.2-.6.3-.9.6-.3-.5-.5-1.1-.5-1.1-1.1-.2-1.9-.3-2.8-.5M180.9,417.3h0Z"/>
            <path class="cls-26" d="M173.9,418.7v3.4c-.8,1.6-1.9,3.1-3.1,5-.8-2.5,1.1-7,3.1-8.4h0Z"/>
            <path class="cls-26" d="M172.2,333.5h-.5c.8-2.8,1.7-5.4,2.6-8.4.3,1.7.6,3.7.6,5.8-.9.9-1.9,1.6-3,2.5h.2v.2Z"/>
            <path class="cls-26" d="M201.3,388.8c1.6-3.9,3.3-7.8,5.1-11.8-.2,1.2-.3,2.8-.8,4.2-.6,1.9-1.4,3.9-2.3,5.6-.3.8-1.1,1.4-1.9,2h-.2Z"/>
            <path class="cls-26" d="M185.4,377v10.7-10.7Z"/>
            <path class="cls-26" d="M199.6,390.4c.3,0,.8-.3,1.2-.5,1.4.9,1.9,1.7,0,2.5-1.1.5-1.6,1.9-2.6,2.8.3-1.2.8-2.3,1.2-3.9v-.9h.2Z"/>
            <path class="cls-26" d="M177.2,349.6c.6.8,1.4,1.7,1.9,2.6.5,1.4.6,2.8.9,4.5-.8-1.6-1.7-3.1-2.3-4.8-.3-.6-.3-1.4-.5-2.3Z"/>
            <path class="cls-26" d="M194.3,401.8c1.1-2.2,2.2-4.2,3.6-6.4-.3,2.5-1.2,4.8-3.6,6.4Z"/>
            <path class="cls-26" d="M207.2,373.9c.5-1.6,1.2-3.3,2-5-.5,1.6-1.2,3.3-2,5Z"/>
            <path class="cls-26" d="M264.7,331.6c1.6-.9,3.1-1.7,5-2.6-.9,2-2.8,2.5-5,2.6Z"/>
            <path class="cls-26" d="M211.7,362.6c.3-1.1.9-2.3,1.6-3.4-.3,1.1-.9,2.3-1.6,3.4Z"/>
            <path class="cls-26" d="M175.9,343.3c.5.9.6,2,.8,3.3-.5-.9-.6-2-.8-3.3Z"/>
            <path class="cls-26" d="M210.1,366.9c.3-1.1.6-2.2,1.2-3.4-.3,1.1-.6,2.2-1.2,3.4Z"/>
            <path class="cls-26" d="M215.7,351c0-1.2.3-2.5.6-3.9,0,1.2-.3,2.5-.6,3.9Z"/>
            <path class="cls-26" d="M175.5,337.2c.2.6.3,1.4.3,2.2-.3-.6-.3-1.4-.3-2.2Z"/>
            <path class="cls-26" d="M169.7,427.4c.2.3.3.6.3.9h-.6c0-.3,0-.6.3-.9Z"/>
            <path class="cls-26" d="M174.8,421.7c0-.3.3-.6.6-.9,0,.3-.3.6-.6.9Z"/>
            <path class="cls-26" d="M214,357c0-.2,0-.5.2-.8,0,.2,0,.5-.2.8Z"/>
            <path class="cls-26" d="M270.2,329.1c0-.2.3-.5.8-.6,0,.2-.3.5-.8.6Z"/>
            <path class="cls-26" d="M209.5,368.9s0-.3.3-.5c0,0,0,.3-.3.5Z"/>
            <path class="cls-26" d="M175.1,331.3v.3-.3Z"/>
            <path class="cls-26" d="M175.1,332.8s.3,0,.3.3c0,0-.2,0-.3-.3Z"/>
            <path class="cls-22" d="M176.7,317.9c.8-.2,2,.5,2.2-1.1,0-.2.8-.3,1.2-.5,1.7-.8,3.4-1.9,5.1-2.3,1.6-.5,3.4-.2,5.1-.5,1.2-.2,2.5-.6,3.7-1.1.3-.3.3-.5.5-.8.3-.5.6-.6.9-.9.6.8.9,1.4,1.4,2,2.6,2.8,6.5,1.7,9.6,2.8,2,.8,3.1,1.7,3.1,3.9-.5.2-.6.3-.9.2,0,0-.3,0-.3-.3-3-3.1-6.5-3.9-10.7-3.6h-5.3c-2.5-1.2-4.4,0-6.5,1.1-2.6,1.1-5.3,2.2-7.8,3.3-.5-.8-.9-1.4-1.4-2.3h0v.2Z"/>
            <path class="cls-9" d="M192.7,315.9h3.3c.5,0,1.1,0,1.9.2,1.1.8,1.9,1.2,2.5,1.7-2.6,0-5.1-.5-7.6-.3-.9,0-1.7.9-2.8,1.4-1.1.3-2,.6-3,.9-2.6,1.2-4.7,3.6-7.8,4-.3-.8-.5-1.4-.9-2.3v-1.1c2.6-1.2,5.1-2.2,8.1-3.3,1.7,0,3.1.2,4.5,0,.6,0,1.2-.8,2-1.1h-.2v-.2Z"/>
            <path class="cls-18" d="M133.9,393.4v7h-.5v-11.4h.5v4.2h0v.2Z"/>
            <path class="cls-22" d="M175.6,316.5c.3,0,.6.3.9.8-.3,0-.6-.3-.9-.8Z"/>
            <path class="cls-17" d="M171.7,312.8s.3,0,.5.3c0,0-.3,0-.5-.3Z"/>
            <path class="cls-33" d="M165.2,192.4c-3.1-.9-6.2-2-9.3-3.3,6.2-3.7,13.2-4.8,20.1-5.6,33-3.9,65.2,0,96.9,9,2.3.6,4.5,1.4,7,2.5.3.8.6,1.4.8,2v.9c-.3,4-.6,7.9-.9,12.1v2.3c0,3-.2,5.6-.3,8.4-.3-.2-.8-.3-.8-.5-.3-2.2-.6-4.4-.8-6.7,0-1.7.2-3.4,0-5-.2-1.4-1.1-2.3-2.6-1.2-1.2.8-2.5,1.7-3.7,2.3-1.7.8-3.6,1.4-5.8,2-1.1,0-1.9,0-2.6.3-2.5.6-5,1.6-7.5,1.7-2,.3-4.2-.3-6.4-.5.9-2.5,3-1.7,4.7-1.2,1.2.3,2.2.5,3.6-.2,2.8-1.4,5.9-2,8.9-3,2.5-.8,5-1.6,7.5-2.3,1.6-.6,2-1.6,1.4-3.3-.8-1.9-1.1-3.7.3-5.6,1.1-1.6.3-2.3-1.2-2.5v.8c-1.2.5-2.6,1.7-3.6,1.6-3.3-.9-4.8,1.1-6.5,3-1.6,1.7-3,2.2-4.7.2-.2-.2-.6-.5-.8-.5h-10.9c-3.1,0-6.1-.5-9.2-.5s-6.2.5-9,3c-1.9,1.7-5.4,1.6-8.4,2.3,0,0,.3.8.6,1.7-4.4-1.4-7.8-.6-11.2,2.3-.6.2-.9,0-1.4,0-.2-.6-.3-1.1-.3-1.9,2-1.1,3.9-2,5.8-2.8,7.5-2.8,14.9-5.9,23-6.5,4.5-.3,9.2-.5,13.8-.3,3.1,0,6.4.5,9.5.8-2-4.4-6.1-5.8-10-6.5-3.3-.6-7-.6-10.4,0-5.4,1.1-10.7,3-16,4.5.5-.5.9-1.2,1.4-1.2,2.6,0,4-1.7,5.8-3.4,1.7-1.9,3.7-3.4,5.8-5.8h-4.7c-.8,0-1.6.2-2.2,0-5.9-.3-12-.6-17.9-1.1-.6,0-1.1-.5-1.7-.6-.8-.3-1.6-.8-2.2-.8-3,.2-6.2,1.4-8.7.5-3-1.1-3.6,1.2-5.4,2-1.6-3.1-3.7-.8-5.6-.8-3,0-5.8.5-8.9-.6-1.7-.6-4,.6-6.1.9-.5,0-1.1.3-1.4.2-3.1-1.2-4.2,1.9-6.4,2.8v.9c1.9.5,3.6,1.1,5.4,1.2,3,.3,3.1.5,2.6,3.4.8.6,1.6,1.1,2.3,1.9-3.3-1.2-6.5-2.6-10-4-.5-.2-.9,0-1.6.3h0l-.2.2Z"/>
            <path class="cls-3" d="M279.8,212.3v-2.2c.3-1.2.5-2.3.6-3.4.2-1.7.3-3.6.6-5.3h0v-.3c-.2-1.2-.3-2.3-.5-3.4v-.9c.2-.8.3-1.4.3-2,3.6,1.1,7.3,2.3,10.9,3.4,3.7,1.2,7.5,2.3,11.2,3.7-1.4.8-2.8,1.4-4.4,1.9-.9.3-2,.3-3.7.6-3,4.7-6.4,10-10,15.2-.2,0-.3.3-.3.5-.2.2-.3.3-.6.5-1.1.6-2,1.2-3,2-.3-2.2-.6-4.7-.9-7.2-.2-1.1-.5-2.3-.6-3.4l.3.3h0Z"/>
            <path class="cls-33" d="M285.3,219.8c3.4-5.3,6.8-10.7,9.8-15.2,1.7-.3,2.8-.3,3.7-.6,1.6-.5,3-1.1,4.5-1.9,3.1-.2,6.2-.5,8.9,1.7-.8.2-1.7.3-2.3,0-1.9-.5-4.2.8-4.7,2.5h-1.9c-.9-1.7-4.5-2-5.6-.5-.8,1.1-1.7,2-2.6,3.3.2.3.5,1.1.9,2.2-1.1.3-2.2.3-3.1.8-.9.3-1.9.8-2.3,1.6-.9,1.2-1.7,2.8-2.5,4.2-.3.8-.5,1.6-.8,2.8-.6.3-1.6.6-2.8.9-.2-.3-.2-.6,0-.8,0,0,.3-.3.5-.5.2-.2.3-.5.3-.6h0v.2Z"/>
            <path class="cls-27" d="M305.5,206.4c.2-1.7,2.6-3,4.4-2.5.8.2,1.6,0,2.5,0s.6.2.9.5c-.6,1.1-1.2,2.2-2,3.4-.9-.2-1.6-.5-2.3-.9-.2-.5-.3-.8-.5-1.1,0,.3-.3.5-.6.8h-2.3v-.2Z"/>
            <path class="cls-19" d="M280.9,194.9v1.9c-.3-.5-.5-.9-.8-1.7.3-.2.5-.2.8-.2h0Z"/>
            <path class="cls-2" d="M308.9,206.8c.8.3,1.4.6,2.3.9.2.2.3.3.6.6,3.3,3.6,4.5,7.5,4,12-.5,3.6-.9,7.2-1.6,10.9-1.1,2-2.2,4-3.3,6.1-.5.8-1.1,1.4-2.2,1.9.3-1.1.6-2,.9-3.3,1.4-4.4,3-8.6,3.9-12.8.6-2.8.5-5.8,0-8.6-.8-5.1-6.4-7.8-10.7-6.1-3.7,1.4-5.6,4.8-6.7,8.7-.3,1.4-.9,3.1.6,4.4.2,0,.5.2.8.3,1.9-4.4,1.7-10,7.5-12.8-1.4,2.8-2.6,4.8-3.7,7.2-1.9,3.7-1.7,4.4,1.2,7.3s4.5,10.7,1.4,15.6c-2.2,3.4-4.2,4-7.3,2.2,6.5-1.2,7.6-5.9,6.7-10.7-.8-4-5.3-4.8-8.6-6.8-.8,4.4-1.9,8.6-1.9,12.8s-.6,5.1-2,7.6c-1.1,1.9-1.6,2.2-3.6,2,4-6.2,4-13.5,6.1-20.4.6-2.5.2-5.3.8-7.8,1.2-4.8,3.4-9.3,8.7-11.4h4.5c.6.2.8.3,1.1.3h.3v-.2Z"/>
            <path class="cls-12" d="M224.8,196.4c5.4-1.6,10.7-3.4,16.2-4.5,3.3-.6,7-.8,10.4,0,4,.8,7.9,2.2,10,6.5-3.1-.3-6.4-.8-9.5-.8-4.7,0-9.2,0-13.8.3-8.1.6-15.6,3.7-23,6.5-1.9.8-3.7,1.7-5.8,2.6-.3-1.4-.5-3-.5-4.7,1.1.6,1.9.8,3-.3.3-.2.6-.3.9-.5.3-.2.6-.3,1.1-.5,3.6-1.6,6.8-3,10.3-4.4h.8v-.5h0Z"/>
            <path class="cls-16" d="M176.4,292.4c.3-.3.9-.6,1.9-.9,3-.3,5.6-.8,8.2-.8s5.1.8,7.8.8h18.8c.8.5,1.4.9,2,1.2-3.7,2.3-7.6,4-12.1,4.7h-.8c-7.6,2.6-14.3,0-20.8-3.4-1.6-.8-3.3-1.1-5.1-1.6h.2Z"/>
            <path class="cls-9" d="M215,272c6.1,3,9.5,7.9,10.7,14.6,1.4,8.1,4.8,15.1,10.3,21.2,0,.2.2.5.5,1.2-5.8-3.1-10.9-5.9-14.5-11.2,0-.2,0-.3.3-.3.8.5,1.2.8,1.9,1.2,1.2.9,2.6,1.9,4.2,3-1.9-5.9-3.7-11-5.3-16.5-1.1-3.7-2.6-7.2-5.9-9.3-1.4-.9-3-1.7-4.5-2.3-2-.9-4-1.6-6.1-2.5.6-.6,1.4-.9,2.2-1.4,1.7.6,3.1,1.1,4.7,1.7h0c.5.3.9.6,1.4.8h.2v-.2Z"/>
            <path class="cls-29" d="M183.1,269.2c-.9.6-2,1.2-3.3,1.7-.8-.8-1.1-1.9-1.9-2.5-1.7-1.9-4-3.4-5.3-5.6-2.3-4-1.1-6.7,3.1-11.2.9-.9,1.4-2.5,1.7-3.7,1.9-5.4,3.6-10.9,5.6-16.5.6-.2.9-.2,1.4-.2-1.4,4.4-3,8.7-3.9,13.2-1.1,5.1-1.9,10.4-2.5,15.6-.5,4,.9,7.3,5,9.2M174.5,262.8c.5.6.9,1.1,1.9,2v-11.2c-3.6,2.2-4.2,4.8-1.9,9.2Z"/>
            <path class="cls-29" d="M269.6,308.7c-1.1,1.9-2.2,3.6-3.3,5.4-.8.5-1.6.5-2,.9-7.2,7.2-14.9,13.1-25,15.6-5,1.2-9.8,3.1-14.8,4.5-1.4.5-3.1.2-4.8,0-.2-.3-.2-.6,0-.8,2.3-.3,4.4-.5,6.5-.9,2.2-.5,4.2-1.2,6.2-1.9,8.1-2.3,15.7-5.4,22.6-10.6,5.3-3.9,9.8-8.6,14.2-13.7.3.5.5.8.5,1.2h0v.2Z"/>
            <path class="cls-33" d="M213.1,221.8c-.3-.6-1.1-1.6-.9-1.7,1.2-1.6,2.5-3.1,3.9-4.5,2-1.7,4.4-1.7,6.7-1.1.8,0,2.3-.6,2.5-1.2.8-2.5,2.6-2.2,4.2-1.6,3.7,1.4,7.5,1.4,11.4,1.1,2.2,0,4.2.2,6.4.6-.5.5-.9.6-1.7.6h-11.4c-1.1,0-1.9.3-2.8.3s-.6.3-1.2.5c-1.9.2-3.4.5-5.3.6-4.5,1.1-8.4,3.1-11.7,6.4h0Z"/>
            <path class="cls-33" d="M151,204.5c0-1.4-.2-3,.3-4.2s1.7-3.3,2.6-3.3c4.5,0,9,.5,13.5.8.3,0,.6.5,1.1.8-3.7,2.5-7.9,3.3-12.4,2.8-2-.2-3.4,1.7-3.6,4.7-.3,0-.6,0-.8-.3-.2-.2-.3-.5-.5-.9,0-.2,0-.3-.3-.5h0v.2Z"/>
            <path class="cls-15" d="M208.6,269.4c-.6.5-1.2.8-2.2,1.4-2.2-.3-4.2-.8-6.2-1.2-1.9-.3-3.6,1.4-3,3.1.6,1.6,1.4,3.1,2.3,4.5.8,1.2,1.7,2.5,2.3,3.9-.8.2-1.2.3-1.9.5h0c.9-2-.8-.5-1.1-1.1-1.2-1.7-2.3-3.3-3.4-5v-.9c.5-1.6.6-2.8-1.4-2.8-3.4.2-6.7.3-10.3.5-.3-.6-.3-1.2-.3-1.9h1.1c4,1.1,7.8.5,11.5-1.9,1.9-.3,3.4-.5,5-.6.2,0,.5,0,.9.2.9,0,1.4.2,2,.2s.5,0,.9.3c.8.2,1.1.2,1.6.3.2,0,.5,0,.9.3s.8.5,1.1.8v-.5h0Z"/>
            <path class="cls-33" d="M153.2,206.8c3,.8,5.9,1.6,8.9,2.2,1.1.2,2.3,0,3.6-.2,1.9-.5,3.6-1.2,4.8,1.2.3.5,1.7.6,2.6.6s4.7,1.7,4.8,3.1c-.3.3-.6.5-1.1.5-4.2-1.6-8.4-2.6-13.1-2-.9,0-1.9,0-2.6-.3-3.1-1.1-6.4-1.9-7.9-5.1h0Z"/>
            <path class="cls-22" d="M229.9,223.8c-1.7-.2-3.4-.3-5.4-.6-1.6-.2-2.8-.3-4-.3h-2.3c-.9-.5-1.6-.6-2-1.1,1.7-.8,3.3-1.6,5-2.2,1.6.3,3.1.6,4.8.9,2.3.3,4.5.5,7,.8,1.6,0,2.8-.2,4-.3.6.3,1.2.6,1.9.8.9,0,1.9,0,2.8.2-3.3,1.4-6.7,2-10.6,2h-1.1v-.2Z"/>
            <path class="cls-19" d="M284.3,220.8c.2.2,0,.3,0,.8v.3c-.8,2.2-1.4,4.4-2,6.4v.9c0,.8.2,1.1.3,1.6,0,.5,0,.9-.3,1.7-.3,1.7-.6,3.1-.6,4.5s-.5,2.2-1.9,2.2v-18.2c0-3,0-5.6.2-8.6.3.9.6,2,.8,3.1.3,2.5.6,5,.9,7.2.9-.6,1.9-1.4,3-2h-.3v.2Z"/>
            <path class="cls-19" d="M200,281.5c.6,0,1.1-.3,2-.3,3.9,2.8,7.6,5.3,11.2,8.2,2.6,2.2,5.1,4.7,7.8,7.2v.8c-1.9-1.6-3.6-3-5.6-4.5-.8-.5-1.4-.9-2.3-1.6-1.1-.8-1.7-1.2-2.6-2-3-2-5.9-4-8.9-6.1-.5-.3-.9-.6-1.4-.9v-.8h-.2Z"/>
            <path class="cls-15" d="M195.5,310.8c-.3.3-.5.6-.9.9h-.5c-.3-2-.6-4-1.1-6.4-.2-.5-.3-.6-.3-.8v-.9c0-1.4,0-2.6.2-3.7,1.6,0,3.1.3,4.8.6-.6,3.6-1.4,6.8-2.2,10.1h0v.2Z"/>
            <path class="cls-15" d="M242.7,214h2.8c3.4,1.9,6.5,1.2,9.8.6,1.1-.2,2.2,0,3.3,0-4,1.1-8.2,2.3-12.6,3.4-.2-.6,0-1.2,0-2.2h-7.8c-.8,0-1.2,0-1.9-.3,1.2-.5,2.5-.8,3.7-1.1.9-.2,1.9-.5,2.6-.8v.3Z"/>
            <path class="cls-29" d="M215.6,255.1c1.9,3.6,1.7,7,0,10.4-.3.8-1.4,1.1-2.3,1.9-.3-.8-.3-.9-.3-.9,3.7-5,1.1-9-2-13.1-.5-.6-.5-1.6-.6-2.3.8.2,1.9.2,2.5.6,1.1.9,1.7,2.2,2.8,3.4h0Z"/>
            <path class="cls-2" d="M184.8,231.1h-1.4c.6-2,1.2-4,2.2-6.1,1.2-2.8,1.4-2.6-1.4-3.6-.6-.2-1.1-.8-1.4-1.2h1.1c1.1.2,1.9.3,2.8.5.8-.3,1.2-.6,1.9-.9.9-2.5,1.9-4.8,2.8-7.3h.8c-.2,1.2-.2,2.6-.6,3.7-1.9,4.4-3.9,8.7-5.9,12.9-.3.5-.5,1.1-.8,1.7v.3h0Z"/>
            <path class="cls-23" d="M238.3,216.2h7.6c-.2.9-.3,1.6-.3,2.2-2.8.9-5.6,1.7-8.7,2.5-1.6,0-2.8.3-4.2.2.5-.6,1.1-1.2,1.9-1.6,2.3-.2,4.5-.5,6.5-.9-1.1-1.1-3.3,0-3-2.3h.2Z"/>
            <path class="cls-20" d="M219.5,334.6v.8c-.5.2-1.1.2-1.9,0-.8-3-3.1-5.3-2.8-8.4,0-.5-.9-1.1-1.4-1.7-1.6-1.9-3-3.7-4.5-5.6h.9c.9.6,1.6,1.2,2.5,2.2,1.7,1.2,3.1,2.3,4.7,3.3,0,.2,0,.5-.2.8-.5.2-.9.2-1.2.2.3.5.6.9.9,1.4,0,.5.3.8.5,1.6.3,1.2.6,2,.9,3,.3,0,.5.3.8.6.3.8.5,1.2.8,1.9h0v.2Z"/>
            <path class="cls-19" d="M199.1,264.6c1.9-3.9,5.3-4.7,9-3.9,1.2.3,2.3,1.6,3.3,2.8-3.9-.6-7.5-1.4-11,1.2-.6,0-.9,0-1.4-.3h0l.2.2Z"/>
            <path class="cls-33" d="M186,206.1c.5-.3,1.4-.5,1.4-.8.5-2-.5-3.3-2.2-4.2-2.5-1.2-5-2.6-7.5-4,0-.5.5-.9.6-1.1,3,1.4,5.8,2.8,8.7,4.2,2.2.9,3.3,4.8,1.7,6.5-1.1,1.2-2,1.2-2.6-.5h-.2v-.2Z"/>
            <path class="cls-33" d="M212.5,201.4c-.3.2-.5.3-.9.3-1.2-.3-2.2-.6-3.1-.8-1.2-.3-1.4-1.1,0-1.4,1.9-.5,3.7-.6,5.6-.8.6,0,1.6,0,1.9-.5,2.2-2.8,5.3-1.4,8.1-1.9-3.3,1.6-6.7,3.1-10.3,4.5-.5,0-.8.5-1.1.6h0l-.2-.2Z"/>
            <path class="cls-28" d="M258.7,214.9c-1.2,0-2.3-.3-3.4,0-3.3.6-6.4,1.1-9.5-.6.3-.2.8-.3,1.4-.6h1.9c2.3,0,4.5.6,6.5.3,2.5-.3,5-1.2,7.5-1.7.8-.2,1.6-.3,2.5-.2-2.2,1.1-4.5,2.2-6.8,3.1v-.3Z"/>
            <path class="cls-33" d="M279.5,239.2c1.7,0,2-.9,2-2.2s.3-2.8.6-4.4c1.4,2.5.8,9-.9,10.6-.5.3-1.6.3-2,0s-.8-1.1-.8-1.7.6-1.6,1.1-2.3Z"/>
            <path class="cls-9" d="M220.9,219.3c-1.6.8-3.1,1.4-5,2.3-.5.3-.8.5-.9.5-.6,0-1.2,0-1.7-.2,3.1-3.4,7-5.4,11.5-6.4-.3.8-.8,1.2-1.4,1.9-.9.6-1.7,1.2-2.5,1.7h0v.2Z"/>
            <path class="cls-23" d="M195.7,310.8c.6-3.4,1.6-6.7,2.3-10.1.9-.2,1.7-.3,3-.3-.8,1.4-.5,2.5-1.7,3.9-1.7,1.9-1.6,5.3-2.2,8.2-.5-.5-.9-1.1-1.4-1.7h0Z"/>
            <path class="cls-22" d="M219.6,334.6c-.5-.5-.6-1.1-.8-1.9,4.4-.5,8.7-.8,13.4-1.1-1.9.6-3.9,1.4-6.1,1.9-2,.5-4.2.6-6.5.9h0v.2Z"/>
            <path class="cls-9" d="M186.5,220.7c-.8-.2-1.7-.3-2.8-.6-1.9-1.2-3.6-2.3-5.1-3.6-.5-.9-.9-1.6-1.4-2.3.3,0,.5-.2.9-.3h.5c.5.2.8.3,1.1.5.2,0,.5.3.9.6,2.6,1.4,5.1,2.6,5.9,5.8h0Z"/>
            <path class="cls-20" d="M153.2,206.8c1.7,3.3,5,4,7.9,5.1-2-.3-3.9-.8-5.8-1.1h-.6c-.5-.3-1.1-.6-1.6-1.1,0,1.6-.3,3.1-.6,4.8,0-1.4,0-3-.2-4.4,0-1.4-.3-2.6-.3-4.2.3,0,.5,0,.8.3l.5.5h-.2Z"/>
            <path class="cls-28" d="M209.5,209c.3-.2.8-.2,1.2-.2,0,3.7,0,7.5-.3,11h-1.1v-10.9h.2Z"/>
            <path class="cls-33" d="M186.7,220.7c-.9-3-3.4-4.2-5.9-5.6,1.6-1.6,3-.5,4.2.6s2.2,2.6,3.6,4c-.5.3-.9.6-1.7.9h-.2Z"/>
            <path class="cls-22" d="M208.7,269.4c-.5-.3-.8-.5-1.1-.8,3.6-1.7,5.3-1.1,5.9,2.2-1.6-.3-3-.9-4.7-1.4h-.2Z"/>
            <path class="cls-33" d="M298,246.7c-1.1.2-1.9.3-2.6.5,0-.3-.2-.6-.3-.9,2.6-.9,5.3-1.9,7.9-2.8,0,.3.3.6.5,1.1-1.7.8-3.4,1.4-5.3,2.2h-.2Z"/>
            <path class="cls-22" d="M198.9,264.6c.5,0,.9.2,1.4.3.3.8.6,1.4.8,2.3-1.6.3-3,.6-4.8.8.6-1.1,1.6-2.2,2.6-3.4h0Z"/>
            <path class="cls-29" d="M275.6,299.1c-1.6,2.6-3,5.1-4.8,7.6-.5,0-.6-.3-.8-.5,1.7-2.5,3.3-5.1,5-7.8.3,0,.5.3.6.6Z"/>
            <path class="cls-22" d="M216.8,325.1c-1.4-.8-3-1.9-4.5-3.1,2.3-.3,3.9.5,4.5,3.1Z"/>
            <path class="cls-22" d="M192.6,299.9v3.7c-1.1-.9-2-2-3.1-3.1,0-.2.2-.5.3-.6h2.8Z"/>
            <path class="cls-33" d="M282.3,228.2c.5-2,1.1-4.2,2-6.4-.5,2-1.1,4.2-2,6.4Z"/>
            <path class="cls-33" d="M182.1,203.1c1.2.8,2.5,1.6,3.9,2.6-2,.5-3.6,0-3.9-2.6Z"/>
            <path class="cls-22" d="M208.4,201.1c.9,0,1.9.3,3,.6-.8,1.2-1.6,1.1-2.6.3-.2-.3-.2-.5-.2-.9h-.2Z"/>
            <path class="cls-33" d="M220.4,223c1.2,0,2.5,0,3.7.2-1.1,0-2.5,0-3.7-.2Z"/>
            <path class="cls-33" d="M215,222.2c.2-.3.5-.5.8-.6.8.3,1.4.5,2,.9-.9.6-2,1.7-3-.3h.2Z"/>
            <path class="cls-22" d="M216.7,327.7c-.5-.5-.8-.9-1.1-1.4h1.2c.5.3.6.6.9,1.1-.3.2-.6.3-1.1.5h0v-.2Z"/>
            <path class="cls-22" d="M217.9,331.9c-.3-.6-.6-1.6-.9-2.6.3.6.6,1.6.9,2.6Z"/>
            <path class="cls-33" d="M258.5,208.6c.2.6.2,1.2.2,1.9h-1.1c.3-.6.5-1.2.9-1.7h0v-.2Z"/>
            <path class="cls-28" d="M269.9,306.2c.3,0,.5.3.8.6,0,.6-.5,1.2-.9,1.9-.2-.3-.3-.8-.5-1.2,0-.5.3-.8.6-1.1h0v-.2Z"/>
            <path class="cls-22" d="M203.9,267.7h-1.9,1.9Z"/>
            <path class="cls-33" d="M179.7,202.5c.5,0,.8,0,1.4.3,0,.3-.5.6-.6.9-.2-.3-.5-.8-.6-1.2h-.2Z"/>
            <path class="cls-33" d="M282.6,230.6c-.3-.3-.3-.8-.5-1.2,1.6-.2,1.1.5.5,1.2Z"/>
            <path class="cls-33" d="M170.2,199.1c.5,0,.8,0,1.4.2-.3,0-.9,0-1.4-.2Z"/>
            <path class="cls-22" d="M206.4,268.3h-1.4,1.4Z"/>
            <path class="cls-22" d="M214.8,271.9c-.5,0-.9-.3-1.4-.6.5,0,.9.3,1.4.6Z"/>
            <path class="cls-33" d="M172.7,199.5c.5,0,.9.3,1.4.6-.5,0-.9-.3-1.4-.6Z"/>
            <path class="cls-9" d="M221,297.4v-.9c.3.2.6.5.8.8h-.2c-.2.2-.5.2-.6,0h0v.2Z"/>
            <path class="cls-33" d="M229.9,224h.8c0,.3,0,.5-.2.8-.2-.2-.5-.3-.6-.6h0v-.2Z"/>
            <path class="cls-33" d="M179.5,214.3c-.3,0-.6,0-.9-.3.2,0,.6,0,.9.3Z"/>
            <path class="cls-19" d="M184.5,270h-.3c0-.2.3-.2.3-.2h0v.2Z"/>
            <path class="cls-22" d="M192.7,304.8s.2,0,.3.5c0,0-.2,0-.3-.5Z"/>
            <path class="cls-33" d="M279.5,233.8v.3-.3Z"/>
            <path class="cls-23" d="M194.1,311.8h.3s0,.3-.3.5v-.3h0v-.2Z"/>
            <path class="cls-28" d="M209.7,221.5h0Z"/>
            <path class="cls-23" d="M151,204.7s.2,0,.2.2c0,0-.2,0-.2-.2Z"/>
            <path class="cls-32" d="M177,214.2c.6.8,1.1,1.6,1.6,2.5-.5,1.2-.8,2.2-1.2,3-2.6-.3-5.3-.6-8.2-1.2-.5-1.4-.8-2.6-1.1-4.2.2-2-1.1-1.4-2-1.6-.6,0-1.2-.5-1.9-.6,4.4-.8,8.6.5,12.8,2h.2v.2Z"/>
            <path class="cls-15" d="M163.9,212.1c.8.3,1.4.6,2,.6.9.2,2.3-.5,1.9,1.4-2.3.3-4.7-.6-5.9,1.9-3-.8-5.4-2.2-6.8-5.3,2,.3,3.9.8,5.9,1.1h2.8v.3h.2Z"/>
            <path class="cls-24" d="M162.2,216.3c1.1-2.6,3.4-1.7,5.6-1.7.5,1.4.8,2.6,1.1,4-2.2-.6-4.4-1.4-6.7-2.3Z"/>
            <path class="cls-24" d="M177.6,219.8c.2-.9.6-1.7,1.1-2.8,1.7.9,3.3,2,5,3.1h-.8c-1.7,0-3.4-.3-5.3-.5h0v.2Z"/>
            <path class="cls-15" d="M154.8,210.9s.2-.2.5-.2c0,0-.2.2-.5.2Z"/>
            <path class="cls-33" d="M200,281.5v.9c.5.5,1.1.8,1.6.9,3,1.9,5.9,3.7,8.6,5.9-3.6,0-6.8,0-10.3-.2h-7.3c-3.7-.3-7.3-.6-11-1.1v-.5c0-.3.2-.3.6-.6,3.1-1.6,6.1-3,9.2-4.5.9.3,1.7.3,2.2.6,1.6,1.2,2.8,1.1,4-.3.5-.5,1.1-.9,1.9-1.4h.8l-.2.2Z"/>
            <path class="cls-20" d="M191,282.4c-3,1.6-5.8,3-8.9,4.5.8-.9,1.7-1.7,3-2.8,3.1-1.6,5-3.6,5.9-6.5h2c-.6,1.7-1.4,3.3-2,4.7h0v.2Z"/>
            <path class="cls-19" d="M193,277.5h-1.7c.8-1.9,1.7-3.7,2.6-5.9,2.2,0,2,1.1,1.4,2.6-2.8-1.4-1.4.9-1.7,1.9-.2.5-.3.9-.6,1.2h0v.2Z"/>
            <path class="cls-15" d="M190.9,277.5c-.6,3-2.6,5.1-5.6,6.4,1.7-2.2,3.6-4.4,5.6-6.4Z"/>
            <path class="cls-9" d="M208.9,319.8c1.6,1.9,3.1,3.7,4.5,5.6.5.6,1.4,1.2,1.4,1.7-.3,3.1,2,5.4,2.6,8.4v1.1c-2.2,1.2,0,1.6,0,2.2-.3.3-.5.6-.9.9-1.6-.8-1.6.2-1.7,1.6-.3,1.2-.5,2-.5,3s.5,1.1.6,1.6c0,1.1,0,2.2-.3,3.1-.6-1.2-1.6-2.5-1.4-3.4.9-4.2.8-8.4-.3-12.6-.9-3.7-2.6-7-5.6-9.6-1.1-1.6-2-3-2.8-4.2,1.4.3,2.6.5,3.9.8h.5Z"/>
            <path class="cls-29" d="M221.3,338.8c-1.1,0-2.2,0-3.4-.2v-1.4c1.1.5,2.3,1.1,3.4,1.7h0v-.2Z"/>
            <path class="cls-20" d="M217.8,337v1.4c0,.2-.2.2-.5.2-.3-.6-2.3-1.1-.3-2,.3,0,.3.3.6.5h.2Z"/>
            <path class="cls-29" d="M233.8,338.6h-.3.3Z"/>
            <path class="cls-19" d="M180,200.5h-.6v-.3h.6v.3Z"/>
            <path class="cls-27" d="M314.5,231.1c.3-3.6.9-7.2,1.4-10.7.6-4.5-.8-8.4-3.9-11.8,1.6,0,2.8-.8,3.9,2,1.9,4.7,1.6,9.2,1.4,13.7,0,2.3-1.7,4.5-2.6,6.8h-.2Z"/>
            <path class="cls-10" d="M301.3,255.4s.3.2.3.3h-.3v-.3Z"/>
            <path class="cls-29" d="M181.5,288c3.7.2,7.5.6,11,.9,2.5.2,4.8,0,7.3,0s6.7.3,10.3.5c.9.6,1.7,1.1,2.6,1.9-6.1,0-12.3.2-18.5,0-2.6,0-5.1-.8-7.8-.8s-5.3.5-8.1.8c.9-1.1,2-2.2,3.1-3.3h0Z"/>
            <path class="cls-8" d="M207.5,323.2c3,2.5,4.5,5.8,5.4,9.5,1.1,4.2,1.2,8.4.3,12.6-.2.9.8,2.2,1.2,3.6-1.4,4.5-3,8.7-4.5,12.9-.5,1.1-.9,2.2-1.7,3.6-1.1,3.3-2,6.5-3,9.6-.2.3-.5.6-.9.9-.8.3-1.4.6-1.4.9-.3,1.9-.3,3.6-.6,5.4h-.2c-1.1.9-2.3,1.9-1.2,3.4,0,.5-.3.8-.6,1.4-.5.6-.6,1.1-.9,1.7v2.3c-.3.2-.8.2-1.2,0v-11h-.6c-.3,1.2-.6,2.5-1.1,4-3.6-3.4-.6-7-1.7-10.3-1.6,1.7-2.5,1.4-3.6-.6-1.4-2.3-1.2-5.8-4.5-7,0-.6-.3-1.4-.5-2.3-.5-.9-.9-1.6-1.6-2-3.6-6.5-5.6-13.5-6.5-20.8-.6-4.4-.3-8.7-.3-13.1s.9-1.7,1.4-3v-1.6h0c3.1-.3,5.1-2.8,7.8-4,.9-.3,1.9-.6,3.1-.9,2.3,0,4.4-.5,5.9,1.4.2.2.8.3,1.2,0,2-.6,2.6.5,3.1,2,.3.8.8,1.6,1.2,2.6.5-1.6.8-2.8,1.4-4.8,1.6,1.7,2.5,3,3.7,4.4l.9-1.2v.3h-.2Z"/>
            <path class="cls-32" d="M186.5,366.6c3.3.9,3.1,4.4,4.5,6.7,1.2,2,2,2.3,3.6.6,1.1,3.3-1.9,6.8,1.7,10.3.5-1.7.8-2.8,1.1-4h.6v11c-1.6,3.4-3,6.8-5,9.6-2.2,3-5,5.4-7.6,8.2-.2.2-.3.5-.6.6-.9.5-1.9.9-2.8,1.4-.3-.8-.6-1.7-1.1-2.8.3-1.1.6-1.9,1.1-3,.6-.5,1.7-.6,1.9-1.2.9-3.1,2-6.1,2.5-9.3.6-3.3.8-6.5,1.1-10,1.1-6.2.5-12.3-.9-18.4h0v.2Z"/>
            <path class="cls-14" d="M184.6,365.8c-.5-.6-.9-1.6-1.4-2.6.5.8.9,1.6,1.4,2.6Z"/>
            <path class="cls-32" d="M184.6,362.1c.5.5.9.9,1.4,1.7-.5-.5-.9-.9-1.4-1.7Z"/>
            <path class="cls-9" d="M178.9,323.7c.2.3.2.8,0,1.2,0-.3-.2-.8,0-1.2Z"/>
            <path class="cls-14" d="M183.1,361.3c-.3,0-.6-.3-.9-.8.3,0,.6.3.9.8Z"/>
            <path class="cls-14" d="M185.1,367.4s-.2,0-.5-.3c0,0,.2,0,.5.3Z"/>
            <path class="cls-32" d="M205.6,374.8c.8-3,1.6-6.2,2.6-9.3-.8,3.1-1.6,6.1-2.6,9.3Z"/>
            <path class="cls-32" d="M202.7,382.3c0-1.7,0-3.6.5-5.4,0-.3.8-.6,1.2-.9.2.2.2.5,0,.8-.3.2-.3.3-.5.3.2,0,.5.2.6.3-.6,1.6-1.1,3.1-1.9,4.8h0v.2Z"/>
            <path class="cls-32" d="M201.1,385.7c-1.1-1.6,0-2.3,1.2-3.4-.2,1.1-.6,2.2-1.2,3.4Z"/>
            <path class="cls-8" d="M215,345.4c-.3-.3-.6-.9-.6-1.4,0-.9.3-1.7.5-2.8v4.2h.2Z"/>
            <path class="cls-32" d="M199.7,388.8c0-.5.3-.9.6-1.4,0,.5-.3.9-.6,1.4Z"/>
            <path class="cls-9" d="M215,344v-.8s.2.5,0,.8Z"/>
            <path class="cls-8" d="M204.5,377.3c-.2,0-.5,0-.6-.2,0,0,.3,0,.5-.2v.3h.2Z"/>
            <path class="cls-14" d="M180.9,417.5h0Z"/>
            <path class="cls-20" d="M208.4,319.5c-1.2,0-2.5-.5-4-.8s-2.8-.6-3.9-1.1c-.8-.5-1.7-1.1-2.5-1.7,3.9-.5,7.5.3,10.4,3.4h0v.2Z"/>
            <path class="cls-20" d="M192.4,315.7c-.5.5-1.1,1.2-1.9,1.2-1.4,0-2.8,0-4.4-.2,1.7-1.1,3.7-2.3,6.2-1.1h0Z"/>
            <path class="cls-20" d="M195.4,315.7c-.3,0-.8.2-1.2,0,.3,0,.8-.2,1.2,0Z"/>
            <path class="cls-20" d="M196,315.7h-.3.3Z"/>
            <path class="cls-3" d="M200.3,317.8c1.4.3,2.6.6,3.9,1.1,1.1,1.4,2.2,2.8,3.1,4.4-.3.6-.8,1.2-.8,1.4-1.2-1.4-2.2-2.6-3.7-4.4-.6,2-.9,3.1-1.4,4.8-.6-1.1-.9-1.9-1.2-2.6-.6-1.6-1.2-2.6-3.1-2h-1.2c-1.6-1.9-3.6-1.2-5.6-1.4.6-.5,1.6-1.2,2.3-1.4,2.5,0,5,.2,7.6.3h.2v-.2Z"/>
            <path class="cls-19" d="M280.6,198c.2.9.3,1.9.5,3.1h0c-.2,1.9-.3,3.7-.5,5.4,0,1.1-.3,2-.6,3.1,0-3.7.3-7.8.6-11.8h0v.2Z"/>
            <path class="cls-19" d="M281.1,201.4h.2c0,.2-.2,0-.2,0Z"/>
            <path class="cls-19" d="M285.3,219.8s0,.3-.2.3c0,0,0-.2.2-.3Z"/>
            <path class="cls-33" d="M308.9,206.7c-.3,0-.6,0-.9-.2,0-.3.2-.6.3-.9.2.3.3.6.5,1.1h.2Z"/>
            <path class="cls-22" d="M212.6,201.4c0-.2.5-.5.8-.6,0,.3-.3.5-.8.6Z"/>
            <path class="cls-1" d="M222.1,297.4c-.5-.3-.6-.6-1.1-.9-2.8-2.3-5.1-4.8-7.9-7-3.6-2.8-7.3-5.4-11-8.2-.9-1.4-1.9-2.6-2.6-3.9-.8-1.4-1.7-3-2.3-4.5s1.1-3.4,3-3.1c2,.5,4,.9,6.1,1.4,2.2.8,4.4,1.4,6.2,2.3,1.6.6,3.1,1.4,4.5,2.3,3.3,2.3,4.8,5.6,5.9,9.3,1.6,5.3,3.4,10.6,5.3,16.5-1.6-1.1-2.8-2-4.2-3-.6-.5-1.1-.8-1.9-1.2h.2Z"/>
            <path class="cls-4" d="M174.4,262.7c-2.2-4-1.7-6.8,2-9v11.2c-.9-.9-1.4-1.6-2-2.2Z"/>
            <path class="cls-32" d="M223.4,217.4c.5-.5.9-1.1,1.6-1.7,1.7-.5,3.3-.6,5.3-.8.6,0,.8-.2,1.1-.3.9,0,1.7-.3,2.8-.3h.6c2.5-.2,5-.2,7.6-.2-.6.3-1.6.6-2.5.8-1.2.3-2.5.6-3.9,1.1-.5.3-.8.5-1.2.6v.5c0,.3,0,.5-.2.5h-.3s.3,0,.5.3c0,.6-.2.9-.3,1.4-.6.5-1.2.9-1.9,1.7-2.3,0-4.5-.3-7-.8-.9-1.1-1.6-1.9-2.3-2.8h.2Z"/>
            <path class="cls-15" d="M231.3,214.3c-.2.3-.5.3-.8.5.2-.2.5-.5.8-.5Z"/>
            <path class="cls-15" d="M234.7,214h0c0,.2-.3.2-.3.2h.3v-.2Z"/>
            <path class="cls-28" d="M193,277.6c.2-.6.3-.9.8-1.4.8-.3,1.2-.5,1.9-.8,1.1,1.6,2.2,3.1,3.4,5v.9c-.6.5-1.1.9-1.6,1.4-1.2,1.4-2.5,1.6-4,.3-.5-.5-1.2-.5-2.2-.6.5-1.6,1.1-3.1,1.9-4.8h-.2Z"/>
            <path class="cls-20" d="M195.5,275.3c-.5.3-1.1.5-1.9.8,0-.8-1.1-3.1,1.6-1.6.2.3.2.5.2.8h.2Z"/>
            <path class="cls-19" d="M199.3,281.5c-.2-.3-.2-.5-.2-.8.3.2,1.9-1.2,1.1.8h-.9,0Z"/>
            <path class="cls-24" d="M223.4,217.6c.8.8,1.4,1.6,2.2,2.5-1.4,0-3-.3-4.5-.6.6-.6,1.4-1.2,2.3-1.9h0Z"/>
            <path class="cls-28" d="M201.4,283.2c-.5,0-.9-.3-1.4-.6.5,0,.9.3,1.4.6Z"/>
            <path class="cls-24" d="M234.9,217.4v-.9c.3,0,.6-.3,1.2-.5.8,0,1.2,0,2,.2,0,2.5,2,1.2,3.3,2.3-2.2.3-4.4.6-6.5.9,0-.5,0-.9.2-1.6v-.5h-.2Z"/>
            <path class="cls-23" d="M234.7,217.4s.2.2.2.3h-.5.3v-.3Z"/>
            <path class="cls-23" d="M234.7,216.5s.2.2,0,.2c0,0-.2-.2,0-.2Z"/>
          </g>
        </g>
      </g>
    </g>
  </g>
</svg>