<?xml version="1.0" encoding="UTF-8"?>
<svg id="Layer_1" xmlns="http://www.w3.org/2000/svg" version="1.1" viewBox="0 0 510 515">
  <!-- Generator: Adobe Illustrator 29.7.1, SVG Export Plug-In . SVG Version: 2.1.1 Build 8)  -->
  <defs>
    <style>
      .st0 {
        fill: #312d28;
      }

      .st1 {
        fill: #bc7f47;
      }

      .st2 {
        fill: #39322c;
      }

      .st3 {
        fill: #d69f61;
      }

      .st4 {
        fill: #0d0e12;
      }

      .st4, .st5, .st6, .st7 {
        stroke-miterlimit: 10;
      }

      .st4, .st6, .st7 {
        stroke: #fff;
        stroke-width: .5px;
      }

      .st8 {
        fill: #2e2925;
      }

      .st9 {
        fill: #604c36;
      }

      .st5 {
        fill: #1a1a1a;
        stroke: #a78bfa;
        stroke-width: 11px;
      }

      .st10, .st11 {
        fill: #fff;
      }

      .st12 {
        fill: #8e7655;
      }

      .st13 {
        fill: #342f29;
      }

      .st14 {
        fill: #692021;
      }

      .st15 {
        fill: #543;
      }

      .st6 {
        fill: #15191b;
      }

      .st16 {
        fill: #cd8f56;
      }

      .st17 {
        fill: #6f2826;
      }

      .st18 {
        fill: #a31820;
      }

      .st11 {
        display: none;
      }

      .st19 {
        fill: #755f44;
      }

      .st20 {
        fill: #93714f;
      }

      .st21 {
        fill: #7c312f;
      }

      .st22 {
        fill: #bc915b;
      }

      .st23 {
        fill: #a0815a;
      }

      .st24 {
        fill: #f3e3d6;
      }

      .st25 {
        fill: #b9202a;
      }

      .st7 {
        fill: #15181b;
      }

      .st26 {
        fill: #992128;
      }

      .st27 {
        fill: #daa661;
      }

      .st28 {
        fill: #b98556;
      }

      .st29 {
        fill: #ad7140;
      }

      .st30 {
        fill: #d8a662;
      }

      .st31 {
        fill: #ba202b;
      }

      .st32 {
        fill: #291d1b;
      }

      .st33 {
        fill: #d4a362;
      }

      .st34 {
        fill: #98131b;
      }
    </style>
  </defs>
  <circle class="st5" cx="256" cy="261.7" r="237.5"/>
  <g>
    <path class="st11" d="M132.5,377.9H34.4s0,0,0-.1c0-84.3,0-168.6,0-253h450v253.1c-24.8,0-49.6,0-74.6-.1-.5-2.2-.8-4.3-1.3-6.4-2.5-11.9-6-23.6-10.6-34.9-4.1-9.9-9.3-19.1-16.9-26.8-6.2-6.3-13.1-11.8-20.2-17.1-2.1-1.6-4.3-2.9-6.5-4.5-3.2-1.7-6.4-3.3-9.6-4.9,0,0,0,0,0,0-.5-.4-1-.8-1.5-1-11.1-5.6-22.3-11.3-33.5-16.8-2.3-1.1-4.8-1.8-7.3-2.8-.6,0-.7,0-.6.7.3,3.1-.3,6-2,8.6-1,1.5-1.7,3.1-2.6,4.7-2.2,3.8-5.1,6.9-8.4,9.8-1.2,1.1-2.8,1.9-3.7,3.2-1.4,2-3.5,3-5.3,4.5-2.7,2.2-5.5,4.1-8.7,5.4-.6.2-1.2.3-1.8.5-2.7,2.6-5.2,3.4-7,1.7.5-.8,1-1.7,1.5-2.5.8-1.4,1.5-2.9,2.2-4.4,0,0,0-.2.2-.2.9-.9,1.8-1.6,2.4-2.6,1.7-2.7,3.2-5.6,4.9-8.4,1-1.8,2.1-3.5,3.1-5.3.2-.3,0-.9,0-1.4.1-.2.3-.4.5-.5.4-.1.9-.2.9-.4.6-1.9,2-3.5,1.8-5.7,0,0,0,0,.1,0,.7-1.2,1.4-2.3,1.8-3.5.6-1.9,1-4,1.5-6,0-.2,0-.3.2-.4.5-.6.8-1.3,1.2-1.9,0,0,0,0,.1,0,1-.8,1.8-1.5,2.7-2.3,0,0,0,0,0,0,.4-.3.6-.7.9-1,0,0,0,0,.1,0,.4.3,1,.6,1,.8-.2,1-.5,1.9-.8,2.9-1,3.1-2,6.3-3.1,9.4-1.7,4.9-3.6,9.7-5.3,14.5-.4,1.1-.9,2.3-1.3,3.4.2,0,.4.2.7.3,1.9-4.6,3.9-9.2,5.6-13.8,1.6-4.2,2.9-8.6,4.3-12.9.8-2.7,1.5-5.4,2.2-8.2.3-.4.6-.6,1-.9.3-.3.4-.6.6-1,.4-.6.7-1.2,1-1.7,0,0,0,0,.1,0,.2-.1.4-.3.6-.4.1,0,.2-.2.2-.3,0,0,0,0,.2,0,.8.4,1.6.8,2.1,1.1-.1-1.4-.2-3-.3-4.6,0,0,0,0,.1,0,.2-.3.3-.5.4-.9.7-1.2,1.4-2.2,2.2-3.3,1,.1,1.8.2,2.7.3,14,1.3,28,2.6,42,4,16.7,1.6,33.5,3.4,50.2,5.1,11.2,1.1,22.3,2.3,33.5,3.4,8.6.9,17.3,1.8,25.9,2.6,3.3.3,4.8-1.4,4.2-4.6-.4-1.8-1-3.6-1.5-5.4-1.6-5.2-5-7.9-10.6-8.2-7.3-.5-14.6-1.5-21.9-2.3-12.3-1.4-24.6-2.7-37-4.1-9.3-1-18.5-1.9-27.8-2.9-9.5-1-19-2.1-28.6-3.1-10.7-1.1-21.4-2.1-32.1-3.3.1-.9.2-1.6.3-2.3,2.5-11.2,5-22.3,7.6-33.5,3.2-13.6,6.5-27.1,9.7-40.8-.2-.1-.7-.5-1.3-.6-6.6-2.1-13.1-4.6-19.7-6.3-15.2-4-30.8-6.7-46.5-8.3-9.9-1-19.7-1.9-29.6-1.6-2.7,0-2.7.1-3.2,2.8-1,5-2,10-3,15-.2.9-.5,1.5-1.6,1.5-5.3.4-10.5.8-15.7,1.4-4.1.5-8.2,1.2-12.3,1.9-2.3.4-2.5.9-1.9,3.2,1,4.2,2.1,8.4,3.1,12.6,3.4,15.1,6.8,30.2,10.2,45.4-.5,1.2-.9,2.3-1.4,3.5-.4.8-.7,1.5-1.1,2.2-8.8-.9-17.4-1.8-26-2.7-7.1-.7-14.2-1.5-21.3-2.3-9-1-18.1-2.1-27.1-3.1-8.2-.9-16.5-1.8-24.8-2.7-9.9-1.1-19.8-2.2-29.7-3.3-2.4-.3-3.2.5-3.1,3,0,.6.1,1.3.4,1.9,1.5,3,3,6,4.7,8.8,1.3,2.1,3.5,3.3,6.1,3.6,5.6.6,11.1,1.2,16.7,1.8,12.1,1.3,24.2,2.6,36.4,4,12,1.3,23.9,2.7,35.9,4,7.9.9,15.8,1.7,23.7,2.5,3,.3,6.1.6,9.2,1,.1,0,.2.1.2.2,0,1.1-.2,2-.2,3,0,8-.1,16.1.9,24.1.8,6.7,2.1,13.2,4.8,19.5,0,.3,0,.4-.1.6-.6.6-1,1.3-1.6,1.9-.3.3-.6.6-.8.8,0,.1.2.3.3.4,1.1-.4,2.2-.8,3.4-1.3.2,0,.4,0,.5,0,.1.2.2.3.3.4.4.8.8,1.5,1.2,2.1,1,1.5,2.1,3,3,4.6-.8.4-1.4.8-2.1,1-7.8,2.8-15.2,6.6-22.1,11.3-8.9,6.1-16.7,13.2-22.6,22.3-8,12.4-14.8,25.4-20.6,39-1.7,4-3.2,8-4.8,12.1-.3.8-.5,1.6-.8,2.4M277.8,288.4c0,.2,0,.3.1.5.1-.3.3-.6.4-.9-.2,0-.3.2-.5.4Z"/>
    <path class="st31" d="M408.7,377.9c-19.6,0-39.2,0-59-.1.5-2.1,1.3-4.1,1.9-6.1,1-3.8,2-7.5,2.8-11.3,1.1-5.3,2.2-10.6,3.1-16,.6-3.5.9-7.1,1.3-10.7.1-.9.2-1.9.3-2.8-.2,0-.4,0-.6,0-1.7,16.1-4.4,31.9-9.9,47.2-9.3,0-18.6,0-28-.1,0-2.6,0-5.1.2-7.6.5-6.1,1.1-12.2,1.5-18.3.3-4.6.5-9.2.6-13.8.2-5.9.2-11.8.3-17.7,0-.3-.1-.7-.2-1-.3.2-.4.4-.4.6-.2,7.2-.4,14.3-.7,21.5,0,.5,0,1,0,1.4-.4,6.1-.8,12.1-1.3,18.2-.1,1.6-.3,3.3-.4,4.9-.4,4-.8,8-1.2,12-43.8,0-87.6,0-131.5-.1.3-2.6.7-5.1,1.2-7.6,1.2-5.7,2.5-11.4,3.7-17.1.6-3.1,1.1-6.2,1.8-9.4.2,0,.3-.1.4-.2,1.1-3.9,2.1-7.7,3.2-11.6,1.1-3.8,2.4-7.7,3.6-11.5,1.2-3.6,2.4-7.1,3.7-10.7.6-1.9,1.2-3.8,1.9-5.8.6-.6,1.2-1,1.8-1.5,0,0,0,0,0,0,0,0,0,.2,0,.3,0,.3,0,.4,0,.6,0,.2.2.2.3.4,0,.9,0,1.6,0,2.5,0,.6,0,1,.1,1.6,0,.8.2,1.5.2,2.2,0,.8.3,1.5.5,2.3.1.7.2,1.2.3,1.9,0,.6.1,1.1.3,1.5.5,1.1,1,2.2,1.5,3.4.1.4.3.8.4,1.2,0,.5-.2,1,0,1.3.9,2.8,1.9,5.6,2.8,8.4,0,0,0,0,.1.2.1.6.2,1,.2,1.6-.1,2.4-.2,4.7-.2,7.1,0,.2,0,.4,0,.6-1,2.3-.7,4.7-1.7,7.1-1.1,2.7-2.3,5.4-3.6,8-.6,1.3-1.2,2.7-1.7,4,0,0,0,0-.1,0-1.3.9-2.5,3.8-2,5.4.8-1.2,1.5-2.2,2.2-3.2.2-.1.2-.2.4-.3.2-.2.4-.4.5-.7.2-.3.4-.4.7-.5.6,0,1.1.2,1.8.3,0,0,.2.3.3.7.2-.1.4-.2.6-.4.3-1,.5-2.1.8-3.3.9-1,1.8-1.9,2.8-2.8,2-1.7,3.9-3.5,5-6.1,1.5-1.1,2.1-2.5,2.4-4.2,0,0,0,0,.1,0,.6-.6,1-1.5,1.7-1.8,1.3-.6.9-1.1.1-1.8,0-.2,0-.4.2-.5.5-.4,1-.8,1.2-1.3.6-1.2,1.1-2.4,1.5-3.6.3-.9.4-1.8.6-2.9.1-.7.2-1.2.5-1.8.5-1.1,1-2.1,1.4-3.2,0,0,0,0,0,0,.2,0,.2-.2.2-.4,0-.3,0-.6.1-.8.4-.8.6-1.5.9-2.3,0-.2,0-.4.1-.5.4-.8.8-1.5,1.1-2.4.1-.5.2-.8.4-1.2.1-.2.2-.4.2-.6,0,0,0,0,.1,0,.6.2,1.1.5,1.5.5,3.6,0,7.3,0,10.9-.3,2.9-.2,5.7-.9,8.6-1.3.2,0,.3-.3.8-.7-.8,0-1.3-.1-1.7,0-5.1,1.6-10.3,1.2-15.5,1.1-1.4,0-2.8-.8-4.2-1.4,0-.5,0-.8.2-1.1.2-.9.4-1.7.5-2.7,0-.2,0-.4.1-.6.4-1,.5-2,.9-2.8.3-.5,1-1.2,1.5-1.2,3.5-.1,7,.2,10.4-.2,5.9-.7,11.8-2,17.3-4.3.3-.1.5-.5.7-.8,0,0,0,0,.1,0,1.4-.1,2.7-.4,3.4-1.7,0,0,0,0,.1,0,.3-.1.4-.3.7-.5,10.7-5.6,19.9-12.9,26.5-23,2.8-4.2,5.5-8.5,5.7-13.8,2.3.7,4.5,1.2,6.5,2.2,6.1,3,12,6.2,18.1,9.3,4.3,2.2,8.7,4.2,13.1,6.2,1.4.6,2.8,1.2,4.2,1.7,0,0,0,0,0,.1,1.6,1,3.1,1.9,4.6,2.8,1.6,1,3.3,1.9,5,2.9,4.5,3.3,9,6.5,13.4,9.9,5.3,4.1,10.4,8.5,14.6,13.6,2.5,3.1,5.1,6.1,7.3,9.4,4,6.2,6.9,13,9.5,19.9,3.2,8.6,6,17.4,7.8,26.5.6,3.2,1.1,6.4,1.6,9.5M205.3,364.4c0,.2,0,.4-.1.6.1,0,.3,0,.4,0,0-.2,0-.4-.3-.6Z"/>
    <path class="st25" d="M179.5,377.9c-15,0-30.1,0-45.2-.1,0-1.1,0-2.2.3-3.1.9-2.5,1.9-4.9,2.9-7.3,1.3-3.2,2.5-6.4,4-9.5,2.4-5.1,4.9-10.1,7.6-15.1,2-3.7,4.2-7.3,6.3-10.9,1.7-3,3.4-6,5.3-8.8,1.6-2.4,3.5-4.7,5.5-6.8,3-3.1,6.1-6.1,9.3-9,1.8-1.6,3.8-2.9,5.8-4.2,3-1.9,6-3.9,9.2-5.6,2.9-1.6,5.8-3,8.8-4.3,2.4-1,4.9-1.8,7.4-2.6,0,0,0,0,0,0,.1.1.2.2.4.3.7.7,1.4,1.3,2,2.1.2.3.4.4.7.6,0,0,0,.2,0,.3.3.6.6,1,.9,1.6,0,.3,0,.4-.1.6-.8.8-1.5,1.7-2.2,2.6-.7,1.8-1.2,3.6-1.9,5.4-.8,2-1.6,4-2.3,6-1.6,4.5-3.1,8.9-4.6,13.4-1.4,4.1-2.7,8.2-3.9,12.4-.8,2.6-1.3,5.2-2,7.9-1.2,5-2.5,9.9-3.5,14.9-1.3,6.4-2.5,12.8-3.7,19.3-1.8,0-3.6,0-5.6-.1.2-5.9.5-11.6.8-17.3.2-3.9.4-7.7.6-11.6,0-.3-.2-.5-.3-.8-.5,3.1-.9,6.1-1.1,9.1-.1,2,0,4.1-.2,6.1-.4,4.8-.8,9.7-1.2,14.5M182.4,342.4v-2.6c0,0-.2,0-.3,0v7.3c0,0,.2,0,.3,0,0-1.5,0-2.9,0-4.7Z"/>
    <path class="st17" d="M206.7,290.6c-2.5.9-5,1.6-7.4,2.6-3,1.3-6,2.7-8.8,4.3-3.1,1.7-6.2,3.7-9.2,5.6-2,1.3-4.1,2.6-5.8,4.2-3.2,2.9-6.3,5.9-9.3,9-2,2.1-3.9,4.4-5.5,6.8-1.9,2.8-3.6,5.9-5.3,8.8-2.1,3.6-4.3,7.2-6.3,10.9-2.6,5-5.1,10-7.6,15.1-1.5,3.1-2.7,6.4-4,9.5-1,2.4-2,4.9-2.9,7.3-.3.9-.3,2-.4,3.1-.4.1-.9.1-1.5.1.1-.8.4-1.6.7-2.4,1.6-4,3.1-8.1,4.8-12.1,5.8-13.6,12.6-26.6,20.6-39,5.8-9.1,13.6-16.2,22.6-22.3,6.9-4.7,14.3-8.4,22.1-11.3.7-.2,1.3-.6,2.2-1,.5.2.9.5,1.2.7Z"/>
    <path class="st17" d="M408.8,377.9c-.7-3.2-1.1-6.4-1.7-9.5-1.8-9.1-4.6-17.9-7.8-26.5-2.6-6.9-5.5-13.7-9.5-19.9-2.1-3.3-4.8-6.3-7.3-9.4-4.3-5.2-9.4-9.5-14.6-13.6-4.3-3.4-8.8-6.6-13.4-10,0-.3,0-.5,0-.7,2.2,1.5,4.4,2.8,6.4,4.4,7.1,5.3,14,10.8,20.2,17.1,7.6,7.7,12.8,16.9,16.9,26.8,4.6,11.3,8.1,22.9,10.6,34.9.4,2.1.7,4.2,1.1,6.4-.2.1-.5.1-.8.1Z"/>
    <path class="st34" d="M319.3,377.9c.3-4,.7-8,1-12,.2-1.6.3-3.3.4-4.9.4-6.1.8-12.1,1.3-18.2,0-.5,0-1,0-1.4.2-7.2.4-14.3.7-21.5,0-.2,0-.4.4-.6,0,.3.2.7.2,1,0,5.9-.2,11.8-.3,17.7-.1,4.6-.3,9.2-.6,13.8-.4,6.1-1.1,12.2-1.5,18.3-.2,2.5-.2,5-.4,7.6-.3.1-.7.1-1.1.1Z"/>
    <path class="st18" d="M348.7,377.9c5.4-15.2,8.1-31.1,9.8-47.2.2,0,.4,0,.6,0-.1.9-.2,1.9-.3,2.8-.4,3.6-.7,7.2-1.3,10.7-.9,5.3-2,10.7-3.1,16-.8,3.8-1.8,7.6-2.8,11.3-.6,2-1.3,4-2,6.1-.2.1-.5.1-.8.1Z"/>
    <path class="st34" d="M186.7,377.9c1.1-6.4,2.3-12.9,3.6-19.3,1-5,2.3-9.9,3.6-14.9.2,0,.3,0,.4,0-.6,3.1-1.1,6.2-1.7,9.3-1.2,5.7-2.5,11.4-3.7,17.1-.5,2.5-.9,5-1.3,7.6-.3.1-.5.1-.9.1Z"/>
    <path class="st18" d="M179.6,377.9c.3-4.8.7-9.7,1.1-14.5.2-2,0-4.1.2-6.1.2-3,.5-6.1,1.1-9.1.1.3.3.6.3.8-.2,3.9-.4,7.7-.6,11.6-.3,5.7-.6,11.4-.9,17.3-.3.1-.7.1-1.2.1Z"/>
    <path class="st4" d="M195,211.1c-3.4-15.1-6.8-30.2-10.2-45.3-1-4.2-2-8.4-3.1-12.6-.6-2.3-.4-2.8,1.9-3.2,4.1-.7,8.2-1.4,12.3-1.9,5.2-.6,10.5-1,15.7-1.4,1.1,0,1.4-.6,1.6-1.5,1-5,2-10,3-15,.5-2.7.5-2.7,3.2-2.8,9.9-.3,19.8.7,29.6,1.6,15.7,1.5,31.2,4.2,46.5,8.3,6.7,1.8,13.2,4.2,19.7,6.3.5.2,1,.5,1.3.6-3.3,13.7-6.6,27.2-9.7,40.8-2.6,11.1-5.1,22.3-7.6,33.5-.2.7-.2,1.5-.4,2.4-.2.2-.3.3-.5.4-.3-.1-.4-.2-.6-.3-.2-.2-.4-.2-.6-.4-1.8-1.3-3.7-1.2-5.8-1.1-2.5-.8-4.9-1.5-7.3-2.3-2.3-.7-4.7-1.5-7.1-2.2-.3,0-.4,0-.6,0-1.6-.5-3-1.1-4.5-1.5-20.4-5.8-41.1-8.3-62.3-5.8-4.5.5-8.9,1.2-13.1,3.5-.5,0-.9,0-1.3,0Z"/>
    <path class="st27" d="M206.7,290.7c-.3-.3-.6-.5-1.1-.8-1.1-1.5-2.2-3-3.2-4.5-.4-.6-.8-1.3-1.2-2.2.3-.4.6-.7.9-.9,2.5-1.6,4.9-3.1,7.5-4.7,1.2.3,2.3.5,3.3,1,4.3,2.1,8.5,3.9,13.4,2.2.1,0,.3,0,.5,0,2.8-.4,5.4-1.5,7.9-2.9,1.3,1,2.5,2,3.7,3,.2,0,.3.1.4.3,2.3,3.3,5.7,5.2,9.4,7.2-.2-.5-.2-.7-.3-.8-3.5-3.9-5.7-8.4-6.6-13.6-.7-4.2-3-7.4-6.9-9.5-.3-.2-.6-.4-1-.5,0,0,0,0,0-.1-.4-2.2-1.5-2.6-3.9-1.5-.2,0-.4,0-.5-.2-.3-.1-.6-.1-1.1-.1-.2,0-.4,0-.5-.2-.4-.1-.9-.1-1.4-.1-.2,0-.4,0-.5-.2-.1-.6-.3-1.1-.3-1.6,2.2-1.7,4.5-1.2,7-.8-.6-.8-1.3-1.6-2.1-1.8-2.4-.5-4.6,0-5.9,2.5-.7.8-1.2,1.5-1.9,2.3-2.3,1.5-4.7,2-7.3,1.2,0,0-.2,0-.2,0,0,0,0,.1-.2.1,0,0-.2,0-.3-.1,0-.2-.2-.2-.3-.4-2.6-1.3-3.5-3.3-3.2-5.9.4-3.4.9-6.7,1.6-10,.6-2.9,1.7-5.7,2.6-8.6.2-.4.4-.8.5-1.1,1.3-2.8,2.6-5.5,3.8-8.3.3-.7.3-1.6.4-2.4-.2,0-.3,0-.5,0-.6,1.6-1.2,3.1-2,4.6-.8-.9-1.4-1.9-2.3-2.6-.7-.7-1.7-1.4-2.9-.5-.2-.1-.4-.2-.6-.4-.3-.2-.5-.2-.8-.3,0,0-.1,0-.1-.1-.2-.9-2.4-2.1-3.2-2-.6,0-1.5,0-1.7-.4-.8-1.6-1.9-1.1-3.1-.8-.7.2-1.6.3-2.3.1-1.9-.4-3.8-.9-5.8-1.4-.2-.1-.2-.2-.2-.4,0-1.9.9-3.2,2.2-3,2.9.3,5.5-.2,8.1-1.7.3,0,.6,0,.8.1.3.1.6.2,1.1.2.2,0,.4,0,.5.1.3.2.7.4,1.1.5,1.2.4,2.3.8,3.4,1.4.1.4.3.6.4.8.2-.2.4-.4.6-.6.2,0,.4,0,.5.1.2,1.6,1.2,2,2.5,1.8,0,0,0,0,0,.1.4,1.1,1,1.1,1.7.3,1-1.1.3-3.6-1.1-4.2-1.8-.8-3.6-1.7-5.6-2.7,0,.1-.3.4-.6.7-.2-.1-.4-.2-.6-.4-.5-.5-1-.8-1.5-1.2.4-2,.3-2-1.7-2.2-1.2-.1-2.3-.5-3.5-.8,0-.3,0-.6,0-.6,1.4-.6,2.1-2.6,4.1-1.8.3,0,.6,0,.9-.1,1.3-.2,2.8-1,3.9-.6,1.9.7,3.7.4,5.7.4,1.2,0,2.7-1.5,3.6.5,1.2-.6,1.6-2,3.5-1.3,1.6.6,3.7-.2,5.6-.3.5,0,.9.3,1.4.5.4.1.7.4,1.1.4,3.8.2,7.7.5,11.5.7.5,0,1,0,1.4,0,1,0,2,0,3,0-1.2,1.5-2.5,2.6-3.7,3.7-1,1.1-2,2.2-3.7,2.2-.3,0-.6.5-1,.8-.2,0-.4,0-.6,0-1.8.3-3.8-.6-5.2,1.2-.2.2-.8.2-1.2.3-1.2.2-2.4.2-3.6.5-.8.2-.7.7,0,1,0,.3,0,.4,0,.7,0,1.1.2,2,.3,3.1.1.5.2.8.3,1.4,0,2.4,0,4.7,0,7,.2,0,.4,0,.7,0,0-2.4.2-4.8.3-7.2,2-1.9,4.3-2.5,7.1-1.5-.3-.6-.4-1-.4-1.1,1.9-.5,4.2-.4,5.4-1.5,1.8-1.6,3.7-1.9,5.8-1.9,2,0,3.9.2,5.9.3,2.3,0,4.7,0,7,0,.2,0,.4.1.5.3,1.1,1.3,1.9,1,3-.1,1.1-1.2,2.2-2.5,4.2-1.9.6.2,1.5-.6,2.3-1,0-.2,0-.3,0-.5,1,.1,1.5.6.8,1.6-.9,1.2-.7,2.4-.2,3.6.4,1.1.1,1.8-.9,2.1-1.6.6-3.2,1-4.8,1.5-1.9.6-3.9,1.1-5.7,1.9-.9.4-1.5.3-2.3.1-1.1-.3-2.4-.8-3.1.8-.5,0-.8,0-1.2-.1-1.4-.2-2.8-.4-4.1-.3-2.5.2-4.9.2-7.3-.7-1-.4-2.2-.6-2.7,1-.1.4-1.1.9-1.6.8-1.6-.3-3.1-.4-4.3.7-.9.9-1.8,1.9-2.5,2.9-.1.1.4.7.7,1.2.4,0,.8.1,1.2.2.6,1.3,1.3.5,2.1.3.6,0,1,0,1.5.1.9.1,1.7.2,2.7.2,1.2.1,2.3.2,3.4.4.1.2.3.3.4.4,0-.2.1-.3.4-.5,2.4,0,4.6-.4,6.7-1.3-.6-.2-1.2,0-1.8-.1-.4,0-.8-.3-1.1-.5,2-.5,3.8-1,5.8-1.5,2.8-.8,5.4-1.5,8.1-2.3,1.6-.7,3-1.3,4.6-2,1.3-.5,2.5-.9,3.6-1.4.8-.4,1.6-1,2.4-1.5,1-.6,1.6,0,1.7.8.2,1.1,0,2.1,0,3.2.1,1.4.3,2.9.5,4.3,0,.1.3.2.5.5,0,2.8,0,5.5,0,8.2,0,.1,0,.2,0,.4,0,1.1,0,2.1,0,3.1-.3.6-.6,1-.7,1.5,0,.4.2.9.5,1.1.3.2,1,.2,1.3,0,1.2-1,1.6-5.3.7-7,0-.4,0-.7.1-1.1.5-.5.7-1-.3-1,0-.2,0-.4.1-.6.5-1.4.9-2.8,1.3-4.2,0,0,0,0,.1,0,.8-.3,1.4-.5,1.8-.7.2-.8.2-1.3.5-1.8.5-.9.9-1.9,1.6-2.7.3-.5,1-.8,1.5-1,.6-.2,1.3-.3,2-.5-.3-.7-.5-1.2-.6-1.4.6-.8,1.2-1.5,1.7-2.1.8-1,3.1-.8,3.5.3-3.4,1.3-4.8,4.2-5.6,7.3-.4,1.6,0,3.4-.5,5-1.2,4.4-1.3,9.1-3.9,13.1,1.3.2,1.6,0,2.3-1.3.9-1.5,1.3-3,1.3-4.9,0-2.7.8-5.4,1.2-8.2,2,1.3,4.9,1.8,5.5,4.4.7,3.2-.1,6.2-4.3,6.9,2,1.2,3.3.8,4.7-1.4,2-3,1.6-7.4-.9-10-1.9-1.9-2-2.3-.8-4.7.7-1.4,1.5-2.8,2.4-4.6-3.8,1.8-3.6,5.4-4.8,8.2-.2,0-.4-.1-.5-.2-1-.8-.7-1.8-.4-2.8.6-2.4,1.9-4.6,4.3-5.6,2.8-1.1,6.4.6,6.9,3.9.3,1.8.3,3.7,0,5.5-.6,2.7-1.6,5.4-2.6,8.1-.7,1.1-1.3,2.1-2,3.3.6.4,1,.6,1.3.8-.2,1-.3,1.8-.5,2.7,0,0,0,0-.1,0-.5-.3-.8-.5-1.1-.6-.5.7-.9,1.3-1.5,2.2,0,0,0,.5,0,1-3.7,3.8-7.5,7-13.4,6.5,1,.6,2.1,1.2,3.3,1.8-.4,1.7-.8,3.6-1.3,5.3-1,3.2-2.1,6.4-3.3,9.5-1.1,2.6-2.5,5.1-3.8,7.8-1.1,1.7-2.2,3.4-3.3,5-.2.2-.4.4-.6.7-2.7,3.3-5.6,6.3-9,8.9-4.4,3.3-9.3,5.4-14.7,6.8-2.9.2-5.7.4-8.6.6-.3,0-.4-.2-.6-.4-.2-.7-.4-1.3-.7-1.9-.1-.3-.2-.6-.2-.9.3-.1.5-.2.7-.3-.2-.2-.3-.4-.5-.8,0-.3,0-.4,0-.7-.4-1.7-1.4-2.2-3-2.1-.5-.5-1-.9-1.5-1.4-.1-1.4-.8-2-2.1-2.5-2-.8-4.5,0-6.2-2,.4-1.9.4-4.1,1.4-5.3.8-.9.6-1.6,1.1-2.5-.8,0-1.4,0-2.1,0-1.1-.1-2.1-.2-3.3-.3-.7,0-1.2,0-1.8,0,0,.1-.1.3-.2.4.7.7,1.3,1.4,2,2.2,0,.2,0,.3,0,.5,0,.2.1.3.3.5.2,1.4.5,2.7.7,4.1,0,.2,0,.2,0,.4-.8.3-1.6.6-2.4.7-1.1.1-2.2,0-3.3.3-1.2.3-2.2,1-3.3,1.5-.3.1-.8.2-.8.3-.1,1.1-.8.6-1.4.6,0,0,0-.1,0-.3-.2-.3-.5-.5-.7-.6-.6-.7-1.3-1.3-2-2-.2-.2-.3-.2-.4-.3,0,0,0,0,0,0M234.8,253.5c-.6-.7-1-1.5-1.7-2.1-.4-.3-1-.3-1.6-.4.1.5.1,1.1.4,1.5,1.9,2.6,3.7,5.1,1.3,8.4,0,0,0,0,.2.6.6-.5,1.3-.7,1.5-1.2,1-2.2,1.2-4.4-.1-6.8M288,248.2c1.1-.5,2.2-.9,3.3-1.4,0-.2-.2-.4-.3-.7-1.7.6-3.4,1.2-5.1,1.8,0,.2.1.4.2.6.5,0,1.1-.2,1.9-.3M262.4,223.7c-.2.4-.3.8-.5,1.2.2,0,.4,0,.7,0,0-.4,0-.8-.2-1.3M231.1,232.1s0,0,0,0Z"/>
    <path class="st7" d="M298.4,221.3c.1,0,.2-.1.4-.2,10.8,1,21.4,2.1,32.1,3.2,9.5,1,19,2,28.6,3.1,9.3,1,18.5,1.9,27.8,2.9,12.3,1.3,24.6,2.7,37,4.1,7.3.8,14.6,1.8,21.9,2.3,5.6.4,9,3,10.6,8.2.6,1.8,1.1,3.6,1.5,5.4.7,3.2-.9,4.9-4.2,4.6-8.6-.8-17.3-1.7-25.9-2.6-11.2-1.1-22.3-2.3-33.5-3.4-16.7-1.7-33.5-3.4-50.2-5.1-14-1.4-28-2.6-42-4-.8,0-1.7-.2-2.7-.4.1-1,.3-1.9.6-2.7,1.8-5.5,2.1-10.7-2-15.4Z"/>
    <path class="st6" d="M193.5,233.4c-3-.3-6.1-.6-9.1-1-7.9-.8-15.8-1.6-23.7-2.5-12-1.3-23.9-2.7-35.9-4-12.1-1.3-24.2-2.6-36.4-4-5.6-.6-11.1-1.3-16.7-1.8-2.6-.3-4.8-1.5-6.1-3.6-1.8-2.8-3.2-5.9-4.7-8.8-.3-.5-.3-1.2-.4-1.9-.2-2.5.6-3.2,3.1-3,9.9,1.1,19.8,2.2,29.7,3.3,8.2.9,16.5,1.7,24.8,2.7,9,1,18.1,2.1,27.1,3.1,7.1.8,14.2,1.6,21.3,2.3,8.6.9,17.3,1.8,26,2.8.4,1.4.7,2.7,1,4,0,0,0,0,0,0,0,0,0,.1,0,.2.1.2.2.4.3.7,0,1,.2,1.9.2,2.7,0,1,0,1.9,0,3,0,1.5-.1,2.9-.3,4.4-.2.4-.2.8-.3,1.1Z"/>
    <path class="st30" d="M193.9,232.2c0-1.4.1-2.8.3-4.4.2-1.2.3-2.2.4-3.3.4.2.7.5,1.1.7.2,0,.3,0,.3,0,0,0,0,0,0,.1.8,2,2.5,2.8,4.5,3.4,1.5.5,2.9,1.1,4.4,1.6,1.8.2,3.6.4,5.4.6,1.2,0,2.2.2,3.2.4.3.3.6.6,1,.8,1.8.6,1.7.6.9,2.3-.6,1.3-1,2.6-1.6,4-1.2,3.6-2.3,7.1-3.5,10.6-.3.8-.5,1.8-1.1,2.4-2.8,2.9-3.5,4.6-2,7.2.8,1.4,2.3,2.4,3.4,3.6.4.5.7,1.1.9,1.7-1.5,1.2-3.4,2.1-4.4,3.5-2.8,4.1-5.3,8.5-8,12.7-2.7-6.2-4-12.7-4.8-19.3-1-8-1-16-.9-24.1,0-1,.1-1.9.3-3.1,0-.6,0-1,0-1.4Z"/>
    <path class="st13" d="M200.9,282.7c-.1,0-.3,0-.5,0-.5-.2-1-.3-1.4-.3-.4,0-.9.3-1.3.4.5-.6,1-1.2,1.6-1.9,1.2-1.2,2.2-2.4,3-3.7,1.7-2.5,3.2-5.1,5-7.5,1.8-2.4,4.1-4.2,7.1-5.2,2.3,0,4.5-.2,6.6-.2-.6,1.3-1.2,2.5-1.8,3.8,0,0,0,0-.2,0-1.3,1.4-2.5,2.8-3.8,4.2-.7.6-1.3,1.2-2,1.8-.1.1-.2.2-.4.3-.2,0-.3.1-.4.2-3.7,2.5-7.4,4.9-11.1,7.4-.2.2-.3.5-.5.8Z"/>
    <path class="st3" d="M266.1,294.5s0,0-.2.2c-1.8,2.6-3.4,5.1-5,7.7-.5.7-.8,1.6-1.3,2.5-4.4.9-8.7,1.7-13.1,2.5-.2,0-.2,0-.4,0-2.6,0-5,.1-7.5,0-.8-.4-1.5-.8-2.3-1.1-.1-.1-.2-.2-.3-.4,0-.3,0-.4.1-.5.5,0,.8,0,1.3,0,1.1,0,2.2,0,3.1-.2,3.2-.9,6.3-2.1,9.5-2.9,6.4-1.6,11.5-5.4,16.1-10,.3-.3.8-.4,1.2-.4-.4,1-.9,1.9-1.3,2.7Z"/>
    <path class="st24" d="M259.8,304.8c.4-.8.7-1.6,1.2-2.4,1.6-2.5,3.3-5.1,5-7.6-.6,1.4-1.3,2.8-2.1,4.3-.5.9-1,1.7-1.5,2.5,1.8,1.7,4.3.9,7-1.7.6-.2,1.2-.2,1.8-.5,3.2-1.3,6-3.2,8.7-5.4,1.8-1.5,3.9-2.5,5.3-4.5.9-1.3,2.5-2.1,3.7-3.2,3.3-2.9,6.2-6,8.4-9.8.9-1.5,1.6-3.2,2.6-4.7,1.7-2.7,2.3-5.5,2-8.6,0-.7,0-.7.6-.6.1.6.2.9.3,1.3,0,5.3-2.8,9.6-5.6,13.8-6.7,10.1-15.9,17.3-26.7,23-.3.2-.5.3-.7.5,0,0,0,0-.1,0-1.2.5-2.3,1.1-3.4,1.6,0,0,0,0-.1,0-2.3.7-4.4,1.4-6.5,2Z"/>
    <path class="st28" d="M273.1,281.4c1.2-2.6,2.6-5.1,3.7-7.7,1.3-3.1,2.3-6.3,3.3-9.5.6-1.8.9-3.6,1.3-5.3-1.2-.7-2.2-1.3-3.3-1.8,5.9.5,9.7-2.7,13.5-6.5.4-.2.7-.3.9-.3,0,.2,0,.4,0,.5-.3.3-.5.6-1,1-.6.8-1.1,1.4-1.6,2.1,0,0,0,.1-.2,0-.5.4-1,.8-1.4,1.3,0,0,0,0,0,0-.4.3-.6.6-.9.9,0,0,0,0,0,0-1,.7-1.9,1.5-2.8,2.2,0,0,0,0,0,0-.5.6-.9,1.3-1.2,1.9,0,.1,0,.2-.2.5-1.2,3.2-2.2,6.4-3.3,9.5,0,0,0,0,0,0-1,2-1.9,4-2.8,6-.1.1-.2.3-.5.6-1.1,1.8-2.1,3.5-3.1,5-.1-.2-.2-.4-.3-.5Z"/>
    <path class="st23" d="M193.4,221.1c-.3-1.3-.5-2.6-.8-4,.3-.9.6-1.6,1-2.3,2.3.1,4.5.2,6.6.5,2.5.4,5,1,7.5,1.6,1.1.3,2.1.8,3.2,1.2,0-.1,0-.2.1-.4-1.1-.5-2.2-.9-3.3-1.5-1.8-.9-3.5-1.8-5.2-2.9.3-.1.7-.3,1-.2,2.1.9,4.3,1.8,6.4,2.7.2,0,.3.2.6.3,1.8.9,3.3,1.8,4.9,2.6,1.1.6,1.7,1.4,1.4,2.7,0,.2-.6.3-.9.4,0,0,0,0,0,0-.9-.7-1.7-1.2-2.5-1.8-.1,0-.3,0-.6,0-.5-.1-.7-.2-1-.3-1.1-.4-2.2-.8-3.4-1.3-.5-.2-.8-.4-1.1-.5-.1,0-.3,0-.6-.1-.4-.1-.7-.2-1-.2-.2,0-.5,0-.8-.1-.4-.3-.6-.5-.8-.5-2.9-.2-5.8-.5-8.7-.5-.6,0-1.4,1.3-1.7,2.1-.3.8-.1,1.8-.2,2.7M212,218.4h-.4s0,.1,0,.1c.1,0,.3,0,.4-.1Z"/>
    <path class="st21" d="M302.9,263.9c-.2-.3-.3-.7-.4-1.1,2.4.8,5,1.5,7.3,2.6,11.2,5.5,22.3,11.2,33.5,16.8.5.3,1,.6,1.5,1-1.4-.5-2.8-1-4.2-1.6-4.4-2-8.8-4.1-13.1-6.2-6.1-3-12-6.3-18.1-9.3-2-1-4.3-1.5-6.5-2.2Z"/>
    <path class="st33" d="M298.3,221.3c4.2,4.7,3.9,9.9,2.1,15.4-.3.8-.5,1.7-.7,2.7-.7,1.2-1.4,2.2-2.2,3.5-.2.4-.3.6-.5.8,0,0,0,0,0,0-.7,1.2-1.2,2.4-1.8,3.5,0,0,0,0-.1,0-.2,0-.2.2-.2.3-.1.1-.3.3-.5.4,0-.9.2-1.7.4-2.7-.3-.2-.7-.4-1.3-.8.6-1.1,1.2-2.2,2-3.1,0,.8-.3,1.5-.5,2.1.7-.3,1.1-.7,1.4-1.2.7-1.3,1.4-2.6,2.2-4,.7-1.5,1.7-2.9,1.7-4.4.1-2.9.4-5.8-.9-8.8-.7-1.8-1.5-1.4-2.7-1.5-.2,0-.2-.2-.2-.4.4-.8.8-1.4,1.3-2.1.2,0,.3.2.6.3Z"/>
    <path class="st24" d="M290.1,253.8c.5-.7,1-1.3,1.5-2-.6,2.7-1.3,5.4-2.1,8.1-1.3,4.3-2.7,8.6-4.3,12.9-1.7,4.7-3.7,9.2-5.6,13.8-.2,0-.4-.2-.7-.3.5-1.1.9-2.3,1.3-3.4,1.8-4.8,3.6-9.7,5.3-14.5,1.1-3.1,2.1-6.3,3.1-9.4.3-1,.6-1.9.8-2.9,0-.2-.5-.5-1-.8.3-.5.7-.9,1.3-1.3.2,0,.3,0,.3,0,0,0-.1-.1-.2-.2Z"/>
    <path class="st19" d="M202.5,213.4c1.7.9,3.5,1.9,5.2,2.8,1.1.5,2.2,1,3.3,1.5,0,.1,0,.2-.1.4-1.1-.4-2.1-.9-3.2-1.2-2.5-.6-5-1.2-7.5-1.6-2.1-.3-4.2-.4-6.5-.6.3-1.2.7-2.3,1.2-3.5.5,0,.9,0,1.4,0,2.1.8,4.1,1.5,6.1,2.2Z"/>
    <path class="st19" d="M214.3,264.5c-2.9,1-5.2,2.8-7,5.2-1.8,2.4-3.3,5-5,7.5-.9,1.3-1.9,2.4-2.9,3.6-.1-.1-.1-.3-.1-.6,2.6-4.4,5.2-8.7,8-12.8,1-1.5,2.8-2.3,4.5-3.5.9-.4,1.6-.7,2.3-1.1.1,0,.2.1.2.3,0,.5,0,.9,0,1.3Z"/>
    <path class="st24" d="M273.5,282c1-1.7,2-3.3,3-5.1,0,.4.3.9,0,1.3-1,1.8-2.1,3.6-3.1,5.3-1.6,2.8-3.2,5.6-4.9,8.4-.6,1-1.5,1.7-2.4,2.6.3-.9.7-1.7,1.3-2.8.8-1.3,1.4-2.5,2.2-3.7.3-.4.5-.7.8-1.2,1.1-1.7,2-3.2,3-4.8Z"/>
    <path class="st20" d="M200.9,282.8c.1-.4.2-.7.5-.9,3.7-2.5,7.4-4.9,11.1-7.4,0,0,.2-.1.4,0,.2.2.2.2.1.4-.8.8-1.5,1.4-2.3,2.1-.5.2-.8.4-1.2.6-2.5,1.6-4.9,3.1-7.4,4.7-.3.2-.6.4-.9.8-.1,0-.3,0-.4-.2Z"/>
    <path class="st21" d="M354.4,288.2c0,.3,0,.4,0,.7-1.6-.8-3.3-1.7-4.9-2.7-1.5-.9-3.1-1.8-4.6-2.8,3.1,1.5,6.3,3.1,9.5,4.8Z"/>
    <path class="st24" d="M280,270.2c1-3.1,2-6.2,3.2-9.4-.4,1.9-.8,3.9-1.4,5.9-.4,1.2-1.1,2.3-1.8,3.5Z"/>
    <path class="st24" d="M277.1,276.3c.8-2,1.7-4,2.6-6,.3,2.1-1.1,3.7-1.7,5.6,0,.2-.5.3-.9.4Z"/>
    <path class="st33" d="M292.7,250.1c-.3.1-.5.2-.9.3-.2-.4-.2-.9-.2-.9.6-.9,1-1.5,1.5-2.2.3.2.6.4,1.1.6-.2.6-.5,1.1-1,1.8-.3.2-.4.3-.6.4Z"/>
    <path class="st24" d="M295.4,247.2c.4-1.2,1-2.3,1.6-3.5.2,1.6.3,3.2.5,4.6-.5-.3-1.2-.7-2.1-1.1Z"/>
    <path class="st20" d="M197.6,282.7c.6-.2,1-.4,1.4-.4.4,0,.8.1,1.3.3-1.1.5-2.2.9-3.2,1.4,0-.1-.2-.3-.3-.4.2-.3.5-.6.8-.8Z"/>
    <path class="st24" d="M284.8,258.4c.8-.8,1.6-1.5,2.6-2.3-.8.7-1.6,1.5-2.6,2.3Z"/>
    <path class="st24" d="M283.4,260.3c.2-.6.6-1.3,1.1-1.9-.2.6-.6,1.3-1.1,1.9Z"/>
    <path class="st20" d="M193.8,232.3c0,.3.1.7,0,1.2-.1,0-.2,0-.3,0,0-.4,0-.8.2-1.2Z"/>
    <path class="st24" d="M277.9,288.3c.2-.2.4-.3.5-.4-.1.3-.3.6-.4.9,0-.2,0-.3,0-.6Z"/>
    <path class="st24" d="M287.6,256.1c.1-.3.4-.6.7-1-.1.3-.4.6-.7,1Z"/>
    <path class="st24" d="M292.7,250.2c.2-.2.3-.3.5-.4,0,.3-.2.6-.5.9,0-.1,0-.3,0-.5Z"/>
    <path class="st24" d="M297.2,243.7c0-.2.1-.4.3-.7,0,.2-.1.5-.3.7Z"/>
    <path class="st24" d="M295,247.5c0,0,0-.2.1-.2,0,0,0,.2-.1.2Z"/>
    <path class="st17" d="M208.6,298.7c.7-.8,1.4-1.7,2.2-2.4.3.6.5,1,.7,1.5,0,0,0,0-.1,0,0,.3,0,.7,0,1.1-.3.7-.9,1.2-.9,1.8,0,2.8-.1,5.6.2,8.4.6,4.7,1.9,9.2,4.2,13.5.3.5.6.9.9,1.3.1.5.2,1,.3,1.5.9,4,1.3,7.8.5,11.7-.1-1.6-.3-3.2,0-4.7.3-2.2-.2-4.2-1.4-6.2,0,0,0-.2,0-.3-.1-.1-.2-.2-.3-.4,0-.2,0-.4,0-.6-.3-.7-.6-1.3-.9-1.9,0-.3,0-.6,0-.9-.2-.3-.4-.4-.6-.7-.3-.4-.6-.6-.9-.9-.1-.3-.2-.7-.4-1.2-.2-1.2-.3-2.1-.7-3-.3-.7-.8-1.2-1.2-1.9-.1-.5-.2-1.1-.3-1.8-.1-.9-.3-1.6-.5-2.3,0-.7-.2-1.3-.2-2.2,0-.7,0-1.2-.1-1.6,0-.8,0-1.5,0-2.5,0-.3-.2-.4-.3-.4,0-.1,0-.3,0-.6,0-.2,0-.3,0-.4,0,0,0,0,0-.1,0-1.3-.2-2.5-.4-3.7Z"/>
    <path class="st14" d="M208.6,360.7c0,0-.1.2-.4.3-.1-.7,0-1.5,0-2.2,0,0,0,0,.1,0,.2-.2.4-.3.5-.5,1.3-2.1,2.5-4.2,3.8-6.1.2.7.4,1.2.7,1.8.6-.3,1.2-.6,1.8-.9.2,0,.3-.3.4-.4,1.6-1.7,3.5-3.4,4.9-5.3,1.3-1.9,2.2-4,3.3-6.1.4,0,.6,0,.8,0-.3.9-.6,1.7-1,2.4,0,0,0,0-.1,0-.9,1.4-1.7,2.8-2.4,4.1-1,2.5-2.9,4.3-4.9,6.1-1,.8-1.9,1.8-2.9,2.8-.4-.2-.6-.6-1-1.2-.9,1.4-1.7,2.6-2.4,3.9-.2.2-.4.3-.7.6-.3.3-.4.5-.5.7Z"/>
    <path class="st18" d="M194.3,343.7c-.2,0-.2,0-.4,0,.5-2.6,1-5.2,1.8-7.8,1.2-4.2,2.5-8.3,3.9-12.4,1.5-4.5,3.1-8.9,4.6-13.4.7-2,1.5-3.9,2.4-6,.2,0,.3,0,.4,0-.6,1.9-1.2,3.8-1.9,5.7-1.2,3.6-2.5,7.1-3.7,10.7-1.2,3.8-2.5,7.6-3.6,11.5-1.1,3.8-2.1,7.7-3.2,11.6,0,0-.2.1-.4.2Z"/>
    <path class="st14" d="M225.6,339.6c0,.1,0,.3-.1.5-.3.2-.6.3-.8.3,0-.4,0-.6,0-.9.2-.3.4-.6.6-1,.1-.3.2-.6.4-.9.3-.8.6-1.5.9-2.2,0,0,0,0,0,0,.5-1.1.8-2.1,1.2-3.2,0,0,0-.2,0-.3,0-.2,0-.4.1-.5.2-.2.4-.4.6-.7.7-2.1,1.2-4,1.9-6.1.4-.8.7-1.5.9-2.2,1-2.7,1.9-5.5,2.9-8.3.1-.8.2-1.5.2-2.3,0-.4,0-.6,0-.9,0-.2,0-.4,0-.7,0-.5,0-.8,0-1.2,0-.8,0-1.4.9-.7,0,1.4,0,2.7,0,4,0,.1,0,.3,0,.6-.2,1-.4,1.8-.5,2.6,0,.3,0,.7-.1,1.2-.2.8-.4,1.4-.5,2,0,0,0,0,0,0-.1.2-.2.4-.2.6-.1.3-.2.7-.5,1.2-.4.9-.8,1.6-1.1,2.4,0,.1,0,.3-.1.6-.4.9-.6,1.6-.9,2.3,0,.2,0,.5-.1.8-.2.2-.2.3-.2.4,0,0,0,0-.1,0-.5,1.1-1,2.1-1.4,3.2-.1.6-.2,1.1-.4,1.8-1.2,2.7-2.3,5.2-3.4,7.8Z"/>
    <path class="st26" d="M234.3,318.5c0-.6.2-1.2.4-1.9,1.5.4,2.9,1.1,4.3,1.2,5.2,0,10.4.5,15.5-1.1.4-.1.9,0,1.7,0-.5.4-.6.7-.8.7-2.9.5-5.7,1.1-8.6,1.3-3.6.3-7.3.2-10.9.3-.5,0-.9-.3-1.5-.5Z"/>
    <path class="st26" d="M235.6,312.1c-.1-1.3-.1-2.6,0-4,.2-.4.4-.5.6-.7.1,0,.2,0,.3,0,.8,0,1.5.1,2.2.1,2.4,0,4.9,0,7.5-.1.3,0,.4,0,.5,0,4.3-.8,8.6-1.6,13-2.5,2.2-.8,4.3-1.5,6.6-2.1-.1.3-.3.7-.6.8-5.5,2.4-11.4,3.6-17.3,4.3-3.4.4-6.9,0-10.4.2-.5,0-1.2.7-1.5,1.2-.4.9-.5,1.9-.9,2.8Z"/>
    <path class="st14" d="M215.3,326.2c1.1,1.9,1.6,3.9,1.4,6.1-.2,1.6,0,3.1,0,4.9,0,2.3-.2,4.4-.6,6.4-.4,2-1,4-1.6,6,0,.3-.7.4-1.1.5.3-.8.7-1.5.9-2.3.6-2.3,1.1-4.6,1.6-6.9,0-.4-.4-.8-.5-1.3,0-.1,0-.3.1-.5.1-2.5.1-4.8.2-7.1,0-.5-.2-.9-.2-1.6,0-1.5,0-2.9-.1-4.2Z"/>
    <path class="st26" d="M215.2,339.7c.3.3.7.8.6,1.2-.5,2.3-1,4.6-1.6,6.9-.2.8-.6,1.5-1,2.4-.3.8-.5,1.3-.7,1.9-1.3,2.1-2.5,4.2-3.8,6.3-.1.2-.3.3-.5.5.5-1.3,1-2.7,1.6-4,1.3-2.6,2.5-5.3,3.6-8,.9-2.3.6-4.8,1.7-7.1Z"/>
    <path class="st26" d="M215.3,326.1c0,1.4.1,2.7.1,4.1-.1,0-.2,0-.2,0-1-2.8-1.9-5.6-2.8-8.4-.1-.4,0-.8,0-1.3.3.1.6.4.9.9.2.4.4.5.6.7,0,.2,0,.5,0,.9.3.8.6,1.4.9,2,0,.1,0,.3,0,.6.1.2.2.3.3.4,0,0,0,.1,0,.2Z"/>
    <path class="st26" d="M209.9,359.4c.7-1.3,1.5-2.5,2.3-3.9.4.6.7,1,1,1.3-.2,1.1-.4,2.1-.7,3.2-.2.1-.4.2-.6.4-.2-.3-.3-.7-.3-.7-.7-.1-1.2-.2-1.8-.3M212.6,357.9s0,0,0,0Z"/>
    <path class="st26" d="M208.1,358.8c0,.7,0,1.5,0,2.2-.5,1-1.2,2-2,3.2-.5-1.6.7-4.5,2-5.4Z"/>
    <path class="st26" d="M207,304c-.1,0-.2,0-.3,0,.5-1.8,1.1-3.5,1.7-5.4.2,1.1.4,2.4.4,3.7-.6.6-1.2,1-1.9,1.6Z"/>
    <path class="st26" d="M225.7,339.6c1-2.5,2.1-5,3.3-7.6-.1.8-.2,1.8-.5,2.7-.4,1.2-.9,2.5-1.5,3.6-.2.5-.7.9-1.2,1.3Z"/>
    <path class="st26" d="M215.5,332c0,2.2,0,4.6,0,6.9,0-2.2,0-4.5,0-6.9Z"/>
    <path class="st26" d="M224.6,340.6c.2,0,.5-.2.8-.3.9.6,1.2,1.1,0,1.6-.7.3-1,1.2-1.7,1.8.2-.8.5-1.5.8-2.5,0-.3,0-.5,0-.6Z"/>
    <path class="st26" d="M210.2,314.4c.4.5.9,1.1,1.2,1.7.3.9.4,1.8.6,2.9-.5-1-1.1-2-1.5-3.1-.2-.4-.2-.9-.3-1.5Z"/>
    <path class="st26" d="M221.2,347.9c.7-1.4,1.4-2.7,2.3-4.1-.2,1.6-.8,3.1-2.3,4.1Z"/>
    <path class="st26" d="M229.5,330c.3-1,.8-2.1,1.3-3.2-.3,1-.8,2.1-1.3,3.2Z"/>
    <path class="st26" d="M266.5,302.8c1-.6,2-1.1,3.2-1.7-.6,1.3-1.8,1.6-3.2,1.7Z"/>
    <path class="st26" d="M232.4,322.7c.2-.7.6-1.5,1-2.2-.2.7-.6,1.5-1,2.2Z"/>
    <path class="st26" d="M209.4,310.3c.3.6.4,1.3.5,2.1-.3-.6-.4-1.3-.5-2.1Z"/>
    <path class="st26" d="M231.4,325.5c.2-.7.4-1.4.8-2.2-.2.7-.4,1.4-.8,2.2Z"/>
    <path class="st26" d="M235,315.3c0-.8.2-1.6.4-2.5,0,.8-.2,1.6-.4,2.5Z"/>
    <path class="st26" d="M209.1,306.4c.1.4.2.9.2,1.4-.2-.4-.2-.9-.2-1.4Z"/>
    <path class="st26" d="M205.4,364.4c.1.2.2.4.2.6-.1,0-.3,0-.4,0,0-.2,0-.4.2-.6Z"/>
    <path class="st26" d="M208.7,360.7c0-.2.2-.4.4-.6,0,.2-.2.4-.4.6Z"/>
    <path class="st26" d="M233.9,319.1c0-.1,0-.3.1-.5,0,.1,0,.3-.1.5Z"/>
    <path class="st26" d="M270,301.2c0-.1.2-.3.5-.4,0,.1-.2.3-.5.4Z"/>
    <path class="st26" d="M231,326.8c0,0,0-.2.2-.3,0,0,0,.2-.2.3Z"/>
    <path class="st26" d="M208.9,302.6s0,0,0,.2c0,0,0-.1,0-.2Z"/>
    <path class="st26" d="M208.9,303.6c0,0,.2,0,.2.2,0,0-.1,0-.2-.2Z"/>
    <path class="st22" d="M209.9,294c.5-.1,1.3.3,1.4-.7,0-.1.5-.2.8-.3,1.1-.5,2.2-1.2,3.3-1.5,1-.3,2.2-.1,3.3-.3.8-.1,1.6-.4,2.4-.7.2-.2.2-.3.3-.5.2-.3.4-.4.6-.6.4.5.6.9.9,1.3,1.7,1.8,4.2,1.1,6.2,1.8,1.3.5,2,1.1,2,2.5-.3.1-.4.2-.6.1,0,0-.2,0-.2-.2-1.9-2-4.2-2.5-6.9-2.3-.5,0-.8,0-1.1,0,0,0-.2,0-.3,0,0,0,0,0-.1,0-.4,0-.6,0-1,0-.3,0-.5,0-.9,0-1.6-.8-2.8,0-4.2.7-1.7.7-3.4,1.4-5,2.1-.3-.5-.6-.9-.9-1.5Z"/>
    <path class="st9" d="M220.2,292.7c.2,0,.4,0,.8,0,.5,0,.8,0,1.1,0,0,0,0,0,0,0,0,0,.2,0,.2,0,.3,0,.7,0,1.2.1.7.5,1.2.8,1.6,1.1-1.7,0-3.3-.3-4.9-.2-.6,0-1.1.6-1.8.9-.7.2-1.3.4-1.9.6-1.7.8-3,2.3-5,2.6-.2-.5-.3-.9-.6-1.5,0-.2,0-.4,0-.7,1.7-.8,3.3-1.4,5.2-2.1,1.1,0,2,.1,2.9,0,.4,0,.8-.5,1.3-.7Z"/>
    <path class="st18" d="M182.4,342.5c0,1.6,0,3.1,0,4.5,0,0-.2,0-.3,0v-7.3c0,0,.2,0,.3,0,0,.9,0,1.7,0,2.7Z"/>
    <path class="st22" d="M209.2,293.1c.2,0,.4.2.6.5-.2,0-.4-.2-.6-.5Z"/>
    <path class="st17" d="M206.7,290.7c0,0,.2,0,.3.2,0,0-.2,0-.3-.2Z"/>
    <path class="st33" d="M202.5,213.3c-2-.6-4-1.3-6-2.1,4-2.4,8.5-3.1,12.9-3.6,21.2-2.5,41.9,0,62.3,5.8,1.5.4,2.9.9,4.5,1.6.2.5.4.9.5,1.3,0,.2,0,.4,0,.6-.2,2.6-.4,5.1-.6,7.8,0,.5,0,.9,0,1.5,0,1.9-.1,3.6-.2,5.4-.2-.1-.5-.2-.5-.3-.2-1.4-.4-2.8-.5-4.3,0-1.1.1-2.2,0-3.2-.1-.9-.7-1.5-1.7-.8-.8.5-1.6,1.1-2.4,1.5-1.1.5-2.3.9-3.7,1.3-.7,0-1.2,0-1.7.2-1.6.4-3.2,1-4.8,1.1-1.3.2-2.7-.2-4.1-.3.6-1.6,1.9-1.1,3-.8.8.2,1.4.3,2.3-.1,1.8-.9,3.8-1.3,5.7-1.9,1.6-.5,3.2-1,4.8-1.5,1-.4,1.3-1,.9-2.1-.5-1.2-.7-2.4.2-3.6.7-1,.2-1.5-.8-1.6,0,.2,0,.3,0,.5-.8.3-1.7,1.1-2.3,1-2.1-.6-3.1.7-4.2,1.9-1,1.1-1.9,1.4-3,.1-.1-.1-.4-.3-.5-.3-2.3,0-4.7,0-7,0-2,0-3.9-.3-5.9-.3-2.1,0-4,.3-5.8,1.9-1.2,1.1-3.5,1-5.4,1.5,0,0,.2.5.4,1.1-2.8-.9-5-.4-7.2,1.5-.4.1-.6,0-.9,0-.1-.4-.2-.7-.2-1.2,1.3-.7,2.5-1.3,3.7-1.8,4.8-1.8,9.6-3.8,14.8-4.2,2.9-.2,5.9-.3,8.9-.2,2,0,4.1.3,6.1.5-1.3-2.8-3.9-3.7-6.4-4.2-2.1-.4-4.5-.4-6.7,0-3.5.7-6.9,1.9-10.3,2.9.3-.3.6-.8.9-.8,1.7,0,2.6-1.1,3.7-2.2,1.1-1.2,2.4-2.2,3.7-3.7-1,0-2,0-3,0-.5,0-1,.1-1.4,0-3.8-.2-7.7-.4-11.5-.7-.4,0-.7-.3-1.1-.4-.5-.2-1-.5-1.4-.5-1.9.1-4,.9-5.6.3-1.9-.7-2.3.8-3.5,1.3-1-2-2.4-.5-3.6-.5-1.9,0-3.7.3-5.7-.4-1.1-.4-2.6.4-3.9.6-.3,0-.7.2-.9.1-2-.8-2.7,1.2-4.1,1.8,0,0,0,.3,0,.6,1.2.3,2.3.7,3.5.8,1.9.2,2,.3,1.7,2.2.5.4,1,.7,1.5,1.2-2.1-.8-4.2-1.7-6.4-2.6-.3-.1-.6,0-1,.2Z"/>
    <path class="st2" d="M276.2,226.1c0-.4,0-.8,0-1.4.2-.8.3-1.5.4-2.2.1-1.1.2-2.3.4-3.4,0,0,0,0,0,0,0,0,0,0-.1-.2,0-.8-.1-1.5-.2-2.2,0-.1,0-.3,0-.6.1-.5.2-.9.2-1.3,2.3.7,4.7,1.5,7,2.2,2.4.8,4.8,1.5,7.2,2.4-.9.5-1.8.9-2.8,1.2-.6.2-1.3.2-2.4.4-1.9,3-4.1,6.4-6.4,9.8-.1,0-.2.2-.2.3-.1.1-.2.2-.4.3-.7.4-1.3.8-1.9,1.3-.2-1.4-.4-3-.6-4.6-.1-.7-.3-1.5-.4-2.2Z"/>
    <path class="st33" d="M279.7,230.9c2.2-3.4,4.4-6.9,6.3-9.8,1.1-.2,1.8-.2,2.4-.4,1-.3,1.9-.7,2.9-1.2,2-.1,4-.3,5.7,1.1-.5.1-1.1.2-1.5,0-1.2-.3-2.7.5-3,1.6-.5,0-.8,0-1.2,0-.6-1.1-2.9-1.3-3.6-.3-.5.7-1.1,1.3-1.7,2.1.1.2.3.7.6,1.4-.7.2-1.4.2-2,.5-.6.2-1.2.5-1.5,1-.6.8-1.1,1.8-1.6,2.7-.2.5-.3,1-.5,1.8-.4.2-1,.4-1.8.6-.1-.2-.1-.4,0-.5,0,0,.2-.2.3-.3.2-.2.2-.2.2-.4Z"/>
    <path class="st27" d="M292.7,222.3c.1-1.1,1.7-1.9,2.8-1.6.5.1,1,0,1.6,0,.3,0,.4.1.6.3-.4.7-.8,1.4-1.3,2.2-.6-.1-1-.3-1.5-.6-.1-.3-.2-.5-.3-.7,0,.2-.2.3-.4.5-.6,0-1,0-1.5,0Z"/>
    <path class="st19" d="M276.9,214.9c0,.4,0,.8,0,1.2-.2-.3-.3-.6-.5-1.1.2-.1.3-.1.5-.1Z"/>
    <path class="st1" d="M294.9,222.6c.5.2.9.4,1.5.6.1.1.2.2.4.4,2.1,2.3,2.9,4.8,2.6,7.7-.3,2.3-.6,4.6-1,7-.7,1.3-1.4,2.6-2.1,3.9-.3.5-.7.9-1.4,1.2.2-.7.4-1.3.6-2.1.9-2.8,1.9-5.5,2.5-8.2.4-1.8.3-3.7,0-5.5-.5-3.3-4.1-5-6.9-3.9-2.4.9-3.6,3.1-4.3,5.6-.2.9-.6,2,.4,2.8.1,0,.3.1.5.2,1.2-2.8,1.1-6.4,4.8-8.2-.9,1.8-1.7,3.1-2.4,4.6-1.2,2.4-1.1,2.8.8,4.7,2.5,2.5,2.9,6.9.9,10-1.4,2.2-2.7,2.6-4.7,1.4,4.2-.8,4.9-3.8,4.3-6.9-.5-2.6-3.4-3.1-5.5-4.4-.5,2.8-1.2,5.5-1.2,8.2,0,1.8-.4,3.3-1.3,4.9-.7,1.2-1,1.4-2.3,1.3,2.6-4,2.6-8.7,3.9-13.1.4-1.6.1-3.4.5-5,.8-3.1,2.2-6,5.6-7.3.5,0,.8,0,1.3,0,.6,0,1,0,1.6,0,.4.1.5.2.7.2Z"/>
    <path class="st12" d="M240.8,215.9c3.5-1,6.9-2.2,10.4-2.9,2.1-.4,4.5-.5,6.7,0,2.6.5,5.1,1.4,6.4,4.2-2-.2-4.1-.5-6.1-.5-3,0-5.9,0-8.9.2-5.2.4-10,2.4-14.8,4.2-1.2.5-2.4,1.1-3.7,1.7-.2-.9-.3-1.9-.3-3,.7.4,1.2.5,1.9-.2.2-.1.4-.2.6-.3.2-.1.4-.2.7-.3,2.3-1,4.4-1.9,6.6-2.8.1,0,.3,0,.5,0Z"/>
    <path class="st16" d="M209.7,277.6c.2-.2.6-.4,1.2-.6,1.9-.2,3.6-.5,5.3-.5,1.7,0,3.3.5,5,.5,4,0,8,0,12.1,0,.5.3.9.6,1.3.8-2.4,1.5-4.9,2.6-7.8,3-.2,0-.3,0-.5,0-4.9,1.7-9.2,0-13.4-2.2-1-.5-2.1-.7-3.3-1Z"/>
    <path class="st9" d="M234.5,264.5c3.9,1.9,6.1,5.1,6.9,9.4.9,5.2,3.1,9.7,6.6,13.6,0,.1.1.3.3.8-3.7-2-7-3.8-9.3-7.2,0-.1,0-.2.2-.2.5.3.8.5,1.2.8.8.6,1.7,1.2,2.7,1.9-1.2-3.8-2.4-7.1-3.4-10.6-.7-2.4-1.7-4.6-3.8-6-.9-.6-1.9-1.1-2.9-1.5-1.3-.6-2.6-1-3.9-1.6.4-.4.9-.6,1.4-.9,1.1.4,2,.7,3,1.1,0,0,0,0,0,0,.3.2.6.4.9.5Z"/>
    <path class="st29" d="M214,262.7c-.6.4-1.3.8-2.1,1.1-.5-.5-.7-1.2-1.2-1.6-1.1-1.2-2.6-2.2-3.4-3.6-1.5-2.6-.7-4.3,2-7.2.6-.6.9-1.6,1.1-2.4,1.2-3.5,2.3-7,3.6-10.6.4-.1.6-.1.9-.1-.9,2.8-1.9,5.6-2.5,8.5-.7,3.3-1.2,6.7-1.6,10-.3,2.6.6,4.7,3.2,5.9M208.5,258.6c.3.4.6.7,1.2,1.3v-7.2c-2.3,1.4-2.7,3.1-1.2,5.9Z"/>
    <path class="st29" d="M269.6,288.1c-.7,1.2-1.4,2.3-2.1,3.5-.5.3-1,.3-1.3.6-4.6,4.6-9.6,8.4-16.1,10-3.2.8-6.3,2-9.5,2.9-.9.3-2,.1-3.1,0-.1-.2-.1-.4,0-.5,1.5-.2,2.8-.3,4.2-.6,1.4-.3,2.7-.8,4-1.2,5.2-1.5,10.1-3.5,14.5-6.8,3.4-2.5,6.3-5.5,9.1-8.8.2.3.3.5.3.8Z"/>
    <path class="st33" d="M233.3,232.2c-.2-.4-.7-1-.6-1.1.8-1,1.6-2,2.5-2.9,1.3-1.1,2.8-1.1,4.3-.7.5,0,1.5-.4,1.6-.8.5-1.6,1.7-1.4,2.7-1,2.4.9,4.8.9,7.3.7,1.4,0,2.7.1,4.1.4-.3.3-.6.4-1.1.4-.7,0-1.2,0-1.9,0-1.7,0-3.3,0-5,0-.1,0-.2,0-.4,0-.7,0-1.2.2-1.8.2-.2,0-.4.2-.8.3-1.2.1-2.2.3-3.4.4-2.9.7-5.4,2-7.5,4.1Z"/>
    <path class="st33" d="M193.4,221.1c0-.9-.1-1.9.2-2.7.3-.8,1.1-2.1,1.7-2.1,2.9,0,5.8.3,8.7.5.2,0,.4.3.7.5-2.4,1.6-5.1,2.1-8,1.8-1.3-.1-2.2,1.1-2.3,3-.2,0-.4,0-.5-.2-.1-.1-.2-.3-.3-.6,0-.2,0-.2-.2-.3,0,0,0,0,0,0Z"/>
    <path class="st15" d="M230.4,262.8c-.4.3-.8.5-1.4.9-1.4-.2-2.7-.5-4-.8-1.2-.2-2.3.9-1.9,2,.4,1,.9,2,1.5,2.9.5.8,1.1,1.6,1.5,2.5-.5.1-.8.2-1.2.3,0,0,0,0,0,0,.6-1.3-.5-.3-.7-.7-.8-1.1-1.5-2.1-2.2-3.2,0-.2,0-.4,0-.6.3-1,.4-1.8-.9-1.8-2.2.1-4.3.2-6.6.3-.2-.4-.2-.8-.2-1.2,0,0,.2,0,.4,0,.1,0,.3,0,.3,0,2.6.7,5,.3,7.4-1.2,1.2-.2,2.2-.3,3.2-.4.1,0,.3,0,.6.1.6,0,.9.1,1.3.1.1,0,.3,0,.6.2.5.1.7.1,1,.2.1,0,.3,0,.6.2.3.2.5.3.7.5Z"/>
    <path class="st33" d="M194.8,222.6c1.9.5,3.8,1,5.7,1.4.7.1,1.5,0,2.3-.1,1.2-.3,2.3-.8,3.1.8.2.3,1.1.4,1.7.4.8,0,3,1.1,3.1,2-.2.2-.4.3-.7.3-2.7-1-5.4-1.7-8.4-1.3-.6,0-1.2,0-1.7-.2-2-.7-4.1-1.2-5.1-3.3Z"/>
    <path class="st22" d="M244.1,233.5c-1.1-.1-2.2-.2-3.5-.4-1-.1-1.8-.2-2.6-.2-.4,0-.9,0-1.5,0-.6-.3-1-.4-1.3-.7,1.1-.5,2.1-1,3.2-1.4,1,.2,2,.4,3.1.6,1.5.2,2.9.3,4.5.5,1,0,1.8-.1,2.6-.2.4.2.8.4,1.2.5.6,0,1.2,0,1.8.1-2.1.9-4.3,1.3-6.8,1.3-.4,0-.5,0-.7,0Z"/>
    <path class="st19" d="M279.1,231.6c.1.1,0,.2,0,.5,0,0,0,.1,0,.2-.5,1.4-.9,2.8-1.3,4.1,0,.1,0,.3,0,.6,0,.5.1.7.2,1,0,.3,0,.6-.2,1.1-.2,1.1-.4,2-.4,2.9,0,.9-.3,1.4-1.2,1.4,0-1,0-1.9,0-3.1,0-.3,0-.3,0-.4,0-2.7,0-5.3,0-8.2,0-1.9,0-3.6.1-5.5.2.6.4,1.3.5,2,.2,1.6.4,3.2.6,4.6.6-.4,1.2-.9,1.9-1.3Z"/>
    <path class="st19" d="M224.9,270.6c.4,0,.7-.2,1.3-.2,2.5,1.8,4.9,3.4,7.2,5.3,1.7,1.4,3.3,3,5,4.6,0,.2,0,.4,0,.5-1.2-1-2.3-1.9-3.6-2.9-.5-.3-.9-.6-1.5-1-.7-.5-1.1-.8-1.7-1.3-1.9-1.3-3.8-2.6-5.7-3.9-.3-.2-.6-.4-.9-.6,0-.2,0-.4,0-.5Z"/>
    <path class="st15" d="M222,289.4c-.2.2-.3.4-.6.6-.1,0-.3,0-.3,0-.2-1.3-.4-2.6-.7-4.1-.1-.3-.2-.4-.2-.5,0-.1,0-.2,0-.6,0-.9,0-1.7.1-2.4,1,0,2,.2,3.1.4-.4,2.3-.9,4.4-1.4,6.5Z"/>
    <path class="st15" d="M252.3,227.2c.5,0,1.1,0,1.8,0,2.2,1.2,4.2.8,6.3.4.7-.1,1.4,0,2.1,0-2.6.7-5.3,1.5-8.1,2.2-.1-.4,0-.8,0-1.4-1.7,0-3.3,0-5,0-.5,0-.8,0-1.2-.2.8-.3,1.6-.5,2.4-.7.6-.1,1.2-.3,1.7-.5Z"/>
    <path class="st29" d="M234.9,253.6c1.2,2.3,1.1,4.5,0,6.7-.2.5-.9.7-1.5,1.2-.2-.5-.2-.6-.2-.6,2.4-3.2.7-5.8-1.3-8.4-.3-.4-.3-1-.4-1.5.5.1,1.2.1,1.6.4.7.6,1.1,1.4,1.8,2.2Z"/>
    <path class="st1" d="M215.1,238.2c-.3,0-.6,0-.9,0,.4-1.3.8-2.6,1.4-3.9.8-1.8.9-1.7-.9-2.3-.4-.1-.7-.5-.9-.8.3,0,.4,0,.7,0,.7.1,1.2.2,1.8.3.5-.2.8-.4,1.2-.6.6-1.6,1.2-3.1,1.8-4.7.2,0,.3,0,.5,0-.1.8-.1,1.7-.4,2.4-1.2,2.8-2.5,5.6-3.8,8.3-.2.3-.3.7-.5,1.1Z"/>
    <path class="st23" d="M249.5,228.6h4.9c-.1.6-.2,1-.2,1.4-1.8.6-3.6,1.1-5.6,1.6-1,0-1.8.2-2.7.1.3-.4.7-.8,1.2-1,1.5-.1,2.9-.3,4.2-.6-.7-.7-2.1,0-1.9-1.5Z"/>
    <path class="st20" d="M237.4,304.7c0,.1,0,.3,0,.5-.3.1-.7.1-1.2,0-.5-1.9-2-3.4-1.8-5.4,0-.3-.6-.7-.9-1.1-1-1.2-1.9-2.4-2.9-3.6.2,0,.3,0,.6,0,.6.4,1,.8,1.6,1.4,1.1.8,2,1.5,3,2.1,0,.1,0,.3-.1.5-.3.1-.6.1-.8.1.2.3.4.6.6.9,0,.3.2.5.3,1,.2.8.4,1.3.6,1.9.2,0,.3.2.5.4.2.5.3.8.5,1.2Z"/>
    <path class="st19" d="M224.3,259.7c1.2-2.5,3.4-3,5.8-2.5.8.2,1.5,1,2.1,1.8-2.5-.4-4.8-.9-7.1.8-.4,0-.6,0-.9-.2Z"/>
    <path class="st33" d="M215.9,222.1c.3-.2.9-.3.9-.5.3-1.3-.3-2.1-1.4-2.7-1.6-.8-3.2-1.7-4.8-2.6,0-.3.3-.6.4-.7,1.9.9,3.7,1.8,5.6,2.7,1.4.6,2.1,3.1,1.1,4.2-.7.8-1.3.8-1.7-.3Z"/>
    <path class="st33" d="M232.9,219.1c-.2.1-.3.2-.6.2-.8-.2-1.4-.4-2-.5-.8-.2-.9-.7,0-.9,1.2-.3,2.4-.4,3.6-.5.4,0,1,0,1.2-.3,1.4-1.8,3.4-.9,5.2-1.2-2.1,1-4.3,2-6.6,2.9-.3,0-.5.3-.7.4Z"/>
    <path class="st28" d="M262.6,227.8c-.8,0-1.5-.2-2.2,0-2.1.4-4.1.7-6.1-.4.2-.1.5-.2.9-.4.4,0,.8,0,1.2,0,1.5,0,2.9.4,4.2.2,1.6-.2,3.2-.8,4.8-1.1.5-.1,1-.2,1.6-.1-1.4.7-2.9,1.4-4.4,2Z"/>
    <path class="st33" d="M276,243.4c1.1,0,1.3-.6,1.3-1.4,0-.9.2-1.8.4-2.8.9,1.6.5,5.8-.6,6.8-.3.2-1,.2-1.3,0-.3-.2-.5-.7-.5-1.1,0-.5.4-1,.7-1.5Z"/>
    <path class="st9" d="M238.3,230.6c-1,.5-2,.9-3.2,1.5-.3.2-.5.3-.6.3-.4,0-.8,0-1.1-.1,2-2.2,4.5-3.5,7.4-4.1-.2.5-.5.8-.9,1.2-.6.4-1.1.8-1.6,1.1Z"/>
    <path class="st23" d="M222.1,289.4c.4-2.2,1-4.3,1.5-6.5.6-.1,1.1-.2,1.9-.2-.5.9-.3,1.6-1.1,2.5-1.1,1.2-1,3.4-1.4,5.3-.3-.3-.6-.7-.9-1.1Z"/>
    <path class="st22" d="M237.5,304.7c-.3-.3-.4-.7-.5-1.2,2.8-.3,5.6-.5,8.6-.7-1.2.4-2.5.9-3.9,1.2-1.3.3-2.7.4-4.2.6Z"/>
    <path class="st9" d="M216.2,231.5c-.5-.1-1.1-.2-1.8-.4-1.2-.8-2.3-1.5-3.3-2.3-.3-.6-.6-1-.9-1.5.2,0,.3-.1.6-.2,0,0,.2,0,.3,0,.3.1.5.2.7.3.1,0,.3.2.6.4,1.7.9,3.3,1.7,3.8,3.7Z"/>
    <path class="st20" d="M194.8,222.6c1.1,2.1,3.2,2.6,5.1,3.3-1.3-.2-2.5-.5-3.7-.7,0,0,0,0,0,0-.2,0-.3,0-.4,0-.3-.2-.7-.4-1-.7,0,1-.2,2-.4,3.1,0-.9,0-1.9-.1-2.8,0-.9-.2-1.7-.2-2.7.2,0,.3,0,.5.2.1.1.2.2.3.3Z"/>
    <path class="st28" d="M231,224c.2-.1.5-.1.8-.1,0,2.4,0,4.8-.2,7.1-.2,0-.4,0-.7,0,0-2.3,0-4.6,0-7Z"/>
    <path class="st33" d="M216.3,231.5c-.6-1.9-2.2-2.7-3.8-3.6,1-1,1.9-.3,2.7.4.8.7,1.4,1.7,2.3,2.6-.3.2-.6.4-1.1.6Z"/>
    <path class="st22" d="M230.5,262.8c-.3-.2-.5-.3-.7-.5,2.3-1.1,3.4-.7,3.8,1.4-1-.2-1.9-.6-3-.9Z"/>
    <path class="st33" d="M287.9,248.2c-.7.1-1.2.2-1.7.3,0-.2-.1-.4-.2-.6,1.7-.6,3.4-1.2,5.1-1.8,0,.2.2.4.3.7-1.1.5-2.2.9-3.4,1.4Z"/>
    <path class="st22" d="M224.2,259.7c.3,0,.6.1.9.2.2.5.4.9.5,1.5-1,.2-1.9.4-3.1.5.4-.7,1-1.4,1.7-2.2Z"/>
    <path class="st29" d="M273.5,281.9c-1,1.7-1.9,3.3-3.1,4.9-.3,0-.4-.2-.5-.3,1.1-1.6,2.1-3.3,3.2-5,.2,0,.3.2.4.4Z"/>
    <path class="st22" d="M235.7,298.6c-.9-.5-1.9-1.2-2.9-2,1.5-.2,2.5.3,2.9,2Z"/>
    <path class="st22" d="M220.1,282.4c0,.8,0,1.5,0,2.4-.7-.6-1.3-1.3-2-2,0-.1.1-.3.2-.4.5,0,1.1,0,1.8,0Z"/>
    <path class="st33" d="M277.8,236.3c.3-1.3.7-2.7,1.3-4.1-.3,1.3-.7,2.7-1.3,4.1Z"/>
    <path class="st33" d="M213.4,220.2c.8.5,1.6,1,2.5,1.7-1.3.3-2.3,0-2.5-1.7Z"/>
    <path class="st22" d="M230.3,218.9c.6,0,1.2.2,1.9.4-.5.8-1,.7-1.7.2-.1-.2-.1-.3-.1-.6Z"/>
    <path class="st33" d="M238,233c.8,0,1.6,0,2.4.1-.7,0-1.6,0-2.4-.1Z"/>
    <path class="st33" d="M234.5,232.5c.1-.2.3-.3.5-.4.5.2.9.3,1.3.6-.6.4-1.3,1.1-1.9-.2Z"/>
    <path class="st22" d="M235.6,300.3c-.3-.3-.5-.6-.7-.9.2,0,.5,0,.8,0,.3.2.4.4.6.7-.2.1-.4.2-.7.3Z"/>
    <path class="st22" d="M236.4,303c-.2-.4-.4-1-.6-1.7.2.4.4,1,.6,1.7Z"/>
    <path class="st33" d="M262.5,223.7c.1.4.1.8.1,1.2-.2,0-.4,0-.7,0,.2-.4.3-.8.6-1.1Z"/>
    <path class="st28" d="M269.8,286.5c.2,0,.3.2.5.4,0,.4-.3.8-.6,1.2-.1-.2-.2-.5-.3-.8,0-.3.2-.5.4-.7Z"/>
    <path class="st22" d="M227.4,261.7c-.4,0-.7,0-1.2,0,.3,0,.7,0,1.2,0Z"/>
    <path class="st33" d="M211.8,219.8c.3,0,.5,0,.9.2,0,.2-.3.4-.4.6-.1-.2-.3-.5-.4-.8Z"/>
    <path class="st33" d="M278,237.9c-.2-.2-.2-.5-.3-.8,1-.1.7.3.3.8Z"/>
    <path class="st33" d="M205.7,217.6c.3,0,.5,0,.9.1-.2,0-.6,0-.9-.1Z"/>
    <path class="st22" d="M229,262.1c-.3,0-.5,0-.9,0,.2,0,.5,0,.9,0Z"/>
    <path class="st22" d="M234.4,264.4c-.3,0-.6-.2-.9-.4.3,0,.6.2.9.4Z"/>
    <path class="st33" d="M207.3,217.9c.3,0,.6.2.9.4-.3,0-.6-.2-.9-.4Z"/>
    <path class="st9" d="M238.4,280.8c0-.2,0-.3,0-.6.2.1.4.3.5.5,0,0,0,0-.1.1-.1,0-.3,0-.4-.1Z"/>
    <path class="st33" d="M244.1,233.6c.1,0,.3,0,.5,0,0,.2,0,.3-.1.5-.1-.1-.3-.2-.4-.4Z"/>
    <path class="st33" d="M211.7,227.4c-.2,0-.4,0-.6-.2.1,0,.4,0,.6.2Z"/>
    <path class="st19" d="M214.9,263.2s-.1,0-.2,0,0-.1,0-.1c0,0,.1,0,.2,0Z"/>
    <path class="st22" d="M220.2,285.6c0,0,.1,0,.2.3,0,0-.1,0-.2-.3Z"/>
    <path class="st33" d="M276,239.9c0,0,0,0,0,.2,0,0,0,0,0-.2Z"/>
    <path class="st23" d="M221.1,290.1c0,0,.2,0,.2,0,0,0,0,.2-.2.3,0,0,0,0,0-.2Z"/>
    <path class="st28" d="M231.1,232s0,0,0,0Z"/>
    <path class="st23" d="M193.4,221.2c0,0,.1,0,.1.1,0,0-.1,0-.1-.1Z"/>
    <path class="st32" d="M210.1,227.3c.4.5.7,1,1,1.6-.3.8-.5,1.4-.8,1.9-1.7-.2-3.4-.4-5.3-.8-.3-.9-.5-1.7-.7-2.7.1-1.3-.7-.9-1.3-1-.4,0-.8-.3-1.2-.4,2.8-.5,5.5.3,8.2,1.3Z"/>
    <path class="st15" d="M201.7,226c.5.2.9.4,1.3.4.6.1,1.5-.3,1.2.9-1.5.2-3-.4-3.8,1.2-1.9-.5-3.5-1.4-4.4-3.4,1.3.2,2.5.5,3.8.7.7,0,1.2,0,1.8,0Z"/>
    <path class="st24" d="M200.6,228.7c.7-1.7,2.2-1.1,3.6-1.1.3.9.5,1.7.7,2.6-1.4-.4-2.8-.9-4.3-1.5Z"/>
    <path class="st24" d="M210.5,230.9c.1-.6.4-1.1.7-1.8,1.1.6,2.1,1.3,3.2,2,0,0-.2,0-.5,0-1.1,0-2.2-.2-3.4-.3Z"/>
    <path class="st15" d="M195.8,225.2c0,0,.1-.1.3-.1,0,0-.1.1-.3.1Z"/>
    <path class="st33" d="M224.9,270.6c0,.1,0,.3,0,.6.3.3.7.5,1,.6,1.9,1.2,3.8,2.4,5.5,3.8-2.3,0-4.4,0-6.6-.1-1.6,0-3.1,0-4.7,0-2.4-.2-4.7-.4-7.1-.7,0,0,0-.1,0-.3,0-.2.1-.2.4-.4,2-1,3.9-1.9,5.9-2.9.6.2,1.1.2,1.4.4,1,.8,1.8.7,2.6-.2.3-.3.7-.6,1.2-.9.2,0,.4,0,.5,0,0,0,0,0,0,0Z"/>
    <path class="st20" d="M219.1,271.2c-1.9,1-3.7,1.9-5.7,2.9.5-.6,1.1-1.1,1.9-1.8,2-1,3.2-2.3,3.8-4.2,0,0,0,0,.2,0,.4,0,.8,0,1.1,0-.4,1.1-.9,2.1-1.3,3Z"/>
    <path class="st19" d="M220.4,268c-.3,0-.6,0-1.1,0,.5-1.2,1.1-2.4,1.7-3.8,1.4,0,1.3.7.9,1.7-1.8-.9-.9.6-1.1,1.2-.1.3-.2.6-.4.8Z"/>
    <path class="st15" d="M219,268c-.4,1.9-1.7,3.3-3.6,4.1,1.1-1.4,2.3-2.8,3.6-4.1Z"/>
    <path class="st9" d="M230.6,295.2c1,1.2,2,2.4,2.9,3.6.3.4.9.8.9,1.1-.2,2,1.3,3.5,1.7,5.4,0,.2,0,.4,0,.7-1.4.8,0,1,0,1.4-.2.2-.3.4-.6.6-1-.5-1,.1-1.1,1-.2.8-.3,1.3-.3,1.9,0,.3.3.7.4,1,0,.7,0,1.4-.2,2-.4-.8-1-1.6-.9-2.2.6-2.7.5-5.4-.2-8.1-.6-2.4-1.7-4.5-3.6-6.2-.7-1-1.3-1.9-1.8-2.7.9.2,1.7.3,2.5.5,0,0,.1,0,.2,0Z"/>
    <path class="st29" d="M238.6,307.4c-.7,0-1.4,0-2.2-.1,0-.5,0-.7,0-.9.7.3,1.5.7,2.2,1.1Z"/>
    <path class="st20" d="M236.3,306.3c0,.3,0,.5,0,.9,0,.1-.1.1-.3.1-.2-.4-1.5-.7-.2-1.3.2,0,.2.2.4.3Z"/>
    <path class="st29" d="M246.6,307.3s-.1,0-.2,0c0,0,0,0,.2,0Z"/>
    <path class="st19" d="M212,218.5c-.1,0-.3,0-.4,0,0,0,0,0,0-.2.1,0,.3,0,.4,0Z"/>
    <path class="st27" d="M298.5,238.2c.2-2.3.6-4.6.9-6.9.4-2.9-.5-5.4-2.5-7.6,1,0,1.8-.5,2.5,1.3,1.2,3,1,5.9.9,8.8,0,1.5-1.1,2.9-1.7,4.4Z"/>
    <path class="st10" d="M290,253.8c0,0,.2.1.2.2,0,0-.1,0-.2,0,0,0,0-.1,0-.2Z"/>
    <path class="st29" d="M213,274.8c2.4.1,4.8.4,7.1.6,1.6.1,3.1,0,4.7,0,2.2,0,4.3.2,6.6.3.6.4,1.1.7,1.7,1.2-3.9,0-7.9.1-11.9,0-1.7,0-3.3-.5-5-.5-1.7,0-3.4.3-5.2.5.6-.7,1.3-1.4,2-2.1Z"/>
    <path class="st8" d="M229.7,297.4c1.9,1.6,2.9,3.7,3.5,6.1.7,2.7.8,5.4.2,8.1-.1.6.5,1.4.8,2.3-.9,2.9-1.9,5.6-2.9,8.3-.3.7-.6,1.4-1.1,2.3-.7,2.1-1.3,4.2-1.9,6.2-.1.2-.3.4-.6.6-.5.2-.9.4-.9.6-.2,1.2-.2,2.3-.4,3.5,0,0,0,0-.1,0-.7.6-1.5,1.2-.8,2.2,0,.3-.2.5-.4.9-.3.4-.4.7-.6,1.1,0,.2,0,.5,0,.9,0,.3,0,.4,0,.6-.2.1-.5.1-.8,0,0-.8,0-1.6,0-2.3,0-1.6,0-3.2,0-4.8-.1,0-.3,0-.4,0-.2.8-.4,1.6-.7,2.6-2.3-2.2-.4-4.5-1.1-6.6-1,1.1-1.6.9-2.3-.4-.9-1.5-.8-3.7-2.9-4.5,0-.4-.2-.9-.3-1.5-.3-.6-.6-1-1-1.3-2.3-4.2-3.6-8.7-4.2-13.4-.4-2.8-.2-5.6-.2-8.4,0-.6.6-1.1.9-1.9,0-.5,0-.7,0-1,0,0,0,0,0,0,2-.2,3.3-1.8,5-2.6.6-.2,1.2-.4,2-.6,1.5,0,2.8-.3,3.8.9.1.1.5.2.8,0,1.3-.4,1.7.3,2,1.3.2.5.5,1,.8,1.7.3-1,.5-1.8.9-3.1,1,1.1,1.6,1.9,2.4,2.8,0,0,.3-.4.6-.8Z"/>
    <path class="st32" d="M216.2,325.3c2.1.6,2,2.8,2.9,4.3.8,1.3,1.3,1.5,2.3.4.7,2.1-1.2,4.4,1.1,6.6.3-1.1.5-1.8.7-2.6.1,0,.3,0,.4,0,0,1.6,0,3.2,0,4.8,0,.7,0,1.4,0,2.3-1,2.2-1.9,4.4-3.2,6.2-1.4,1.9-3.2,3.5-4.9,5.3-.1.1-.2.3-.4.4-.6.3-1.2.6-1.8.9-.2-.5-.4-1.1-.7-1.8.2-.7.4-1.2.7-1.9.4-.3,1.1-.4,1.2-.8.6-2,1.3-3.9,1.6-6,.4-2.1.5-4.2.7-6.4.7-4,.3-7.9-.6-11.8Z"/>
    <path class="st14" d="M215,324.8c-.3-.4-.6-1-.9-1.7.3.5.6,1,.9,1.7Z"/>
    <path class="st32" d="M215,322.4c.3.3.6.6.9,1.1-.3-.3-.6-.6-.9-1.1Z"/>
    <path class="st9" d="M211.3,297.7c.1.2.1.5,0,.8,0-.2-.1-.5,0-.8Z"/>
    <path class="st14" d="M214,321.9c-.2,0-.4-.2-.6-.5.2,0,.4.2.6.5Z"/>
    <path class="st14" d="M215.3,325.8c0,0-.1,0-.3-.2,0,0,.1,0,.3.2Z"/>
    <path class="st32" d="M228.5,330.6c.5-1.9,1-4,1.7-6-.5,2-1,3.9-1.7,6Z"/>
    <path class="st32" d="M226.6,335.4c0-1.1,0-2.3.3-3.5,0-.2.5-.4.8-.6.1.1.1.3,0,.5-.2.1-.2.2-.3.2.1,0,.3.1.4.2-.4,1-.7,2-1.2,3.1Z"/>
    <path class="st32" d="M225.6,337.6c-.7-1,0-1.5.8-2.2-.1.7-.4,1.4-.8,2.2Z"/>
    <path class="st8" d="M234.5,311.7c-.2-.2-.4-.6-.4-.9,0-.6.2-1.1.3-1.8,0,.3,0,.6,0,1.2,0,.4,0,.5,0,.7,0,.2,0,.5,0,.8Z"/>
    <path class="st32" d="M224.7,339.6c0-.3.2-.6.4-.9,0,.3-.2.6-.4.9Z"/>
    <path class="st9" d="M234.5,310.8c0,0,0-.2,0-.5,0,0,.1.3,0,.5Z"/>
    <path class="st8" d="M227.8,332.2c-.1,0-.3,0-.4-.1,0,0,.2,0,.3-.1,0,0,0,.2,0,.2Z"/>
    <path class="st14" d="M212.6,358s0,0,0,0Z"/>
    <path class="st20" d="M230.3,295c-.8,0-1.6-.3-2.6-.5-1-.2-1.8-.4-2.5-.7-.5-.3-1.1-.7-1.6-1.1,2.5-.3,4.8.2,6.7,2.2Z"/>
    <path class="st20" d="M220,292.6c-.3.3-.7.8-1.2.8-.9,0-1.8,0-2.8-.1,1.1-.7,2.4-1.5,4-.7Z"/>
    <path class="st20" d="M221.9,292.6c-.2,0-.5.1-.8,0,.2,0,.5-.1.8,0Z"/>
    <path class="st20" d="M222.3,292.6c0,0-.1,0-.2,0,0,0,0,0,.2,0Z"/>
    <path class="st2" d="M225.1,293.9c.9.2,1.7.4,2.5.7.7.9,1.4,1.8,2,2.8-.2.4-.5.8-.5.9-.8-.9-1.4-1.7-2.4-2.8-.4,1.3-.6,2-.9,3.1-.4-.7-.6-1.2-.8-1.7-.4-1-.8-1.7-2-1.3-.2,0-.6,0-.8,0-1-1.2-2.3-.8-3.6-.9.4-.3,1-.8,1.5-.9,1.6,0,3.2.1,4.9.2Z"/>
    <path class="st19" d="M276.7,216.9c.1.6.2,1.2.3,2,0,.1,0,.1,0,.1-.1,1.1-.2,2.3-.3,3.4,0,.7-.2,1.3-.4,2,0-2.4.2-5,.4-7.6Z"/>
    <path class="st19" d="M277,219.1s0,0,.1.1c0,0,0,0,0,0,0,0,0,0,0,0Z"/>
    <path class="st19" d="M279.7,230.9c0,0,0,.2-.1.2,0,0,0-.1.1-.2Z"/>
    <path class="st33" d="M294.9,222.5c-.2,0-.4,0-.6-.1,0-.2.1-.4.2-.6.1.2.2.4.3.7Z"/>
    <path class="st22" d="M233,219.1c0-.1.3-.3.5-.4,0,.2-.2.3-.5.4Z"/>
    <path class="st0" d="M239.1,280.8c-.3-.2-.4-.4-.7-.6-1.8-1.5-3.3-3.1-5.1-4.5-2.3-1.8-4.7-3.5-7.1-5.3-.6-.9-1.2-1.7-1.7-2.5-.5-.9-1.1-1.9-1.5-2.9-.4-1,.7-2.2,1.9-2,1.3.3,2.6.6,3.9.9,1.4.5,2.8.9,4,1.5,1,.4,2,.9,2.9,1.5,2.1,1.5,3.1,3.6,3.8,6,1,3.4,2.2,6.8,3.4,10.6-1-.7-1.8-1.3-2.7-1.9-.4-.3-.7-.5-1.2-.8Z"/>
    <path class="st3" d="M208.4,258.5c-1.4-2.6-1.1-4.4,1.3-5.8v7.2c-.6-.6-.9-1-1.3-1.4Z"/>
    <path class="st32" d="M239.9,229.4c.3-.3.6-.7,1-1.1,1.1-.3,2.1-.4,3.4-.5.4,0,.5-.1.7-.2.6,0,1.1-.2,1.8-.2.2,0,.3,0,.3,0h.1c1.6-.1,3.2-.1,4.9-.1-.4.2-1,.4-1.6.5-.8.2-1.6.4-2.5.7-.3.2-.5.3-.8.4,0,0,0,.1,0,.3,0,.2,0,.3-.1.3-.1,0-.2,0-.2,0,0,0,.2,0,.3.2,0,.4-.1.6-.2.9-.4.3-.8.6-1.2,1.1-1.5,0-2.9-.2-4.5-.5-.6-.7-1-1.2-1.5-1.8Z"/>
    <path class="st15" d="M245,227.4c-.1.2-.3.2-.5.3.1-.1.3-.3.5-.3Z"/>
    <path class="st15" d="M247.2,227.2c0,0,0,.1,0,.1,0,0-.2,0-.2,0,0,0,0,0,.2,0Z"/>
    <path class="st28" d="M220.4,268.1c.1-.4.2-.6.5-.9.5-.2.8-.3,1.2-.5.7,1,1.4,2,2.2,3.2,0,.3,0,.5,0,.6-.4.3-.7.6-1,.9-.8.9-1.6,1-2.6.2-.3-.3-.8-.3-1.4-.4.3-1,.7-2,1.2-3.1Z"/>
    <path class="st20" d="M222,266.6c-.3.2-.7.3-1.2.5,0-.5-.7-2,1-1,.1.2.1.3.1.5Z"/>
    <path class="st19" d="M224.4,270.6c-.1-.2-.1-.3-.1-.5.2.1,1.2-.8.7.5-.2,0-.3,0-.6,0Z"/>
    <path class="st24" d="M239.9,229.5c.5.5.9,1,1.4,1.6-.9,0-1.9-.2-2.9-.4.4-.4.9-.8,1.5-1.2Z"/>
    <path class="st28" d="M225.8,271.7c-.3,0-.6-.2-.9-.4.3,0,.6.2.9.4Z"/>
    <path class="st24" d="M247.3,229.4c0,0,0-.2,0-.4,0-.1,0-.2,0-.2.2,0,.4-.2.8-.3.5,0,.8,0,1.3.1,0,1.6,1.3.8,2.1,1.5-1.4.2-2.8.4-4.2.6,0-.3,0-.6.1-1,0-.2,0-.3,0-.3Z"/>
    <path class="st23" d="M247.2,229.4c0,0,.1.1.1.2-.1,0-.2,0-.3,0,0,0,0,0,.2,0Z"/>
    <path class="st23" d="M247.2,228.8c0,0,.1.1,0,.1,0,0-.1-.1,0-.1Z"/>
  </g>
</svg>